<svg width="50" height="48" viewBox="0 0 50 48" fill="none" xmlns="http://www.w3.org/2000/svg">
<g clip-path="url(#clip0)">
<path d="M37.0394 5.33007C36.9775 5.32991 36.9158 5.32358 36.8552 5.31118C36.7948 5.29899 36.7356 5.28096 36.6786 5.25734C36.6214 5.23387 36.5667 5.20476 36.5152 5.17045C36.4635 5.13644 36.4154 5.09719 36.3717 5.05334C36.328 5.00944 36.2888 4.96136 36.2546 4.90978C36.2206 4.85811 36.1915 4.80341 36.1677 4.74639C36.1441 4.6894 36.126 4.63025 36.1138 4.56977C36.0887 4.44797 36.0887 4.3223 36.1138 4.20049C36.1381 4.07935 36.1859 3.96416 36.2546 3.86143C36.3232 3.75781 36.4119 3.66888 36.5152 3.59981C36.5667 3.5655 36.6214 3.53639 36.6786 3.51292C36.7356 3.48931 36.7948 3.47128 36.8552 3.45909C36.9771 3.43454 37.1027 3.43454 37.2245 3.45909C37.2849 3.47154 37.3441 3.48956 37.4011 3.51292C37.4576 3.53666 37.5117 3.56575 37.5626 3.59981C37.6144 3.63416 37.6625 3.67372 37.7062 3.71787C37.7939 3.80543 37.8636 3.90941 37.9111 4.02388C37.9348 4.08087 37.9528 4.14002 37.965 4.20049C37.9889 4.32242 37.9889 4.44784 37.965 4.56977C37.9528 4.63025 37.9348 4.6894 37.9111 4.74639C37.8873 4.80341 37.8582 4.85811 37.8243 4.90978C37.7894 4.96114 37.7499 5.0092 37.7062 5.05334C37.6625 5.09719 37.6144 5.13644 37.5626 5.17045C37.5114 5.20456 37.457 5.23366 37.4002 5.25734C37.3431 5.2807 37.284 5.29872 37.2236 5.31118C37.163 5.32349 37.1013 5.32982 37.0394 5.33007Z" fill="white"/>
<path d="M44.1253 44.5593H5.87451C4.56023 44.5568 3.30054 44.0334 2.37146 43.1038C1.44239 42.1742 0.919716 40.9142 0.917969 39.5999V8.40146C0.919469 7.08637 1.44255 5.82556 2.37247 4.89565C3.30238 3.96573 4.56319 3.44265 5.87829 3.44115H32.3176C32.5681 3.44115 32.8083 3.54065 32.9854 3.71777C33.1625 3.89489 33.262 4.13512 33.262 4.38561C33.262 4.6361 33.1625 4.87632 32.9854 5.05344C32.8083 5.23057 32.5681 5.33007 32.3176 5.33007H5.87829C5.06393 5.33082 4.28315 5.65465 3.70731 6.23049C3.13148 6.80633 2.80764 7.58711 2.80689 8.40146V39.5999C2.80789 40.4141 3.13184 41.1946 3.70765 41.7703C4.28346 42.3459 5.0641 42.6696 5.87829 42.6704H44.129C44.9426 42.6686 45.7222 42.3445 46.2972 41.7689C46.8722 41.1934 47.1957 40.4134 47.1967 39.5999V8.40146C47.1959 7.58711 46.8721 6.80633 46.2962 6.23049C45.7204 5.65465 44.9396 5.33082 44.1253 5.33007H41.7641C41.5136 5.33007 41.2734 5.23057 41.0963 5.05344C40.9191 4.87632 40.8196 4.6361 40.8196 4.38561C40.8196 4.13512 40.9191 3.89489 41.0963 3.71777C41.2734 3.54065 41.5136 3.44115 41.7641 3.44115H44.1253C45.4404 3.44265 46.7012 3.96573 47.6311 4.89565C48.561 5.82556 49.0841 7.08637 49.0856 8.40146V39.5999C49.0838 40.9148 48.5606 42.1754 47.6307 43.1051C46.7009 44.0348 45.4402 44.5578 44.1253 44.5593Z" fill="white"/>
<path d="M20.0454 8.16346H17.212C16.9616 8.16346 16.7213 8.06396 16.5442 7.88683C16.3671 7.70971 16.2676 7.46949 16.2676 7.219C16.2676 6.96851 16.3671 6.72828 16.5442 6.55116C16.7213 6.37404 16.9616 6.27454 17.212 6.27454H20.0454C20.1695 6.27454 20.2923 6.29897 20.4069 6.34643C20.5215 6.39389 20.6256 6.46346 20.7133 6.55116C20.801 6.63886 20.8705 6.74298 20.918 6.85757C20.9655 6.97216 20.9899 7.09497 20.9899 7.219C20.9899 7.34303 20.9655 7.46584 20.918 7.58043C20.8705 7.69502 20.801 7.79913 20.7133 7.88683C20.6256 7.97454 20.5215 8.0441 20.4069 8.09157C20.2923 8.13903 20.1695 8.16346 20.0454 8.16346Z" fill="white"/>
<path d="M14.3787 8.16346H11.5453C11.4212 8.16346 11.2984 8.13903 11.1838 8.09157C11.0692 8.0441 10.9651 7.97454 10.8774 7.88683C10.7897 7.79913 10.7202 7.69502 10.6727 7.58043C10.6252 7.46584 10.6008 7.34303 10.6008 7.219C10.6008 7.09497 10.6252 6.97216 10.6727 6.85757C10.7202 6.74298 10.7897 6.63886 10.8774 6.55116C10.9651 6.46346 11.0692 6.39389 11.1838 6.34643C11.2984 6.29897 11.4212 6.27454 11.5453 6.27454H14.3787C14.6291 6.27454 14.8694 6.37404 15.0465 6.55116C15.2236 6.72828 15.3231 6.96851 15.3231 7.219C15.3231 7.46949 15.2236 7.70971 15.0465 7.88683C14.8694 8.06396 14.6291 8.16346 14.3787 8.16346Z" fill="white"/>
<path d="M8.71196 8.16346H5.87857C5.62808 8.16346 5.38785 8.06396 5.21073 7.88683C5.03361 7.70971 4.9341 7.46949 4.9341 7.219C4.9341 6.96851 5.03361 6.72828 5.21073 6.55116C5.38785 6.37404 5.62808 6.27454 5.87857 6.27454H8.71196C8.96244 6.27454 9.20267 6.37404 9.37979 6.55116C9.55691 6.72828 9.65642 6.96851 9.65642 7.219C9.65642 7.46949 9.55691 7.70971 9.37979 7.88683C9.20267 8.06396 8.96244 8.16346 8.71196 8.16346Z" fill="white"/>
<path d="M48.1411 10.9968H1.86243C1.61194 10.9968 1.37172 10.8973 1.1946 10.7202C1.01747 10.5431 0.917969 10.3029 0.917969 10.0524C0.917969 9.8019 1.01747 9.56167 1.1946 9.38455C1.37172 9.20743 1.61194 9.10792 1.86243 9.10792H48.1411C48.3916 9.10792 48.6318 9.20743 48.809 9.38455C48.9861 9.56167 49.0856 9.8019 49.0856 10.0524C49.0856 10.3029 48.9861 10.5431 48.809 10.7202C48.6318 10.8973 48.3916 10.9968 48.1411 10.9968Z" fill="white"/>
<path d="M22.8444 26.5881C22.7203 26.5884 22.5974 26.5641 22.4828 26.5166C22.3682 26.4691 22.2641 26.3993 22.1766 26.3113L19.8467 23.9813C19.6746 23.8032 19.5794 23.5646 19.5816 23.317C19.5837 23.0694 19.6831 22.8325 19.8582 22.6574C20.0333 22.4823 20.2702 22.3829 20.5178 22.3808C20.7654 22.3786 21.004 22.4738 21.1821 22.6459L22.8444 24.3081L28.8209 18.3334C28.9991 18.1614 29.2376 18.0662 29.4853 18.0684C29.7329 18.0705 29.9698 18.1698 30.1449 18.3449C30.32 18.5201 30.4193 18.7569 30.4215 19.0046C30.4236 19.2522 30.3284 19.4908 30.1564 19.6689L23.5121 26.3132C23.4245 26.4009 23.3204 26.4703 23.2058 26.5175C23.0911 26.5647 22.9683 26.5886 22.8444 26.5881Z" fill="white"/>
<path d="M25.0029 31.7571C23.1365 31.7573 21.312 31.204 19.7601 30.1672C18.2082 29.1304 16.9986 27.6567 16.2842 25.9325C15.5699 24.2082 15.383 22.3108 15.7471 20.4803C16.1111 18.6498 17.0098 16.9683 18.3296 15.6486C19.6493 14.3289 21.3307 13.4302 23.1613 13.0661C24.9918 12.702 26.8891 12.889 28.6134 13.6033C30.3377 14.3176 31.8114 15.5272 32.8482 17.0791C33.8849 18.631 34.4382 20.4556 34.438 22.3219C34.4355 24.8235 33.4407 27.2219 31.6718 28.9908C29.9029 30.7597 27.5045 31.7546 25.0029 31.7571ZM25.0029 14.7747C23.5101 14.7745 22.0509 15.217 20.8096 16.0462C19.5683 16.8754 18.6009 18.054 18.0295 19.4331C17.4581 20.8121 17.3085 22.3297 17.5996 23.7937C17.8907 25.2578 18.6094 26.6027 19.6649 27.6583C20.7204 28.7139 22.0651 29.4328 23.5292 29.724C24.9932 30.0153 26.5108 29.8659 27.8899 29.2947C29.269 28.7235 30.4478 27.7562 31.2771 26.515C32.1065 25.2739 32.5491 23.8147 32.5491 22.3219C32.5469 20.3211 31.7511 18.4029 30.3364 16.9881C28.9218 15.5732 27.0036 14.7772 25.0029 14.7747Z" fill="white"/>
<path d="M38.3666 35.5349H21.3077C21.0572 35.5349 20.817 35.4354 20.6399 35.2583C20.4627 35.0812 20.3632 34.841 20.3632 34.5905C20.3632 34.34 20.4627 34.0998 20.6399 33.9226C20.817 33.7455 21.0572 33.646 21.3077 33.646H38.3666C38.6171 33.646 38.8573 33.7455 39.0344 33.9226C39.2115 34.0998 39.311 34.34 39.311 34.5905C39.311 34.841 39.2115 35.0812 39.0344 35.2583C38.8573 35.4354 38.6171 35.5349 38.3666 35.5349Z" fill="white"/>
<path d="M16.2117 35.5349H11.6376C11.3871 35.5349 11.1469 35.4354 10.9698 35.2583C10.7927 35.0812 10.6932 34.841 10.6932 34.5905C10.6932 34.34 10.7927 34.0998 10.9698 33.9226C11.1469 33.7455 11.3871 33.646 11.6376 33.646H16.2117C16.4621 33.646 16.7024 33.7455 16.8795 33.9226C17.0566 34.0998 17.1561 34.34 17.1561 34.5905C17.1561 34.841 17.0566 35.0812 16.8795 35.2583C16.7024 35.4354 16.4621 35.5349 16.2117 35.5349Z" fill="white"/>
<path d="M38.3659 38.3683H11.6376C11.3871 38.3683 11.1469 38.2688 10.9698 38.0917C10.7927 37.9146 10.6932 37.6744 10.6932 37.4239C10.6932 37.1734 10.7927 36.9332 10.9698 36.756C11.1469 36.5789 11.3871 36.4794 11.6376 36.4794H38.3659C38.6164 36.4794 38.8566 36.5789 39.0338 36.756C39.2109 36.9332 39.3104 37.1734 39.3104 37.4239C39.3104 37.6744 39.2109 37.9146 39.0338 38.0917C38.8566 38.2688 38.6164 38.3683 38.3659 38.3683Z" fill="white"/>
<path d="M30.2693 41.2027H28.6486C28.3981 41.2027 28.1579 41.1032 27.9808 40.926C27.8037 40.7489 27.7042 40.5087 27.7042 40.2582C27.7042 40.0077 27.8037 39.7675 27.9808 39.5904C28.1579 39.4132 28.3981 39.3137 28.6486 39.3137H30.2693C30.5198 39.3137 30.7601 39.4132 30.9372 39.5904C31.1143 39.7675 31.2138 40.0077 31.2138 40.2582C31.2138 40.5087 31.1143 40.7489 30.9372 40.926C30.7601 41.1032 30.5198 41.2027 30.2693 41.2027Z" fill="white"/>
<path d="M26.0074 41.2027H19.7343C19.4838 41.2027 19.2436 41.1032 19.0665 40.926C18.8893 40.7489 18.7898 40.5087 18.7898 40.2582C18.7898 40.0077 18.8893 39.7675 19.0665 39.5904C19.2436 39.4132 19.4838 39.3137 19.7343 39.3137H26.0074C26.2579 39.3137 26.4981 39.4132 26.6753 39.5904C26.8524 39.7675 26.9519 40.0077 26.9519 40.2582C26.9519 40.5087 26.8524 40.7489 26.6753 40.926C26.4981 41.1032 26.2579 41.2027 26.0074 41.2027Z" fill="white"/>
</g>
<defs>
<clipPath id="clip0">
<rect width="48.1676" height="47.9997" fill="white" transform="translate(0.917969 0.00012207)"/>
</clipPath>
</defs>
</svg>
