<svg width="50" height="48" viewBox="0 0 50 48" fill="none" xmlns="http://www.w3.org/2000/svg">
<g clip-path="url(#clip0)">
<path d="M37.0396 5.32995C36.9777 5.32979 36.916 5.32346 36.8554 5.31106C36.7949 5.29886 36.7358 5.28083 36.6788 5.25722C36.6216 5.23375 36.5669 5.20464 36.5154 5.17033C36.4637 5.13631 36.4156 5.09707 36.3719 5.05322C36.1955 4.87561 36.0961 4.63576 36.0951 4.38548C36.0951 4.32204 36.1014 4.25876 36.114 4.19659C36.1259 4.13604 36.1439 4.07686 36.1679 4.01998C36.239 3.84821 36.3601 3.70179 36.5154 3.59969C36.5669 3.56538 36.6216 3.53627 36.6788 3.5128C36.7358 3.48919 36.7949 3.47116 36.8554 3.45896C36.977 3.43441 37.1022 3.43441 37.2238 3.45896C37.2842 3.47116 37.3434 3.48919 37.4004 3.5128C37.4573 3.53633 37.5117 3.56543 37.5628 3.59969C37.6143 3.634 37.6624 3.67322 37.7064 3.7168C37.7502 3.76085 37.7895 3.80927 37.8235 3.86131C37.8576 3.91254 37.8867 3.96694 37.9104 4.02375C37.9343 4.08064 37.9523 4.13982 37.9642 4.20037C37.9894 4.32218 37.9894 4.44784 37.9642 4.56965C37.9525 4.63024 37.9344 4.68943 37.9104 4.74627C37.8865 4.80329 37.8574 4.85799 37.8235 4.90966C37.7893 4.96123 37.75 5.00932 37.7064 5.05322C37.6627 5.09707 37.6146 5.13631 37.5628 5.17033C37.5114 5.20464 37.4566 5.23375 37.3994 5.25722C37.3424 5.28083 37.2833 5.29886 37.2228 5.31106C37.1625 5.3234 37.1011 5.32973 37.0396 5.32995Z" fill="white"/>
<path d="M44.1253 44.5593H5.87451C4.56023 44.5568 3.30054 44.0334 2.37146 43.1038C1.44239 42.1742 0.919716 40.9142 0.917969 39.5999V8.40149C0.919469 7.08639 1.44255 5.82558 2.37247 4.89567C3.30238 3.96575 4.56319 3.44267 5.87829 3.44117H32.3176C32.5681 3.44117 32.8083 3.54067 32.9854 3.7178C33.1625 3.89492 33.262 4.13515 33.262 4.38563C33.262 4.63612 33.1625 4.87635 32.9854 5.05347C32.8083 5.23059 32.5681 5.33009 32.3176 5.33009H5.87829C5.06393 5.33085 4.28315 5.65468 3.70731 6.23051C3.13148 6.80635 2.80764 7.58713 2.80689 8.40149V39.5999C2.80789 40.4141 3.13184 41.1947 3.70765 41.7703C4.28346 42.3459 5.0641 42.6696 5.87829 42.6704H44.129C44.9426 42.6686 45.7222 42.3445 46.2972 41.769C46.8722 41.1934 47.1957 40.4135 47.1967 39.5999V8.40149C47.1959 7.58713 46.8721 6.80635 46.2962 6.23051C45.7204 5.65468 44.9396 5.33085 44.1253 5.33009H41.7641C41.5136 5.33009 41.2734 5.23059 41.0963 5.05347C40.9191 4.87635 40.8196 4.63612 40.8196 4.38563C40.8196 4.13515 40.9191 3.89492 41.0963 3.7178C41.2734 3.54067 41.5136 3.44117 41.7641 3.44117H44.1253C45.4404 3.44267 46.7012 3.96575 47.6311 4.89567C48.561 5.82558 49.0841 7.08639 49.0856 8.40149V39.5999C49.0838 40.9149 48.5606 42.1754 47.6307 43.1051C46.7009 44.0348 45.4402 44.5578 44.1253 44.5593Z" fill="white"/>
<path d="M20.0454 8.16332H17.212C16.9615 8.16332 16.7213 8.06382 16.5441 7.8867C16.367 7.70958 16.2675 7.46935 16.2675 7.21886C16.2675 6.96837 16.367 6.72815 16.5441 6.55103C16.7213 6.37391 16.9615 6.2744 17.212 6.2744H20.0454C20.1694 6.2744 20.2922 6.29883 20.4068 6.34629C20.5214 6.39376 20.6255 6.46332 20.7132 6.55103C20.8009 6.63873 20.8705 6.74284 20.9179 6.85743C20.9654 6.97202 20.9898 7.09483 20.9898 7.21886C20.9898 7.34289 20.9654 7.4657 20.9179 7.58029C20.8705 7.69488 20.8009 7.799 20.7132 7.8867C20.6255 7.9744 20.5214 8.04397 20.4068 8.09143C20.2922 8.13889 20.1694 8.16332 20.0454 8.16332Z" fill="white"/>
<path d="M14.3787 8.16332H11.5454C11.4213 8.16332 11.2985 8.13889 11.1839 8.09143C11.0693 8.04397 10.9652 7.9744 10.8775 7.8867C10.7898 7.799 10.7203 7.69488 10.6728 7.58029C10.6253 7.4657 10.6009 7.34289 10.6009 7.21886C10.6009 7.09483 10.6253 6.97202 10.6728 6.85743C10.7203 6.74284 10.7898 6.63873 10.8775 6.55103C10.9652 6.46332 11.0693 6.39376 11.1839 6.34629C11.2985 6.29883 11.4213 6.2744 11.5454 6.2744H14.3787C14.6292 6.2744 14.8695 6.37391 15.0466 6.55103C15.2237 6.72815 15.3232 6.96837 15.3232 7.21886C15.3232 7.46935 15.2237 7.70958 15.0466 7.8867C14.8695 8.06382 14.6292 8.16332 14.3787 8.16332Z" fill="white"/>
<path d="M8.712 8.16332H5.87861C5.62813 8.16332 5.3879 8.06382 5.21078 7.8867C5.03366 7.70958 4.93415 7.46935 4.93415 7.21886C4.93415 6.96837 5.03366 6.72815 5.21078 6.55103C5.3879 6.37391 5.62813 6.2744 5.87861 6.2744H8.712C8.96249 6.2744 9.20272 6.37391 9.37984 6.55103C9.55696 6.72815 9.65647 6.96837 9.65647 7.21886C9.65647 7.46935 9.55696 7.70958 9.37984 7.8867C9.20272 8.06382 8.96249 8.16332 8.712 8.16332Z" fill="white"/>
<path d="M48.1411 10.9967H1.86243C1.61194 10.9967 1.37172 10.8972 1.1946 10.7201C1.01747 10.543 0.917969 10.3027 0.917969 10.0522C0.917969 9.80176 1.01747 9.56153 1.1946 9.38441C1.37172 9.20729 1.61194 9.10778 1.86243 9.10778H48.1411C48.3916 9.10778 48.6318 9.20729 48.809 9.38441C48.9861 9.56153 49.0856 9.80176 49.0856 10.0522C49.0856 10.3027 48.9861 10.543 48.809 10.7201C48.6318 10.8972 48.3916 10.9967 48.1411 10.9967Z" fill="white"/>
<path d="M16.2117 35.5348H11.6377C11.3872 35.5348 11.1469 35.4353 10.9698 35.2582C10.7927 35.0811 10.6932 34.8408 10.6932 34.5903C10.6932 34.3399 10.7927 34.0996 10.9698 33.9225C11.1469 33.7454 11.3872 33.6459 11.6377 33.6459H16.2117C16.4622 33.6459 16.7024 33.7454 16.8795 33.9225C17.0567 34.0996 17.1562 34.3399 17.1562 34.5903C17.1562 34.8408 17.0567 35.0811 16.8795 35.2582C16.7024 35.4353 16.4622 35.5348 16.2117 35.5348Z" fill="white"/>
<path d="M38.366 38.3682H11.6377C11.3872 38.3682 11.1469 38.2687 10.9698 38.0916C10.7927 37.9145 10.6932 37.6742 10.6932 37.4237C10.6932 37.1732 10.7927 36.933 10.9698 36.7559C11.1469 36.5788 11.3872 36.4793 11.6377 36.4793H38.366C38.6165 36.4793 38.8567 36.5788 39.0338 36.7559C39.2109 36.933 39.3104 37.1732 39.3104 37.4237C39.3104 37.6742 39.2109 37.9145 39.0338 38.0916C38.8567 38.2687 38.6165 38.3682 38.366 38.3682Z" fill="white"/>
<path d="M30.2693 41.2025H28.6486C28.3981 41.2025 28.1579 41.103 27.9808 40.9259C27.8037 40.7488 27.7042 40.5086 27.7042 40.2581C27.7042 40.0076 27.8037 39.7673 27.9808 39.5902C28.1579 39.4131 28.3981 39.3136 28.6486 39.3136H30.2693C30.5198 39.3136 30.76 39.4131 30.9372 39.5902C31.1143 39.7673 31.2138 40.0076 31.2138 40.2581C31.2138 40.5086 31.1143 40.7488 30.9372 40.9259C30.76 41.103 30.5198 41.2025 30.2693 41.2025Z" fill="white"/>
<path d="M26.0072 41.2025H19.734C19.4835 41.2025 19.2433 41.103 19.0662 40.9259C18.8891 40.7488 18.7896 40.5086 18.7896 40.2581C18.7896 40.0076 18.8891 39.7673 19.0662 39.5902C19.2433 39.4131 19.4835 39.3136 19.734 39.3136H26.0072C26.2576 39.3136 26.4979 39.4131 26.675 39.5902C26.8521 39.7673 26.9516 40.0076 26.9516 40.2581C26.9516 40.5086 26.8521 40.7488 26.675 40.9259C26.4979 41.103 26.2576 41.2025 26.0072 41.2025Z" fill="white"/>
<path d="M35.5311 31.5256C35.4648 31.5256 35.3986 31.5186 35.3337 31.5048L23.2956 28.9462C23.0505 28.8941 22.8361 28.7468 22.6997 28.5366C22.5632 28.3265 22.5158 28.0707 22.5679 27.8256C22.62 27.5805 22.7673 27.3662 22.9775 27.2297C23.1876 27.0932 23.4434 27.0458 23.6885 27.0979L34.9578 29.4931L41.146 14.512L10.8448 24.3684L17.7686 25.8399C18.0137 25.892 18.2281 26.0393 18.3646 26.2495C18.501 26.4596 18.5484 26.7154 18.4963 26.9605C18.4442 27.2056 18.2969 27.42 18.0867 27.5564C17.8766 27.6929 17.6208 27.7403 17.3757 27.6882L7.00552 25.4838C6.80228 25.4404 6.61904 25.3312 6.4842 25.173C6.34935 25.0149 6.27044 24.8167 6.25968 24.6091C6.24892 24.4016 6.30692 24.1963 6.42468 24.025C6.54245 23.8538 6.71341 23.7262 6.91107 23.662L42.5088 12.0828C42.6805 12.0269 42.8645 12.0213 43.0392 12.0667C43.214 12.1122 43.372 12.2067 43.4946 12.3392C43.6173 12.4717 43.6994 12.6365 43.7312 12.8142C43.763 12.9919 43.7433 13.175 43.6743 13.3418L36.4019 30.9409C36.3308 31.1135 36.2101 31.2612 36.0551 31.3652C35.9002 31.4693 35.7178 31.5251 35.5311 31.5256Z" fill="white"/>
<path d="M21.3606 35.2307C21.1857 35.2307 21.0142 35.1821 20.8653 35.0904C20.7164 34.9987 20.5959 34.8674 20.5172 34.7112L16.7289 27.1886C16.6721 27.0777 16.6377 26.9567 16.6278 26.8325C16.6179 26.7083 16.6327 26.5834 16.6713 26.4649C16.7099 26.3464 16.7716 26.2368 16.8528 26.1423C16.9339 26.0477 17.033 25.9702 17.1443 25.9141C17.2555 25.8581 17.3768 25.8246 17.5011 25.8156C17.6253 25.8066 17.7502 25.8222 17.8683 25.8617C17.9865 25.9011 18.0957 25.9636 18.1897 26.0454C18.2836 26.1273 18.3605 26.2269 18.4157 26.3386L21.1915 31.8505L22.5978 27.7165C22.6786 27.4793 22.8503 27.2839 23.0751 27.1733C23.3 27.0627 23.5596 27.0459 23.7968 27.1267C24.034 27.2075 24.2294 27.3792 24.34 27.6041C24.4506 27.8289 24.4674 28.0885 24.3866 28.3257L22.255 34.5894C22.1949 34.7655 22.0842 34.92 21.9367 35.0334C21.7891 35.1469 21.6114 35.2142 21.4257 35.2269L21.3606 35.2307Z" fill="white"/>
<path d="M23.4914 28.967C23.2946 28.9671 23.1027 28.9058 22.9424 28.7915C22.7822 28.6772 22.6617 28.5157 22.5977 28.3296C22.5337 28.1435 22.5295 27.942 22.5856 27.7534C22.6417 27.5647 22.7553 27.3983 22.9106 27.2774L42.2211 12.2359C42.3189 12.1596 42.4308 12.1034 42.5504 12.0705C42.67 12.0375 42.7949 12.0284 42.918 12.0437C43.0411 12.059 43.1599 12.0984 43.2678 12.1597C43.3757 12.2209 43.4704 12.3028 43.5466 12.4007C43.6228 12.4985 43.679 12.6104 43.712 12.73C43.745 12.8496 43.7541 12.9745 43.7388 13.0976C43.7235 13.2207 43.6841 13.3395 43.6228 13.4474C43.5616 13.5553 43.4797 13.65 43.3818 13.7262L24.0742 28.7668C23.908 28.8973 23.7027 28.9678 23.4914 28.967Z" fill="white"/>
<path d="M21.3606 35.2307C21.1738 35.2299 20.9917 35.1738 20.8368 35.0693C20.6819 34.9649 20.5615 34.8169 20.4907 34.644C20.42 34.4712 20.402 34.2812 20.4392 34.0982C20.4764 33.9151 20.5671 33.7472 20.6997 33.6157L26.272 28.083C26.4506 27.9114 26.6895 27.8168 26.9372 27.8196C27.1848 27.8225 27.4215 27.9225 27.5961 28.0981C27.7708 28.2737 27.8694 28.5109 27.8708 28.7586C27.8723 29.0063 27.7763 29.2446 27.6037 29.4222L22.0267 34.9559C21.8497 35.1318 21.6101 35.2306 21.3606 35.2307Z" fill="white"/>
<path d="M17.5737 27.709C17.3637 27.7093 17.1596 27.6395 16.9937 27.5109C16.8277 27.3822 16.7094 27.2019 16.6574 26.9984C16.6054 26.7949 16.6227 26.58 16.7066 26.3874C16.7904 26.1949 16.936 26.0358 17.1204 25.9353L42.3479 12.1518C42.4568 12.0923 42.5764 12.0549 42.6998 12.0416C42.8231 12.0283 42.9479 12.0395 43.0669 12.0744C43.186 12.1094 43.297 12.1675 43.3936 12.2453C43.4902 12.3232 43.5706 12.4193 43.6301 12.5282C43.6895 12.6371 43.727 12.7566 43.7402 12.88C43.7535 13.0033 43.7424 13.1281 43.7074 13.2472C43.6725 13.3662 43.6144 13.4772 43.5365 13.5738C43.4587 13.6705 43.3626 13.7508 43.2537 13.8103L18.0261 27.589C17.8878 27.6663 17.7322 27.7076 17.5737 27.709Z" fill="white"/>
</g>
<defs>
<clipPath id="clip0">
<rect width="48.1676" height="47.9998" fill="white" transform="translate(0.917969)"/>
</clipPath>
</defs>
</svg>
