<svg width="48" height="48" viewBox="0 0 48 48" fill="none" xmlns="http://www.w3.org/2000/svg">
<path d="M23.9151 6.13862C24.4372 6.13862 24.8605 5.71683 24.8605 5.19654V0.9947C24.8605 0.474405 24.4372 0.0526123 23.9151 0.0526123C23.393 0.0526123 22.9697 0.474405 22.9697 0.9947V5.19654C22.9698 5.71683 23.3931 6.13862 23.9151 6.13862Z" fill="white"/>
<path d="M47.0231 32.4176L45.353 30.7581C44.7589 30.1668 43.9671 29.841 43.1234 29.841C42.5839 29.841 42.066 29.9748 41.6071 30.2254L38.4599 27.093L38.6132 26.9404C39.89 25.6656 39.8895 23.594 38.6131 22.3235C38.157 21.8681 37.5878 21.5645 36.9674 21.4367C37.0529 21.1429 37.0978 20.8351 37.0978 20.5202C37.0978 19.6451 36.7567 18.8245 36.1392 18.2117C35.683 17.7563 35.1139 17.4527 34.4935 17.3249C34.579 17.031 34.6239 16.7234 34.6239 16.4083C34.6239 15.5331 34.2828 14.7126 33.6643 14.0989C33.1972 13.634 32.6229 13.3397 32.02 13.2144C32.3425 12.1062 32.0669 10.8594 31.192 9.98602C30.4638 9.26339 29.4756 8.95282 28.5233 9.05347L22.2869 7.87715C21.3357 7.69736 20.148 7.57846 19.3982 8.25993C19.3509 8.30296 19.3027 8.35245 19.2552 8.40755C18.0926 7.98529 16.7368 8.23673 15.8058 9.16339C15.1882 9.77807 14.848 10.5983 14.848 11.4729C14.848 11.788 14.8928 12.0956 14.9782 12.3896C14.3584 12.5172 13.79 12.8205 13.3354 13.2744C12.7166 13.8885 12.3754 14.7078 12.3747 15.5814C12.3744 15.8972 12.4194 16.2059 12.5052 16.5006C11.8852 16.628 11.3164 16.9307 10.8604 17.3846C10.2416 18.0005 9.90079 18.8212 9.90079 19.6954C9.90079 20.365 10.1014 21.0029 10.4731 21.5417C10.0038 21.7002 9.57384 21.9641 9.21384 22.3225C7.93624 23.594 7.93577 25.6657 9.21468 26.9424L9.36741 27.0939L6.21988 30.2248C5.05014 29.6759 3.60891 29.8815 2.64363 30.8423L0.972513 32.5029C0.378114 33.0944 0.0508751 33.8836 0.0507812 34.7248C0.0507812 35.5662 0.378114 36.3554 0.972513 36.9471L3.05807 39.0228C3.42746 39.3905 4.02608 39.3902 4.395 39.0221C4.76401 38.654 4.76364 38.0574 4.39425 37.6898L2.30869 35.6141C2.07194 35.3784 1.94156 35.0626 1.94156 34.7249C1.94156 34.3873 2.07194 34.0716 2.30813 33.8365L3.97933 32.1758C4.39688 31.7602 5.03596 31.6983 5.52128 31.9874C5.55545 32.0386 5.59497 32.0872 5.64021 32.1324C5.72123 32.2133 5.81369 32.2754 5.91188 32.3207L15.4956 41.8569C15.5411 41.9558 15.6036 42.0489 15.6852 42.1303C15.7646 42.2095 15.8552 42.2708 15.9513 42.3159C16.154 42.5442 16.266 42.8359 16.266 43.147C16.266 43.4847 16.1356 43.8004 15.8989 44.0361L14.2293 45.6978C13.736 46.1872 12.9336 46.1871 12.4418 45.6993L10.3563 43.6208C9.98706 43.2529 9.38853 43.2529 9.01933 43.6208C8.65014 43.9887 8.65014 44.5852 9.01933 44.9531L11.1064 47.033C11.7207 47.6427 12.5274 47.9473 13.3345 47.9473C14.1418 47.9473 14.9495 47.6422 15.5646 47.032L17.2351 45.3693C17.8295 44.7776 18.1569 43.9884 18.1569 43.147C18.1569 42.5466 17.9893 41.9731 17.6777 41.4786L21.2201 37.9529C21.2239 37.9491 21.2276 37.9453 21.2315 37.9414C21.6371 37.5236 22.7666 37.6018 23.859 37.6774C24.6352 37.7312 25.5005 37.7909 26.3459 37.6938L30.2251 41.5549C29.9738 42.0115 29.8396 42.5269 29.8396 43.0637C29.8396 43.9042 30.167 44.6928 30.7614 45.2845L32.432 46.9473C33.026 47.5386 33.8178 47.8643 34.6616 47.8643C35.5052 47.8643 36.297 47.5387 36.8911 46.9473L47.0238 36.8622C47.6182 36.2706 47.9455 35.4815 47.9455 34.6402C47.9454 33.7989 47.6181 33.0098 47.0231 32.4176ZM21.9348 9.7284L26.0358 10.5019L23.5812 12.9471C23.2015 12.7652 22.681 12.426 22.1101 11.8818C21.3286 11.1368 20.7696 10.2767 20.7187 9.74018C20.7186 9.7399 20.7186 9.73962 20.7186 9.73934C20.7186 9.73944 20.7186 9.73925 20.7186 9.73934C20.715 9.7008 20.7139 9.66974 20.7144 9.64627C20.838 9.61633 21.1664 9.58312 21.9348 9.7284ZM17.1419 10.4965C17.6208 10.0197 18.3649 9.96469 18.9061 10.3299C19.2127 11.6113 20.3096 12.7726 20.8031 13.2431C21.1688 13.5919 22.3423 14.6374 23.5268 14.9248C23.6871 15.1537 23.7743 15.4266 23.7743 15.7145C23.7743 16.0854 23.6311 16.4322 23.3702 16.6919C23.1101 16.9515 22.7616 17.0945 22.3887 17.0945C22.0158 17.0945 21.6672 16.9515 21.4059 16.6906L17.1418 12.4491C16.8819 12.1905 16.7387 11.8437 16.7387 11.4729C16.7388 11.102 16.882 10.7552 17.1419 10.4965ZM14.6716 14.6075C14.9317 14.3479 15.2799 14.2049 15.6522 14.2049C16.0249 14.2049 16.3742 14.3482 16.636 14.6088L20.0691 18.0231C20.6097 18.5627 20.6097 19.4407 20.071 19.9784C19.8095 20.2379 19.4597 20.3809 19.0862 20.3809C18.7127 20.3809 18.3629 20.2379 18.1025 19.9795L15.4979 17.3846C15.4939 17.3805 15.4895 17.3768 15.4853 17.3727L14.6705 16.5611C14.4091 16.3008 14.2652 15.9534 14.2655 15.5828C14.2659 15.2134 14.4093 14.8677 14.6716 14.6075ZM12.1965 18.7177C12.4568 18.4586 12.8058 18.316 13.1792 18.316C13.5495 18.316 13.8954 18.4566 14.1546 18.7111L16.7671 21.3132C17.0276 21.5718 17.1711 21.9182 17.1711 22.2886C17.1711 22.659 17.0276 23.0054 16.766 23.265C16.5058 23.5239 16.1573 23.6665 15.7845 23.6665C15.4112 23.6665 15.0615 23.5235 14.8009 23.265L13.8538 22.3223C13.8537 22.322 13.8534 22.3218 13.8532 22.3217L12.1966 20.6728C11.9355 20.4129 11.7917 20.0656 11.7917 19.6952C11.7917 19.3249 11.9355 18.9775 12.1965 18.7177ZM10.55 23.6555C10.8114 23.3953 11.1608 23.252 11.5338 23.252C11.9067 23.252 12.256 23.3952 12.5173 23.6552L13.4657 24.5992C13.7263 24.8577 13.8697 25.2041 13.8697 25.5746C13.8697 25.945 13.7262 26.2913 13.4637 26.5519C13.2036 26.8115 12.855 26.9545 12.4822 26.9545C12.1092 26.9545 11.7607 26.8116 11.4987 26.5501L11.3799 26.4322C11.3783 26.4306 11.3771 26.4289 11.3756 26.4274C11.3738 26.4257 11.372 26.4242 11.3702 26.4226L10.551 25.6094C10.0103 25.0695 10.0099 24.1931 10.55 23.6555ZM29.8158 34.3624C29.4468 33.9942 28.8482 33.994 28.4789 34.3616L27.6378 35.1987C26.8385 35.9952 25.3904 35.8949 23.9899 35.7981C22.4691 35.6927 20.8964 35.584 19.8788 36.6252L16.3966 40.091L7.6887 31.4263L10.7703 28.3609C11.2797 28.672 11.8674 28.8388 12.4824 28.8388C13.3609 28.8388 14.1847 28.4994 14.8001 27.8851C15.4195 27.2703 15.7608 26.4499 15.7608 25.5747C15.7608 25.5665 15.7602 25.5585 15.7602 25.5503C15.7684 25.5504 15.7765 25.5509 15.7847 25.5509C16.662 25.5509 17.4852 25.2126 18.1014 24.5993C18.7208 23.9845 19.0621 23.1639 19.0621 22.2888C19.0621 22.2807 19.0615 22.2726 19.0615 22.2645C19.0698 22.2645 19.078 22.2651 19.0864 22.2651C19.9634 22.2651 20.7871 21.9271 21.4074 21.3115C22.0513 20.6687 22.3698 19.8225 22.3637 18.9781C22.3722 18.9782 22.3806 18.9786 22.3891 18.9786C23.2676 18.9786 24.0914 18.6393 24.7076 18.024C25.3252 17.4093 25.6654 16.5891 25.6654 15.7145C25.6654 15.1028 25.4985 14.5181 25.1873 14.0115L27.8883 11.3211C28.0896 11.1214 28.3378 10.996 28.5979 10.9443C28.6261 10.9413 28.6538 10.9368 28.6813 10.9314C29.0987 10.874 29.537 11.0024 29.8562 11.3191C30.3968 11.8588 30.3968 12.7368 29.8581 13.2745L29.0355 14.0908C29.0328 14.0936 29.0299 14.096 29.0272 14.0987L28.0797 15.0413C27.7102 15.4089 27.7099 16.0054 28.0789 16.3735C28.448 16.7417 29.0465 16.742 29.4158 16.3744L30.2417 15.5525C30.2419 15.5523 30.2421 15.5521 30.2422 15.5519L30.3671 15.428C30.9092 14.8927 31.7875 14.8938 32.329 15.4327C32.5896 15.6913 32.7331 16.0377 32.7331 16.4081C32.7331 16.7785 32.5896 17.1249 32.327 17.3855L31.4997 18.2116C31.4998 18.2114 31.4996 18.2117 31.4997 18.2116L30.552 19.1522C30.1821 19.5193 30.1809 20.1159 30.5493 20.4844C30.9178 20.8531 31.5163 20.8542 31.8862 20.4871L32.8379 19.5426C33.098 19.2829 33.4466 19.14 33.8194 19.14C34.1924 19.14 34.541 19.2829 34.803 19.5445C35.0636 19.8031 35.2071 20.1495 35.2071 20.52C35.2071 20.8903 35.0636 21.2367 34.8015 21.4968L33.1522 23.141C32.7831 23.509 32.7832 24.1054 33.1524 24.4733C33.337 24.6572 33.5788 24.749 33.8208 24.749C34.0628 24.749 34.3048 24.657 34.4893 24.473L35.2976 23.6672C35.3022 23.6628 35.3072 23.659 35.3118 23.6544C35.5719 23.3947 35.9205 23.2518 36.2933 23.2518C36.6663 23.2518 37.0149 23.3947 37.2759 23.6553C37.816 24.1929 37.8155 25.0694 37.2759 25.6081L36.4541 26.4261C36.4538 26.4264 36.4534 26.4267 36.4531 26.4269C36.4528 26.4272 36.4526 26.4276 36.4523 26.4279L35.1478 27.7262C34.7784 28.0939 34.7781 28.6904 35.147 29.0585C35.3316 29.2427 35.5738 29.3349 35.8159 29.3349C36.0576 29.3349 36.2994 29.243 36.484 29.0594L37.1221 28.4243L40.1801 31.4682L31.473 40.1343L28.3533 37.0292C28.5708 36.8898 28.7789 36.7259 28.9742 36.5313L29.8148 35.6946C30.1844 35.3271 30.1848 34.7305 29.8158 34.3624ZM45.6875 35.5291L35.5549 45.6142C35.3178 45.8501 35.0005 45.98 34.6615 45.98C34.3224 45.98 34.0051 45.8501 33.768 45.6141L32.0974 43.9513C31.8606 43.7158 31.7302 43.4005 31.7302 43.0637C31.7302 42.7269 31.8606 42.4117 32.0974 42.176L42.23 32.091C42.4671 31.855 42.7843 31.725 43.1235 31.725C43.4626 31.725 43.7798 31.855 44.0175 32.0915L45.6876 33.7511C45.9244 33.9868 46.0547 34.3024 46.0547 34.6401C46.0546 34.9779 45.9243 35.2936 45.6875 35.5291Z" fill="white"/>
<path d="M11.3615 5.34443C11.5461 5.52796 11.7877 5.61964 12.0294 5.61964C12.2715 5.61964 12.5138 5.5274 12.6985 5.34303C13.0673 4.97474 13.0667 4.3783 12.6972 4.01076L9.25224 0.584693C8.88276 0.217156 8.28413 0.217624 7.91531 0.586002C7.54648 0.954287 7.54705 1.55073 7.91662 1.91826L11.3615 5.34443Z" fill="white"/>
<path d="M35.7996 5.61964C36.0413 5.61964 36.2832 5.52778 36.4677 5.34415L39.91 1.91799C40.2794 1.55036 40.2798 0.953826 39.9108 0.585728C39.5418 0.21763 38.9433 0.217256 38.5738 0.58498L35.1315 4.01114C34.7621 4.37877 34.7618 4.97531 35.1308 5.34341C35.3154 5.52759 35.5575 5.61964 35.7996 5.61964Z" fill="white"/>
<path d="M5.86425 40.5765C5.49824 40.9475 5.50331 41.544 5.8757 41.9088L5.87842 41.9114C6.06213 42.0914 6.30066 42.181 6.5391 42.181C6.78382 42.181 7.02855 42.0866 7.21394 41.8987C7.57995 41.5277 7.57347 40.9298 7.20118 40.5651C6.82897 40.2004 6.23044 40.2055 5.86425 40.5765Z" fill="white"/>
<path d="M32.1293 33.0053C32.2731 33.0053 32.419 32.9726 32.556 32.9039C33.0221 32.6696 33.2094 32.1031 32.9744 31.6385C32.7392 31.174 32.1706 30.9872 31.7045 31.2216L31.6993 31.2242C31.2331 31.4585 31.0485 32.0237 31.2835 32.4883C31.4495 32.8164 31.7833 33.0053 32.1293 33.0053Z" fill="white"/>
</svg>
