<svg width="48" height="48" viewBox="0 0 48 48" fill="none" xmlns="http://www.w3.org/2000/svg">
<g clip-path="url(#clip0)">
<path d="M17.0497 34.3661C16.982 34.3468 16.9128 34.336 16.8431 34.3322C17.8678 33.2552 18.4989 31.8003 18.4989 30.2V25.2785C18.4989 25.2335 18.4946 25.1897 18.4885 25.1464C18.4947 25.0576 18.4989 24.9681 18.4989 24.8778V21.7641C18.4989 21.2474 18.0801 20.8286 17.5634 20.8286H11.2891C8.64695 20.8286 6.49749 22.9782 6.49749 25.6202V30.2C6.49749 31.8003 7.12844 33.2552 8.15322 34.3322C8.08363 34.336 8.0144 34.3468 7.94687 34.3661C3.52624 34.7664 0.0507812 38.4923 0.0507812 43.0154V47.012C0.0507812 47.5286 0.46958 47.9474 0.986225 47.9474H24.01C24.5267 47.9474 24.9455 47.5286 24.9455 47.012V43.0154C24.9455 38.4924 21.4702 34.7664 17.0497 34.3661ZM8.36838 26.8065V25.6201C8.36838 24.0097 9.67865 22.6994 11.2891 22.6994H16.628V24.8777C16.628 25.9743 15.7358 26.8664 14.6392 26.8664H8.36838V26.8065ZM8.36838 28.7373H14.6392C15.3662 28.7373 16.0468 28.5351 16.628 28.1841V30.1999C16.628 32.477 14.7753 34.3297 12.4982 34.3297C10.221 34.3297 8.36838 32.477 8.36838 30.1999V28.7373ZM14.5342 36.2007L12.4982 38.2368L10.4622 36.2007H14.5342ZM23.0747 46.0765H1.92167V44.2056H5.80376C6.32041 44.2056 6.73921 43.7868 6.73921 43.2702C6.73921 42.7536 6.32041 42.3348 5.80376 42.3348H1.95581C2.27003 39.1808 4.744 36.655 7.87296 36.2573L11.8367 40.221C12.0121 40.3964 12.2501 40.495 12.4982 40.495C12.7463 40.495 12.9842 40.3964 13.1596 40.221L17.1234 36.2573C20.4745 36.6832 23.0747 39.5504 23.0747 43.0154V46.0765Z" fill="white"/>
<path d="M40.05 13.5902C39.9823 13.5709 39.913 13.5601 39.8432 13.5563C40.8679 12.4793 41.4989 11.0244 41.4989 9.42408V4.50252C41.4989 4.45752 41.4946 4.41365 41.4885 4.37044C41.4947 4.28157 41.4989 4.19214 41.4989 4.10178V0.988056C41.4989 0.471411 41.0801 0.0526123 40.5634 0.0526123H34.2891C31.647 0.0526123 29.4975 2.20217 29.4975 4.84424V9.42398C29.4975 11.0243 30.1284 12.4792 31.1531 13.5562C31.0834 13.56 31.014 13.5708 30.9464 13.5901C26.526 13.9905 23.0508 17.7165 23.0508 22.2394V26.2359C23.0508 26.7525 23.4696 27.1713 23.9862 27.1713H31.5128C32.0295 27.1713 32.4483 26.7525 32.4483 26.2359C32.4483 25.7192 32.0295 25.3004 31.5128 25.3004H24.9217V22.2395C24.9217 18.7745 27.5217 15.9073 30.8729 15.4814L34.8366 19.4451C35.0193 19.6278 35.2587 19.7191 35.4981 19.7191C35.7375 19.7191 35.9769 19.6278 36.1595 19.4451L40.1233 15.4814C43.4746 15.9074 46.0747 18.7745 46.0747 22.2395V25.3005H39.1835C38.6669 25.3005 38.2481 25.7193 38.2481 26.236C38.2481 26.7526 38.6669 27.1714 39.1835 27.1714H47.0101C47.5268 27.1714 47.9456 26.7526 47.9456 26.236V22.2395C47.9456 17.7166 44.4703 13.9906 40.05 13.5902ZM35.4983 17.4608L33.4623 15.4248H37.5343L35.4983 17.4608ZM39.6281 9.42398C39.6281 11.7011 37.7754 13.5538 35.4983 13.5538C33.2211 13.5538 31.3685 11.7012 31.3685 9.42408V7.96142H37.6393C38.3663 7.96142 39.0469 7.75908 39.6281 7.4082V9.42398ZM39.6281 4.10178C39.6281 5.1984 38.7359 6.09053 37.6393 6.09053H31.3685V6.03057V4.84424C31.3685 3.23378 32.6787 1.9235 34.2892 1.9235H39.6281V4.10178Z" fill="white"/>
<path d="M36.1593 25.5744C35.9853 25.4004 35.744 25.3003 35.4979 25.3003C35.251 25.3003 35.0106 25.4004 34.8366 25.5744C34.6617 25.7484 34.5625 25.9897 34.5625 26.2357C34.5625 26.4827 34.6617 26.7231 34.8366 26.8971C35.0106 27.072 35.251 27.1712 35.4979 27.1712C35.744 27.1712 35.9853 27.072 36.1593 26.8971C36.3333 26.7231 36.4334 26.4827 36.4334 26.2357C36.4334 25.9897 36.3333 25.7484 36.1593 25.5744Z" fill="white"/>
<path d="M25.065 13.1422L21.1529 9.23007V4.72983C21.1529 2.15081 19.0547 0.0526123 16.4757 0.0526123H4.728C2.14898 0.0526123 0.0507812 2.15081 0.0507812 4.72983V12.9617C0.0507812 15.5408 2.14898 17.639 4.728 17.639H16.4756C18.4095 17.639 20.0959 16.4784 20.8035 14.7391H24.4035C24.7818 14.7391 25.1229 14.5111 25.2677 14.1616C25.4125 13.8122 25.3325 13.4097 25.065 13.1422ZM20.1211 12.8682C19.6853 12.8682 19.3072 13.1691 19.2094 13.5939C18.9149 14.874 17.7908 15.7681 16.4756 15.7681H4.728C3.18059 15.7681 1.92167 14.5092 1.92167 12.9617V4.72983C1.92167 3.18242 3.18059 1.9235 4.728 1.9235H16.4756C18.023 1.9235 19.2819 3.18242 19.2819 4.72983V9.61753C19.2819 9.86561 19.3805 10.1036 19.5559 10.279L22.1451 12.8682H20.1211Z" fill="white"/>
<path d="M43.2672 30.361H31.5196C29.5857 30.361 27.8993 31.5216 27.1917 33.2608H23.5917C23.2135 33.2608 22.8723 33.4888 22.7275 33.8383C22.5827 34.1878 22.6628 34.5902 22.9302 34.8577L26.8423 38.7699V43.2701C26.8423 45.8491 28.9405 47.9473 31.5195 47.9473H43.2672C45.8462 47.9473 47.9444 45.8491 47.9444 43.2701V35.0382C47.9444 32.4592 45.8462 30.361 43.2672 30.361ZM46.0736 43.2701C46.0736 44.8175 44.8146 46.0764 43.2672 46.0764H31.5196C29.9722 46.0764 28.7133 44.8175 28.7133 43.2701V38.3824C28.7133 38.1343 28.6147 37.8963 28.4393 37.7209L25.8501 35.1317H27.8741C28.3099 35.1317 28.688 34.8308 28.7858 34.406C29.0803 33.1259 30.2044 32.2319 31.5196 32.2319H43.2672C44.8146 32.2319 46.0736 33.4908 46.0736 35.0382V43.2701Z" fill="white"/>
<path d="M41.5979 36.6652C41.2327 36.2999 40.6404 36.2999 40.2751 36.6652L37.7884 39.1519L36.6321 37.9956C36.2668 37.6303 35.6745 37.6303 35.3091 37.9956C34.9438 38.3609 34.9438 38.9532 35.3091 39.3186L37.1269 41.1363C37.3096 41.319 37.5489 41.4103 37.7883 41.4103C38.0277 41.4103 38.2672 41.319 38.4498 41.1363L41.5979 37.9882C41.9632 37.6229 41.9632 37.0306 41.5979 36.6652Z" fill="white"/>
<path d="M14.8577 6.25162C14.7471 4.64761 13.4542 3.35464 11.8502 3.24407C10.9406 3.18149 10.0737 3.48831 9.40949 4.10833C8.75458 4.71964 8.37891 5.58399 8.37891 6.47958C8.379 6.99632 8.7978 7.41512 9.31444 7.41512C9.83109 7.41512 10.2499 6.99632 10.2499 6.47968C10.2499 6.09512 10.4048 5.73871 10.6862 5.47604C10.9671 5.21374 11.3352 5.08353 11.7216 5.11066C12.3988 5.15733 12.9446 5.70317 12.9913 6.38033C13.0385 7.06498 12.5897 7.67003 11.9241 7.81895C11.1956 7.98191 10.6868 8.6153 10.6868 9.35916V9.85822C10.6868 10.3749 11.1056 10.7937 11.6223 10.7937C12.1389 10.7937 12.5577 10.3749 12.5577 9.85822V9.58601C14.0071 9.15365 14.9636 7.78724 14.8577 6.25162Z" fill="white"/>
<path d="M12.2804 12.7765C12.1064 12.6025 11.8651 12.5024 11.619 12.5024C11.3721 12.5024 11.1317 12.6025 10.9577 12.7765C10.7828 12.9505 10.6836 13.1919 10.6836 13.4379C10.6836 13.6839 10.7828 13.9253 10.9577 14.0992C11.1317 14.2732 11.3721 14.3733 11.619 14.3733C11.8651 14.3733 12.1064 14.2732 12.2804 14.0992C12.4544 13.9253 12.5545 13.6839 12.5545 13.4379C12.5545 13.1919 12.4544 12.9505 12.2804 12.7765Z" fill="white"/>
<path d="M10.2062 42.6088C10.0322 42.4348 9.79084 42.3347 9.54482 42.3347C9.2988 42.3347 9.05745 42.4348 8.88346 42.6088C8.70947 42.7828 8.60938 43.0241 8.60938 43.2702C8.60938 43.5162 8.70947 43.7575 8.88346 43.9315C9.05745 44.1055 9.2988 44.2056 9.54482 44.2056C9.79084 44.2056 10.0322 44.1055 10.2062 43.9315C10.3802 43.7575 10.4803 43.5162 10.4803 43.2702C10.4803 43.0241 10.3802 42.7828 10.2062 42.6088Z" fill="white"/>
</g>
<defs>
<clipPath id="clip0">
<rect width="47.8947" height="47.8947" fill="white" transform="translate(0.0507812 0.0526123)"/>
</clipPath>
</defs>
</svg>
