<svg width="70" height="70" viewBox="0 0 70 70" fill="none" xmlns="http://www.w3.org/2000/svg">
<g clip-path="url(#clip0)">
<path d="M64.1278 40.6856C64.1888 39.9273 64.2219 39.1738 64.2219 38.4358C64.2219 29.5288 59.9796 21.1336 52.8397 15.8313V7.0557C52.8397 5.05373 51.2094 3.42513 49.2055 3.42513H42.2257C41.4708 3.42513 40.8585 4.03736 40.8585 4.79232C40.8585 5.54728 41.4708 6.15951 42.2257 6.15951H49.2055C49.6932 6.15951 50.1054 6.56994 50.1054 7.0557V20.372C50.1054 20.8577 49.6932 21.268 49.2055 21.268H40.4392C40.059 21.268 39.6957 21.4263 39.4371 21.7051L35.6381 25.7986L31.8422 21.7055C31.5835 21.4266 31.2203 21.268 30.8398 21.268H22.9611C22.4753 21.268 22.065 20.8577 22.065 20.372V7.0557C22.065 6.56994 22.4753 6.15951 22.9611 6.15951H29.9445C30.6995 6.15951 31.3117 5.54728 31.3117 4.79232C31.3117 4.03736 30.6995 3.42513 29.9445 3.42513H22.9611C20.9593 3.42513 19.3307 5.05373 19.3307 7.0557V15.8313C12.1908 21.1336 7.94855 29.5288 7.94855 38.4358C7.94855 39.0218 7.96838 39.6069 8.00365 40.1862C6.97922 40.6292 6.01521 41.1493 5.13297 41.7478C1.82287 43.993 0 47.0312 0 50.3027C0 52.3669 0.743066 54.3757 2.15523 56.1455L1.73236 61.7055C1.69873 62.149 1.88289 62.5813 2.22619 62.8642C2.47393 63.0684 2.78209 63.1763 3.09572 63.1763C3.21672 63.1763 3.3384 63.1603 3.45789 63.1275L10.2952 61.2483C12.3636 61.8593 14.5649 62.1687 16.8455 62.1687C18.0998 62.1687 19.3329 62.0701 20.5297 61.8846C25.1467 64.9551 30.5119 66.5753 36.0831 66.5753C42.4663 66.5753 48.6429 64.4072 53.6129 60.446L58.3736 64.9774C58.6313 65.2227 58.9701 65.3544 59.3164 65.3544C59.4437 65.3544 59.5719 65.3366 59.6974 65.3002C60.1647 65.1646 60.5247 64.7908 60.6426 64.3187L61.7869 59.7412C66.4653 58.8546 70 54.6845 70 49.8416C70 45.785 67.5899 42.2829 64.1278 40.6856ZM10.7282 58.5213C10.4766 58.4417 10.2076 58.4367 9.95326 58.5065L4.60633 59.9761L4.92406 55.7973C4.95195 55.429 4.82973 55.0649 4.585 54.788C3.37436 53.4189 2.73438 51.8679 2.73438 50.3027C2.73438 47.9658 4.13137 45.7312 6.66791 44.0106C7.64764 43.3461 8.74904 42.7915 9.93809 42.3527C9.95299 42.3469 9.96816 42.3419 9.98279 42.3356C12.0586 41.5758 14.4018 41.1713 16.8455 41.1713C20.7096 41.1713 24.3249 42.1797 27.0252 44.0109C29.563 45.7318 30.9605 47.9663 30.9605 50.3028C30.9605 52.6394 29.5628 54.874 27.0252 56.5948C24.3249 58.426 20.7096 59.4344 16.8455 59.4344C14.7005 59.4343 12.6424 59.1271 10.7282 58.5213ZM24.3143 60.9526C25.8595 60.4181 27.2928 59.7172 28.5601 58.8577C31.8715 56.6123 33.6952 53.5741 33.6952 50.3027C33.6952 47.0313 31.8715 43.9931 28.5601 41.7477C25.4115 39.6127 21.2513 38.4368 16.8457 38.4368C14.7086 38.4368 12.6308 38.7158 10.6969 39.2444C10.6885 38.9754 10.6829 38.7058 10.6829 38.4358C10.6829 31.0978 13.8738 24.145 19.3307 19.3463V20.3721C19.3307 22.3739 20.9593 24.0025 22.9611 24.0025H30.2431L34.6352 28.7389C34.8939 29.0178 35.257 29.1762 35.6374 29.1764H35.6377C36.0179 29.1764 36.3811 29.0181 36.6398 28.7393L41.0356 24.0025H49.2055C51.2094 24.0025 52.8397 22.3739 52.8397 20.3721V19.3463C58.2966 24.145 61.4875 31.0977 61.4875 38.4358C61.4875 38.9099 61.4729 39.3916 61.4447 39.8774C60.9476 39.8016 60.4389 39.7621 59.9208 39.7621H48.8061C43.2485 39.7621 38.727 44.2837 38.727 49.8416C38.727 55.3973 43.2484 59.917 48.8061 59.917H49.6442C45.6088 62.466 40.9117 63.8407 36.0831 63.8407C31.9427 63.8407 27.9289 62.8488 24.3143 60.9526ZM60.5653 57.1529C59.9843 57.2036 59.4993 57.6173 59.358 58.1833L58.559 61.3788L54.6154 57.6252C54.6103 57.6202 54.6051 57.6151 54.5997 57.6102L54.5464 57.5595C54.2922 57.3175 53.9547 57.1825 53.6037 57.1825H48.806C44.7561 57.1825 41.4612 53.8893 41.4612 49.8414C41.4612 45.7914 44.7561 42.4963 48.806 42.4963H59.9207C60.7029 42.4963 61.4563 42.6205 62.1638 42.848C62.2059 42.8647 62.2491 42.8793 62.2934 42.8919C65.1822 43.881 67.2654 46.6216 67.2654 49.8413C67.2656 53.6134 64.3226 56.8249 60.5653 57.1529Z" fill="url(#paint0_linear)"/>
<path d="M28.7266 12.3423C27.9716 12.3423 27.3594 12.9583 27.3594 13.7133C27.3594 14.4682 27.9716 15.0805 28.7266 15.0805C29.4815 15.0805 30.0938 14.4682 30.0938 13.7133V13.7055C30.0938 12.9507 29.4817 12.3423 28.7266 12.3423Z" fill="url(#paint1_linear)"/>
<path d="M36.0859 15.0806C36.8409 15.0806 37.4531 14.4684 37.4531 13.7134V13.7056C37.4531 12.9507 36.8409 12.3423 36.0859 12.3423C35.331 12.3423 34.7188 12.9583 34.7188 13.7133C34.7188 14.4682 35.3308 15.0806 36.0859 15.0806Z" fill="url(#paint2_linear)"/>
<path d="M44.8086 13.7134V13.7056C44.8086 12.9507 44.1964 12.3423 43.4414 12.3423C42.6864 12.3423 42.0742 12.9583 42.0742 13.7133C42.0742 14.4682 42.6864 15.0805 43.4414 15.0805C44.1964 15.0805 44.8086 14.4684 44.8086 13.7134Z" fill="url(#paint3_linear)"/>
<path d="M61.5509 45.5684H55.6797C54.9247 45.5684 54.3125 46.1807 54.3125 46.9356C54.3125 47.6906 54.9247 48.3028 55.6797 48.3028H61.5509C62.3059 48.3028 62.9181 47.6906 62.9181 46.9356C62.9181 46.1807 62.3059 45.5684 61.5509 45.5684Z" fill="url(#paint4_linear)"/>
<path d="M47.1758 48.3028H50.2063C50.9613 48.3028 51.5735 47.6906 51.5735 46.9356C51.5735 46.1807 50.9613 45.5684 50.2063 45.5684H47.1758C46.4208 45.5684 45.8086 46.1807 45.8086 46.9356C45.8086 47.6906 46.4208 48.3028 47.1758 48.3028Z" fill="url(#paint5_linear)"/>
<path d="M55.163 51.3767H47.1758C46.4208 51.3767 45.8086 51.989 45.8086 52.7439C45.8086 53.4989 46.4208 54.1111 47.1758 54.1111H55.163C55.918 54.1111 56.5302 53.4989 56.5302 52.7439C56.5302 51.989 55.9181 51.3767 55.163 51.3767Z" fill="url(#paint6_linear)"/>
<path d="M36.0819 6.15882H36.0897C36.8446 6.15882 37.453 5.54659 37.453 4.79163C37.453 4.03667 36.837 3.42445 36.082 3.42445C35.3271 3.42445 34.7148 4.03667 34.7148 4.79163C34.7148 5.54659 35.3268 6.15882 36.0819 6.15882Z" fill="url(#paint7_linear)"/>
</g>
<defs>
<linearGradient id="paint0_linear" x1="45.1786" y1="85.7458" x2="89.6408" y2="41.8472" gradientUnits="userSpaceOnUse">
<stop stopColor="#E12857"/>
<stop offset="1" stopColor="#49B9B3"/>
</linearGradient>
<linearGradient id="paint1_linear" x1="29.1242" y1="15.9117" x2="31.0391" y2="14.2085" gradientUnits="userSpaceOnUse">
<stop stopColor="#E12857"/>
<stop offset="1" stopColor="#49B9B3"/>
</linearGradient>
<linearGradient id="paint2_linear" x1="36.4835" y1="15.9119" x2="38.3985" y2="14.2087" gradientUnits="userSpaceOnUse">
<stop stopColor="#E12857"/>
<stop offset="1" stopColor="#49B9B3"/>
</linearGradient>
<linearGradient id="paint3_linear" x1="43.839" y1="15.9117" x2="45.7539" y2="14.2085" gradientUnits="userSpaceOnUse">
<stop stopColor="#E12857"/>
<stop offset="1" stopColor="#49B9B3"/>
</linearGradient>
<linearGradient id="paint4_linear" x1="59.8666" y1="49.1329" x2="61.0852" y2="45.7169" gradientUnits="userSpaceOnUse">
<stop stopColor="#E12857"/>
<stop offset="1" stopColor="#49B9B3"/>
</linearGradient>
<linearGradient id="paint5_linear" x1="49.5293" y1="49.1329" x2="51.1268" y2="46.1329" gradientUnits="userSpaceOnUse">
<stop stopColor="#E12857"/>
<stop offset="1" stopColor="#49B9B3"/>
</linearGradient>
<linearGradient id="paint6_linear" x1="52.7284" y1="54.9412" x2="53.7474" y2="51.3823" gradientUnits="userSpaceOnUse">
<stop stopColor="#E12857"/>
<stop offset="1" stopColor="#49B9B3"/>
</linearGradient>
<linearGradient id="paint7_linear" x1="36.4821" y1="6.9889" x2="38.3949" y2="5.28274" gradientUnits="userSpaceOnUse">
<stop stopColor="#E12857"/>
<stop offset="1" stopColor="#49B9B3"/>
</linearGradient>
<clipPath id="clip0">
<rect width="70" height="70" fill="white"/>
</clipPath>
</defs>
</svg>
