<svg width="48" height="48" viewBox="0 0 48 48" fill="none" xmlns="http://www.w3.org/2000/svg">
<g clip-path="url(#clip0)">
<path d="M45.7005 33.2922V6.64749C45.7005 5.07426 44.4205 3.79439 42.8473 3.79439H36.0654V2.85894C36.0654 1.31153 34.8065 0.0526123 33.259 0.0526123C31.7116 0.0526123 30.4527 1.31153 30.4527 2.85894V3.79439H15.2985V2.85894C15.2985 1.31153 14.0396 0.0526123 12.4922 0.0526123C10.9448 0.0526123 9.68585 1.31153 9.68585 2.85894V3.79439H2.90389C1.33075 3.79439 0.0507812 5.07426 0.0507812 6.64749V41.3525C0.0507812 42.9257 1.33075 44.2056 2.90389 44.2056H15.6541C16.1706 44.2056 16.5895 43.7868 16.5895 43.2701C16.5895 42.7535 16.1706 42.3347 15.6541 42.3347H2.90389C2.36226 42.3347 1.92167 41.8941 1.92167 41.3525V6.64749C1.92167 6.10587 2.36226 5.66528 2.90389 5.66528H9.68585V6.60072C9.68585 8.14813 10.9448 9.40705 12.4922 9.40705C14.0396 9.40705 15.2985 8.14813 15.2985 6.60072V5.66528H30.4527V6.60072C30.4527 8.14813 31.7116 9.40705 33.259 9.40705C34.8065 9.40705 36.0654 8.14813 36.0654 6.60072V5.66528H42.8473C43.389 5.66528 43.8296 6.10587 43.8296 6.64749V11.2779H8.46978C7.95323 11.2779 7.53433 11.6967 7.53433 12.2134C7.53433 12.73 7.95323 13.1488 8.46978 13.1488H43.8296V31.7115C43.0331 31.2092 42.151 30.8312 41.2103 30.6048V16.7035C41.2103 16.1869 40.7914 15.7681 40.2749 15.7681H5.47636C4.9598 15.7681 4.54091 16.1869 4.54091 16.7035V38.78C4.54091 39.2966 4.9598 39.7154 5.47636 39.7154H30.3776C30.4357 40.6336 30.635 41.5138 30.9547 42.3347H23.1375C22.621 42.3347 22.2021 42.7535 22.2021 43.2701C22.2021 43.7868 22.621 44.2056 23.1375 44.2056H31.9591C33.5518 46.4669 36.1823 47.9473 39.1523 47.9473C44.0009 47.9473 47.9455 44.0028 47.9455 39.1542C47.9455 36.9041 47.0956 34.8491 45.7005 33.2922ZM13.4276 6.60072C13.4276 7.11652 13.008 7.53617 12.4922 7.53617C11.9764 7.53617 11.5567 7.11652 11.5567 6.60072V2.85894C11.5567 2.34314 11.9764 1.9235 12.4922 1.9235C13.008 1.9235 13.4276 2.34314 13.4276 2.85894V6.60072ZM34.1945 6.60072C34.1945 7.11652 33.7748 7.53617 33.259 7.53617C32.7432 7.53617 32.3236 7.11652 32.3236 6.60072V2.85894C32.3236 2.34314 32.7432 1.9235 33.259 1.9235C33.7748 1.9235 34.1945 2.34314 34.1945 2.85894V6.60072ZM39.1523 30.361C38.7175 30.361 38.29 30.3933 37.8717 30.4545H34.2506V25.029H39.3394V30.3633C39.2772 30.362 39.2149 30.361 39.1523 30.361ZM30.4567 37.8446H27.2909V32.3254H32.3797V33.5522C31.3823 34.756 30.699 36.2291 30.4567 37.8446ZM6.4118 25.029H11.5006V30.4545H6.4118V25.029ZM13.3715 25.029H18.4603V30.4545H13.3715V25.029ZM27.2909 25.029H32.3797V30.4545H27.2909V25.029ZM25.42 30.4545H20.3312V25.029H25.42V30.4545ZM27.2909 23.1581V17.639H32.3797V23.1581H27.2909ZM25.42 23.1581H20.3312V17.639H25.42V23.1581ZM18.4603 23.1581H13.3715V17.639H18.4603V23.1581ZM18.4603 32.3254V37.8446H13.3715V32.3254H18.4603ZM20.3312 32.3254H25.42V37.8446H20.3312V32.3254ZM39.3394 23.1581H34.2506V17.639H39.3394V23.1581ZM11.5006 17.639V23.1581H6.4118V17.639H11.5006ZM6.4118 32.3254H11.5006V37.8446H6.4118V32.3254ZM39.1523 46.0765C35.3354 46.0765 32.2301 42.9712 32.2301 39.1542C32.2301 35.3372 35.3354 32.2319 39.1523 32.2319C42.9693 32.2319 46.0746 35.3372 46.0746 39.1542C46.0746 42.9712 42.9693 46.0765 39.1523 46.0765Z" fill="white"/>
<path d="M41.8596 36.8869L38.9664 39.7801L37.679 38.4928C37.3138 38.1275 36.7217 38.1275 36.356 38.4928C35.9907 38.8581 35.9907 39.4504 36.356 39.8157L38.3048 41.7645C38.4803 41.9399 38.7182 42.0385 38.9663 42.0385C39.2143 42.0385 39.4522 41.9399 39.6277 41.7645L43.1824 38.2098C43.5477 37.8445 43.5477 37.2522 43.1824 36.8868C42.8171 36.5216 42.225 36.5216 41.8596 36.8869Z" fill="white"/>
<path d="M19.3964 42.3347C19.1504 42.3347 18.909 42.4348 18.735 42.6088C18.5611 42.7828 18.4609 43.0241 18.4609 43.2702C18.4609 43.5162 18.561 43.7575 18.735 43.9315C18.909 44.1055 19.1504 44.2056 19.3964 44.2056C19.6424 44.2056 19.8837 44.1055 20.0577 43.9315C20.2316 43.7575 20.3318 43.5162 20.3318 43.2702C20.3318 43.0241 20.2317 42.7828 20.0577 42.6088C19.8837 42.4348 19.6424 42.3347 19.3964 42.3347Z" fill="white"/>
<path d="M5.38968 12.8748C5.56376 12.7008 5.66386 12.4594 5.66386 12.2134C5.66386 11.9674 5.56376 11.726 5.38968 11.552C5.21578 11.378 4.97443 11.278 4.72841 11.278C4.48136 11.278 4.24105 11.378 4.06705 11.552C3.89306 11.726 3.79297 11.9674 3.79297 12.2134C3.79297 12.4594 3.89297 12.7008 4.06705 12.8748C4.24114 13.0488 4.48136 13.1488 4.72841 13.1488C4.97443 13.1488 5.21578 13.0488 5.38968 12.8748Z" fill="white"/>
</g>
<defs>
<clipPath id="clip0">
<rect width="47.8947" height="47.8947" fill="white" transform="translate(0.0507812 0.0526123)"/>
</clipPath>
</defs>
</svg>
