<svg width="70" height="70" viewBox="0 0 70 70" fill="none" xmlns="http://www.w3.org/2000/svg">
<path d="M64.918 13.8249C64.918 11.3069 62.8694 9.25815 60.3514 9.25815H53.29V6.872C53.29 6.11691 52.6778 5.50482 51.9228 5.50482H47.8381C47.2391 5.50482 46.6995 5.12201 46.4952 4.55244C45.5189 1.82943 42.9188 0 40.0249 0C37.1311 0 34.5309 1.82943 33.5547 4.55244C33.3505 5.12215 32.8108 5.50482 32.2119 5.50482H28.1273C27.3723 5.50482 26.7601 6.11691 26.7601 6.872V9.25828H19.6992C17.1809 9.25828 15.1324 11.3069 15.1324 13.8251V44.4139L6.17129 57.4299C4.86673 59.3306 4.63718 61.726 5.55675 63.8393L7.79947 69.1633C8.01959 69.6858 8.5264 70.0001 9.06001 70C9.23706 70 9.41698 69.9654 9.59021 69.8924C10.2861 69.5993 10.6126 68.7976 10.3195 68.1017L8.07318 62.7695C8.07086 62.764 8.06853 62.7586 8.06607 62.7533C7.52262 61.5086 7.65715 60.097 8.42455 58.9787L15.1314 49.237V59.9289C15.1314 62.238 16.9871 64.0986 19.301 64.0986C21.5995 64.0986 23.4697 62.2278 23.4697 59.9285V54.2352C23.4697 52.9287 24.5097 51.89 25.8146 51.89C27.0927 51.89 28.159 52.9583 28.159 54.2352V68.6325C28.159 69.3876 28.7712 69.9997 29.5262 69.9997H60.3512C62.8693 69.9997 64.9179 67.9511 64.9179 65.4329V45.7828C64.9179 45.0277 64.3057 44.4156 63.5507 44.4156C62.7957 44.4156 62.1835 45.0277 62.1835 45.7828V65.4331C62.1835 66.4436 61.3614 67.2655 60.3512 67.2655H30.8942V54.2352C30.8942 51.4715 28.5809 49.1554 25.8152 49.1554C23.0131 49.1554 20.7352 51.4368 20.7352 54.2352V59.9289C20.7352 60.72 20.0915 61.3636 19.3005 61.3636C18.5045 61.3636 17.8781 60.7518 17.8669 59.9507V13.8249C17.8669 12.8146 18.6889 11.9925 19.6993 11.9925H26.76V14.4145C26.76 15.1696 27.3722 15.7817 28.1271 15.7817H51.9223C52.6682 15.7817 53.2901 15.1592 53.2901 14.4142V11.9925H60.3515C61.3618 11.9925 62.1838 12.8146 62.1838 13.8249V33.7552C62.1838 34.5103 62.796 35.1224 63.551 35.1224C64.3059 35.1224 64.9182 34.5103 64.9182 33.7552V13.8249H64.918ZM29.4943 8.23919H32.2117C33.9619 8.23919 35.5358 7.12849 36.1284 5.47529C36.7165 3.8359 38.2822 2.73436 40.0249 2.73436C41.7677 2.73436 43.3335 3.83577 43.9212 5.47529C44.5141 7.12849 46.0882 8.23919 47.838 8.23919H50.5555L50.5548 13.0472H29.4943V8.23919Z" fill="url(#paint0_linear)"/>
<path d="M41.2872 6.68894C41.0006 6.00179 40.1911 5.66314 39.5016 5.94929C38.8145 6.23449 38.476 7.04646 38.762 7.73484C39.0476 8.42199 39.8594 8.75995 40.5475 8.47449C41.2346 8.18929 41.5738 7.37677 41.2872 6.68894Z" fill="url(#paint1_linear)"/>
<path d="M31.3554 38.077L27.8439 41.5884L26.4747 40.2192C25.9408 39.6853 25.0753 39.6853 24.541 40.2192C24.0072 40.7531 24.0072 41.6188 24.541 42.1527L26.877 44.4886C27.1334 44.745 27.4812 44.8891 27.8438 44.8891C28.2063 44.8891 28.554 44.745 28.8105 44.4886L33.2887 40.0106C33.8226 39.4767 33.8226 38.611 33.2887 38.0771C32.7551 37.5431 31.8897 37.5431 31.3554 38.077Z" fill="url(#paint2_linear)"/>
<path d="M33.289 24.2046C32.7552 23.6707 31.8898 23.6707 31.3554 24.2046L27.8439 27.7161L26.4747 26.3467C25.9408 25.8128 25.0753 25.8128 24.541 26.3467C24.0072 26.8806 24.0072 27.7463 24.541 28.2802L26.877 30.6163C27.1334 30.8726 27.4812 31.0167 27.8438 31.0167C28.2063 31.0167 28.554 30.8726 28.8105 30.6163L33.2887 26.1382C33.8229 25.6042 33.8229 24.7385 33.289 24.2046Z" fill="url(#paint3_linear)"/>
<path d="M54.5268 22.4471H40.0273C39.2724 22.4471 38.6602 23.0591 38.6602 23.8142C38.6602 24.5693 39.2724 25.1814 40.0273 25.1814H54.5268C55.2817 25.1814 55.894 24.5693 55.894 23.8142C55.894 23.0591 55.2819 22.4471 54.5268 22.4471Z" fill="url(#paint4_linear)"/>
<path d="M40.0273 31.0807H46.9126C47.6676 31.0807 48.2798 30.4686 48.2798 29.7135C48.2798 28.9584 47.6676 28.3463 46.9126 28.3463H40.0273C39.2724 28.3463 38.6602 28.9584 38.6602 29.7135C38.6602 30.4686 39.2722 31.0807 40.0273 31.0807Z" fill="url(#paint5_linear)"/>
<path d="M54.5268 37.0802H40.0273C39.2724 37.0802 38.6602 37.6923 38.6602 38.4474C38.6602 39.2025 39.2724 39.8146 40.0273 39.8146H54.5268C55.2817 39.8146 55.894 39.2025 55.894 38.4474C55.894 37.6923 55.2819 37.0802 54.5268 37.0802Z" fill="url(#paint6_linear)"/>
<path d="M40.0273 45.7155H46.9126C47.6676 45.7155 48.2798 45.1034 48.2798 44.3483C48.2798 43.5932 47.6676 42.9811 46.9126 42.9811H40.0273C39.2724 42.9811 38.6602 43.5932 38.6602 44.3483C38.6602 45.1034 39.2722 45.7155 40.0273 45.7155Z" fill="url(#paint7_linear)"/>
<path d="M55.894 53.0822C55.894 52.3271 55.2817 51.715 54.5268 51.715H40.0273C39.2724 51.715 38.6602 52.3271 38.6602 53.0822C38.6602 53.8373 39.2724 54.4494 40.0273 54.4494H54.5268C55.2819 54.4494 55.894 53.8373 55.894 53.0822Z" fill="url(#paint8_linear)"/>
<path d="M40.0273 57.6133C39.2724 57.6133 38.6602 58.2253 38.6602 58.9804C38.6602 59.7355 39.2724 60.3476 40.0273 60.3476H46.9126C47.6676 60.3476 48.2798 59.7355 48.2798 58.9804C48.2798 58.2253 47.6676 57.6133 46.9126 57.6133H40.0273Z" fill="url(#paint9_linear)"/>
<path d="M64.6878 38.8736C64.0109 37.8591 62.3784 38.22 62.1988 39.4323C62.0163 40.6642 63.5198 41.4786 64.4523 40.6602C64.9653 40.21 65.0596 39.4411 64.6878 38.8736Z" fill="url(#paint10_linear)"/>
<defs>
<linearGradient id="paint0_linear" x1="43.6717" y1="91.25" x2="91.2014" y2="55.0122" gradientUnits="userSpaceOnUse">
<stop stopColor="#E12857"/>
<stop offset="1" stopColor="#49B9B3"/>
</linearGradient>
<linearGradient id="paint1_linear" x1="40.4215" y1="9.40444" x2="42.3301" y2="7.7042" gradientUnits="userSpaceOnUse">
<stop stopColor="#E12857"/>
<stop offset="1" stopColor="#49B9B3"/>
</linearGradient>
<linearGradient id="paint2_linear" x1="30.3033" y1="47.0786" x2="35.3136" y2="41.1705" gradientUnits="userSpaceOnUse">
<stop stopColor="#E12857"/>
<stop offset="1" stopColor="#49B9B3"/>
</linearGradient>
<linearGradient id="paint3_linear" x1="30.3035" y1="33.2063" x2="35.3138" y2="27.298" gradientUnits="userSpaceOnUse">
<stop stopColor="#E12857"/>
<stop offset="1" stopColor="#49B9B3"/>
</linearGradient>
<linearGradient id="paint4_linear" x1="49.783" y1="26.0115" x2="50.4478" y2="22.2792" gradientUnits="userSpaceOnUse">
<stop stopColor="#E12857"/>
<stop offset="1" stopColor="#49B9B3"/>
</linearGradient>
<linearGradient id="paint5_linear" x1="44.8688" y1="31.9107" x2="45.984" y2="28.4159" gradientUnits="userSpaceOnUse">
<stop stopColor="#E12857"/>
<stop offset="1" stopColor="#49B9B3"/>
</linearGradient>
<linearGradient id="paint6_linear" x1="49.783" y1="40.6446" x2="50.4478" y2="36.9124" gradientUnits="userSpaceOnUse">
<stop stopColor="#E12857"/>
<stop offset="1" stopColor="#49B9B3"/>
</linearGradient>
<linearGradient id="paint7_linear" x1="44.8688" y1="46.5455" x2="45.984" y2="43.0508" gradientUnits="userSpaceOnUse">
<stop stopColor="#E12857"/>
<stop offset="1" stopColor="#49B9B3"/>
</linearGradient>
<linearGradient id="paint8_linear" x1="49.783" y1="55.2795" x2="50.4478" y2="51.5472" gradientUnits="userSpaceOnUse">
<stop stopColor="#E12857"/>
<stop offset="1" stopColor="#49B9B3"/>
</linearGradient>
<linearGradient id="paint9_linear" x1="44.8688" y1="61.1777" x2="45.984" y2="57.6829" gradientUnits="userSpaceOnUse">
<stop stopColor="#E12857"/>
<stop offset="1" stopColor="#49B9B3"/>
</linearGradient>
<linearGradient id="paint10_linear" x1="63.9454" y1="41.8122" x2="65.8408" y2="40.11" gradientUnits="userSpaceOnUse">
<stop stopColor="#E12857"/>
<stop offset="1" stopColor="#49B9B3"/>
</linearGradient>
</defs>
</svg>
