<svg width="70" height="70" viewBox="0 0 70 70" fill="none" xmlns="http://www.w3.org/2000/svg">
<path d="M34.6563 17.7078C27.3114 17.7078 21.3359 23.6833 21.3359 31.0282C21.3359 38.3731 27.3114 44.3487 34.6563 44.3487C42.0012 44.3487 47.9768 38.3731 47.9768 31.0282C47.9768 23.6833 42.0012 17.7078 34.6563 17.7078ZM45.1511 29.661H40.1242C40.0173 26.8324 39.5809 24.1972 38.867 22.1297C38.7473 21.783 38.6233 21.4627 38.4962 21.1661C42.0323 22.5478 44.6477 25.7766 45.1511 29.661ZM34.6563 41.6143C34.5104 41.6143 33.7626 41.1552 33.0302 39.0343C32.4097 37.2371 32.0269 34.917 31.9248 32.3954H37.3878C37.2857 34.917 36.9029 37.2371 36.2824 39.0343C35.5502 41.1551 34.8023 41.6143 34.6563 41.6143ZM31.9249 29.661C32.0271 27.1394 32.4099 24.8193 33.0303 23.0222C33.7626 20.9013 34.5104 20.4422 34.6564 20.4422C34.8025 20.4422 35.5503 20.9013 36.2827 23.0222C36.9031 24.8193 37.2859 27.1394 37.3881 29.661H31.9249ZM30.8166 21.1661C30.6893 21.4627 30.5654 21.7832 30.4458 22.1299C29.732 24.1973 29.2954 26.8324 29.1885 29.661H24.1616C24.665 25.7766 27.2805 22.5478 30.8166 21.1661ZM24.1616 32.3954H29.1885C29.2954 35.224 29.7318 37.8592 30.4458 39.9267C30.5654 40.2734 30.6894 40.5939 30.8166 40.8904C27.2805 39.5089 24.665 36.28 24.1616 32.3954ZM38.4963 40.8904C38.6235 40.5939 38.7475 40.2734 38.8671 39.9267C39.5809 37.8592 40.0175 35.224 40.1244 32.3954H45.1512C44.6477 36.28 42.0323 39.5087 38.4963 40.8904Z" fill="url(#paint0_linear)"/>
<path d="M30.3125 50.4548C29.5575 50.4548 28.9453 51.067 28.9453 51.822C28.9453 52.577 29.5575 53.1892 30.3125 53.1892H45.8115C46.5664 53.1892 47.1787 52.577 47.1787 51.822C47.1787 51.067 46.5664 50.4548 45.8115 50.4548H30.3125Z" fill="url(#paint1_linear)"/>
<path d="M64.2458 11.1828C64.2458 5.01647 59.2293 0 53.0631 0C47.0421 0 42.12 4.78364 41.8913 10.7495H19.7866C17.0831 10.7495 14.8837 12.9489 14.8837 15.6522V35.661H13.9617C12.108 35.661 10.5989 36.6339 9.71237 38.4004L6.89105 44.0223C5.42502 46.8754 5.37402 50.3069 6.75255 53.1966L10.3935 60.9059C10.9763 62.1398 11.2742 63.0522 11.1415 64.4606L10.7402 68.4975C10.6656 69.2489 11.2142 69.9185 11.9655 69.9932C12.0116 69.9977 12.0571 70 12.1023 70C12.7966 69.9999 13.3912 69.4732 13.4612 68.7679L13.863 64.724C14.007 63.1959 13.8059 61.5951 12.8205 59.6422L9.22278 52.0241C8.2071 49.8951 8.2447 47.3709 9.32901 45.2604L12.1562 39.6269C12.704 38.5353 13.4088 38.3953 13.9617 38.3953H14.8837V45.4082V53.3087C14.8837 54.0637 15.496 54.6759 16.2509 54.6759C17.0059 54.6759 17.6181 54.0637 17.6181 53.3087V45.4082C17.6181 44.2837 18.5423 43.3336 19.6364 43.3336C20.7799 43.3332 21.7748 44.3411 21.779 45.4857V56.2684C21.779 57.3511 21.6286 58.4549 21.3388 59.4981C21.2075 59.9707 21.0529 60.4452 20.9521 60.9256C20.6087 62.3312 20.4717 63.7748 20.5491 65.2291L20.7514 68.712C20.7953 69.4657 21.4379 70.0421 22.1956 69.9975C22.9495 69.9538 23.525 69.3071 23.4812 68.5534L23.2791 65.0772C23.2342 64.237 23.2783 63.3992 23.4076 62.5729H49.5262C52.2304 62.5729 54.4305 60.3728 54.4305 57.6687V45.8258C54.4305 45.0709 53.8183 44.4587 53.0633 44.4587C52.3084 44.4587 51.6962 45.0709 51.6962 45.8258V57.6687C51.6962 58.8651 50.7227 59.8385 49.5262 59.8385H24.0849C24.3486 58.6636 24.5134 57.4743 24.5134 56.2685L24.5135 45.4858C24.5135 45.4372 24.5112 45.3889 24.5097 45.3405C24.4326 42.7132 22.2769 40.5994 19.6364 40.5994C18.9152 40.5994 18.2312 40.7626 17.6181 41.0548V15.6522C17.6181 14.4566 18.5909 13.4839 19.7866 13.4839H42.1185C43.0851 18.1015 47.0146 21.7101 51.6962 22.2826V33.436C51.6962 34.191 52.3084 34.8032 53.0633 34.8032C53.8183 34.8032 54.4305 34.191 54.4305 33.436V22.279C59.9535 21.6021 64.2458 16.8858 64.2458 11.1828ZM53.0631 19.6313C48.4783 19.6313 44.6147 15.768 44.6147 11.1828C44.6147 6.52434 48.4047 2.73437 53.0631 2.73437C57.7215 2.73437 61.5114 6.52434 61.5114 11.1828C61.5114 15.8413 57.7215 19.6313 53.0631 19.6313Z" fill="url(#paint2_linear)"/>
<path d="M55.7472 7.78959L51.3434 12.1936L50.0371 10.8874C49.5031 10.3536 48.6374 10.3536 48.1035 10.8874C47.5697 11.4214 47.5697 12.287 48.1035 12.821L50.3765 15.0938C50.6435 15.3607 50.9934 15.4942 51.3432 15.4942C51.6931 15.4942 52.0429 15.3607 52.31 15.0938L57.6805 9.72321C58.2144 9.18932 58.2144 8.32362 57.6805 7.78959C57.1467 7.25584 56.2812 7.25584 55.7472 7.78959Z" fill="url(#paint3_linear)"/>
<path d="M54.0299 38.98C53.6135 38.3613 52.7553 38.1903 52.1336 38.6026C51.5122 39.0148 51.3454 39.8789 51.7563 40.4976C52.1678 41.1173 53.0328 41.2899 53.6512 40.8763C54.2704 40.4623 54.4438 39.6001 54.0299 38.98Z" fill="url(#paint4_linear)"/>
<defs>
<linearGradient id="paint0_linear" x1="38.5302" y1="52.4361" x2="57.1638" y2="35.8389" gradientUnits="userSpaceOnUse">
<stop stopColor="#E12857"/>
<stop offset="1" stopColor="#49B9B3"/>
</linearGradient>
<linearGradient id="paint1_linear" x1="40.7133" y1="54.0193" x2="41.3437" y2="50.2747" gradientUnits="userSpaceOnUse">
<stop stopColor="#E12857"/>
<stop offset="1" stopColor="#49B9B3"/>
</linearGradient>
<linearGradient id="paint2_linear" x1="43.5051" y1="91.25" x2="90.7198" y2="56.1091" gradientUnits="userSpaceOnUse">
<stop stopColor="#E12857"/>
<stop offset="1" stopColor="#49B9B3"/>
</linearGradient>
<linearGradient id="paint3_linear" x1="54.4011" y1="17.9547" x2="60.059" y2="11.5018" gradientUnits="userSpaceOnUse">
<stop stopColor="#E12857"/>
<stop offset="1" stopColor="#49B9B3"/>
</linearGradient>
<linearGradient id="paint4_linear" x1="53.2894" y1="41.9286" x2="55.1946" y2="40.2315" gradientUnits="userSpaceOnUse">
<stop stopColor="#E12857"/>
<stop offset="1" stopColor="#49B9B3"/>
</linearGradient>
</defs>
</svg>
