<svg width="24" height="24" viewBox="0 0 24 24" fill="none" xmlns="http://www.w3.org/2000/svg">
<path fillRule="evenodd" clipRule="evenodd" d="M6.20718 2.70718L4.79297 1.29297L1.29297 4.79297L2.70718 6.20718L6.20718 2.70718ZM19.2072 1.29297L22.7072 4.79297L21.293 6.20718L17.793 2.70718L19.2072 1.29297ZM12.0001 22.0001C6.47723 22.0001 2.00008 17.5229 2.00008 12.0001C2.00008 6.47723 6.47723 2.00008 12.0001 2.00008C17.5229 2.00008 22.0001 6.47723 22.0001 12.0001C22.0001 17.5229 17.5229 22.0001 12.0001 22.0001ZM12.0001 20.0001C16.4184 20.0001 20.0001 16.4184 20.0001 12.0001C20.0001 7.5818 16.4184 4.00008 12.0001 4.00008C7.5818 4.00008 4.00008 7.5818 4.00008 12.0001C4.00008 16.4184 7.5818 20.0001 12.0001 20.0001ZM17.0001 11.0001H13.0001V6.00008H11.0001V13.0001H17.0001V11.0001Z" fill="#012A2F"/>
</svg>
