<svg width="3" height="14" viewBox="0 0 3 14" fill="none" xmlns="http://www.w3.org/2000/svg">
<path fillRule="evenodd" clipRule="evenodd" d="M0 1.75C0 2.57843 0.671573 3.25 1.5 3.25C2.32843 3.25 3 2.57843 3 1.75C3 0.921573 2.32843 0.25 1.5 0.25C0.671573 0.25 0 0.921573 0 1.75ZM1.5 8.5C0.671573 8.5 0 7.82843 0 7C0 6.17157 0.671573 5.5 1.5 5.5C2.32843 5.5 3 6.17157 3 7C3 7.82843 2.32843 8.5 1.5 8.5ZM1.5 13.75C0.671573 13.75 0 13.0784 0 12.25C0 11.4216 0.671573 10.75 1.5 10.75C2.32843 10.75 3 11.4216 3 12.25C3 13.0784 2.32843 13.75 1.5 13.75Z" fill="#949FA0"/>
</svg>
