<svg width="39" height="38" viewBox="0 0 39 38" fill="none" xmlns="http://www.w3.org/2000/svg">
<path fill-rule="evenodd" clip-rule="evenodd" d="M36.5908 13.6964C37.2411 13.6964 37.8552 13.9811 38.2758 14.4774C38.6965 14.9741 38.8765 15.6271 38.7697 16.2691L38.5313 17.699C37.4805 24.0065 32.8755 29.1169 27.0305 31.4592L28.386 34.5247C28.7218 35.2103 28.6831 36.0059 28.2811 36.6566C27.8755 37.3129 27.1728 37.7047 26.4013 37.7047H19.5789V36.2319H26.4013C26.772 36.2319 26.963 35.9875 27.028 35.8824C27.0928 35.7774 27.2258 35.4976 27.0602 35.1666C27.0593 35.1646 27.0587 35.1636 27.0581 35.1625C27.0495 35.1458 27.0427 35.1282 25.6399 31.9568C24.4708 32.3266 23.2817 32.582 22.0828 32.7208V31.2374C23.3368 31.0799 24.5793 30.7838 25.7961 30.3517C31.5575 28.308 35.7773 23.6491 36.9531 18.1078H22.8928C22.4861 18.1078 22.1564 17.7854 22.1564 17.3787C22.1564 16.972 22.4861 16.6422 22.8928 16.6422H37.2141L37.3167 16.0268C37.3528 15.8099 37.2944 15.5977 37.152 15.4296C37.0097 15.2618 36.8105 15.1694 36.5909 15.1694H22.0828V14.4341H21.42V13.624H19.5789V13.4418L29.966 4.30852C29.9934 3.17978 30.4518 2.09708 31.2565 1.2923C32.9797 -0.429999 35.7831 -0.429999 37.5061 1.29215C39.2285 3.01541 39.2285 5.8188 37.5064 7.54183C36.7013 8.34698 35.6181 8.80555 34.489 8.83265L30.197 13.6964H36.5908ZM36.4646 2.33369C35.3157 1.1853 33.4464 1.18618 32.298 2.33391C31.1569 3.47509 31.1418 5.34402 32.2981 6.50044C33.4486 7.6509 35.3173 7.64788 36.4648 6.50044C37.6129 5.35175 37.6129 3.48253 36.4646 2.33369ZM31.2566 7.54198C30.8174 7.1027 30.4805 6.58042 30.2606 6.01101L21.52 13.6964H28.2328L32.7855 8.53727C32.217 8.31737 31.6954 7.98075 31.2566 7.54198Z" fill="white"/>
<path d="M22.1564 27.8048C22.5631 27.8048 22.8928 27.4751 22.8928 27.0684C22.8928 26.6617 22.5631 26.332 22.1564 26.332C21.7497 26.332 21.42 26.6617 21.42 27.0684C21.42 27.4751 21.7497 27.8048 22.1564 27.8048Z" fill="white"/>
<path d="M8.16415 18.4109C6.53987 18.4109 5.21841 19.7323 5.21841 21.3566C5.21841 22.9809 6.53987 24.3023 8.16415 24.3023C9.78843 24.3023 11.1099 22.9809 11.1099 21.3566C11.1099 19.7323 9.78843 18.4109 8.16415 18.4109ZM8.16415 22.8295C7.35201 22.8295 6.69128 22.1687 6.69128 21.3566C6.69128 20.5445 7.35201 19.8837 8.16415 19.8837C8.97629 19.8837 9.63702 20.5445 9.63702 21.3566C9.63702 22.1687 8.97629 22.8295 8.16415 22.8295Z" fill="white"/>
<path d="M8.16415 27.2481C6.53987 27.2481 5.21841 28.5695 5.21841 30.1938C5.21841 31.8181 6.53987 33.1396 8.16415 33.1396C9.78843 33.1396 11.1099 31.8181 11.1099 30.1938C11.1099 28.5695 9.78843 27.2481 8.16415 27.2481ZM8.16415 31.6667C7.35201 31.6667 6.69128 31.006 6.69128 30.1938C6.69128 29.3817 7.35201 28.721 8.16415 28.721C8.97629 28.721 9.63702 29.3817 9.63702 30.1938C9.63702 31.006 8.97629 31.6667 8.16415 31.6667Z" fill="white"/>
<path d="M12.5828 25.7752C12.5828 27.3995 13.9042 28.721 15.5285 28.721C17.1528 28.721 18.4742 27.3995 18.4742 25.7752C18.4742 24.1509 17.1528 22.8295 15.5285 22.8295C13.9042 22.8295 12.5828 24.1509 12.5828 25.7752ZM17.0014 25.7752C17.0014 26.5874 16.3406 27.2481 15.5285 27.2481C14.7164 27.2481 14.0556 26.5874 14.0556 25.7752C14.0556 24.9631 14.7164 24.3023 15.5285 24.3023C16.3406 24.3023 17.0014 24.9631 17.0014 25.7752Z" fill="white"/>
<path d="M20.6835 2.94574H18.7391L19.1932 0.895725C19.2415 0.677741 19.1883 0.449593 19.0485 0.2755C18.9087 0.10126 18.6975 0 18.4742 0H5.21841C4.99601 0 4.78554 0.100523 4.64576 0.273438C4.50591 0.446427 4.45178 0.673249 4.49833 0.890718L4.93857 2.94574H3.00911C1.7909 2.94574 0.799805 3.93683 0.799805 5.15504V8.9985C0.799805 9.67601 1.2586 10.263 1.9155 10.4279L2.87434 10.6673C3.38764 10.7954 3.74554 11.2542 3.74554 11.783C3.74554 12.3117 3.38764 12.7705 2.87434 12.8987L1.9155 13.138C1.2586 13.303 0.799805 13.8899 0.799805 14.5674V34.0233C0.799805 34.5204 0.897014 35.0027 1.08922 35.4564C1.27481 35.8953 1.53992 36.2886 1.87795 36.6266C2.21671 36.9653 2.60996 37.2305 3.04888 37.416C3.50252 37.6082 3.98488 37.7055 4.48198 37.7055H19.2107C19.7078 37.7055 20.1901 37.6082 20.6438 37.416C21.0827 37.2305 21.4759 36.9653 21.814 36.6266C22.1527 36.2886 22.4178 35.8953 22.6034 35.4564C22.7956 35.0027 22.8928 34.5204 22.8928 34.0233V30.3823C22.8928 29.9766 22.5622 29.6459 22.1564 29.6459C21.7506 29.6459 21.42 29.9766 21.42 30.3823V34.0233C21.4178 35.2391 20.4265 36.2304 19.2107 36.2326H4.48198C3.26612 36.2304 2.27488 35.2391 2.27267 34.0233V14.5674L3.23151 14.3273C4.40097 14.035 5.21841 12.9885 5.21841 11.783C5.21841 10.5774 4.40097 9.53094 3.23151 9.23857L2.27267 8.9985V7.36435H5.88533L6.70763 11.2009C6.78039 11.5404 7.08041 11.783 7.42772 11.783H16.1913C16.5366 11.783 16.8356 11.5429 16.9103 11.2058L17.7611 7.36435H21.42V8.9985L20.4611 9.23857C19.2909 9.53094 18.4742 10.5774 18.4742 11.783C18.4742 12.9885 19.2917 14.035 20.4611 14.3273L21.42 14.5674V23.7544C21.42 24.1602 21.7506 24.4909 22.1564 24.4909C22.5622 24.4909 22.8928 24.1602 22.8928 23.7544V14.5674C22.8928 13.8899 22.434 13.303 21.7771 13.138L20.8183 12.8987C20.305 12.7705 19.9471 12.3117 19.9471 11.783C19.9471 11.2542 20.305 10.7954 20.8183 10.6673L21.7771 10.4279C22.434 10.263 22.8928 9.67601 22.8928 8.9985V5.15504C22.8928 3.93683 21.9018 2.94574 20.6835 2.94574ZM6.12938 1.47287H17.5569L17.2306 2.94574H6.44487L6.12938 1.47287ZM15.6002 10.3101H8.02305L7.39171 7.36435H16.2526L15.6002 10.3101ZM2.27267 5.89148V5.15504C2.27267 4.74897 2.60304 4.41861 3.00911 4.41861H20.6835C21.0896 4.41861 21.42 4.74897 21.42 5.15504V5.89148H2.27267Z" fill="white"/>
<defs>
<linearGradient id="paint0_linear_22_151992" x1="40.7295" y1="-44.7752" x2="7.36558" y2="-43.1354" gradientUnits="userSpaceOnUse">
<stop stopColor="#D84E6A"/>
<stop offset="1" stopColor="#49B9B3"/>
</linearGradient>
<linearGradient id="paint1_linear_22_151992" x1="40.7295" y1="-44.7752" x2="7.36558" y2="-43.1354" gradientUnits="userSpaceOnUse">
<stop stopColor="#D84E6A"/>
<stop offset="1" stopColor="#49B9B3"/>
</linearGradient>
<linearGradient id="paint2_linear_22_151992" x1="40.7295" y1="-44.7752" x2="7.36558" y2="-43.1354" gradientUnits="userSpaceOnUse">
<stop stopColor="#D84E6A"/>
<stop offset="1" stopColor="#49B9B3"/>
</linearGradient>
<linearGradient id="paint3_linear_22_151992" x1="40.7295" y1="-44.7752" x2="7.36558" y2="-43.1354" gradientUnits="userSpaceOnUse">
<stop stopColor="#D84E6A"/>
<stop offset="1" stopColor="#49B9B3"/>
</linearGradient>
<linearGradient id="paint4_linear_22_151992" x1="40.7295" y1="-44.7752" x2="7.36558" y2="-43.1354" gradientUnits="userSpaceOnUse">
<stop stopColor="#D84E6A"/>
<stop offset="1" stopColor="#49B9B3"/>
</linearGradient>
<linearGradient id="paint5_linear_22_151992" x1="40.7295" y1="-44.7752" x2="7.36558" y2="-43.1354" gradientUnits="userSpaceOnUse">
<stop stopColor="#D84E6A"/>
<stop offset="1" stopColor="#49B9B3"/>
</linearGradient>
</defs>
</svg>
