<svg width="36" height="36" viewBox="0 0 36 36" fill="none" xmlns="http://www.w3.org/2000/svg">
<path d="M15.1875 20.1094H3.51562C3.12726 20.1094 2.8125 20.4241 2.8125 20.8125V32.4844C2.8125 32.8727 3.12726 33.1875 3.51562 33.1875H15.1875C15.5759 33.1875 15.8906 32.8727 15.8906 32.4844V20.8125C15.8906 20.4241 15.5759 20.1094 15.1875 20.1094ZM4.21875 22.5102L8.35703 26.6484L4.21875 30.7867V22.5102ZM5.21329 21.5156H13.4901L9.35156 25.6539L5.21329 21.5156ZM9.35156 27.643L13.4898 31.7812H5.21329L9.35156 27.643ZM10.3461 26.6484L14.4844 22.5102V30.787L10.3461 26.6484Z" fill="url(#paint0_linear_20_43391)"/>
<path d="M35.2969 17.2969H27.3516V12.1171C27.3516 11.7287 27.0368 11.414 26.6484 11.414C26.2601 11.414 25.9453 11.7287 25.9453 12.1171V17.2969H10.0547V1.40625H25.9453V6.4454C25.9453 6.83377 26.2601 7.14853 26.6484 7.14853C27.0368 7.14853 27.3516 6.83377 27.3516 6.4454V0.703125C27.3516 0.314758 27.0368 0 26.6484 0H9.35156C8.9632 0 8.64844 0.314758 8.64844 0.703125V17.2969H0.703125C0.314758 17.2969 0 17.6116 0 18V35.2969C0 35.6852 0.314758 36 0.703125 36H35.2969C35.6852 36 36 35.6852 36 35.2969V18C36 17.6116 35.6852 17.2969 35.2969 17.2969ZM1.40625 18.7031H17.2969V34.5938H1.40625V18.7031ZM34.5938 34.5938H18.7031V18.7031H34.5938V34.5938Z" fill="url(#paint1_linear_20_43391)"/>
<path d="M20.1094 20.8125V32.4844C20.1094 32.8727 20.4241 33.1875 20.8125 33.1875H32.4844C32.8727 33.1875 33.1875 32.8727 33.1875 32.4844V20.8125C33.1875 20.4241 32.8727 20.1094 32.4844 20.1094H20.8125C20.4241 20.1094 20.1094 20.4241 20.1094 20.8125ZM25.6542 26.6484L21.5156 30.787V22.5102L25.6542 26.6484ZM26.6484 27.643L30.7867 31.7812H22.5099L26.6484 27.643ZM31.7812 30.7867L27.643 26.6484L28.6414 25.6501C28.9157 25.3757 28.9157 24.9305 28.6414 24.6558C28.3667 24.3814 27.9215 24.3811 27.6468 24.6558L26.6484 25.6542L22.5102 21.5156H31.7812V30.7867Z" fill="url(#paint2_linear_20_43391)"/>
<path d="M29.9265 24.0735C30.1116 24.0735 30.2929 23.9983 30.4236 23.8675C30.5546 23.7368 30.6296 23.5555 30.6296 23.3704C30.6296 23.1855 30.5546 23.0043 30.4236 22.8733C30.2929 22.7425 30.1116 22.6673 29.9265 22.6673C29.7411 22.6673 29.5595 22.7425 29.4288 22.8733C29.2981 23.0043 29.2234 23.1855 29.2234 23.3704C29.2234 23.5555 29.2981 23.7368 29.4288 23.8675C29.5604 23.9983 29.7411 24.0735 29.9265 24.0735Z" fill="url(#paint3_linear_20_43391)"/>
<path d="M26.6487 8.63937C26.463 8.63937 26.2823 8.71463 26.1516 8.84537C26.02 8.9761 25.9456 9.15738 25.9456 9.3425C25.9456 9.52817 26.02 9.70862 26.1516 9.84018C26.2823 9.97092 26.463 10.0456 26.6487 10.0456C26.8336 10.0456 27.0151 9.97092 27.1458 9.84018C27.2766 9.70862 27.3518 9.52817 27.3518 9.3425C27.3518 9.15738 27.2766 8.9761 27.1458 8.84537C27.0151 8.71463 26.8336 8.63937 26.6487 8.63937Z" fill="url(#paint4_linear_20_43391)"/>
<path d="M12.1641 2.8125C11.7757 2.8125 11.4609 3.12726 11.4609 3.51562V15.1875C11.4609 15.5759 11.7757 15.8906 12.1641 15.8906H23.8359C24.2243 15.8906 24.5391 15.5759 24.5391 15.1875V3.51562C24.5391 3.12726 24.2243 2.8125 23.8359 2.8125H12.1641ZM12.8672 5.21329L17.0055 9.35156L12.8672 13.4898V5.21329ZM13.8617 4.21875H22.1385L18 8.35703L13.8617 4.21875ZM18 10.3461L22.1383 14.4844H13.8617L18 10.3461ZM18.9945 9.35156L23.1328 5.21329V13.4901L18.9945 9.35156Z" fill="url(#paint5_linear_20_43391)"/>
<defs>
<linearGradient id="paint0_linear_20_43391" x1="37.8281" y1="-42.75" x2="6.21904" y2="-41.2085" gradientUnits="userSpaceOnUse">
<stop stopColor="#D84E6A"/>
<stop offset="1" stopColor="#49B9B3"/>
</linearGradient>
<linearGradient id="paint1_linear_20_43391" x1="37.8281" y1="-42.75" x2="6.21904" y2="-41.2085" gradientUnits="userSpaceOnUse">
<stop stopColor="#D84E6A"/>
<stop offset="1" stopColor="#49B9B3"/>
</linearGradient>
<linearGradient id="paint2_linear_20_43391" x1="37.8281" y1="-42.75" x2="6.21904" y2="-41.2085" gradientUnits="userSpaceOnUse">
<stop stopColor="#D84E6A"/>
<stop offset="1" stopColor="#49B9B3"/>
</linearGradient>
<linearGradient id="paint3_linear_20_43391" x1="37.8281" y1="-42.75" x2="6.21904" y2="-41.2085" gradientUnits="userSpaceOnUse">
<stop stopColor="#D84E6A"/>
<stop offset="1" stopColor="#49B9B3"/>
</linearGradient>
<linearGradient id="paint4_linear_20_43391" x1="37.8281" y1="-42.75" x2="6.21904" y2="-41.2085" gradientUnits="userSpaceOnUse">
<stop stopColor="#D84E6A"/>
<stop offset="1" stopColor="#49B9B3"/>
</linearGradient>
<linearGradient id="paint5_linear_20_43391" x1="37.8281" y1="-42.75" x2="6.21904" y2="-41.2085" gradientUnits="userSpaceOnUse">
<stop stopColor="#D84E6A"/>
<stop offset="1" stopColor="#49B9B3"/>
</linearGradient>
</defs>
</svg>
