<svg width="24" height="24" viewBox="0 0 24 24" fill="none" xmlns="http://www.w3.org/2000/svg">
<g clip-path="url(#clip0)">
<path d="M12 0C9.62663 0 7.30655 0.703788 5.33316 2.02236C3.35977 3.34094 1.8217 5.21509 0.913451 7.4078C0.00519943 9.60051 -0.232441 12.0133 0.230582 14.3411C0.693605 16.6689 1.83649 18.8071 3.51472 20.4853C5.19295 22.1635 7.33115 23.3064 9.65892 23.7694C11.9867 24.2324 14.3995 23.9948 16.5922 23.0866C18.7849 22.1783 20.6591 20.6402 21.9776 18.6668C23.2962 16.6935 24 14.3734 24 12C23.9964 8.8185 22.731 5.76833 20.4813 3.51867C18.2317 1.269 15.1815 0.00357316 12 0V0ZM12 22C10.0222 22 8.08879 21.4135 6.4443 20.3147C4.79981 19.2159 3.51809 17.6541 2.76121 15.8268C2.00433 13.9996 1.8063 11.9889 2.19215 10.0491C2.578 8.10929 3.53041 6.32746 4.92894 4.92893C6.32746 3.53041 8.10929 2.578 10.0491 2.19215C11.9889 1.8063 13.9996 2.00433 15.8268 2.7612C17.6541 3.51808 19.2159 4.79981 20.3147 6.4443C21.4135 8.08879 22 10.0222 22 12C21.997 14.6512 20.9425 17.193 19.0677 19.0677C17.193 20.9425 14.6512 21.997 12 22Z" fill="#012A2F"/>
<path d="M13.5 7H10C9.73478 7 9.48043 7.10536 9.29289 7.29289C9.10536 7.48043 9 7.73478 9 8V18H11V14H13.5C14.4282 14 15.3185 13.6312 15.9749 12.9749C16.6312 12.3185 17 11.4283 17 10.5C17 9.57174 16.6312 8.6815 15.9749 8.02513C15.3185 7.36875 14.4282 7 13.5 7ZM13.5 12H11V9H13.5C13.8978 9 14.2793 9.15803 14.5606 9.43934C14.842 9.72064 15 10.1022 15 10.5C15 10.8978 14.842 11.2793 14.5606 11.5607C14.2793 11.842 13.8978 12 13.5 12Z" fill="#012A2F"/>
</g>
<defs>
<clipPath id="clip0">
<rect width="24" height="24" fill="white"/>
</clipPath>
</defs>
</svg>
