<svg width="24" height="24" viewBox="0 0 24 24" fill="none" xmlns="http://www.w3.org/2000/svg">
<path d="M24 14.76L9.96 0.72C9 -0.24 7.44 -0.24 6.6 0.72L3.12 4.08C2.16 5.04 2.16 6.48 3.12 7.44L6.12 10.44L5.88 10.68C4.44 12.12 4.44 14.4 5.88 15.72L6 15.84V18.24L2.4 18.96V16.8H0V24H2.4V21.36L8.4 20.16V16.8C9.36 16.8 10.2 16.44 10.92 15.72L11.16 15.48L13.8 18.12L24 14.76ZM8.16 2.4L19.56 13.8L14.52 15.48L4.92 5.88L8.16 2.4ZM9.24 14.04C8.76 14.52 8.04 14.52 7.56 14.04C7.08 13.56 7.08 12.84 7.56 12.36L7.8 12.12L9.48 13.8L9.24 14.04Z" fill="#012A2F"/>
</svg>
