<svg width="24" height="24" viewBox="0 0 24 24" fill="none" xmlns="http://www.w3.org/2000/svg">
<g clip-path="url(#clip0)">
<path d="M19.4581 11.7268C21.9178 9.5155 22.1192 5.72894 19.908 3.26922C17.8799 1.01326 14.4853 0.630007 12.0052 2.37706C9.30174 0.469092 5.56344 1.11401 3.65547 3.81746C1.90475 6.29812 2.28644 9.69626 4.54386 11.7267C1.73896 13.2053 -0.0116611 16.1203 0.00104527 19.291V21.8624C0.00104527 22.3358 0.384799 22.7195 0.858201 22.7195H23.1438C23.6172 22.7195 24.0009 22.3358 24.0009 21.8624V19.291C24.0136 16.1203 22.263 13.2053 19.4581 11.7268ZM15.4295 3.00535C17.7931 3.00274 19.7113 4.91669 19.714 7.28028C19.7158 8.96597 18.728 10.4957 17.1909 11.1876C17.1249 11.2176 17.0589 11.245 16.9921 11.2733C16.7805 11.3586 16.5624 11.4265 16.3398 11.4765C16.2969 11.4859 16.2541 11.491 16.2104 11.4996C15.9617 11.5473 15.7093 11.5728 15.4561 11.5759C15.3421 11.5759 15.2272 11.5673 15.1132 11.5571C15.0703 11.5571 15.0275 11.5571 14.9846 11.5485C14.4975 11.4911 14.0236 11.3515 13.5832 11.1353C13.5669 11.1276 13.548 11.1285 13.5318 11.1216C13.446 11.0805 13.3604 11.0445 13.2841 10.9982C13.2909 10.9896 13.2952 10.9802 13.302 10.9716C13.6951 10.4666 14.005 9.90207 14.22 9.29935L14.2466 9.22733C14.3444 8.93945 14.4203 8.64464 14.4737 8.34531C14.4815 8.30162 14.4875 8.25958 14.4943 8.21247C14.5439 7.90777 14.57 7.59975 14.5723 7.29103C14.5699 6.98291 14.5438 6.67545 14.4943 6.3713C14.4875 6.32675 14.4815 6.28557 14.4737 6.23846C14.4203 5.93918 14.3444 5.64432 14.2466 5.35644L14.22 5.28442C14.005 4.68169 13.695 4.11719 13.302 3.61215C13.2952 3.60356 13.2909 3.59417 13.2841 3.58558C13.9353 3.20569 14.6756 3.0054 15.4295 3.00535ZM4.28672 7.29108C4.28065 4.9303 6.18947 3.01158 8.55025 3.0055C9.65687 3.00264 10.7215 3.42908 11.5201 4.19508C11.5699 4.2431 11.6187 4.29106 11.6667 4.34078C11.8139 4.49502 11.9496 4.65975 12.073 4.83362C12.1107 4.88676 12.145 4.94336 12.1801 4.9982C12.2999 5.18257 12.4051 5.37603 12.4947 5.57677C12.5161 5.62564 12.5324 5.67536 12.5512 5.72417C12.6416 5.94621 12.7127 6.17563 12.7638 6.40987C12.7698 6.43558 12.7715 6.4613 12.7767 6.48786C12.8852 7.02008 12.8852 7.56876 12.7767 8.10098C12.7715 8.12754 12.7698 8.15326 12.7638 8.17897C12.7127 8.41321 12.6416 8.64263 12.5512 8.86467C12.5324 8.91353 12.5161 8.96325 12.4947 9.01207C12.405 9.21251 12.2998 9.40567 12.1801 9.58978C12.145 9.64463 12.1107 9.70123 12.073 9.75437C11.9497 9.92829 11.8139 10.093 11.6667 10.2472C11.6187 10.2969 11.5698 10.3449 11.5201 10.3929C11.1731 10.7236 10.773 10.9937 10.3364 11.1917C10.267 11.2234 10.1967 11.2526 10.1256 11.2775C9.91898 11.3595 9.70638 11.4254 9.48962 11.4746C9.43563 11.4866 9.37989 11.4934 9.32504 11.5029C9.09231 11.5462 8.85631 11.57 8.61961 11.574H8.52534C8.28864 11.57 8.05264 11.5462 7.81991 11.5029C7.76507 11.4934 7.70932 11.4866 7.65533 11.4746C7.43857 11.4254 7.22592 11.3595 7.01935 11.2775C6.94819 11.2492 6.87793 11.2201 6.80852 11.1917C5.27501 10.4994 4.28868 8.9736 4.28672 7.29108ZM15.4295 21.0053H1.71531V19.291C1.70275 16.3865 3.53277 13.7932 6.27354 12.8316C7.74487 13.4442 9.39987 13.4442 10.8713 12.8316C11.1574 12.9362 11.4363 13.0596 11.7061 13.2011C11.8844 13.2928 12.049 13.3973 12.2204 13.5028C12.3318 13.5722 12.4449 13.6399 12.5521 13.7162C12.7176 13.8336 12.8735 13.9613 13.027 14.0925C13.1256 14.1782 13.2232 14.2639 13.3158 14.3496C13.4572 14.4833 13.5901 14.6247 13.7178 14.7696C13.8095 14.8742 13.8986 14.9805 13.9835 15.0902C14.0958 15.2342 14.2029 15.3816 14.3024 15.5333C14.3881 15.6619 14.4644 15.7956 14.5398 15.9293C14.6255 16.0767 14.7044 16.2242 14.7763 16.3776C14.8484 16.5311 14.9118 16.699 14.9735 16.8628C15.0275 17.0051 15.0849 17.1465 15.1295 17.2913C15.1895 17.4902 15.2315 17.6959 15.2734 17.9016C15.2992 18.0233 15.3326 18.1425 15.3514 18.2659C15.4022 18.6052 15.4283 18.9478 15.4294 19.291L15.4295 21.0053ZM22.2866 21.0053H17.1438V19.291C17.1438 19.0227 17.1284 18.757 17.1044 18.4939C17.0975 18.4167 17.0855 18.3404 17.077 18.2633C17.0538 18.0739 17.0272 17.8862 16.9912 17.7001C16.9758 17.6207 16.9595 17.541 16.9424 17.461C16.9012 17.2701 16.8535 17.081 16.7992 16.8936C16.7812 16.8318 16.7649 16.7693 16.7461 16.7084C16.5061 15.9412 16.1583 15.2119 15.7133 14.5425L15.6798 14.4936C15.5324 14.2747 15.375 14.063 15.2075 13.8585L15.2015 13.8508C15.0301 13.6382 14.8441 13.4316 14.6487 13.2362C14.6598 13.2362 14.6718 13.2362 14.6838 13.2362C14.9257 13.268 15.1693 13.2851 15.4133 13.2876H15.4604C15.6862 13.2856 15.9117 13.271 16.1359 13.2439C16.2061 13.2353 16.2756 13.2225 16.3459 13.2113C16.5282 13.1833 16.7082 13.147 16.8859 13.1025C16.9364 13.0896 16.9879 13.0776 17.0393 13.0631C17.2725 12.9996 17.5015 12.9217 17.725 12.8299C20.4678 13.7905 22.2994 16.385 22.2867 19.2911L22.2866 21.0053Z" fill="#012A2F"/>
</g>
<defs>
<clipPath id="clip0">
<rect width="24" height="24" fill="white"/>
</clipPath>
</defs>
</svg>
