<svg width="24" height="24" viewBox="0 0 24 24" fill="none" xmlns="http://www.w3.org/2000/svg">
<path d="M16.1157 11.6873C17.1191 10.7755 17.8231 9.58145 18.1351 8.26209C18.4471 6.94273 18.3525 5.55985 17.8638 4.29526C17.375 3.03067 16.5151 1.94356 15.3969 1.17693C14.2787 0.410297 12.9547 0 11.599 0C10.2432 0 8.9192 0.410297 7.80102 1.17693C6.68284 1.94356 5.82282 3.03067 5.33409 4.29526C4.84536 5.55985 4.75078 6.94273 5.06277 8.26209C5.37477 9.58145 6.07874 10.7755 7.08213 11.6873C5.54111 12.529 4.25567 13.7708 3.36126 15.2818C2.46685 16.7928 1.99661 18.5172 2.00006 20.2731V22.9821C1.99858 23.1138 2.02322 23.2446 2.07262 23.3667C2.12203 23.4889 2.19518 23.6 2.28784 23.6937C2.3805 23.7874 2.49083 23.8619 2.61244 23.9126C2.73405 23.9634 2.86457 23.9895 2.99635 23.9895H20.2016C20.3333 23.9895 20.4638 23.9634 20.5854 23.9126C20.707 23.8619 20.8173 23.7874 20.91 23.6937C21.0027 23.6 21.0758 23.4889 21.1252 23.3667C21.1746 23.2446 21.1993 23.1138 21.1978 22.9821V20.1499C21.1959 18.4115 20.7222 16.7061 19.8272 15.2157C18.9321 13.7253 17.6494 12.5058 16.1157 11.6873ZM6.79107 6.7171C6.78886 5.76414 7.06957 4.83198 7.59762 4.03871C8.12568 3.24543 8.87732 2.62672 9.75731 2.26101C10.6373 1.89531 11.6061 1.79907 12.5409 1.98444C13.4756 2.16981 14.3343 2.62848 15.0081 3.30232C15.682 3.97617 16.1406 4.83484 16.326 5.7696C16.5114 6.70436 16.4151 7.67308 16.0494 8.55308C15.6837 9.43307 15.065 10.1848 14.2717 10.7128C13.4785 11.2409 12.5463 11.5215 11.5934 11.5193C10.9618 11.5193 10.3364 11.3947 9.75301 11.1527C9.16964 10.9107 8.63975 10.556 8.19367 10.1089C7.7476 9.66174 7.39406 9.13099 7.15339 8.54706C6.91271 7.96314 6.7896 7.33748 6.79107 6.7059V6.7171ZM19.2836 22.0753H3.9142V20.1611C3.91499 18.5766 4.40456 17.0309 5.31605 15.7348C6.22754 14.4387 7.51664 13.4552 9.00754 12.9186C9.82539 13.2659 10.7048 13.4449 11.5934 13.4449C12.4819 13.4449 13.3613 13.2659 14.1792 12.9186C15.6731 13.4519 16.9654 14.4342 17.8793 15.7308C18.7931 17.0274 19.2836 18.5749 19.2836 20.1611V22.0753Z" fill="#012A2F"/>
</svg>
