<svg width="28" height="28" viewBox="0 0 28 28" fill="none" xmlns="http://www.w3.org/2000/svg">
<path d="M27.8135 26.7185C27.7876 26.6882 27.7593 26.6599 27.7289 26.6338L15.0972 13.9785L27.7367 1.33086C28.0407 1.02641 28.0407 0.532794 27.7367 0.22834C27.4326 -0.0761134 26.9396 -0.0761134 26.6355 0.22834L14.0038 12.8837L1.37215 0.22834C1.06808 -0.0761134 0.57509 -0.0761134 0.271019 0.22834C-0.0330517 0.532794 -0.0330517 1.02641 0.271019 1.33086L12.9105 13.9785L0.271074 26.6261C-0.0542063 26.905 -0.0920993 27.3951 0.186455 27.7208C0.465009 28.0465 0.95451 28.0845 1.27979 27.8056C1.3101 27.7796 1.3384 27.7512 1.36441 27.7208L14.0039 15.0732L26.6356 27.7286C26.9141 28.0543 27.4036 28.0922 27.7289 27.8133C28.0542 27.5344 28.0921 27.0442 27.8135 26.7185Z" fill="#717A7B"/>
</svg>
