<svg width="24" height="24" viewBox="0 0 24 24" fill="none" xmlns="http://www.w3.org/2000/svg">
<path d="M23.8475 11.5331C23.6331 11.2398 18.5245 4.35156 11.9999 4.35156C5.47529 4.35156 0.366469 11.2398 0.152297 11.5328C-0.0507657 11.8111 -0.0507657 12.1885 0.152297 12.4667C0.366469 12.76 5.47529 19.6483 11.9999 19.6483C18.5245 19.6483 23.6331 12.76 23.8475 12.467C24.0508 12.1888 24.0508 11.8111 23.8475 11.5331ZM11.9999 18.0659C7.19383 18.0659 3.03127 13.494 1.79907 11.9994C3.02968 10.5035 7.18351 5.93397 11.9999 5.93397C16.8057 5.93397 20.968 10.505 22.2007 12.0005C20.9701 13.4963 16.8163 18.0659 11.9999 18.0659Z" fill="#012A2F"/>
<path d="M12.0002 7.25244C9.3826 7.25244 7.25293 9.38212 7.25293 11.9997C7.25293 14.6173 9.3826 16.747 12.0002 16.747C14.6178 16.747 16.7475 14.6173 16.7475 11.9997C16.7475 9.38212 14.6178 7.25244 12.0002 7.25244ZM12.0002 15.1645C10.255 15.1645 8.83538 13.7448 8.83538 11.9997C8.83538 10.2546 10.2551 8.8349 12.0002 8.8349C13.7453 8.8349 15.165 10.2546 15.165 11.9997C15.165 13.7448 13.7454 15.1645 12.0002 15.1645Z" fill="#012A2F"/>
</svg>
