<svg width="76" height="76" viewBox="0 0 76 76" fill="none" xmlns="http://www.w3.org/2000/svg">
<path d="M67.9167 16.8249C67.9167 14.3069 65.8681 12.2581 63.3501 12.2581H56.2887V9.872C56.2887 9.11691 55.6765 8.50482 54.9215 8.50482H50.8368C50.2378 8.50482 49.6982 8.12201 49.4939 7.55244C48.5176 4.82943 45.9175 3 43.0236 3C40.1298 3 37.5296 4.82943 36.5534 7.55244C36.3492 8.12215 35.8095 8.50482 35.2106 8.50482H31.126C30.371 8.50482 29.7588 9.11691 29.7588 9.872V12.2583H22.6979C20.1796 12.2583 18.1311 14.3069 18.1311 16.8251V47.4139L9.17 60.4299C7.86543 62.3306 7.63588 64.726 8.55545 66.8393L10.7982 72.1633C11.0183 72.6858 11.5251 73.0001 12.0587 73C12.2358 73 12.4157 72.9654 12.5889 72.8924C13.2848 72.5993 13.6113 71.7976 13.3182 71.1017L11.0719 65.7695C11.0696 65.764 11.0672 65.7586 11.0648 65.7533C10.5213 64.5086 10.6558 63.097 11.4232 61.9787L18.1301 52.237V62.9289C18.1301 65.238 19.9858 67.0986 22.2997 67.0986C24.5982 67.0986 26.4684 65.2278 26.4684 62.9285V57.2352C26.4684 55.9287 27.5084 54.89 28.8133 54.89C30.0914 54.89 31.1577 55.9583 31.1577 57.2352V71.6325C31.1577 72.3876 31.7699 72.9997 32.5249 72.9997H63.3499C65.868 72.9997 67.9166 70.9511 67.9166 68.4329V48.7828C67.9166 48.0277 67.3044 47.4156 66.5494 47.4156C65.7944 47.4156 65.1822 48.0277 65.1822 48.7828V68.4331C65.1822 69.4436 64.3601 70.2655 63.3499 70.2655H33.8929V57.2352C33.8929 54.4715 31.5796 52.1554 28.8139 52.1554C26.0118 52.1554 23.7339 54.4368 23.7339 57.2352V62.9289C23.7339 63.72 23.0902 64.3636 22.2992 64.3636C21.5032 64.3636 20.8768 63.7518 20.8656 62.9507V16.8249C20.8656 15.8146 21.6876 14.9925 22.698 14.9925H29.7587V17.4145C29.7587 18.1696 30.3709 18.7817 31.1259 18.7817H54.921C55.6669 18.7817 56.2888 18.1592 56.2888 17.4142V14.9925H63.3502C64.3605 14.9925 65.1825 15.8146 65.1825 16.8249V36.7552C65.1825 37.5103 65.7947 38.1224 66.5497 38.1224C67.3046 38.1224 67.9169 37.5103 67.9169 36.7552V16.8249H67.9167ZM32.493 11.2392H35.2104C36.9606 11.2392 38.5345 10.1285 39.1271 8.47529C39.7152 6.8359 41.2809 5.73436 43.0236 5.73436C44.7664 5.73436 46.3322 6.83577 46.9199 8.47529C47.5128 10.1285 49.0869 11.2392 50.8367 11.2392H53.5542L53.5535 16.0472H32.493V11.2392Z" fill="url(#paint0_linear_82_870)"/>
<path d="M44.2855 9.68895C43.9989 9.0018 43.1894 8.66315 42.4999 8.9493C41.8128 9.2345 41.4742 10.0465 41.7603 10.7348C42.0459 11.422 42.8577 11.76 43.5458 11.4745C44.2328 11.1893 44.572 10.3768 44.2855 9.68895Z" fill="url(#paint1_linear_82_870)"/>
<path d="M34.3535 41.0769L30.842 44.5884L29.4727 43.2192C28.9389 42.6853 28.0734 42.6853 27.5391 43.2192C27.0052 43.753 27.0052 44.6187 27.5391 45.1526L29.8751 47.4886C30.1315 47.7449 30.4793 47.889 30.8418 47.889C31.2044 47.889 31.5521 47.7449 31.8086 47.4886L36.2868 43.0105C36.8207 42.4766 36.8207 41.6109 36.2868 41.077C35.7532 40.543 34.8878 40.543 34.3535 41.0769Z" fill="url(#paint2_linear_82_870)"/>
<path d="M36.2868 27.2046C35.753 26.6707 34.8876 26.6707 34.3531 27.2046L30.8417 30.7161L29.4724 29.3467C28.9385 28.8128 28.0731 28.8128 27.5388 29.3467C27.0049 29.8806 27.0049 30.7463 27.5388 31.2802L29.8748 33.6163C30.1311 33.8727 30.479 34.0168 30.8415 34.0168C31.2041 34.0168 31.5518 33.8727 31.8083 33.6163L36.2865 29.1382C36.8206 28.6042 36.8206 27.7385 36.2868 27.2046Z" fill="url(#paint3_linear_82_870)"/>
<path d="M57.5238 25.447H43.0243C42.2694 25.447 41.6571 26.0591 41.6571 26.8142C41.6571 27.5693 42.2694 28.1814 43.0243 28.1814H57.5238C58.2787 28.1814 58.8909 27.5693 58.8909 26.8142C58.8909 26.0591 58.2789 25.447 57.5238 25.447Z" fill="url(#paint4_linear_82_870)"/>
<path d="M43.0243 34.0806H49.9096C50.6646 34.0806 51.2768 33.4685 51.2768 32.7134C51.2768 31.9583 50.6646 31.3462 49.9096 31.3462H43.0243C42.2694 31.3462 41.6571 31.9583 41.6571 32.7134C41.6571 33.4685 42.2692 34.0806 43.0243 34.0806Z" fill="url(#paint5_linear_82_870)"/>
<path d="M57.5238 40.0801H43.0243C42.2694 40.0801 41.6571 40.6922 41.6571 41.4473C41.6571 42.2024 42.2694 42.8145 43.0243 42.8145H57.5238C58.2787 42.8145 58.8909 42.2024 58.8909 41.4473C58.8909 40.6922 58.2789 40.0801 57.5238 40.0801Z" fill="url(#paint6_linear_82_870)"/>
<path d="M43.0243 48.7156H49.9096C50.6646 48.7156 51.2768 48.1035 51.2768 47.3484C51.2768 46.5933 50.6646 45.9812 49.9096 45.9812H43.0243C42.2694 45.9812 41.6571 46.5933 41.6571 47.3484C41.6571 48.1035 42.2692 48.7156 43.0243 48.7156Z" fill="url(#paint7_linear_82_870)"/>
<path d="M58.8909 56.0823C58.8909 55.3272 58.2787 54.7151 57.5238 54.7151H43.0243C42.2694 54.7151 41.6571 55.3272 41.6571 56.0823C41.6571 56.8374 42.2694 57.4495 43.0243 57.4495H57.5238C58.2789 57.4495 58.8909 56.8374 58.8909 56.0823Z" fill="url(#paint8_linear_82_870)"/>
<path d="M43.0243 60.6133C42.2694 60.6133 41.6571 61.2254 41.6571 61.9805C41.6571 62.7356 42.2694 63.3477 43.0243 63.3477H49.9096C50.6646 63.3477 51.2768 62.7356 51.2768 61.9805C51.2768 61.2254 50.6646 60.6133 49.9096 60.6133H43.0243Z" fill="url(#paint9_linear_82_870)"/>
<path d="M67.6867 41.8737C67.0099 40.8592 65.3774 41.2201 65.1978 42.4324C65.0152 43.6643 66.5188 44.4787 67.4513 43.6603C67.9643 43.2101 68.0586 42.4412 67.6867 41.8737Z" fill="url(#paint10_linear_82_870)"/>
<defs>
<linearGradient id="paint0_linear_82_870" x1="46.6704" y1="94.25" x2="94.2001" y2="58.0122" gradientUnits="userSpaceOnUse">
<stop stop-color="#E12857"/>
<stop offset="1" stop-color="#49B9B3"/>
</linearGradient>
<linearGradient id="paint1_linear_82_870" x1="43.4198" y1="12.4045" x2="45.3284" y2="10.7042" gradientUnits="userSpaceOnUse">
<stop stop-color="#E12857"/>
<stop offset="1" stop-color="#49B9B3"/>
</linearGradient>
<linearGradient id="paint2_linear_82_870" x1="33.3014" y1="50.0786" x2="38.3117" y2="44.1704" gradientUnits="userSpaceOnUse">
<stop stop-color="#E12857"/>
<stop offset="1" stop-color="#49B9B3"/>
</linearGradient>
<linearGradient id="paint3_linear_82_870" x1="33.3012" y1="36.2063" x2="38.3116" y2="30.298" gradientUnits="userSpaceOnUse">
<stop stop-color="#E12857"/>
<stop offset="1" stop-color="#49B9B3"/>
</linearGradient>
<linearGradient id="paint4_linear_82_870" x1="52.78" y1="29.0115" x2="53.4448" y2="25.2792" gradientUnits="userSpaceOnUse">
<stop stop-color="#E12857"/>
<stop offset="1" stop-color="#49B9B3"/>
</linearGradient>
<linearGradient id="paint5_linear_82_870" x1="47.8657" y1="34.9106" x2="48.981" y2="31.4159" gradientUnits="userSpaceOnUse">
<stop stop-color="#E12857"/>
<stop offset="1" stop-color="#49B9B3"/>
</linearGradient>
<linearGradient id="paint6_linear_82_870" x1="52.78" y1="43.6445" x2="53.4448" y2="39.9123" gradientUnits="userSpaceOnUse">
<stop stop-color="#E12857"/>
<stop offset="1" stop-color="#49B9B3"/>
</linearGradient>
<linearGradient id="paint7_linear_82_870" x1="47.8657" y1="49.5457" x2="48.981" y2="46.0509" gradientUnits="userSpaceOnUse">
<stop stop-color="#E12857"/>
<stop offset="1" stop-color="#49B9B3"/>
</linearGradient>
<linearGradient id="paint8_linear_82_870" x1="52.78" y1="58.2795" x2="53.4448" y2="54.5473" gradientUnits="userSpaceOnUse">
<stop stop-color="#E12857"/>
<stop offset="1" stop-color="#49B9B3"/>
</linearGradient>
<linearGradient id="paint9_linear_82_870" x1="47.8657" y1="64.1777" x2="48.981" y2="60.6829" gradientUnits="userSpaceOnUse">
<stop stop-color="#E12857"/>
<stop offset="1" stop-color="#49B9B3"/>
</linearGradient>
<linearGradient id="paint10_linear_82_870" x1="66.9444" y1="44.8123" x2="68.8398" y2="43.1101" gradientUnits="userSpaceOnUse">
<stop stop-color="#E12857"/>
<stop offset="1" stop-color="#49B9B3"/>
</linearGradient>
</defs>
</svg>
