<svg width="76" height="76" viewBox="0 0 76 76" fill="none" xmlns="http://www.w3.org/2000/svg">
<path d="M37.6569 20.7078C30.312 20.7078 24.3365 26.6832 24.3365 34.0281C24.3365 41.3731 30.312 47.3486 37.6569 47.3486C45.0019 47.3486 50.9774 41.3731 50.9774 34.0281C50.9774 26.6832 45.0019 20.7078 37.6569 20.7078ZM48.1517 32.6609H43.1248C43.0179 29.8324 42.5815 27.1971 41.8676 25.1297C41.7479 24.7829 41.6239 24.4626 41.4968 24.1661C45.0329 25.5477 47.6483 28.7765 48.1517 32.6609ZM37.6569 44.6143C37.511 44.6143 36.7632 44.1552 36.0308 42.0342C35.4103 40.2371 35.0275 37.917 34.9254 35.3953H40.3884C40.2863 37.917 39.9035 40.2371 39.283 42.0342C38.5508 44.155 37.8029 44.6143 37.6569 44.6143ZM34.9255 32.6609C35.0277 30.1393 35.4105 27.8192 36.0309 26.0222C36.7632 23.9012 37.511 23.4421 37.657 23.4421C37.8031 23.4421 38.5509 23.9012 39.2833 26.0222C39.9037 27.8192 40.2866 30.1393 40.3887 32.6609H34.9255ZM33.8172 24.1661C33.6899 24.4626 33.566 24.7831 33.4464 25.1298C32.7326 27.1973 32.296 29.8324 32.1891 32.6609H27.1622C27.6656 28.7765 30.2811 25.5477 33.8172 24.1661ZM27.1622 35.3953H32.1891C32.296 38.2239 32.7324 40.8591 33.4464 42.9266C33.566 43.2733 33.69 43.5938 33.8172 43.8903C30.2811 42.5088 27.6656 39.2799 27.1622 35.3953ZM41.4969 43.8903C41.6241 43.5938 41.7481 43.2733 41.8677 42.9266C42.5815 40.8591 43.0181 38.2239 43.125 35.3953H48.1518C47.6483 39.2799 45.0329 42.5087 41.4969 43.8903Z" fill="url(#paint0_linear_82_3313)"/>
<path d="M33.3151 53.4548C32.5602 53.4548 31.9479 54.0671 31.9479 54.822C31.9479 55.577 32.5602 56.1892 33.3151 56.1892H48.8141C49.5691 56.1892 50.1813 55.577 50.1813 54.822C50.1813 54.0671 49.5691 53.4548 48.8141 53.4548H33.3151Z" fill="url(#paint1_linear_82_3313)"/>
<path d="M67.2465 14.1828C67.2465 8.01647 62.23 3 56.0637 3C50.0428 3 45.1207 7.78364 44.8919 13.7495H22.7873C20.0838 13.7495 17.8844 15.9489 17.8844 18.6522V38.661H16.9624C15.1086 38.661 13.5995 39.6339 12.713 41.4004L9.89172 47.0223C8.42569 49.8754 8.37469 53.3069 9.75322 56.1966L13.3942 63.9059C13.977 65.1398 14.2749 66.0522 14.1422 67.4606L13.7409 71.4975C13.6662 72.2489 14.2149 72.9185 14.9662 72.9932C15.0122 72.9977 15.0578 73 15.103 73C15.7973 72.9999 16.3919 72.4732 16.4619 71.7679L16.8637 67.724C17.0076 66.1959 16.8065 64.5951 15.8212 62.6422L12.2235 55.0241C11.2078 52.8951 11.2454 50.3709 12.3297 48.2604L15.1569 42.6269C15.7047 41.5353 16.4095 41.3953 16.9624 41.3953H17.8844V48.4082V56.3087C17.8844 57.0637 18.4966 57.6759 19.2516 57.6759C20.0066 57.6759 20.6188 57.0637 20.6188 56.3087V48.4082C20.6188 47.2837 21.543 46.3336 22.637 46.3336C23.7805 46.3332 24.7754 47.3411 24.7797 48.4857V59.2684C24.7797 60.3511 24.6293 61.4549 24.3394 62.4981C24.2082 62.9707 24.0536 63.4452 23.9528 63.9256C23.6094 65.3312 23.4724 66.7748 23.5498 68.2291L23.7521 71.712C23.796 72.4657 24.4386 73.0421 25.1963 72.9975C25.9501 72.9538 26.5257 72.3071 26.4818 71.5534L26.2798 68.0772C26.2349 67.237 26.2789 66.3992 26.4083 65.5729H52.5268C55.2311 65.5729 57.4312 63.3728 57.4312 60.6687V48.8258C57.4312 48.0709 56.819 47.4587 56.064 47.4587C55.3091 47.4587 54.6968 48.0709 54.6968 48.8258V60.6687C54.6968 61.8651 53.7234 62.8385 52.5268 62.8385H27.0856C27.3493 61.6636 27.514 60.4743 27.514 59.2685L27.5142 48.4858C27.5142 48.4372 27.5119 48.3889 27.5104 48.3405C27.4332 45.7132 25.2776 43.5994 22.637 43.5994C21.9158 43.5994 21.2318 43.7626 20.6188 44.0548V18.6522C20.6188 17.4566 21.5915 16.4839 22.7873 16.4839H45.1191C46.0857 21.1015 50.0153 24.7101 54.6968 25.2826V36.436C54.6968 37.191 55.3091 37.8032 56.064 37.8032C56.819 37.8032 57.4312 37.191 57.4312 36.436V25.279C62.9542 24.6021 67.2465 19.8858 67.2465 14.1828ZM56.0637 22.6313C51.479 22.6313 47.6154 18.768 47.6154 14.1828C47.6154 9.52434 51.4053 5.73437 56.0637 5.73437C60.7221 5.73437 64.5121 9.52434 64.5121 14.1828C64.5121 18.8413 60.7221 22.6313 56.0637 22.6313Z" fill="url(#paint2_linear_82_3313)"/>
<path d="M58.7492 10.7897L54.3454 15.1937L53.0392 13.8875C52.5051 13.3537 51.6394 13.3537 51.1056 13.8875C50.5717 14.4215 50.5717 15.2871 51.1056 15.8211L53.3785 18.0939C53.6455 18.3608 53.9954 18.4944 54.3452 18.4944C54.6951 18.4944 55.045 18.3608 55.312 18.0939L60.6826 12.7233C61.2164 12.1894 61.2164 11.3237 60.6826 10.7897C60.1487 10.256 59.2832 10.256 58.7492 10.7897Z" fill="url(#paint3_linear_82_3313)"/>
<path d="M57.0302 41.98C56.6137 41.3614 55.7555 41.1903 55.1339 41.6027C54.5125 42.0149 54.3457 42.8789 54.7565 43.4976C55.168 44.1173 56.0331 44.2899 56.6514 43.8763C57.2706 43.4623 57.444 42.6002 57.0302 41.98Z" fill="url(#paint4_linear_82_3313)"/>
<defs>
<linearGradient id="paint0_linear_82_3313" x1="41.5308" y1="55.436" x2="60.1644" y2="38.8388" gradientUnits="userSpaceOnUse">
<stop stop-color="#E12857"/>
<stop offset="1" stop-color="#49B9B3"/>
</linearGradient>
<linearGradient id="paint1_linear_82_3313" x1="43.7159" y1="57.0193" x2="44.3464" y2="53.2747" gradientUnits="userSpaceOnUse">
<stop stop-color="#E12857"/>
<stop offset="1" stop-color="#49B9B3"/>
</linearGradient>
<linearGradient id="paint2_linear_82_3313" x1="46.5057" y1="94.25" x2="93.7205" y2="59.1091" gradientUnits="userSpaceOnUse">
<stop stop-color="#E12857"/>
<stop offset="1" stop-color="#49B9B3"/>
</linearGradient>
<linearGradient id="paint3_linear_82_3313" x1="57.4031" y1="20.9548" x2="63.0611" y2="14.5019" gradientUnits="userSpaceOnUse">
<stop stop-color="#E12857"/>
<stop offset="1" stop-color="#49B9B3"/>
</linearGradient>
<linearGradient id="paint4_linear_82_3313" x1="56.2896" y1="44.9286" x2="58.1949" y2="43.2316" gradientUnits="userSpaceOnUse">
<stop stop-color="#E12857"/>
<stop offset="1" stop-color="#49B9B3"/>
</linearGradient>
</defs>
</svg>
