<svg width="76" height="76" viewBox="0 0 76 76" fill="none" xmlns="http://www.w3.org/2000/svg">
<g clip-path="url(#clip0_82_488)">
<path d="M67.1278 43.6858C67.1888 42.9274 67.2219 42.174 67.2219 41.436C67.2219 32.529 62.9796 24.1338 55.8397 18.8314V10.0559C55.8397 8.05389 54.2094 6.42529 52.2055 6.42529H45.2257C44.4708 6.42529 43.8585 7.03752 43.8585 7.79248C43.8585 8.54744 44.4708 9.15967 45.2257 9.15967H52.2055C52.6932 9.15967 53.1054 9.5701 53.1054 10.0559V23.3721C53.1054 23.8579 52.6932 24.2682 52.2055 24.2682H43.4392C43.059 24.2682 42.6957 24.4265 42.4371 24.7053L38.6381 28.7988L34.8422 24.7057C34.5835 24.4268 34.2203 24.2682 33.8398 24.2682H25.9611C25.4753 24.2682 25.065 23.8579 25.065 23.3721V10.0559C25.065 9.5701 25.4753 9.15967 25.9611 9.15967H32.9445C33.6995 9.15967 34.3117 8.54744 34.3117 7.79248C34.3117 7.03752 33.6995 6.42529 32.9445 6.42529H25.9611C23.9593 6.42529 22.3307 8.05389 22.3307 10.0559V18.8314C15.1908 24.1338 10.9486 32.529 10.9486 41.436C10.9486 42.0219 10.9684 42.6071 11.0037 43.1864C9.97922 43.6293 9.01521 44.1494 8.13297 44.748C4.82287 46.9932 3 50.0313 3 53.3029C3 55.3671 3.74307 57.3759 5.15523 59.1457L4.73236 64.7056C4.69873 65.1491 4.88289 65.5814 5.22619 65.8643C5.47393 66.0686 5.78209 66.1764 6.09572 66.1764C6.21672 66.1764 6.3384 66.1604 6.45789 66.1276L13.2952 64.2484C15.3636 64.8594 17.5649 65.1688 19.8455 65.1688C21.0998 65.1688 22.3329 65.0703 23.5297 64.8847C28.1467 67.9553 33.5119 69.5754 39.0831 69.5754C45.4663 69.5754 51.6429 67.4073 56.6129 63.4462L61.3736 67.9776C61.6313 68.2229 61.9701 68.3545 62.3164 68.3545C62.4437 68.3545 62.5719 68.3367 62.6974 68.3004C63.1647 68.1647 63.5247 67.791 63.6426 67.3189L64.7869 62.7414C69.4653 61.8548 73 57.6847 73 52.8417C73 48.7851 70.5899 45.2831 67.1278 43.6858ZM13.7282 61.5214C13.4766 61.4419 13.2076 61.4368 12.9533 61.5067L7.60633 62.9763L7.92406 58.7975C7.95195 58.4291 7.82973 58.0651 7.585 57.7882C6.37436 56.4191 5.73438 54.868 5.73438 53.3029C5.73438 50.9659 7.13137 48.7314 9.66791 47.0108C10.6476 46.3462 11.749 45.7917 12.9381 45.3528C12.953 45.3471 12.9682 45.342 12.9828 45.3357C15.0586 44.576 17.4018 44.1714 19.8455 44.1714C23.7096 44.1714 27.3249 45.1799 30.0252 47.0111C32.563 48.732 33.9605 50.9665 33.9605 53.303C33.9605 55.6395 32.5628 57.8742 30.0252 59.5949C27.3249 61.4262 23.7096 62.4346 19.8455 62.4346C17.7005 62.4345 15.6424 62.1272 13.7282 61.5214ZM27.3143 63.9527C28.8595 63.4183 30.2928 62.7173 31.5601 61.8579C34.8715 59.6124 36.6952 56.5743 36.6952 53.3029C36.6952 50.0315 34.8715 46.9933 31.5601 44.7478C28.4115 42.6128 24.2513 41.4369 19.8457 41.4369C17.7086 41.4369 15.6308 41.716 13.6969 42.2445C13.6885 41.9756 13.6829 41.706 13.6829 41.436C13.6829 34.098 16.8738 27.1452 22.3307 22.3465V23.3723C22.3307 25.3741 23.9593 27.0027 25.9611 27.0027H33.2431L37.6352 31.739C37.8939 32.018 38.257 32.1764 38.6374 32.1765H38.6377C39.0179 32.1765 39.3811 32.0182 39.6398 31.7395L44.0356 27.0027H52.2055C54.2094 27.0027 55.8397 25.3741 55.8397 23.3723V22.3465C61.2966 27.1452 64.4875 34.0979 64.4875 41.436C64.4875 41.9101 64.4729 42.3918 64.4447 42.8775C63.9476 42.8018 63.4389 42.7623 62.9208 42.7623H51.8061C46.2485 42.7623 41.727 47.2838 41.727 52.8417C41.727 58.3974 46.2484 62.9172 51.8061 62.9172H52.6442C48.6088 65.4662 43.9117 66.8409 39.0831 66.8409C34.9427 66.8409 30.9289 65.849 27.3143 63.9527ZM63.5653 60.153C62.9843 60.2038 62.4993 60.6175 62.358 61.1835L61.559 64.379L57.6154 60.6254C57.6103 60.6203 57.6051 60.6153 57.5997 60.6104L57.5464 60.5596C57.2922 60.3176 56.9547 60.1827 56.6037 60.1827H51.806C47.7561 60.1827 44.4612 56.8894 44.4612 52.8416C44.4612 48.7916 47.7561 45.4965 51.806 45.4965H62.9207C63.7029 45.4965 64.4563 45.6206 65.1638 45.8481C65.2059 45.8648 65.2491 45.8795 65.2934 45.892C68.1822 46.8812 70.2654 49.6217 70.2654 52.8414C70.2656 56.6135 67.3226 59.825 63.5653 60.153Z" fill="url(#paint0_linear_82_488)"/>
<path d="M31.7284 15.3423C30.9734 15.3423 30.3612 15.9583 30.3612 16.7133C30.3612 17.4683 30.9734 18.0805 31.7284 18.0805C32.4834 18.0805 33.0956 17.4683 33.0956 16.7133V16.7055C33.0956 15.9507 32.4835 15.3423 31.7284 15.3423Z" fill="url(#paint1_linear_82_488)"/>
<path d="M39.0842 18.0806C39.8392 18.0806 40.4514 17.4684 40.4514 16.7134V16.7056C40.4514 15.9507 39.8392 15.3423 39.0842 15.3423C38.3293 15.3423 37.717 15.9583 37.717 16.7133C37.717 17.4683 38.3291 18.0806 39.0842 18.0806Z" fill="url(#paint2_linear_82_488)"/>
<path d="M47.8082 16.7134V16.7056C47.8082 15.9507 47.196 15.3423 46.441 15.3423C45.6861 15.3423 45.0739 15.9583 45.0739 16.7133C45.0739 17.4683 45.6861 18.0805 46.441 18.0805C47.196 18.0805 47.8082 17.4684 47.8082 16.7134Z" fill="url(#paint3_linear_82_488)"/>
<path d="M64.5501 48.5686H58.6788C57.9239 48.5686 57.3116 49.1808 57.3116 49.9358C57.3116 50.6908 57.9239 51.303 58.6788 51.303H64.5501C65.305 51.303 65.9173 50.6908 65.9173 49.9358C65.9173 49.1808 65.305 48.5686 64.5501 48.5686Z" fill="url(#paint4_linear_82_488)"/>
<path d="M50.1775 51.303H53.208C53.963 51.303 54.5752 50.6908 54.5752 49.9358C54.5752 49.1808 53.963 48.5686 53.208 48.5686H50.1775C49.4225 48.5686 48.8103 49.1808 48.8103 49.9358C48.8103 50.6908 49.4225 51.303 50.1775 51.303Z" fill="url(#paint5_linear_82_488)"/>
<path d="M58.1647 54.377H50.1775C49.4225 54.377 48.8103 54.9892 48.8103 55.7441C48.8103 56.4991 49.4225 57.1113 50.1775 57.1113H58.1647C58.9197 57.1113 59.5319 56.4991 59.5319 55.7441C59.5319 54.9892 58.9198 54.377 58.1647 54.377Z" fill="url(#paint6_linear_82_488)"/>
<path d="M39.0816 9.15893H39.0894C39.8444 9.15893 40.4528 8.54671 40.4528 7.79175C40.4528 7.03679 39.8367 6.42456 39.0818 6.42456C38.3268 6.42456 37.7146 7.03679 37.7146 7.79175C37.7146 8.54671 38.3266 9.15893 39.0816 9.15893Z" fill="url(#paint7_linear_82_488)"/>
</g>
<defs>
<linearGradient id="paint0_linear_82_488" x1="48.1786" y1="88.746" x2="92.6408" y2="44.8473" gradientUnits="userSpaceOnUse">
<stop stop-color="#E12857"/>
<stop offset="1" stop-color="#49B9B3"/>
</linearGradient>
<linearGradient id="paint1_linear_82_488" x1="32.126" y1="18.9117" x2="34.0409" y2="17.2085" gradientUnits="userSpaceOnUse">
<stop stop-color="#E12857"/>
<stop offset="1" stop-color="#49B9B3"/>
</linearGradient>
<linearGradient id="paint2_linear_82_488" x1="39.4818" y1="18.9119" x2="41.3968" y2="17.2087" gradientUnits="userSpaceOnUse">
<stop stop-color="#E12857"/>
<stop offset="1" stop-color="#49B9B3"/>
</linearGradient>
<linearGradient id="paint3_linear_82_488" x1="46.8386" y1="18.9117" x2="48.7535" y2="17.2085" gradientUnits="userSpaceOnUse">
<stop stop-color="#E12857"/>
<stop offset="1" stop-color="#49B9B3"/>
</linearGradient>
<linearGradient id="paint4_linear_82_488" x1="62.8658" y1="52.1331" x2="64.0844" y2="48.7171" gradientUnits="userSpaceOnUse">
<stop stop-color="#E12857"/>
<stop offset="1" stop-color="#49B9B3"/>
</linearGradient>
<linearGradient id="paint5_linear_82_488" x1="52.531" y1="52.1331" x2="54.1285" y2="49.1331" gradientUnits="userSpaceOnUse">
<stop stop-color="#E12857"/>
<stop offset="1" stop-color="#49B9B3"/>
</linearGradient>
<linearGradient id="paint6_linear_82_488" x1="55.7301" y1="57.9414" x2="56.7491" y2="54.3825" gradientUnits="userSpaceOnUse">
<stop stop-color="#E12857"/>
<stop offset="1" stop-color="#49B9B3"/>
</linearGradient>
<linearGradient id="paint7_linear_82_488" x1="39.4818" y1="9.98901" x2="41.3947" y2="8.28285" gradientUnits="userSpaceOnUse">
<stop stop-color="#E12857"/>
<stop offset="1" stop-color="#49B9B3"/>
</linearGradient>
<clipPath id="clip0_82_488">
<rect width="70" height="70" fill="white" transform="translate(3 3)"/>
</clipPath>
</defs>
</svg>
