<svg width="1599" height="1058" viewBox="0 0 1599 1058" fill="none" xmlns="http://www.w3.org/2000/svg">
<path d="M635 0H1599V996H705C666.34 996 635 964.66 635 926V0Z" fill="url(#paint0_linear_1_950)"/>
<path d="M635 0H1599V996H635V0Z" fill="url(#paint1_linear_1_950)"/>
<mask id="mask0_1_950" style="mask-type:alpha" maskUnits="userSpaceOnUse" x="635" y="0" width="964" height="996">
<path d="M635 0H1599V926C1599 964.66 1567.66 996 1529 996H635V0Z" fill="url(#paint2_linear_1_950)"/>
</mask>
<g mask="url(#mask0_1_950)">
<path d="M406.651 1022.42H399.999C399.999 636.532 707.851 601.192 1005.81 566.904C1290.3 534.271 1559.26 503.442 1559.26 179.513C1559.26 26.422 1454.71 -98.5477 1344.53 -230.736C1191.37 -414.055 1033.1 -603.69 1106.1 -899.346L1112.75 -897.992C1040.43 -605.043 1197.68 -416.461 1349.99 -234.195C1461.19 -100.954 1565.91 24.6173 1565.91 179.664C1565.91 327.492 1509.12 428.25 1391.78 487.802C1287.23 540.888 1151.12 556.528 1006.66 573.07C711.774 606.907 406.651 641.946 406.651 1022.42Z" fill="#E53660"/>
<path d="M406.651 1022.57L399.999 1022.42C409.209 655.029 708.874 620.14 998.647 586.454C1280.57 553.67 1546.81 522.691 1546.81 199.214C1546.81 47.1749 1442.09 -79.2985 1331.74 -213.291C1174.66 -403.377 1012.46 -599.93 1106.1 -899.496L1112.75 -897.842C1019.97 -600.983 1181.14 -405.784 1337.03 -216.9C1448.4 -82.1558 1553.29 45.2199 1553.29 199.063C1553.29 346.741 1497.01 447.499 1380.69 506.901C1277.16 559.987 1142.08 575.777 999.158 592.319C712.626 625.855 416.032 660.443 406.651 1022.57Z" fill="#DF4765"/>
<path d="M406.651 1022.57L399.999 1022.27C418.419 673.377 709.727 639.089 991.483 605.854C1270.68 572.92 1534.53 541.79 1534.53 218.613C1534.53 67.7777 1429.64 -60.3499 1318.78 -196.147C1157.77 -392.85 991.313 -596.17 1106.27 -899.647L1112.58 -897.692C998.817 -597.223 1164.26 -395.106 1324.07 -199.606C1435.78 -63.0568 1541.01 65.8228 1541.01 218.613C1541.01 366.141 1485.24 466.748 1370.12 526.3C1267.44 579.386 1127.59 595.929 992.166 611.719C713.309 644.653 425.071 678.79 406.651 1022.57Z" fill="#D8556A"/>
<path d="M406.651 1022.72L399.999 1022.27C427.459 691.723 710.239 658.037 983.979 625.253C1260.62 592.169 1521.91 561.19 1521.91 238.013C1521.91 88.0797 1416.68 -41.5519 1305.65 -178.853C1140.55 -382.323 970.164 -592.712 1106.27 -899.797L1112.58 -897.541C977.839 -593.463 1147.2 -384.579 1310.93 -182.312C1422.82 -44.2589 1528.39 86.1247 1528.39 238.013C1528.39 385.39 1473.13 486.148 1359.03 545.7C1257.38 598.786 1118.89 615.328 984.491 631.269C713.82 663.602 433.769 696.987 406.651 1022.72Z" fill="#D2616F"/>
<path d="M406.651 1022.72L399.999 1022.12C436.157 709.77 710.75 676.685 976.475 644.653C1250.56 611.719 1509.63 580.439 1509.63 257.563C1509.63 108.381 1404.23 -22.7539 1292.51 -161.709C1123.32 -371.947 948.504 -589.403 1106.27 -899.947L1112.58 -897.391C956.349 -590.005 1129.97 -374.052 1297.8 -165.168C1410.2 -25.4609 1516.11 106.426 1516.11 257.563C1516.11 404.94 1461.36 505.547 1348.28 565.1C1247.66 618.185 1110.19 634.728 977.327 650.669C714.332 682.4 442.468 715.183 406.651 1022.72Z" fill="#CB6B74"/>
<path d="M406.651 1022.87L399.999 1022.12C444.855 727.966 711.091 695.634 968.458 664.354C1240.15 631.419 1496.84 600.29 1496.84 277.113C1496.84 128.684 1390.92 -3.95581 1278.87 -144.565C1105.76 -361.721 926.502 -586.245 1106.44 -899.947L1112.41 -897.24C934.518 -586.696 1112.41 -363.525 1284.5 -147.874C1397.4 -6.51233 1503.66 126.879 1503.66 277.263C1503.66 424.64 1449.25 525.248 1337.37 584.95C1237.59 638.036 1101.32 654.579 969.652 670.519C714.332 701.348 450.825 733.38 406.651 1022.87Z" fill="#C47479"/>
<path d="M406.652 1023.03L400.001 1021.98C453.214 745.871 711.092 714.44 960.444 684.063C1229.92 651.129 1484.56 620.149 1484.56 296.672C1484.56 148.994 1378.13 14.8513 1265.57 -127.262C1088.02 -351.335 904.331 -583.078 1106.44 -900.089L1112.41 -897.081C912.347 -583.529 1094.67 -353.29 1271.19 -130.721C1384.44 12.1443 1491.21 147.039 1491.21 296.672C1491.21 444.199 1437.14 544.957 1326.28 604.509C1227.36 657.595 1092.28 674.137 961.467 689.928C714.333 720.155 459.013 751.285 406.652 1023.03Z" fill="#BC7C7E"/>
<path d="M406.652 1023.03L400.001 1021.82C461.4 763.613 710.922 733.085 952.257 703.459C1219.35 670.676 1471.94 639.847 1471.94 316.069C1471.94 168.992 1365.17 33.3455 1251.92 -110.272C1070.11 -341.413 881.818 -580.374 1106.44 -900.393L1112.07 -897.084C889.834 -580.524 1076.76 -343.218 1257.55 -113.731C1371.31 30.789 1478.59 167.037 1478.59 316.069C1478.59 463.897 1425.03 564.654 1314.86 624.207C1216.62 677.292 1082.73 693.684 952.939 709.625C713.992 738.95 467.029 769.027 406.652 1023.03Z" fill="#B58483"/>
<path d="M406.652 1023.18L400.001 1021.67C469.075 781.359 710.24 751.733 943.559 723.31C1208.77 690.827 1459.66 660.149 1459.66 335.619C1459.66 189.144 1352.21 51.9932 1238.45 -93.1279C1052.03 -331.187 859.134 -577.517 1106.61 -900.393L1112.24 -896.934C867.491 -577.517 1058.85 -332.991 1244.08 -96.5867C1358.35 49.2863 1466.31 187.189 1466.31 335.619C1466.31 483.747 1413.1 584.505 1303.77 644.058C1206.38 697.143 1073.18 713.535 944.582 729.326C713.31 757.598 474.533 786.923 406.652 1023.18Z" fill="#AC8B88"/>
<path d="M406.652 1023.33L400.001 1021.52C476.58 798.803 709.387 770.38 934.69 743.01C1198.2 710.828 1447.04 680.451 1447.04 355.169C1447.04 209.145 1339.08 70.4905 1224.63 -76.1345C1033.78 -321.261 836.109 -574.81 1106.44 -900.393L1112.07 -896.783C844.807 -574.659 1040.95 -322.916 1230.43 -79.5933C1345.22 67.934 1453.69 207.19 1453.69 355.018C1453.69 503.448 1400.99 604.506 1292.34 664.059C1195.47 717.144 1063.29 733.236 935.372 748.876C712.627 776.246 481.867 804.367 406.652 1023.33Z" fill="#A4928D"/>
<path d="M406.483 1023.48L400.173 1021.37C483.745 816.246 708.195 789.027 925.652 762.71C1187.45 730.978 1434.93 701.052 1434.93 374.567C1434.93 228.995 1326.29 88.9864 1211.5 -59.1425C1015.53 -311.488 813.256 -572.255 1106.78 -900.544L1112.07 -896.785C821.614 -571.954 1022.7 -312.992 1216.96 -62.4509C1332.43 86.4299 1441.41 227.19 1441.41 374.717C1441.41 523.598 1389.05 624.957 1281.09 684.509C1184.9 737.595 1059.37 752.784 926.334 768.875C711.265 794.741 488.691 821.66 406.483 1023.48Z" fill="#9A9993"/>
<path d="M406.483 1023.63L400.173 1021.22C490.396 833.39 706.83 807.524 915.76 782.41C1176.2 751.28 1422.31 721.805 1422.31 393.966C1422.31 248.695 1313.15 107.333 1197.52 -42.2993C1098.94 -169.675 997.115 -301.412 959.422 -442.774C916.783 -602.783 964.88 -752.566 1106.78 -900.544L1112.07 -896.785C798.589 -569.397 1004.28 -303.066 1202.97 -45.6078C1319.12 104.777 1428.79 247.041 1428.79 394.117C1428.79 543.599 1376.77 645.259 1269.49 704.661C1173.81 757.747 1048.79 772.635 916.613 788.425C709.559 813.239 495.172 838.955 406.483 1023.63Z" fill="#91A098"/>
<path d="M406.318 1023.78L400.348 1021.07C496.882 850.235 704.788 825.873 905.702 802.262C1164.95 771.885 1409.86 743.011 1409.86 413.518C1409.86 268.547 1299.85 125.832 1183.71 -25.4548C1082.91 -156.289 978.699 -291.786 942.371 -436.005C900.926 -599.623 954.822 -751.662 1106.96 -900.693L1111.9 -896.783C775.228 -566.99 985.692 -293.29 1189.33 -28.7632C1306.16 123.276 1416.51 266.742 1416.51 413.518C1416.51 748.274 1168.7 777.449 906.555 808.127C707.347 831.738 501.317 855.799 406.318 1023.78Z" fill="#85A69D"/>
<path d="M406.318 1024.08L400.348 1020.92C502.681 866.928 701.889 844.069 894.786 822.113C1153.18 792.487 1397.24 764.666 1397.24 433.068C1397.24 288.398 1286.55 144.179 1169.72 -8.4613C1066.88 -142.755 960.279 -281.71 924.633 -429.087C884.553 -596.315 944.077 -750.459 1106.96 -900.693L1111.9 -896.633C751.861 -564.433 967.102 -283.515 1175.35 -11.7698C1292.86 141.622 1403.89 286.593 1403.89 433.068C1403.89 769.93 1156.93 798.202 895.469 827.978C704.447 849.934 506.774 872.492 406.318 1024.08Z" fill="#79ACA3"/>
<path d="M406.14 1024.22L400.511 1020.76C507.79 883.313 698.812 862.109 883.522 841.807C1141.4 813.385 1384.95 786.466 1384.95 452.612C1384.95 308.243 1273.58 162.67 1155.9 8.52612C1050.67 -129.226 941.511 -271.791 907.4 -422.326C868.343 -593.163 933.665 -749.563 1107.12 -900.85L1111.72 -896.639C728.147 -562.184 948.333 -273.746 1161.53 5.06726C1279.89 159.963 1391.6 306.288 1391.6 452.612C1391.6 791.88 1145.15 819.099 884.205 847.823C701.029 867.974 511.542 888.878 406.14 1024.22Z" fill="#6BB2A8"/>
<path d="M405.977 1024.38L400.69 1020.62C512.403 899.256 694.726 880.157 871.25 861.66C1128.79 834.59 1372.34 809.025 1372.34 472.163C1372.34 327.945 1260.29 181.019 1141.75 25.3707C1034.13 -115.84 922.928 -261.864 889.67 -415.557C851.807 -590.003 922.928 -748.659 1106.96 -900.848L1111.56 -896.487C929.58 -745.802 859.141 -588.95 896.492 -416.76C929.58 -264.27 1040.44 -118.698 1147.55 22.0623C1266.77 178.312 1379.16 326.14 1379.16 472.163C1379.16 814.288 1132.88 840.155 871.932 867.675C696.773 886.022 515.985 904.97 405.977 1024.38Z" fill="#5AB7AE"/>
<path d="M405.808 1024.52L400.862 1020.46C516.157 914.894 690.123 897.75 858.29 881.208C1116.17 855.793 1360.06 831.732 1360.06 491.562C1360.06 347.493 1247.15 199.063 1127.94 42.0619C1018.1 -102.608 904.51 -252.241 872.105 -409.092C835.435 -586.997 912.356 -747.908 1107.13 -901L1111.73 -896.488C918.837 -744.75 842.599 -585.794 878.756 -409.994C910.82 -254.497 1024.07 -105.465 1133.57 38.9039C1253.64 196.657 1366.71 345.839 1366.71 491.712C1366.71 837.145 1120.09 861.508 858.801 887.223C691.999 903.615 519.397 920.609 405.808 1024.52Z" fill="#42BDB4"/>
<path d="M1599 159.963H1592.35C1592.35 76.9511 1561.14 2.36029 1515.09 -69.6739C1514.57 -70.4258 1514.06 -71.1777 1513.55 -71.9297C1513.04 -72.6816 1512.53 -73.4335 1512.02 -74.1854C1511.5 -74.9374 1510.99 -75.6893 1510.48 -76.4412C1509.97 -77.1932 1509.46 -77.9451 1508.95 -78.697C1508.43 -79.4489 1507.92 -80.2009 1507.41 -80.9528C1507.41 -80.9528 1507.41 -81.1031 1507.24 -81.1031C1506.73 -81.855 1506.22 -82.6069 1505.71 -83.3589C1505.19 -84.1108 1504.68 -84.8627 1504.17 -85.6146C1503.66 -86.3666 1503.15 -87.1185 1502.64 -87.8704C1502.12 -88.6223 1501.61 -89.3743 1501.1 -90.1262C1500.59 -90.8781 1500.08 -91.63 1499.57 -92.382C1499.05 -93.1339 1498.54 -93.8858 1498.03 -94.6377C1497.52 -95.3896 1497.01 -96.1415 1496.5 -96.8935C1495.98 -97.6454 1495.47 -98.3973 1494.96 -99.1493C1494.45 -99.9012 1493.94 -100.653 1493.43 -101.405C1492.91 -102.157 1492.4 -102.909 1491.89 -103.661C1491.38 -104.413 1490.87 -105.165 1490.36 -105.917C1489.84 -106.669 1489.33 -107.42 1488.82 -108.172C1488.31 -108.924 1487.8 -109.676 1487.29 -110.428C1486.77 -111.18 1486.26 -111.932 1485.58 -112.684C1485.07 -113.436 1484.56 -114.188 1483.88 -114.94C1483.36 -115.692 1482.85 -116.443 1482.17 -117.195C1481.66 -117.947 1481.15 -118.699 1480.46 -119.451C1480.46 -119.451 1480.46 -119.602 1480.29 -119.602C1479.78 -120.354 1479.27 -121.105 1478.59 -121.857C1478.08 -122.609 1477.39 -123.361 1476.88 -124.113C1476.37 -124.865 1475.69 -125.617 1475.18 -126.369C1474.67 -127.121 1473.98 -127.873 1473.47 -128.625C1472.96 -129.377 1472.28 -130.129 1471.77 -130.88C1471.25 -131.632 1470.57 -132.384 1470.06 -133.136C1469.55 -133.888 1468.87 -134.64 1468.35 -135.392C1467.84 -136.144 1467.16 -136.896 1466.65 -137.648C1466.14 -138.4 1465.46 -139.152 1464.94 -139.904C1464.43 -140.655 1463.75 -141.407 1463.24 -142.159C1462.73 -142.911 1462.04 -143.663 1461.53 -144.415C1461.02 -145.167 1460.34 -145.919 1459.83 -146.671C1459.32 -147.423 1458.63 -148.175 1458.12 -148.927C1457.61 -149.679 1456.93 -150.43 1456.42 -151.182C1455.9 -151.934 1455.22 -152.686 1454.71 -153.438C1454.2 -154.19 1453.52 -154.942 1453 -155.694C1452.49 -156.446 1451.81 -157.198 1451.3 -157.95C1450.79 -158.702 1450.11 -159.454 1449.59 -160.205C1449.59 -160.205 1449.59 -160.356 1449.42 -160.356C1448.91 -161.108 1448.23 -161.86 1447.72 -162.612C1447.21 -163.364 1446.52 -164.115 1446.01 -164.867C1445.33 -165.619 1444.82 -166.371 1444.14 -167.123C1443.45 -167.875 1442.94 -168.627 1442.26 -169.379C1441.58 -170.131 1441.07 -170.883 1440.38 -171.635C1439.7 -172.387 1439.19 -173.139 1438.51 -173.89C1437.83 -174.642 1437.31 -175.394 1436.63 -176.146C1435.95 -176.898 1435.44 -177.65 1434.76 -178.402C1434.07 -179.154 1433.56 -179.906 1432.88 -180.658C1432.2 -181.41 1431.69 -182.162 1431 -182.914C1430.32 -183.665 1429.81 -184.417 1429.13 -185.169C1428.44 -185.921 1427.93 -186.673 1427.25 -187.425C1426.57 -188.177 1426.06 -188.929 1425.37 -189.681C1424.69 -190.433 1424.18 -191.185 1423.5 -191.937C1422.82 -192.689 1422.3 -193.44 1421.62 -194.192C1420.94 -194.944 1420.43 -195.696 1419.75 -196.448C1419.06 -197.2 1418.55 -197.952 1417.87 -198.704C1417.87 -198.704 1417.87 -198.854 1417.7 -198.854C1417.02 -199.606 1416.51 -200.358 1415.82 -201.11C1415.14 -201.862 1414.63 -202.614 1413.95 -203.366C1413.27 -204.118 1412.75 -204.87 1412.07 -205.622C1411.39 -206.374 1410.88 -207.125 1410.2 -207.877C1409.51 -208.629 1409 -209.381 1408.32 -210.133C1407.64 -210.885 1407.13 -211.637 1406.44 -212.389C1405.76 -213.141 1405.25 -213.893 1404.57 -214.645C1403.88 -215.397 1403.37 -216.149 1402.69 -216.9C1402.01 -217.652 1401.5 -218.404 1400.82 -219.156C1400.13 -219.908 1399.62 -220.66 1398.94 -221.412C1398.26 -222.164 1397.74 -222.916 1397.06 -223.668C1396.38 -224.42 1395.87 -225.172 1395.19 -225.924C1394.5 -226.675 1393.99 -227.427 1393.31 -228.179C1392.63 -228.931 1392.12 -229.683 1391.43 -230.435C1390.75 -231.187 1390.24 -231.939 1389.56 -232.691C1388.88 -233.443 1388.36 -234.195 1387.68 -234.947C1387 -235.699 1386.49 -236.45 1385.81 -237.202C1385.12 -237.954 1384.61 -238.706 1383.93 -239.458C1383.93 -239.458 1383.93 -239.609 1383.76 -239.609C1383.08 -240.36 1382.57 -241.112 1381.88 -241.864C1381.37 -242.616 1380.69 -243.218 1380.18 -243.97C1380.18 -243.97 1380.18 -244.12 1380.01 -244.12C1379.33 -244.872 1378.81 -245.624 1378.13 -246.376C1377.45 -247.128 1376.94 -247.88 1376.26 -248.632C1375.57 -249.384 1375.06 -250.135 1374.38 -250.887C1373.7 -251.639 1373.19 -252.391 1372.5 -253.143C1371.82 -253.895 1371.31 -254.647 1370.63 -255.399C1369.94 -256.151 1369.43 -256.903 1368.75 -257.655C1368.07 -258.407 1367.56 -259.159 1366.87 -259.91C1366.19 -260.662 1365.68 -261.414 1365 -262.166C1364.32 -262.918 1363.8 -263.67 1363.12 -264.422C1362.44 -265.174 1361.93 -265.926 1361.25 -266.678C1360.56 -267.43 1360.05 -268.182 1359.37 -268.934C1358.69 -269.685 1358.18 -270.437 1357.49 -271.189C1356.81 -271.941 1356.3 -272.693 1355.62 -273.445C1354.94 -274.197 1354.42 -274.949 1353.74 -275.701C1353.06 -276.453 1352.55 -277.205 1351.87 -277.957C1351.18 -278.709 1350.67 -279.46 1349.99 -280.212C1349.99 -280.212 1349.99 -280.363 1349.82 -280.363C1349.14 -281.115 1348.63 -281.867 1347.94 -282.618C1347.26 -283.37 1346.75 -284.122 1346.07 -284.874C1345.38 -285.626 1344.87 -286.378 1344.19 -287.13C1343.51 -287.882 1343 -288.634 1342.31 -289.386C1341.63 -290.138 1341.12 -290.89 1340.44 -291.642C1339.76 -292.393 1339.24 -293.145 1338.56 -293.897C1337.88 -294.649 1337.37 -295.401 1336.69 -296.153C1336 -296.905 1335.49 -297.657 1334.81 -298.409C1334.13 -299.161 1333.62 -299.913 1332.93 -300.665C1332.25 -301.417 1331.74 -302.168 1331.06 -302.92C1330.38 -303.672 1329.86 -304.424 1329.18 -305.176C1328.5 -305.928 1327.99 -306.68 1327.31 -307.432C1326.62 -308.184 1326.11 -308.936 1325.43 -309.688C1324.75 -310.44 1324.24 -311.192 1323.55 -311.944C1322.87 -312.695 1322.36 -313.447 1321.68 -314.199C1321 -314.951 1320.48 -315.703 1319.8 -316.455C1319.12 -317.207 1318.61 -317.959 1317.93 -318.711C1317.93 -318.711 1317.93 -318.861 1317.75 -318.861C1317.07 -319.613 1316.56 -320.365 1315.88 -321.117C1315.2 -321.869 1314.68 -322.621 1314 -323.373C1313.32 -324.125 1312.81 -324.877 1312.13 -325.629C1311.44 -326.38 1310.93 -327.132 1310.25 -327.884C1309.74 -328.636 1309.06 -329.388 1308.37 -330.14C1307.86 -330.892 1307.18 -331.644 1306.67 -332.396C1306.16 -333.148 1305.47 -333.9 1304.96 -334.652C1304.45 -335.404 1303.77 -336.155 1303.26 -336.907C1302.75 -337.659 1302.06 -338.411 1301.55 -339.163C1301.04 -339.915 1300.36 -340.667 1299.85 -341.419C1299.33 -342.171 1298.65 -342.923 1298.14 -343.675C1297.63 -344.427 1296.95 -345.178 1296.44 -345.93C1295.92 -346.682 1295.24 -347.434 1294.73 -348.186C1294.22 -348.938 1293.54 -349.69 1293.02 -350.442C1292.51 -351.194 1291.83 -351.946 1291.32 -352.698C1290.81 -353.45 1290.12 -354.202 1289.61 -354.954C1289.1 -355.705 1288.42 -356.457 1287.91 -357.209C1287.91 -357.209 1287.91 -357.36 1287.74 -357.36C1287.23 -358.112 1286.54 -358.864 1286.03 -359.615C1285.52 -360.367 1284.84 -361.119 1284.33 -361.871C1283.81 -362.623 1283.13 -363.375 1282.62 -364.127C1282.11 -364.879 1281.43 -365.631 1280.91 -366.383C1280.4 -367.135 1279.72 -367.887 1279.21 -368.639C1278.7 -369.39 1278.02 -370.142 1277.5 -370.894C1276.99 -371.646 1276.31 -372.398 1275.8 -373.15C1275.29 -373.902 1274.6 -374.654 1274.09 -375.406C1273.58 -376.158 1273.07 -376.91 1272.39 -377.662C1271.88 -378.414 1271.36 -379.165 1270.68 -379.917C1270.17 -380.669 1269.66 -381.421 1268.98 -382.173C1268.46 -382.925 1267.95 -383.677 1267.27 -384.429C1266.76 -385.181 1266.25 -385.933 1265.57 -386.685C1265.05 -387.437 1264.54 -388.189 1263.86 -388.94C1263.35 -389.692 1262.84 -390.444 1262.32 -391.196C1261.81 -391.948 1261.3 -392.7 1260.79 -393.452C1260.28 -394.204 1259.77 -394.956 1259.25 -395.708C1258.74 -396.46 1258.23 -397.212 1257.72 -397.964C1257.72 -397.964 1257.72 -398.114 1257.55 -398.114C1257.04 -398.866 1256.53 -399.618 1256.01 -400.37C1255.5 -401.122 1254.99 -401.874 1254.48 -402.625C1253.97 -403.377 1253.46 -404.129 1252.94 -404.881C1252.43 -405.633 1251.92 -406.385 1251.41 -407.137C1250.9 -407.889 1250.39 -408.641 1249.87 -409.393C1249.36 -410.145 1248.85 -410.897 1248.34 -411.649C1247.83 -412.4 1247.32 -413.152 1246.8 -413.904C1246.29 -414.656 1245.78 -415.408 1245.27 -416.16C1244.76 -416.912 1244.25 -417.664 1243.73 -418.416C1243.22 -419.168 1242.71 -419.92 1242.2 -420.672C1241.69 -421.424 1241.18 -422.175 1240.66 -422.927C1240.15 -423.679 1239.64 -424.431 1239.13 -425.183C1238.62 -425.935 1238.11 -426.687 1237.59 -427.439C1237.08 -428.191 1236.57 -428.943 1236.06 -429.695C1235.55 -430.447 1235.04 -431.199 1234.52 -431.95C1234.01 -432.702 1233.5 -433.454 1232.99 -434.206C1232.48 -434.958 1231.97 -435.71 1231.45 -436.462C1231.45 -436.462 1231.45 -436.612 1231.28 -436.612C1230.77 -437.364 1230.26 -438.116 1229.75 -438.868C1229.24 -439.62 1228.73 -440.372 1228.38 -441.124C1227.87 -441.876 1227.36 -442.628 1227.02 -443.38C1226.51 -444.132 1226 -444.884 1225.66 -445.635C1225.14 -446.387 1224.63 -447.139 1224.29 -447.891C1223.78 -448.643 1223.44 -449.395 1222.93 -450.147C1222.41 -450.899 1222.07 -451.651 1221.56 -452.403C1221.05 -453.155 1220.71 -453.907 1220.2 -454.659C1219.69 -455.41 1219.34 -456.162 1218.83 -456.914C1218.32 -457.666 1217.98 -458.418 1217.47 -459.17C1216.96 -459.922 1216.62 -460.674 1216.1 -461.426C1215.59 -462.178 1215.25 -462.93 1214.74 -463.682C1214.23 -464.434 1213.89 -465.185 1213.38 -465.937C1212.86 -466.689 1212.52 -467.441 1212.01 -468.193C1211.5 -468.945 1211.16 -469.697 1210.65 -470.449C1210.13 -471.201 1209.79 -471.953 1209.28 -472.705C1208.77 -473.457 1208.43 -474.209 1207.92 -474.96C1207.92 -474.96 1207.92 -475.111 1207.75 -475.111C1207.24 -475.863 1206.89 -476.615 1206.38 -477.367C1206.04 -478.118 1205.53 -478.72 1205.19 -479.472C1205.19 -479.472 1205.19 -479.622 1205.02 -479.622C1170.05 -541.581 1143.45 -607.9 1132.19 -681.438L1139.01 -681.739C1150.44 -608.051 1177.22 -541.731 1212.52 -479.622C1212.52 -479.622 1212.52 -479.472 1212.69 -479.472C1213.03 -478.72 1213.55 -478.118 1213.89 -477.367C1214.4 -476.615 1214.74 -475.863 1215.25 -475.111C1215.25 -475.111 1215.25 -474.96 1215.42 -474.96C1215.93 -474.209 1216.27 -473.457 1216.79 -472.705C1217.3 -471.953 1217.64 -471.201 1218.15 -470.449C1218.66 -469.697 1219 -468.945 1219.52 -468.193C1220.03 -467.441 1220.37 -466.689 1220.88 -465.937C1221.39 -465.185 1221.73 -464.434 1222.24 -463.682C1222.76 -462.93 1223.1 -462.178 1223.61 -461.426C1224.12 -460.674 1224.46 -459.922 1224.97 -459.17C1225.48 -458.418 1225.83 -457.666 1226.34 -456.914C1226.85 -456.162 1227.19 -455.41 1227.7 -454.659C1228.21 -453.907 1228.55 -453.155 1229.07 -452.403C1229.58 -451.651 1229.92 -450.899 1230.43 -450.147C1230.94 -449.395 1231.45 -448.643 1231.8 -447.891C1232.31 -447.139 1232.82 -446.387 1233.16 -445.635C1233.67 -444.884 1234.18 -444.132 1234.52 -443.38C1235.04 -442.628 1235.55 -441.876 1235.89 -441.124C1236.4 -440.372 1236.91 -439.62 1237.42 -438.868C1237.94 -438.116 1238.45 -437.364 1238.96 -436.612C1238.96 -436.612 1238.96 -436.462 1239.13 -436.462C1239.64 -435.71 1240.15 -434.958 1240.66 -434.206C1241.18 -433.454 1241.69 -432.702 1242.2 -431.95C1242.71 -431.199 1243.22 -430.447 1243.73 -429.695C1244.25 -428.943 1244.76 -428.191 1245.27 -427.439C1245.78 -426.687 1246.29 -425.935 1246.8 -425.183C1247.32 -424.431 1247.83 -423.679 1248.34 -422.927C1248.85 -422.175 1249.36 -421.424 1249.87 -420.672C1250.39 -419.92 1250.9 -419.168 1251.41 -418.416C1251.92 -417.664 1252.43 -416.912 1252.94 -416.16C1253.46 -415.408 1253.97 -414.656 1254.48 -413.904C1254.99 -413.152 1255.5 -412.4 1256.01 -411.649C1256.53 -410.897 1257.04 -410.145 1257.55 -409.393C1258.06 -408.641 1258.57 -407.889 1259.08 -407.137C1259.6 -406.385 1260.11 -405.633 1260.62 -404.881C1261.13 -404.129 1261.64 -403.377 1262.15 -402.625C1262.67 -401.874 1263.18 -401.122 1263.69 -400.37C1264.2 -399.618 1264.71 -398.866 1265.22 -398.114C1265.22 -398.114 1265.22 -397.964 1265.39 -397.964C1265.91 -397.212 1266.42 -396.46 1266.93 -395.708C1267.44 -394.956 1267.95 -394.204 1268.64 -393.452C1269.15 -392.7 1269.66 -391.948 1270.34 -391.196C1270.85 -390.444 1271.36 -389.692 1272.05 -388.94C1272.56 -388.189 1273.07 -387.437 1273.75 -386.685C1274.43 -385.933 1274.78 -385.181 1275.46 -384.429C1275.97 -383.677 1276.48 -382.925 1277.16 -382.173C1277.67 -381.421 1278.19 -380.669 1278.87 -379.917C1279.38 -379.165 1279.89 -378.414 1280.57 -377.662C1281.09 -376.91 1281.77 -376.158 1282.28 -375.406C1282.79 -374.654 1283.47 -373.902 1283.99 -373.15C1284.5 -372.398 1285.18 -371.646 1285.69 -370.894C1286.2 -370.142 1286.88 -369.39 1287.4 -368.639C1287.91 -367.887 1288.59 -367.135 1289.1 -366.383C1289.61 -365.631 1290.3 -364.879 1290.81 -364.127C1291.32 -363.375 1292 -362.623 1292.51 -361.871C1293.02 -361.119 1293.71 -360.367 1294.22 -359.615C1294.73 -358.864 1295.41 -358.112 1295.92 -357.36C1295.92 -357.36 1295.92 -357.209 1296.09 -357.209C1296.61 -356.457 1297.29 -355.705 1297.8 -354.954C1298.31 -354.202 1298.99 -353.45 1299.51 -352.698C1300.02 -351.946 1300.7 -351.194 1301.21 -350.442C1301.72 -349.69 1302.4 -348.938 1302.92 -348.186C1303.43 -347.434 1304.11 -346.682 1304.62 -345.93C1305.13 -345.178 1305.82 -344.427 1306.33 -343.675C1306.84 -342.923 1307.52 -342.171 1308.03 -341.419C1308.54 -340.667 1309.23 -339.915 1309.74 -339.163C1310.25 -338.411 1310.93 -337.659 1311.44 -336.907C1311.96 -336.155 1312.64 -335.404 1313.15 -334.652C1313.66 -333.9 1314.34 -333.148 1314.86 -332.396C1315.37 -331.644 1316.05 -330.892 1316.73 -330.14C1317.41 -329.388 1317.93 -328.636 1318.61 -327.884C1319.29 -327.132 1319.8 -326.38 1320.48 -325.629C1321.17 -324.877 1321.68 -324.125 1322.36 -323.373C1323.04 -322.621 1323.55 -321.869 1324.24 -321.117C1324.92 -320.365 1325.43 -319.613 1326.11 -318.861C1326.11 -318.861 1326.11 -318.711 1326.28 -318.711C1326.96 -317.959 1327.48 -317.207 1328.16 -316.455C1328.84 -315.703 1329.35 -314.951 1330.03 -314.199C1330.72 -313.447 1331.23 -312.695 1331.91 -311.944C1332.59 -311.192 1333.1 -310.44 1333.79 -309.688C1334.47 -308.936 1334.98 -308.184 1335.66 -307.432C1336.35 -306.68 1336.86 -305.928 1337.54 -305.176C1338.22 -304.424 1338.73 -303.672 1339.42 -302.92C1340.1 -302.168 1340.61 -301.417 1341.29 -300.665C1341.97 -299.913 1342.49 -299.161 1343.17 -298.409C1343.85 -297.657 1344.36 -296.905 1345.04 -296.153C1345.73 -295.401 1346.24 -294.649 1346.92 -293.897C1347.6 -293.145 1348.11 -292.393 1348.8 -291.642C1349.48 -290.89 1349.99 -290.138 1350.67 -289.386C1351.35 -288.634 1351.87 -287.882 1352.55 -287.13C1353.23 -286.378 1353.74 -285.626 1354.42 -284.874C1355.11 -284.122 1355.62 -283.37 1356.3 -282.618C1356.98 -281.867 1357.49 -281.115 1358.18 -280.363C1358.18 -280.363 1358.18 -280.212 1358.35 -280.212C1359.03 -279.46 1359.54 -278.709 1360.22 -277.957C1360.91 -277.205 1361.42 -276.453 1362.1 -275.701C1362.78 -274.949 1363.29 -274.197 1363.98 -273.445C1364.66 -272.693 1365.17 -271.941 1365.85 -271.189C1366.53 -270.437 1367.05 -269.685 1367.73 -268.934C1368.41 -268.182 1368.92 -267.43 1369.6 -266.678C1370.29 -265.926 1370.8 -265.174 1371.48 -264.422C1372.16 -263.67 1372.67 -262.918 1373.36 -262.166C1374.04 -261.414 1374.55 -260.662 1375.23 -259.91C1375.91 -259.159 1376.43 -258.407 1377.11 -257.655C1377.79 -256.903 1378.3 -256.151 1378.98 -255.399C1379.67 -254.647 1380.18 -253.895 1380.86 -253.143C1381.54 -252.391 1382.05 -251.639 1382.74 -250.887C1383.42 -250.135 1383.93 -249.384 1384.61 -248.632C1384.95 -248.18 1385.29 -247.88 1385.64 -247.429C1385.98 -247.128 1386.15 -246.677 1386.49 -246.376C1387.17 -245.624 1387.68 -244.872 1388.36 -244.12C1389.05 -243.368 1389.56 -242.616 1390.24 -241.864C1390.92 -241.112 1391.43 -240.36 1392.12 -239.609C1392.12 -239.609 1392.12 -239.458 1392.29 -239.458C1392.97 -238.706 1393.48 -237.954 1394.16 -237.202C1394.85 -236.45 1395.36 -235.699 1396.04 -234.947C1396.72 -234.195 1397.23 -233.443 1397.92 -232.691C1398.6 -231.939 1399.11 -231.187 1399.79 -230.435C1400.47 -229.683 1400.99 -228.931 1401.67 -228.179C1402.35 -227.427 1402.86 -226.675 1403.54 -225.924C1404.23 -225.172 1404.74 -224.42 1405.42 -223.668C1406.1 -222.916 1406.61 -222.164 1407.3 -221.412C1407.98 -220.66 1408.49 -219.908 1409.17 -219.156C1409.85 -218.404 1410.37 -217.652 1411.05 -216.9C1411.73 -216.149 1412.24 -215.397 1412.92 -214.645C1413.61 -213.893 1414.12 -213.141 1414.8 -212.389C1415.48 -211.637 1415.99 -210.885 1416.68 -210.133C1417.36 -209.381 1417.87 -208.629 1418.55 -207.877C1419.23 -207.125 1419.75 -206.374 1420.43 -205.622C1421.11 -204.87 1421.62 -204.118 1422.3 -203.366C1422.99 -202.614 1423.5 -201.862 1424.18 -201.11C1424.86 -200.358 1425.37 -199.606 1426.06 -198.854C1426.06 -198.854 1426.06 -198.704 1426.23 -198.704C1426.91 -197.952 1427.42 -197.2 1428.1 -196.448C1428.79 -195.696 1429.3 -194.944 1429.98 -194.192C1430.66 -193.44 1431.17 -192.689 1431.86 -191.937C1432.54 -191.185 1433.05 -190.433 1433.73 -189.681C1434.41 -188.929 1434.93 -188.177 1435.61 -187.425C1436.29 -186.673 1436.8 -185.921 1437.48 -185.169C1438.17 -184.417 1438.68 -183.665 1439.36 -182.914C1440.04 -182.162 1440.55 -181.41 1441.24 -180.658C1441.92 -179.906 1442.43 -179.154 1443.11 -178.402C1443.79 -177.65 1444.31 -176.898 1444.99 -176.146C1445.67 -175.394 1446.18 -174.642 1446.86 -173.89C1447.55 -173.139 1448.06 -172.387 1448.74 -171.635C1449.42 -170.883 1449.93 -170.131 1450.62 -169.379C1451.3 -168.627 1451.81 -167.875 1452.49 -167.123C1453.18 -166.371 1453.69 -165.619 1454.2 -164.867C1454.71 -164.115 1455.39 -163.364 1455.9 -162.612C1456.42 -161.86 1457.1 -161.108 1457.61 -160.356C1457.61 -160.356 1457.61 -160.205 1457.78 -160.205C1458.29 -159.454 1458.97 -158.702 1459.49 -157.95C1460 -157.198 1460.68 -156.446 1461.19 -155.694C1461.7 -154.942 1462.39 -154.19 1462.9 -153.438C1463.41 -152.686 1464.09 -151.934 1464.6 -151.182C1465.11 -150.43 1465.8 -149.679 1466.31 -148.927C1466.82 -148.175 1467.5 -147.423 1468.01 -146.671C1468.53 -145.919 1469.21 -145.167 1469.72 -144.415C1470.23 -143.663 1470.91 -142.911 1471.42 -142.159C1471.94 -141.407 1472.62 -140.655 1473.13 -139.904C1473.64 -139.152 1474.32 -138.4 1474.84 -137.648C1475.35 -136.896 1476.03 -136.144 1476.54 -135.392C1477.05 -134.64 1477.74 -133.888 1478.25 -133.136C1478.76 -132.384 1479.44 -131.632 1479.95 -130.88C1480.46 -130.129 1481.15 -129.377 1481.66 -128.625C1482.17 -127.873 1482.85 -127.121 1483.36 -126.369C1483.88 -125.617 1484.56 -124.865 1485.07 -124.113C1485.58 -123.361 1486.09 -122.609 1486.77 -121.857C1487.46 -121.105 1487.8 -120.354 1488.48 -119.602C1488.48 -119.602 1488.48 -119.451 1488.65 -119.451C1489.16 -118.699 1489.67 -117.947 1490.36 -117.195C1490.87 -116.443 1491.38 -115.692 1492.06 -114.94C1492.57 -114.188 1493.09 -113.436 1493.77 -112.684C1494.28 -111.932 1494.79 -111.18 1495.3 -110.428C1495.81 -109.676 1496.33 -108.924 1496.84 -108.172C1497.35 -107.42 1497.86 -106.669 1498.37 -105.917C1498.88 -105.165 1499.4 -104.413 1499.91 -103.661C1500.42 -102.909 1500.93 -102.157 1501.44 -101.405C1501.95 -100.653 1502.47 -99.9012 1502.98 -99.1493C1503.49 -98.3973 1504 -97.6454 1504.51 -96.8935C1505.02 -96.1415 1505.54 -95.3896 1506.05 -94.6377C1506.56 -93.8858 1507.07 -93.1339 1507.58 -92.382C1508.09 -91.63 1508.61 -90.8781 1509.12 -90.1262C1509.63 -89.3743 1510.14 -88.6223 1510.65 -87.8704C1511.16 -87.1185 1511.68 -86.3666 1512.19 -85.6146C1512.7 -84.8627 1513.21 -84.1108 1513.72 -83.3589C1514.23 -82.6069 1514.75 -81.855 1515.26 -81.1031C1515.26 -81.1031 1515.26 -80.9528 1515.43 -80.9528C1515.94 -80.2009 1516.45 -79.4489 1516.96 -78.697C1517.47 -77.9451 1517.99 -77.1932 1518.5 -76.4412C1519.01 -75.6893 1519.52 -74.9374 1520.03 -74.1854C1520.54 -73.4335 1521.06 -72.6816 1521.57 -71.9297C1522.08 -71.1777 1522.59 -70.4258 1522.93 -69.6739C1568.3 2.2099 1599 76.8007 1599 159.963Z" fill="#49B9B3"/>
<path d="M1354.94 699.393C1354.59 700.446 1354.08 701.498 1353.57 702.551C1353.06 703.604 1352.72 704.656 1352.21 705.709C1351.7 706.762 1351.35 707.814 1350.84 708.867C1350.33 709.92 1349.99 710.973 1349.48 712.025V712.176C1348.97 713.228 1348.63 714.281 1348.11 715.334C1347.6 716.386 1347.09 717.439 1346.58 718.492C1346.07 719.545 1345.56 720.597 1345.04 721.65C1344.53 722.703 1344.02 723.755 1343.51 724.808C1343 725.861 1342.49 726.913 1341.8 727.966C1341.12 729.019 1340.78 730.071 1340.1 731.124C1339.59 732.177 1338.9 733.23 1338.39 734.282V734.433C1337.88 735.485 1337.2 736.538 1336.69 737.591C1336 738.643 1335.49 739.696 1334.81 740.749C1334.13 741.801 1333.62 742.854 1332.93 743.907C1332.25 744.96 1331.57 746.012 1331.06 747.065C1330.38 748.118 1329.69 749.17 1329.01 750.223C1328.33 751.276 1327.65 752.328 1326.96 753.381C1326.28 754.434 1325.6 755.486 1324.75 756.539C1324.75 756.539 1324.75 756.69 1324.58 756.69C1323.89 757.742 1323.21 758.795 1322.36 759.848C1321.68 760.9 1320.82 761.953 1320.14 763.006C1319.29 764.058 1318.61 765.111 1317.93 766.164C1317.07 767.216 1316.22 768.269 1315.54 769.322C1314.68 770.374 1313.83 771.427 1313.15 772.48C1312.3 773.533 1311.44 774.585 1310.59 775.638C1309.74 776.691 1308.89 777.743 1308.03 778.796C1307.18 779.849 1306.16 780.901 1305.3 781.954L1305.13 782.104C1304.28 783.157 1303.26 784.21 1302.4 785.263C1301.38 786.315 1300.36 787.368 1299.51 788.421C1298.48 789.473 1297.46 790.526 1296.44 791.579C1295.41 792.631 1294.39 793.684 1293.37 794.737C1292.34 795.789 1291.15 796.842 1290.12 797.895C1289.1 798.948 1287.91 800 1286.71 801.053C1285.52 802.106 1284.33 803.158 1283.13 804.211L1282.96 804.361C1281.77 805.414 1280.57 806.467 1279.38 807.519C1278.19 808.572 1276.82 809.625 1275.63 810.678C1274.26 811.73 1273.07 812.783 1271.71 813.836C1270.34 814.888 1268.98 815.941 1267.78 816.994C1266.42 818.046 1265.05 819.099 1263.52 820.152C1262.15 821.205 1260.62 822.257 1259.08 823.31C1257.55 824.363 1256.18 825.415 1254.65 826.468L1254.48 826.618C1252.94 827.671 1251.41 828.724 1249.7 829.776C1248 830.829 1246.46 831.882 1244.76 832.935C1243.05 833.987 1241.35 835.04 1239.64 836.093C1237.94 837.145 1236.06 838.198 1234.35 839.251C1232.48 840.303 1230.6 841.356 1228.73 842.409C1226.85 843.462 1224.8 844.514 1222.93 845.567C1220.88 846.62 1218.83 847.672 1216.79 848.725C1214.74 849.778 1212.52 850.83 1210.31 851.883C1210.13 851.883 1210.13 852.033 1209.96 852.033C1207.75 853.086 1205.53 854.139 1203.14 855.192C1200.75 856.244 1198.37 857.297 1195.98 858.35C1193.42 859.402 1191.03 860.455 1188.47 861.508C1185.92 862.56 1183.19 863.613 1180.46 864.666C1177.73 865.718 1174.83 866.771 1172.1 867.824C1169.2 868.876 1166.13 869.929 1163.23 870.982C1160.16 872.035 1156.92 873.087 1153.68 874.14C1153.51 874.14 1153.34 874.29 1153.17 874.29C1149.76 875.343 1146.35 876.396 1142.94 877.448C1139.35 878.501 1135.6 879.554 1132.02 880.606C1128.1 881.659 1124.18 882.712 1120.25 883.765C1115.99 884.817 1111.72 885.87 1107.46 886.923C1102.86 887.975 1098.25 889.028 1093.65 890.081C1088.7 891.133 1083.58 892.186 1078.47 893.239C1073.01 894.291 1067.38 895.344 1061.75 896.397C1061.41 896.397 1061.24 896.547 1060.9 896.547C1054.76 897.6 1048.62 898.653 1042.48 899.705C1035.66 900.758 1028.84 901.811 1022.01 902.863C1014.51 903.916 1006.83 904.969 999.158 906.021C990.801 907.074 982.274 908.127 973.746 909.179C964.536 910.232 955.155 911.285 945.775 912.338C935.712 913.39 925.649 914.443 915.587 915.496C905.012 916.548 894.608 917.601 883.863 918.654C883.352 918.654 882.84 918.804 882.328 918.804C871.754 919.857 861.18 920.909 850.605 921.962C840.543 923.015 830.309 924.068 820.247 925.12C810.866 926.173 801.486 927.226 792.105 928.278C783.577 929.331 774.879 930.384 766.351 931.436C758.676 932.489 750.831 933.542 743.156 934.594C736.163 935.647 729.17 936.7 722.178 937.753C715.867 938.805 709.557 939.858 703.246 940.911C697.447 941.963 691.648 943.016 686.02 944.069C685.679 944.069 685.508 944.219 685.167 944.219C679.88 945.272 674.593 946.325 669.306 947.377C664.36 948.43 659.584 949.483 654.808 950.535C650.374 951.588 645.769 952.641 641.335 953.693C637.071 954.746 632.977 955.799 628.884 956.852C624.961 957.904 621.039 958.957 617.116 960.01C613.534 961.062 609.782 962.115 606.2 963.168C602.789 964.22 599.378 965.273 595.967 966.326C595.797 966.326 595.626 966.476 595.455 966.476C592.215 967.529 588.974 968.582 585.734 969.634C582.664 970.687 579.594 971.74 576.524 972.792C573.624 973.845 570.725 974.898 567.826 975.95C565.097 977.003 562.368 978.056 559.639 979.108C557.081 980.161 554.352 981.214 551.793 982.267C549.235 983.319 546.847 984.372 544.289 985.425C541.901 986.477 539.513 987.53 537.126 988.583C534.908 989.635 532.521 990.688 530.303 991.741C530.133 991.741 530.133 991.891 529.962 991.891C527.745 992.944 525.528 993.997 523.481 995.049C521.435 996.102 519.217 997.155 517.171 998.207C515.124 999.26 513.077 1000.31 511.201 1001.37C509.325 1002.42 507.279 1003.47 505.402 1004.52C503.526 1005.58 501.65 1006.63 499.774 1007.68C497.898 1008.73 496.193 1009.79 494.316 1010.84C492.611 1011.89 490.905 1012.94 489.2 1014L489.029 1014.15C487.324 1015.2 485.618 1016.25 484.083 1017.31C482.378 1018.36 480.843 1019.41 479.308 1020.46C477.773 1021.52 476.238 1022.57 474.532 1023.62C472.997 1024.68 471.462 1025.73 469.927 1026.78C468.392 1027.83 467.028 1028.89 465.493 1029.94C464.128 1030.99 462.593 1032.04 461.229 1033.1C459.864 1034.15 458.5 1035.2 457.135 1036.25L456.965 1036.4C455.6 1037.46 454.236 1038.51 453.042 1039.56C451.678 1040.62 450.484 1041.67 449.119 1042.72C447.926 1043.77 446.561 1044.83 445.367 1045.88C444.173 1046.93 442.979 1047.98 441.615 1049.04C440.421 1050.09 439.227 1051.14 438.033 1052.2C437.351 1052.8 436.669 1053.4 435.987 1054L433.769 1052.2L431.041 1049.94C431.382 1049.64 431.723 1049.34 432.064 1049.04C433.258 1047.98 434.452 1046.93 435.646 1045.88C436.839 1044.83 438.033 1043.77 439.227 1042.72C440.421 1041.67 441.615 1040.62 442.979 1039.56C444.173 1038.51 445.538 1037.46 446.732 1036.4L446.902 1036.25C448.267 1035.2 449.631 1034.15 450.825 1033.1C452.189 1032.04 453.554 1030.99 454.918 1029.94C456.283 1028.89 457.647 1027.83 459.182 1026.78C460.547 1025.73 462.082 1024.68 463.446 1023.62C464.981 1022.57 466.345 1021.52 467.88 1020.46C469.415 1019.41 470.95 1018.36 472.485 1017.31C474.02 1016.25 475.726 1015.2 477.261 1014.15L477.432 1014C479.137 1012.94 480.672 1011.89 482.378 1010.84C484.083 1009.79 485.789 1008.73 487.494 1007.68C489.2 1006.63 491.076 1005.58 492.781 1004.52C494.658 1003.47 496.363 1002.42 498.239 1001.37C500.115 1000.31 501.991 999.26 503.867 998.207C505.744 997.155 507.79 996.102 509.837 995.049C511.884 993.997 513.93 992.944 515.977 991.891C516.147 991.891 516.147 991.741 516.318 991.741C518.365 990.688 520.582 989.635 522.629 988.583C524.846 987.53 527.063 986.477 529.28 985.425C531.497 984.372 533.885 983.319 536.273 982.267C538.661 981.214 541.048 980.161 543.436 979.108C545.995 978.056 548.553 977.003 550.941 975.95C553.499 974.898 556.228 973.845 558.786 972.792C561.515 971.74 564.414 970.687 567.143 969.634C570.043 968.582 572.942 967.529 576.012 966.476C576.183 966.476 576.353 966.326 576.524 966.326C579.594 965.273 582.664 964.22 585.734 963.168C588.974 962.115 592.215 961.062 595.626 960.01C599.037 958.957 602.619 957.904 606.03 956.852C609.782 955.799 613.364 954.746 617.116 953.693C621.039 952.641 624.961 951.588 628.884 950.535C633.148 949.483 637.241 948.43 641.505 947.377C645.94 946.325 650.545 945.272 655.15 944.219C655.32 944.219 655.661 944.069 655.832 944.069C660.778 943.016 665.724 941.963 670.67 940.911C675.957 939.858 681.415 938.805 686.702 937.753C692.501 936.7 698.3 935.647 704.269 934.594C710.75 933.542 717.061 932.489 723.542 931.436C730.535 930.384 737.698 929.331 744.861 928.278C752.707 927.226 760.552 926.173 768.398 925.12C777.096 924.068 785.794 923.015 794.493 921.962C804.044 920.909 813.595 919.857 823.146 918.804C823.658 918.804 824.169 918.654 824.51 918.654C834.744 917.601 845.148 916.548 855.381 915.496C864.079 914.593 872.607 913.841 881.305 912.939C883.352 912.789 885.398 912.488 887.445 912.338C898.02 911.285 908.764 910.232 919.339 909.179C929.402 908.127 939.464 907.074 949.527 906.021C958.737 904.969 968.118 903.916 977.157 902.863C985.514 901.811 993.871 900.758 1002.06 899.705C1009.56 898.653 1017.07 897.6 1024.4 896.547C1024.74 896.547 1025.08 896.397 1025.42 896.397C1032.08 895.344 1038.73 894.291 1045.38 893.239C1051.35 892.186 1057.32 891.133 1063.29 890.081C1068.74 889.028 1074.2 887.975 1079.49 886.923C1084.44 885.87 1089.38 884.817 1094.33 883.765C1098.93 882.712 1103.37 881.659 1107.97 880.606C1112.07 879.554 1116.33 878.501 1120.42 877.448C1124.35 876.396 1128.1 875.343 1132.02 874.29C1132.19 874.29 1132.36 874.14 1132.53 874.14C1136.11 873.087 1139.7 872.035 1143.11 870.982C1146.52 869.929 1149.76 868.876 1153 867.824C1156.07 866.771 1159.31 865.718 1162.38 864.666C1165.28 863.613 1168.18 862.56 1171.08 861.508C1173.81 860.455 1176.54 859.402 1179.26 858.35C1181.82 857.297 1184.38 856.244 1187.11 855.192C1189.5 854.139 1192.06 853.086 1194.44 852.033C1194.61 852.033 1194.61 851.883 1194.78 851.883C1197.17 850.83 1199.39 849.778 1201.78 848.725C1203.99 847.672 1206.21 846.62 1208.43 845.567C1210.48 844.514 1212.69 843.462 1214.74 842.409C1216.79 841.356 1218.66 840.303 1220.71 839.251C1222.59 838.198 1224.46 837.145 1226.34 836.093C1228.21 835.04 1229.92 833.987 1231.8 832.935C1233.5 831.882 1235.38 830.829 1237.08 829.776C1238.79 828.724 1240.32 827.671 1242.03 826.618L1242.2 826.468C1243.73 825.415 1245.44 824.363 1246.97 823.31C1248.51 822.257 1250.04 821.205 1251.58 820.152C1253.11 819.099 1254.48 818.046 1256.01 816.994C1257.38 815.941 1258.91 814.888 1260.28 813.836C1261.64 812.783 1263.01 811.73 1264.37 810.678C1265.74 809.625 1267.1 808.572 1268.29 807.519C1269.49 806.467 1270.85 805.414 1272.05 804.361L1272.22 804.211C1273.41 803.158 1274.6 802.106 1275.8 801.053C1276.99 800 1278.19 798.948 1279.38 797.895C1280.57 796.842 1281.6 795.789 1282.79 794.737C1283.99 793.684 1285.01 792.631 1286.03 791.579C1287.05 790.526 1288.08 789.473 1289.1 788.421C1290.12 787.368 1291.15 786.315 1292.17 785.263C1293.19 784.21 1294.22 783.157 1295.07 782.104L1295.24 781.954C1296.26 780.901 1297.12 779.849 1298.14 778.796C1298.99 777.743 1300.02 776.691 1300.87 775.638C1301.72 774.585 1302.58 773.533 1303.6 772.48C1304.45 771.427 1305.3 770.374 1306.16 769.322C1307.01 768.269 1307.86 767.216 1308.72 766.164C1309.57 765.111 1310.42 764.058 1311.1 763.006C1311.96 761.953 1312.64 760.9 1313.49 759.848C1314.34 758.795 1315.03 757.742 1315.88 756.69C1315.88 756.69 1315.88 756.539 1316.05 756.539C1316.73 755.486 1317.58 754.434 1318.27 753.381C1318.95 752.328 1319.63 751.276 1320.48 750.223C1321.17 749.17 1321.85 748.118 1322.53 747.065C1323.21 746.012 1323.89 744.96 1324.58 743.907C1325.26 742.854 1325.94 741.801 1326.45 740.749C1327.14 739.696 1327.65 738.643 1328.33 737.591C1329.01 736.538 1329.52 735.485 1330.21 734.433V734.282C1330.72 733.23 1331.4 732.177 1331.91 731.124C1332.42 730.071 1333.1 729.019 1333.62 727.966C1334.13 726.913 1334.64 725.861 1335.32 724.808C1335.83 723.755 1336.35 722.703 1337.03 721.65C1337.54 720.597 1338.05 719.545 1338.56 718.492C1339.07 717.439 1339.59 716.386 1340.1 715.334C1340.61 714.281 1341.12 713.228 1341.63 712.176V712.025C1342.14 710.973 1342.49 709.92 1343 708.867C1343.51 707.814 1344.02 706.762 1344.36 705.709C1344.87 704.656 1345.21 703.604 1345.73 702.551C1346.24 701.498 1346.58 700.446 1347.09 699.393C1347.43 698.34 1347.94 697.438 1348.28 696.385L1354.94 699.393Z" fill="#49B9B3"/>
<path d="M1312.81 476.373C1308.37 478.027 1303.94 479.531 1299.33 481.034C1293.54 482.989 1287.74 484.945 1281.77 486.599C1194.96 512.766 1103.37 523.443 1012.8 534.271C1007 535.023 1001.03 535.624 995.236 536.376C925.991 544.346 856.404 552.016 788.012 564.799C776.243 567.054 764.475 569.31 752.707 571.867C692.842 584.95 633.66 602.846 580.788 631.419C577.888 633.073 574.818 634.728 571.919 636.382C562.879 641.495 554.011 647.059 545.483 652.924C536.273 659.09 527.404 665.707 519.047 672.775C514.442 676.534 510.007 680.444 505.744 684.354C502.333 687.512 499.092 690.671 495.851 693.829C493.975 693.378 490.053 692.325 488.176 691.874C493.805 686.159 499.604 680.595 505.744 675.181C510.007 671.271 514.442 667.662 519.047 664.052C531.497 654.127 544.801 644.954 558.616 636.532C565.779 632.171 573.283 627.96 580.788 624.05C629.907 598.184 684.314 581.191 739.404 568.558C743.838 567.506 748.272 566.603 752.707 565.551C796.369 556.227 840.543 549.459 884.887 543.594C918.657 539.083 952.597 535.323 986.367 531.413C1003.93 529.458 1021.67 527.353 1039.24 525.248C1090.92 519.082 1142.6 512.315 1193.59 502.389C1230.26 495.171 1266.42 486.298 1301.38 474.418C1302.92 474.718 1306.67 475.32 1308.2 475.621C1308.37 475.621 1312.64 476.373 1312.81 476.373Z" fill="#E12857"/>
<path d="M825.534 -397.964C861.691 -244.421 977.839 -99.7509 1089.89 40.1068L1095.35 36.6479C983.467 -102.608 867.831 -246.827 832.015 -399.167C791.252 -571.056 861.35 -729.562 1046.23 -883.104L1041.63 -887.616C854.869 -732.118 784.26 -572.109 825.534 -397.964Z" fill="#49B9B3"/>
</g>
<path d="M800 0H0V1058H1599V970C1599 931.34 1567.66 900 1529 900H870C831.34 900 800 868.66 800 830V0Z" fill="white"/>
<defs>
<linearGradient id="paint0_linear_1_950" x1="1982.03" y1="-450.435" x2="1415.85" y2="1243.9" gradientUnits="userSpaceOnUse">
<stop stop-color="#42BDB4"/>
<stop offset="1" stop-color="#DF4765"/>
</linearGradient>
<linearGradient id="paint1_linear_1_950" x1="1752.6" y1="-235.533" x2="1278.94" y2="1164.47" gradientUnits="userSpaceOnUse">
<stop stop-color="#49B9B3"/>
<stop offset="1" stop-color="#E12857"/>
</linearGradient>
<linearGradient id="paint2_linear_1_950" x1="1473.04" y1="209.745" x2="1550.64" y2="29.1319" gradientUnits="userSpaceOnUse">
<stop stop-color="white"/>
<stop offset="1" stop-color="white" stop-opacity="0"/>
</linearGradient>
</defs>
</svg>
