<svg width="108" height="108" viewBox="0 0 108 108" fill="none" xmlns="http://www.w3.org/2000/svg">
<circle cx="54" cy="54" r="54" fill="#49B9B3"/>
<circle cx="54" cy="54" r="41.5" stroke="white" stroke-dasharray="5 5"/>
<g clip-path="url(#clip0_1_1058)">
<path d="M75.7005 63.2922V36.6475C75.7005 35.0743 74.4205 33.7944 72.8473 33.7944H66.0654V32.8589C66.0654 31.3115 64.8065 30.0526 63.259 30.0526C61.7116 30.0526 60.4527 31.3115 60.4527 32.8589V33.7944H45.2985V32.8589C45.2985 31.3115 44.0396 30.0526 42.4922 30.0526C40.9448 30.0526 39.6859 31.3115 39.6859 32.8589V33.7944H32.9039C31.3307 33.7944 30.0508 35.0743 30.0508 36.6475V71.3525C30.0508 72.9257 31.3307 74.2056 32.9039 74.2056H45.6541C46.1706 74.2056 46.5895 73.7868 46.5895 73.2701C46.5895 72.7535 46.1706 72.3347 45.6541 72.3347H32.9039C32.3623 72.3347 31.9217 71.8941 31.9217 71.3525V36.6475C31.9217 36.1059 32.3623 35.6653 32.9039 35.6653H39.6859V36.6007C39.6859 38.1481 40.9448 39.4071 42.4922 39.4071C44.0396 39.4071 45.2985 38.1481 45.2985 36.6007V35.6653H60.4527V36.6007C60.4527 38.1481 61.7116 39.4071 63.259 39.4071C64.8065 39.4071 66.0654 38.1481 66.0654 36.6007V35.6653H72.8473C73.389 35.6653 73.8296 36.1059 73.8296 36.6475V41.2779H38.4698C37.9532 41.2779 37.5343 41.6967 37.5343 42.2134C37.5343 42.73 37.9532 43.1488 38.4698 43.1488H73.8296V61.7115C73.0331 61.2092 72.151 60.8312 71.2103 60.6048V46.7035C71.2103 46.1869 70.7914 45.7681 70.2749 45.7681H35.4764C34.9598 45.7681 34.5409 46.1869 34.5409 46.7035V68.78C34.5409 69.2966 34.9598 69.7154 35.4764 69.7154H60.3776C60.4357 70.6336 60.635 71.5138 60.9547 72.3347H53.1375C52.621 72.3347 52.2021 72.7535 52.2021 73.2701C52.2021 73.7868 52.621 74.2056 53.1375 74.2056H61.9591C63.5518 76.4669 66.1823 77.9473 69.1523 77.9473C74.0009 77.9473 77.9455 74.0028 77.9455 69.1542C77.9455 66.9041 77.0956 64.8491 75.7005 63.2922ZM43.4276 36.6007C43.4276 37.1165 43.008 37.5362 42.4922 37.5362C41.9764 37.5362 41.5567 37.1165 41.5567 36.6007V32.8589C41.5567 32.3431 41.9764 31.9235 42.4922 31.9235C43.008 31.9235 43.4276 32.3431 43.4276 32.8589V36.6007ZM64.1945 36.6007C64.1945 37.1165 63.7749 37.5362 63.259 37.5362C62.7432 37.5362 62.3236 37.1165 62.3236 36.6007V32.8589C62.3236 32.3431 62.7432 31.9235 63.259 31.9235C63.7749 31.9235 64.1945 32.3431 64.1945 32.8589V36.6007ZM69.1523 60.361C68.7175 60.361 68.29 60.3933 67.8717 60.4545H64.2506V55.029H69.3394V60.3633C69.2772 60.362 69.2149 60.361 69.1523 60.361ZM60.4567 67.8446H57.2909V62.3254H62.3797V63.5522C61.3823 64.756 60.699 66.2291 60.4567 67.8446ZM36.4118 55.029H41.5006V60.4545H36.4118V55.029ZM43.3715 55.029H48.4603V60.4545H43.3715V55.029ZM57.2909 55.029H62.3797V60.4545H57.2909V55.029ZM55.42 60.4545H50.3312V55.029H55.42V60.4545ZM57.2909 53.1581V47.639H62.3797V53.1581H57.2909ZM55.42 53.1581H50.3312V47.639H55.42V53.1581ZM48.4603 53.1581H43.3715V47.639H48.4603V53.1581ZM48.4603 62.3254V67.8446H43.3715V62.3254H48.4603ZM50.3312 62.3254H55.42V67.8446H50.3312V62.3254V62.3254ZM69.3394 53.1581H64.2506V47.639H69.3394V53.1581ZM41.5006 47.639V53.1581H36.4118V47.639H41.5006ZM36.4118 62.3254H41.5006V67.8446H36.4118V62.3254ZM69.1523 76.0765C65.3354 76.0765 62.2301 72.9712 62.2301 69.1542C62.2301 65.3372 65.3354 62.2319 69.1523 62.2319C72.9693 62.2319 76.0746 65.3372 76.0746 69.1542C76.0746 72.9712 72.9693 76.0765 69.1523 76.0765Z" fill="white"/>
<path d="M71.8574 66.8869L68.9641 69.7801L67.6768 68.4928C67.3116 68.1275 66.7194 68.1275 66.3538 68.4928C65.9885 68.8581 65.9885 69.4504 66.3538 69.8157L68.3026 71.7645C68.4781 71.9399 68.716 72.0385 68.964 72.0385C69.2121 72.0385 69.45 71.9399 69.6255 71.7645L73.1802 68.2098C73.5455 67.8445 73.5455 67.2522 73.1802 66.8868C72.8149 66.5216 72.2227 66.5216 71.8574 66.8869Z" fill="white"/>
<path d="M49.3955 72.3347C49.1495 72.3347 48.9081 72.4348 48.7341 72.6088C48.5602 72.7828 48.46 73.0241 48.46 73.2702C48.46 73.5162 48.5601 73.7575 48.7341 73.9315C48.9081 74.1055 49.1495 74.2056 49.3955 74.2056C49.6415 74.2056 49.8828 74.1055 50.0568 73.9315C50.2307 73.7575 50.3309 73.5162 50.3309 73.2702C50.3309 73.0241 50.2308 72.7828 50.0568 72.6088C49.8828 72.4348 49.6415 72.3347 49.3955 72.3347Z" fill="white"/>
<path d="M35.3893 42.8748C35.5634 42.7008 35.6634 42.4594 35.6634 42.2134C35.6634 41.9674 35.5634 41.726 35.3893 41.552C35.2154 41.378 34.974 41.278 34.728 41.278C34.481 41.278 34.2406 41.378 34.0666 41.552C33.8926 41.726 33.7926 41.9674 33.7926 42.2134C33.7926 42.4594 33.8926 42.7008 34.0666 42.8748C34.2407 43.0488 34.481 43.1488 34.728 43.1488C34.974 43.1488 35.2154 43.0488 35.3893 42.8748Z" fill="white"/>
</g>
<defs>
<clipPath id="clip0_1_1058">
<rect width="47.8947" height="47.8947" fill="white" transform="translate(30.0508 30.0526)"/>
</clipPath>
</defs>
</svg>
