<svg width="25" height="26" viewBox="0 0 25 26" fill="none" xmlns="http://www.w3.org/2000/svg">
<rect x="0.684204" y="0.847351" width="24.2105" height="24.2105" rx="12.1053" fill="white"/>
<path fill-rule="evenodd" clip-rule="evenodd" d="M12.7895 8.91753C11.6936 8.91753 11.5562 8.92217 11.1258 8.94181C10.6963 8.9614 10.403 9.02961 10.1463 9.12937C9.881 9.23247 9.65598 9.37045 9.43164 9.59477C9.20732 9.81911 9.06934 10.0441 8.96624 10.3095C8.86648 10.5661 8.79827 10.8595 8.77868 11.289C8.75904 11.7193 8.75439 11.8567 8.75439 12.9526C8.75439 14.0485 8.75904 14.1859 8.77868 14.6163C8.79827 15.0458 8.86648 15.3391 8.96624 15.5958C9.06934 15.8611 9.20732 16.0861 9.43164 16.3105C9.65598 16.5348 9.881 16.6728 10.1463 16.7759C10.403 16.8756 10.6963 16.9438 11.1258 16.9634C11.5562 16.9831 11.6936 16.9877 12.7895 16.9877C13.8853 16.9877 14.0228 16.9831 14.4531 16.9634C14.8826 16.9438 15.176 16.8756 15.4326 16.7759C15.698 16.6728 15.923 16.5348 16.1473 16.3105C16.3716 16.0861 16.5096 15.8611 16.6127 15.5958C16.7125 15.3391 16.7807 15.0458 16.8003 14.6163C16.8199 14.1859 16.8246 14.0485 16.8246 12.9526C16.8246 11.8567 16.8199 11.7193 16.8003 11.289C16.7807 10.8595 16.7125 10.5661 16.6127 10.3095C16.5096 10.0441 16.3716 9.81911 16.1473 9.59477C15.923 9.37045 15.698 9.23247 15.4326 9.12937C15.176 9.02961 14.8826 8.9614 14.4531 8.94181C14.0228 8.92217 13.8853 8.91753 12.7895 8.91753ZM12.7895 9.64457C13.8669 9.64457 13.9945 9.64868 14.42 9.6681C14.8134 9.68604 15.0271 9.75177 15.1693 9.80703C15.3576 9.88023 15.492 9.96767 15.6332 10.1089C15.7744 10.2501 15.8619 10.3845 15.9351 10.5728C15.9903 10.715 16.0561 10.9287 16.074 11.3221C16.0934 11.7476 16.0975 11.8752 16.0975 12.9526C16.0975 14.03 16.0934 14.1577 16.074 14.5831C16.0561 14.9766 15.9903 15.1902 15.9351 15.3324C15.8619 15.5207 15.7744 15.6552 15.6332 15.7963C15.492 15.9376 15.3576 16.025 15.1693 16.0982C15.0271 16.1535 14.8134 16.2192 14.42 16.2371C13.9946 16.2565 13.867 16.2607 12.7895 16.2607C11.712 16.2607 11.5844 16.2565 11.159 16.2371C10.7655 16.2192 10.5519 16.1535 10.4097 16.0982C10.2214 16.025 10.0869 15.9376 9.94574 15.7963C9.80455 15.6552 9.7171 15.5207 9.6439 15.3324C9.58864 15.1902 9.5229 14.9766 9.50497 14.5831C9.48555 14.1577 9.48144 14.03 9.48144 12.9526C9.48144 11.8752 9.48555 11.7476 9.50497 11.3221C9.5229 10.9287 9.58864 10.715 9.6439 10.5728C9.7171 10.3845 9.80454 10.2501 9.94574 10.1089C10.0869 9.96767 10.2214 9.88023 10.4097 9.80703C10.5519 9.75177 10.7655 9.68604 11.159 9.6681C11.5844 9.64868 11.7121 9.64457 12.7895 9.64457ZM12.7895 10.8805C11.6451 10.8805 10.7174 11.8082 10.7174 12.9526C10.7174 14.097 11.6451 15.0247 12.7895 15.0247C13.9339 15.0247 14.8616 14.097 14.8616 12.9526C14.8616 11.8082 13.9339 10.8805 12.7895 10.8805ZM12.7895 14.2976C12.0466 14.2976 11.4445 13.6955 11.4445 12.9526C11.4445 12.2098 12.0466 11.6076 12.7895 11.6076C13.5323 11.6076 14.1345 12.2098 14.1345 12.9526C14.1345 13.6955 13.5323 14.2976 12.7895 14.2976ZM15.4276 10.7987C15.4276 11.0661 15.2108 11.2829 14.9434 11.2829C14.676 11.2829 14.4592 11.0661 14.4592 10.7987C14.4592 10.5313 14.676 10.3145 14.9434 10.3145C15.2108 10.3145 15.4276 10.5313 15.4276 10.7987Z" fill="#E12857"/>
</svg>
