<svg width="25" height="26" viewBox="0 0 25 26" fill="none" xmlns="http://www.w3.org/2000/svg">
<rect x="0.736877" y="0.847351" width="24.2105" height="24.2105" rx="12.1053" fill="white"/>
<path fill-rule="evenodd" clip-rule="evenodd" d="M17.2808 16.9877H15.3188V14.1507C15.3188 13.4081 15.0119 12.9012 14.337 12.9012C13.8208 12.9012 13.5337 13.2433 13.4001 13.573C13.35 13.6913 13.3578 13.8562 13.3578 14.021V16.9877H11.4141C11.4141 16.9877 11.4392 11.9623 11.4141 11.5054H13.3578V12.3658C13.4727 11.9896 14.0938 11.4527 15.0849 11.4527C16.3146 11.4527 17.2808 12.2413 17.2808 13.9394V16.9877ZM9.44849 10.8197H9.43597C8.80964 10.8197 8.40356 10.4006 8.40356 9.86939C8.40356 9.32783 8.82164 8.91753 9.4605 8.91753C10.0988 8.91753 10.4913 9.3268 10.5039 9.86784C10.5039 10.3991 10.0988 10.8197 9.44849 10.8197ZM8.62747 11.5054H10.3577V16.9877H8.62747V11.5054Z" fill="#E12857"/>
</svg>
