<svg width="50" height="82" viewBox="0 0 50 82" fill="none" xmlns="http://www.w3.org/2000/svg">
<path d="M2.30595 37.4559C2.62727 37.4559 2.90448 37.1787 2.90448 36.8574C2.90448 36.536 2.62727 36.2588 2.30595 36.2588C1.98463 36.2588 1.70741 36.536 1.70741 36.8574C1.70741 37.1787 1.98463 37.4559 2.30595 37.4559Z" fill="#4E4D50"/>
<path d="M8.93397 44.4682C8.61265 44.4682 8.33544 44.7455 8.33544 45.0668C8.33544 45.3881 8.61265 45.6653 8.93397 45.6653C9.25529 45.6653 9.53251 45.3881 9.53251 45.0668C9.53251 44.7455 9.25529 44.4682 8.93397 44.4682Z" fill="#4E4D50"/>
<path d="M16.8725 36.2525C16.5512 36.2525 16.2739 36.5297 16.2739 36.8511C16.2739 37.1724 16.5512 37.4496 16.8725 37.4496C17.1938 37.4496 17.471 37.1724 17.471 36.8511C17.471 36.4793 17.1938 36.2525 16.8725 36.2525Z" fill="#4E4D50"/>
<path d="M16.3306 42.0615C16.3306 42.4143 16.129 42.5655 15.877 42.5655H12.2984C11.996 42.5151 11.7944 42.5151 11.0887 40.8959C9.97984 38.4199 8.21573 37.6134 6.3004 38.3191V39.2767C7.96371 38.6215 9.02218 39.2263 9.92944 40.9967C10.2319 41.7024 10.4839 42.3639 10.6855 42.5151H2.87298V38.2687H1.81452V43.7752C1.81452 44.4808 1.31048 45.0416 0.554435 45.0416H0V46.1001H0.554435C1.86492 46.1001 2.87298 45.092 2.87298 43.7752V43.5736H16.1794C16.8851 43.5736 17.3891 43.0192 17.3891 42.3576V38.3191H16.3306V42.0615Z" fill="#4E4D50"/>
<path d="M19.9597 35.9438H18.9012V43.6744H19.9597V35.9438Z" fill="#4E4D50"/>
<path d="M7.7873 47.8705V50H10.969V51.0081H7.7873V53.3896H11.473V54.404H6.57133V46.8561H11.4226V47.8705H7.7873Z" fill="#4E4D50"/>
<path d="M12.8402 54.3536V48.8281H13.9491V49.3826C14.6043 48.9289 15.1651 48.721 15.8203 48.721C16.9355 48.721 17.4899 49.3826 17.4899 50.4914V54.341H16.3811V50.8569C16.3811 50.1449 16.0786 49.7921 15.373 49.7921C14.7681 49.7921 14.2137 50.1449 13.9554 50.4032V54.3536H12.8402Z" fill="#4E4D50"/>
<path d="M18.9516 47.6689C18.9516 47.316 19.2036 47.0577 19.5565 47.0577C19.8589 47.0577 20.1613 47.3097 20.1613 47.6689C20.1613 47.9713 19.9093 48.28 19.5565 48.28C19.2036 48.2737 18.9516 48.0217 18.9516 47.6689ZM20.1172 48.9352V54.6119C20.1172 55.7775 19.6636 56.439 18.6492 56.439C18.3972 56.439 18.0948 56.3886 17.8427 56.3382L17.9436 55.5255C18.0948 55.5759 18.246 55.5759 18.3972 55.5759C18.8508 55.5759 19.002 55.2734 19.002 54.5615V48.9352H20.1172Z" fill="#4E4D50"/>
<path d="M25.8758 53.5471V54.404H21.3269V53.5975L24.4078 49.6913H21.4781V48.8344H25.775V49.6409L22.7445 53.5471H25.8758Z" fill="#4E4D50"/>
<path d="M5.95386 80.5822H5.70814C5.70814 64.4153 17.0804 62.9347 28.0872 61.4982C38.5962 60.1311 48.532 58.8395 48.532 45.2684C48.532 38.8546 44.6698 33.619 40.5998 28.0809C34.942 20.4007 29.0952 12.4559 31.7918 0.0693054L32.0375 0.126009C29.3662 12.3992 35.1751 20.2999 40.8014 27.936C44.9093 33.5182 48.7777 38.779 48.7777 45.2747C48.7777 51.468 46.6797 55.6893 42.345 58.1842C38.4828 60.4083 33.4551 61.0635 28.1187 61.7566C17.2253 63.1742 5.95386 64.6421 5.95386 80.5822Z" fill="#E53660"/>
<path d="M5.95386 80.5885L5.70814 80.5822C6.04836 65.1903 17.1182 63.7286 27.8226 62.3173C38.2371 60.9438 48.0721 59.6459 48.0721 46.0938C48.0721 39.724 44.2036 34.4254 40.1272 28.8117C34.3246 20.848 28.3329 12.6134 31.7918 0.0630035L32.0375 0.132308C28.6101 12.5693 34.564 20.7472 40.3226 28.6605C44.4367 34.3057 48.3115 39.6421 48.3115 46.0875C48.3115 52.2745 46.2323 56.4957 41.9355 58.9844C38.1111 61.2084 33.1212 61.87 27.8415 62.563C17.2568 63.968 6.30038 65.4171 5.95386 80.5885Z" fill="#DF4765"/>
<path d="M5.95386 80.5885L5.70814 80.5759C6.38858 65.9589 17.1497 64.5224 27.5579 63.13C37.8717 61.7502 47.6184 60.4461 47.6184 46.9065C47.6184 40.5872 43.7437 35.2193 39.6484 29.53C33.7008 21.2891 27.5516 12.7709 31.7981 0.0567017L32.0312 0.138607C27.8289 12.7268 33.9403 21.1946 39.8437 29.3851C43.9705 35.1058 47.8578 40.5053 47.8578 46.9065C47.8578 53.0872 45.7976 57.3022 41.5448 59.7971C37.752 62.0212 32.5857 62.7142 27.5831 63.3758C17.282 64.7555 6.6343 66.1857 5.95386 80.5885Z" fill="#D8556A"/>
<path d="M5.95386 80.5947L5.70814 80.5759C6.72251 66.7276 17.1686 65.3163 27.2807 63.9428C37.5 62.5567 47.1522 61.2588 47.1522 47.7193C47.1522 41.4378 43.2649 36.0068 39.1633 30.2545C33.0645 21.7301 26.7704 12.9158 31.7981 0.0503998L32.0312 0.144906C27.0539 12.8843 33.3102 21.6356 39.3586 30.1096C43.4917 35.8934 47.3916 41.3558 47.3916 47.7193C47.3916 53.8936 45.3503 58.1149 41.1353 60.6099C37.3803 62.8339 32.2643 63.527 27.2996 64.1948C17.3009 65.5494 6.95562 66.9481 5.95386 80.5947Z" fill="#D2616F"/>
<path d="M5.95386 80.5947L5.70814 80.5696C7.04383 67.4836 17.1875 66.0975 27.0035 64.7555C37.1283 63.3758 46.6986 62.0653 46.6986 48.5383C46.6986 42.2883 42.8049 36.7943 38.6782 30.9728C32.4282 22.1648 25.9702 13.0544 31.7981 0.0440979L32.0312 0.151205C26.2601 13.0292 32.6739 22.0766 38.8735 30.8279C43.0254 36.6809 46.938 42.2064 46.938 48.5383C46.938 54.7127 44.9156 58.9277 40.7384 61.4226C37.0211 63.6467 31.943 64.3397 27.035 65.0076C17.3198 66.3369 7.27694 67.7104 5.95386 80.5947Z" fill="#CB6B74"/>
<path d="M5.95386 80.6011L5.70814 80.5696C7.36515 68.246 17.2001 66.8914 26.7074 65.5809C36.7439 64.2011 46.226 62.8969 46.226 49.3574C46.226 43.1389 42.3135 37.5819 38.1741 31.691C31.7792 22.5932 25.1575 13.1867 31.8044 0.0440979L32.0249 0.157505C25.4536 13.1678 32.0249 22.5176 38.382 31.5524C42.5529 37.4748 46.4781 43.0633 46.4781 49.3637C46.4781 55.5381 44.4682 59.753 40.3352 62.2543C36.6494 64.4783 31.6154 65.1714 26.7515 65.8392C17.3198 67.1308 7.58566 68.4728 5.95386 80.6011Z" fill="#C47479"/>
<path d="M5.9539 80.6077L5.70818 80.5636C7.67391 68.9961 17.2001 67.6793 26.4113 66.4066C36.3659 65.0268 45.7725 63.729 45.7725 50.1768C45.7725 43.9898 41.841 38.3698 37.6827 32.416C31.124 23.0284 24.3385 13.3194 31.8045 0.0381775L32.025 0.164186C24.6346 13.3005 31.3697 22.9464 37.8906 32.271C42.0741 38.2564 46.0182 43.9079 46.0182 50.1768C46.0182 56.3575 44.0209 60.5788 39.9257 63.0737C36.2714 65.2978 31.2815 65.9908 26.4491 66.6524C17.3198 67.9187 7.88812 69.2229 5.9539 80.6077Z" fill="#BC7C7E"/>
<path d="M5.9539 80.6076L5.70818 80.5572C7.97633 69.7394 17.1938 68.4604 26.1089 67.2193C35.9753 65.8458 45.3062 64.5542 45.3062 50.9894C45.3062 44.8276 41.3622 39.1447 37.1787 33.1278C30.4625 23.444 23.5068 13.4327 31.8045 0.0254517L32.0124 0.164061C23.8029 13.4264 30.7082 23.3684 37.3866 32.9829C41.589 39.0375 45.5519 44.7457 45.5519 50.9894C45.5519 57.1827 43.5736 61.404 39.5036 63.8989C35.8745 66.123 30.9287 66.8097 26.1341 67.4776C17.3072 68.7061 8.18424 69.9662 5.9539 80.6076Z" fill="#B58483"/>
<path d="M5.9539 80.6139L5.70818 80.5509C8.25985 70.4829 17.1686 69.2417 25.7876 68.0509C35.5847 66.69 44.8526 65.4047 44.8526 51.8085C44.8526 45.6719 40.8833 39.9259 36.681 33.846C29.7946 23.8725 22.6689 13.5524 31.8108 0.0254517L32.0187 0.170361C22.9776 13.5524 30.0466 23.7969 36.8889 33.7011C41.1102 39.8125 45.0983 45.59 45.0983 51.8085C45.0983 58.0144 43.1326 62.2356 39.094 64.7306C35.4965 66.9546 30.5759 67.6414 25.8254 68.3029C17.282 69.4874 8.46146 70.716 5.9539 80.6139Z" fill="#AC8B88"/>
<path d="M5.9539 80.6202L5.70818 80.5446C8.53706 71.2137 17.1371 70.0229 25.4599 68.8763C35.1941 67.528 44.3864 66.2553 44.3864 52.6275C44.3864 46.5098 40.3982 40.7009 36.1706 34.558C29.1205 24.2883 21.8183 13.6658 31.8045 0.0254517L32.0124 0.176661C22.1396 13.6721 29.3851 24.219 36.3848 34.4131C40.625 40.5938 44.6321 46.4279 44.6321 52.6212C44.6321 58.8397 42.6853 63.0736 38.6719 65.5686C35.0933 67.7926 30.2105 68.4667 25.4852 69.122C17.2568 70.2687 8.73238 71.4468 5.9539 80.6202Z" fill="#A4928D"/>
<path d="M5.94766 80.6264L5.71454 80.5383C8.80174 71.9445 17.0931 70.8041 25.1261 69.7016C34.7972 68.3722 43.9391 67.1184 43.9391 53.4402C43.9391 47.3414 39.9257 41.4757 35.6856 35.2698C28.4464 24.6978 20.9741 13.7729 31.8171 0.0190887L32.0124 0.176599C21.2828 13.7855 28.711 24.6348 35.8872 35.1312C40.1525 41.3686 44.1785 47.2658 44.1785 53.4465C44.1785 59.6839 42.2443 63.9304 38.2561 66.4253C34.7027 68.6494 30.0656 69.2857 25.1513 69.9599C17.2065 71.0435 8.98445 72.1713 5.94766 80.6264Z" fill="#9A9993"/>
<path d="M5.94766 80.6327L5.71454 80.5319C9.04746 72.6627 17.0427 71.5791 24.7607 70.5269C34.3814 69.2227 43.4729 67.9878 43.4729 54.253C43.4729 48.1668 39.4406 42.2444 35.1689 35.9755C31.5273 30.639 27.766 25.1199 26.3736 19.1975C24.7985 12.4939 26.5752 6.21869 31.8171 0.0190887L32.0124 0.176599C20.4323 13.8926 28.0306 25.0506 35.3705 35.8369C39.6611 42.1373 43.7123 48.0975 43.7123 54.2593C43.7123 60.5219 41.7907 64.7809 37.8277 67.2696C34.2932 69.4936 29.675 70.1174 24.7922 70.7789C17.1435 71.8185 9.22387 72.8959 5.94766 80.6327Z" fill="#91A098"/>
<path d="M5.94153 80.6391L5.72102 80.5257C9.28705 73.3685 16.9672 72.3478 24.3891 71.3586C33.9657 70.0859 43.0131 68.8763 43.0131 55.0721C43.0131 48.9985 38.9493 43.0194 34.6588 36.6812C30.9352 31.1998 27.0857 25.5232 25.7437 19.4811C24.2127 12.6263 26.2036 6.25655 31.8236 0.0128479L32.0063 0.176658C19.5693 13.9934 27.344 25.4602 34.8667 36.5426C39.1825 42.9123 43.2588 48.9229 43.2588 55.0721C43.2588 69.0968 34.1043 70.3191 24.4206 71.6043C17.0617 72.5935 9.45086 73.6016 5.94153 80.6391Z" fill="#85A69D"/>
<path d="M5.94153 80.6517L5.72102 80.5194C9.50126 74.0678 16.8601 73.1101 23.9859 72.1903C33.531 70.9491 42.5469 69.7835 42.5469 55.8911C42.5469 49.8301 38.4579 43.7881 34.1421 37.3931C30.343 31.7669 26.4052 25.9453 25.0885 19.7709C23.6079 12.7649 25.8067 6.30695 31.8236 0.0128479L32.0063 0.182959C18.7062 14.1006 26.6573 25.8697 34.3501 37.2545C38.691 43.6809 42.7926 49.7545 42.7926 55.8911C42.7926 70.004 33.6696 71.1885 24.0111 72.436C16.9546 73.3559 9.65247 74.3009 5.94153 80.6517Z" fill="#79ACA3"/>
<path d="M5.93496 80.6578L5.72705 80.5129C9.69 74.7543 16.7465 73.8659 23.5698 73.0154C33.096 71.8246 42.093 70.6968 42.093 56.7099C42.093 50.6615 37.9788 44.5628 33.6315 38.1048C29.7442 32.3337 25.7119 26.3609 24.4518 20.0542C23.0091 12.8969 25.4221 6.34451 31.8296 0.00630188L31.9997 0.182713C17.8301 14.1948 25.9639 26.279 33.8394 37.9599C38.2119 44.4494 42.3387 50.5796 42.3387 56.7099C42.3387 70.9236 33.2346 72.064 23.595 73.2674C16.8284 74.1117 9.82861 74.9874 5.93496 80.6578Z" fill="#6BB2A8"/>
<path d="M5.92895 80.6641L5.73363 80.5066C9.8604 75.4222 16.5955 74.622 23.1164 73.8471C32.6301 72.713 41.627 71.642 41.627 57.529C41.627 51.487 37.4877 45.3315 33.1089 38.8106C29.1333 32.8945 25.0255 26.7768 23.7969 20.3378C22.3982 13.0293 25.0255 6.38237 31.8236 0.00636292L31.9937 0.189075C25.2712 6.50208 22.6691 13.0734 24.0489 20.2874C25.2712 26.676 29.3665 32.7748 33.3231 38.6719C37.7271 45.2181 41.8791 51.4114 41.8791 57.529C41.8791 71.8625 32.7813 72.9461 23.1417 74.0991C16.6711 74.8678 9.99271 75.6616 5.92895 80.6641Z" fill="#5AB7AE"/>
<path d="M5.92271 80.6704L5.73999 80.5003C9.99907 76.0774 16.4255 75.3591 22.6377 74.6661C32.1639 73.6013 41.1735 72.5933 41.1735 58.3417C41.1735 52.306 37.0026 46.0875 32.5986 39.5098C28.5412 33.4488 24.3451 27.1799 23.148 20.6086C21.7934 13.1552 24.6349 6.41381 31.83 0L32.0001 0.189012C24.8743 6.54612 22.058 13.2056 23.3937 20.5708C24.5782 27.0854 28.7617 33.3291 32.8065 39.3775C37.242 45.9866 41.4192 52.2366 41.4192 58.348C41.4192 72.8201 32.3088 73.8407 22.6566 74.9181C16.4948 75.6048 10.1188 76.3168 5.92271 80.6704Z" fill="#42BDB4"/>
<path d="M50 44.4493H49.7543C49.7543 40.9715 48.6013 37.8465 46.9002 34.8286C46.8813 34.7971 46.8624 34.7656 46.8435 34.7341C46.8246 34.7026 46.8057 34.6711 46.7868 34.6396C46.7679 34.6081 46.749 34.5766 46.7301 34.5451C46.7112 34.5136 46.6923 34.4821 46.6734 34.4506C46.6545 34.4191 46.6356 34.3876 46.6167 34.3561C46.6167 34.3561 46.6167 34.3498 46.6104 34.3498C46.5915 34.3183 46.5726 34.2868 46.5537 34.2553C46.5348 34.2238 46.5159 34.1923 46.497 34.1608C46.4781 34.1293 46.4592 34.0978 46.4403 34.0663C46.4214 34.0348 46.4025 34.0033 46.3836 33.9718C46.3647 33.9403 46.3458 33.9088 46.3269 33.8773C46.308 33.8458 46.2891 33.8143 46.2701 33.7827C46.2512 33.7512 46.2323 33.7197 46.2134 33.6882C46.1945 33.6567 46.1756 33.6252 46.1567 33.5937C46.1378 33.5622 46.1189 33.5307 46.1 33.4992C46.0811 33.4677 46.0622 33.4362 46.0433 33.4047C46.0244 33.3732 46.0055 33.3417 45.9866 33.3102C45.9677 33.2787 45.9488 33.2472 45.9299 33.2157C45.911 33.1842 45.8921 33.1527 45.8732 33.1212C45.8543 33.0897 45.8354 33.0582 45.8102 33.0267C45.7913 32.9952 45.7724 32.9637 45.7472 32.9322C45.7283 32.9007 45.7094 32.8692 45.6842 32.8377C45.6653 32.8062 45.6464 32.7747 45.6212 32.7432C45.6212 32.7432 45.6212 32.7369 45.6149 32.7369C45.596 32.7054 45.5771 32.6739 45.5519 32.6424C45.533 32.6109 45.5078 32.5794 45.4889 32.5479C45.47 32.5164 45.4448 32.4849 45.4259 32.4534C45.407 32.4219 45.3818 32.3904 45.3629 32.3589C45.344 32.3274 45.3188 32.2959 45.2999 32.2644C45.281 32.2328 45.2558 32.2013 45.2369 32.1698C45.218 32.1383 45.1928 32.1068 45.1739 32.0753C45.155 32.0438 45.1298 32.0123 45.1109 31.9808C45.092 31.9493 45.0668 31.9178 45.0479 31.8863C45.029 31.8548 45.0038 31.8233 44.9849 31.7918C44.966 31.7603 44.9408 31.7288 44.9219 31.6973C44.903 31.6658 44.8778 31.6343 44.8589 31.6028C44.84 31.5713 44.8148 31.5398 44.7959 31.5083C44.777 31.4768 44.7518 31.4453 44.7328 31.4138C44.7139 31.3823 44.6887 31.3508 44.6698 31.3193C44.6509 31.2878 44.6257 31.2563 44.6068 31.2248C44.5879 31.1933 44.5627 31.1618 44.5438 31.1303C44.5249 31.0988 44.4997 31.0673 44.4808 31.0358C44.4808 31.0358 44.4808 31.0295 44.4745 31.0295C44.4556 30.998 44.4304 30.9665 44.4115 30.935C44.3926 30.9035 44.3674 30.872 44.3485 30.8405C44.3233 30.809 44.3044 30.7775 44.2792 30.746C44.254 30.7145 44.2351 30.683 44.2099 30.6514C44.1847 30.6199 44.1658 30.5884 44.1406 30.5569C44.1154 30.5254 44.0965 30.4939 44.0713 30.4624C44.0461 30.4309 44.0272 30.3994 44.002 30.3679C43.9768 30.3364 43.9579 30.3049 43.9327 30.2734C43.9075 30.2419 43.8886 30.2104 43.8634 30.1789C43.8382 30.1474 43.8193 30.1159 43.7941 30.0844C43.7689 30.0529 43.75 30.0214 43.7248 29.9899C43.6996 29.9584 43.6807 29.9269 43.6555 29.8954C43.6303 29.8639 43.6114 29.8324 43.5862 29.8009C43.561 29.7694 43.5421 29.7379 43.5169 29.7064C43.4917 29.6749 43.4728 29.6434 43.4476 29.6119C43.4224 29.5804 43.4035 29.5489 43.3783 29.5174C43.3531 29.4859 43.3342 29.4544 43.309 29.4229C43.309 29.4229 43.309 29.4166 43.3027 29.4166C43.2775 29.3851 43.2586 29.3536 43.2334 29.3221C43.2082 29.2906 43.1892 29.2591 43.164 29.2276C43.1388 29.1961 43.1199 29.1646 43.0947 29.133C43.0695 29.1015 43.0506 29.07 43.0254 29.0385C43.0002 29.007 42.9813 28.9755 42.9561 28.944C42.9309 28.9125 42.912 28.881 42.8868 28.8495C42.8616 28.818 42.8427 28.7865 42.8175 28.755C42.7923 28.7235 42.7734 28.692 42.7482 28.6605C42.723 28.629 42.7041 28.5975 42.6789 28.566C42.6537 28.5345 42.6348 28.503 42.6096 28.4715C42.5844 28.44 42.5655 28.4085 42.5403 28.377C42.5151 28.3455 42.4962 28.314 42.471 28.2825C42.4458 28.251 42.4269 28.2195 42.4017 28.188C42.3765 28.1565 42.3576 28.125 42.3324 28.0935C42.3072 28.062 42.2883 28.0305 42.2631 27.999C42.2379 27.9675 42.219 27.936 42.1938 27.9045C42.1686 27.873 42.1497 27.8415 42.1245 27.81C42.0993 27.7785 42.0804 27.747 42.0552 27.7155C42.0552 27.7155 42.0552 27.7092 42.0489 27.7092C42.0237 27.6777 42.0048 27.6462 41.9796 27.6147C41.9607 27.5832 41.9355 27.5579 41.9166 27.5264C41.9166 27.5264 41.9166 27.5201 41.9103 27.5201C41.8851 27.4886 41.8662 27.4571 41.841 27.4256C41.8158 27.3941 41.7969 27.3626 41.7717 27.3311C41.7465 27.2996 41.7276 27.2681 41.7024 27.2366C41.6772 27.2051 41.6583 27.1736 41.633 27.1421C41.6078 27.1106 41.5889 27.0791 41.5637 27.0476C41.5385 27.0161 41.5196 26.9846 41.4944 26.9531C41.4692 26.9216 41.4503 26.8901 41.4251 26.8586C41.3999 26.8271 41.381 26.7956 41.3558 26.7641C41.3306 26.7326 41.3117 26.7011 41.2865 26.6696C41.2613 26.6381 41.2424 26.6066 41.2172 26.5751C41.192 26.5436 41.1731 26.5121 41.1479 26.4806C41.1227 26.4491 41.1038 26.4176 41.0786 26.3861C41.0534 26.3546 41.0345 26.3231 41.0093 26.2916C40.9841 26.2601 40.9652 26.2286 40.94 26.1971C40.9148 26.1656 40.8959 26.1341 40.8707 26.1026C40.8455 26.0711 40.8266 26.0396 40.8014 26.0081C40.8014 26.0081 40.8014 26.0018 40.7951 26.0018C40.7699 25.9702 40.751 25.9387 40.7258 25.9072C40.7006 25.8757 40.6817 25.8442 40.6565 25.8127C40.6313 25.7812 40.6124 25.7497 40.5872 25.7182C40.562 25.6867 40.5431 25.6552 40.5179 25.6237C40.4927 25.5922 40.4738 25.5607 40.4486 25.5292C40.4234 25.4977 40.4045 25.4662 40.3793 25.4347C40.3541 25.4032 40.3352 25.3717 40.31 25.3402C40.2848 25.3087 40.2659 25.2772 40.2407 25.2457C40.2155 25.2142 40.1966 25.1827 40.1714 25.1512C40.1462 25.1197 40.1273 25.0882 40.1021 25.0567C40.0769 25.0252 40.058 24.9937 40.0327 24.9622C40.0075 24.9307 39.9886 24.8992 39.9634 24.8677C39.9382 24.8362 39.9193 24.8047 39.8941 24.7732C39.8689 24.7417 39.85 24.7102 39.8248 24.6787C39.7996 24.6472 39.7807 24.6157 39.7555 24.5842C39.7303 24.5527 39.7114 24.5212 39.6862 24.4897C39.661 24.4582 39.6421 24.4267 39.6169 24.3951C39.6169 24.3951 39.6169 24.3888 39.6106 24.3888C39.5854 24.3573 39.5665 24.3258 39.5413 24.2943C39.5161 24.2628 39.4972 24.2313 39.472 24.1998C39.4468 24.1683 39.4279 24.1368 39.4027 24.1053C39.3775 24.0738 39.3586 24.0423 39.3334 24.0108C39.3145 23.9793 39.2893 23.9478 39.2641 23.9163C39.2452 23.8848 39.22 23.8533 39.2011 23.8218C39.1822 23.7903 39.157 23.7588 39.1381 23.7273C39.1192 23.6958 39.094 23.6643 39.0751 23.6328C39.0562 23.6013 39.031 23.5698 39.0121 23.5383C38.9932 23.5068 38.968 23.4753 38.9491 23.4438C38.9302 23.4123 38.905 23.3808 38.8861 23.3493C38.8672 23.3178 38.842 23.2863 38.8231 23.2548C38.8042 23.2233 38.779 23.1918 38.7601 23.1603C38.7412 23.1288 38.716 23.0973 38.6971 23.0658C38.6782 23.0343 38.653 23.0028 38.6341 22.9713C38.6152 22.9398 38.59 22.9083 38.5711 22.8767C38.5522 22.8452 38.527 22.8137 38.5081 22.7822C38.5081 22.7822 38.508 22.7759 38.5017 22.7759C38.4828 22.7444 38.4576 22.7129 38.4387 22.6814C38.4198 22.6499 38.3946 22.6184 38.3757 22.5869C38.3568 22.5554 38.3316 22.5239 38.3127 22.4924C38.2938 22.4609 38.2686 22.4294 38.2497 22.3979C38.2308 22.3664 38.2056 22.3349 38.1867 22.3034C38.1678 22.2719 38.1426 22.2404 38.1237 22.2089C38.1048 22.1774 38.0796 22.1459 38.0607 22.1144C38.0418 22.0829 38.0166 22.0514 37.9977 22.0199C37.9788 21.9884 37.9599 21.9569 37.9347 21.9254C37.9158 21.8939 37.8969 21.8624 37.8717 21.8309C37.8528 21.7994 37.8339 21.7679 37.8087 21.7364C37.7898 21.7049 37.7709 21.6734 37.7457 21.6419C37.7268 21.6104 37.7079 21.5789 37.6827 21.5474C37.6638 21.5159 37.6449 21.4844 37.6197 21.4529C37.6008 21.4214 37.5819 21.3899 37.563 21.3584C37.5441 21.3269 37.5252 21.2953 37.5063 21.2638C37.4874 21.2323 37.4685 21.2008 37.4496 21.1693C37.4307 21.1378 37.4118 21.1063 37.3929 21.0748C37.3929 21.0748 37.3929 21.0685 37.3866 21.0685C37.3677 21.037 37.3488 21.0055 37.3299 20.974C37.311 20.9425 37.2921 20.911 37.2732 20.8795C37.2543 20.848 37.2354 20.8165 37.2165 20.785C37.1976 20.7535 37.1787 20.722 37.1598 20.6905C37.1409 20.659 37.122 20.6275 37.1031 20.596C37.0842 20.5645 37.0653 20.533 37.0464 20.5015C37.0275 20.47 37.0086 20.4385 36.9897 20.407C36.9708 20.3755 36.9519 20.344 36.933 20.3125C36.914 20.281 36.8951 20.2495 36.8762 20.218C36.8573 20.1865 36.8384 20.155 36.8195 20.1235C36.8006 20.092 36.7817 20.0605 36.7628 20.029C36.7439 19.9975 36.725 19.966 36.7061 19.9345C36.6872 19.903 36.6683 19.8715 36.6494 19.84C36.6305 19.8085 36.6116 19.777 36.5927 19.7454C36.5738 19.7139 36.5549 19.6824 36.536 19.6509C36.5171 19.6194 36.4982 19.5879 36.4793 19.5564C36.4604 19.5249 36.4415 19.4934 36.4226 19.4619C36.4226 19.4619 36.4226 19.4556 36.4163 19.4556C36.3974 19.4241 36.3785 19.3926 36.3596 19.3611C36.3407 19.3296 36.3218 19.2981 36.3092 19.2666C36.2903 19.2351 36.2714 19.2036 36.2588 19.1721C36.2399 19.1406 36.221 19.1091 36.2084 19.0776C36.1895 19.0461 36.1706 19.0146 36.158 18.9831C36.1391 18.9516 36.1265 18.9201 36.1076 18.8886C36.0887 18.8571 36.0761 18.8256 36.0572 18.7941C36.0383 18.7626 36.0257 18.7311 36.0068 18.6996C35.9879 18.6681 35.9753 18.6366 35.9564 18.6051C35.9375 18.5736 35.9249 18.5421 35.906 18.5106C35.8871 18.4791 35.8745 18.4476 35.8556 18.4161C35.8367 18.3846 35.8241 18.3531 35.8052 18.3216C35.7863 18.2901 35.7737 18.2586 35.7548 18.2271C35.7359 18.1955 35.7233 18.164 35.7044 18.1325C35.6855 18.101 35.6729 18.0695 35.654 18.038C35.6351 18.0065 35.6225 17.975 35.6036 17.9435C35.5847 17.912 35.5721 17.8805 35.5532 17.849C35.5532 17.849 35.5532 17.8427 35.5469 17.8427C35.528 17.8112 35.5154 17.7797 35.4965 17.7482C35.4839 17.7167 35.465 17.6915 35.4524 17.66C35.4524 17.66 35.4524 17.6537 35.4461 17.6537C34.1545 15.058 33.1716 12.2795 32.7558 9.19857L33.0078 9.18597C33.4299 12.2732 34.4191 15.0517 35.7233 17.6537C35.7233 17.6537 35.7233 17.66 35.7296 17.66C35.7422 17.6915 35.7611 17.7167 35.7737 17.7482C35.7926 17.7797 35.8052 17.8112 35.8241 17.8427C35.8241 17.8427 35.8241 17.849 35.8304 17.849C35.8493 17.8805 35.8619 17.912 35.8808 17.9435C35.8997 17.975 35.9123 18.0065 35.9312 18.038C35.9501 18.0695 35.9627 18.101 35.9816 18.1325C36.0005 18.164 36.0131 18.1955 36.032 18.2271C36.0509 18.2586 36.0635 18.2901 36.0824 18.3216C36.1013 18.3531 36.1139 18.3846 36.1328 18.4161C36.1517 18.4476 36.1643 18.4791 36.1832 18.5106C36.2021 18.5421 36.2147 18.5736 36.2336 18.6051C36.2525 18.6366 36.2651 18.6681 36.284 18.6996C36.3029 18.7311 36.3155 18.7626 36.3344 18.7941C36.3533 18.8256 36.3659 18.8571 36.3848 18.8886C36.4037 18.9201 36.4226 18.9516 36.4352 18.9831C36.4541 19.0146 36.473 19.0461 36.4856 19.0776C36.5045 19.1091 36.5234 19.1406 36.536 19.1721C36.5549 19.2036 36.5738 19.2351 36.5864 19.2666C36.6053 19.2981 36.6242 19.3296 36.6431 19.3611C36.662 19.3926 36.6809 19.4241 36.6998 19.4556C36.6998 19.4556 36.6998 19.4619 36.7061 19.4619C36.725 19.4934 36.7439 19.5249 36.7628 19.5564C36.7817 19.5879 36.8006 19.6194 36.8195 19.6509C36.8384 19.6824 36.8573 19.7139 36.8762 19.7454C36.8951 19.777 36.914 19.8085 36.933 19.84C36.9519 19.8715 36.9708 19.903 36.9897 19.9345C37.0086 19.966 37.0275 19.9975 37.0464 20.029C37.0653 20.0605 37.0842 20.092 37.1031 20.1235C37.122 20.155 37.1409 20.1865 37.1598 20.218C37.1787 20.2495 37.1976 20.281 37.2165 20.3125C37.2354 20.344 37.2543 20.3755 37.2732 20.407C37.2921 20.4385 37.311 20.47 37.3299 20.5015C37.3488 20.533 37.3677 20.5645 37.3866 20.596C37.4055 20.6275 37.4244 20.659 37.4433 20.6905C37.4622 20.722 37.4811 20.7535 37.5 20.785C37.5189 20.8165 37.5378 20.848 37.5567 20.8795C37.5756 20.911 37.5945 20.9425 37.6134 20.974C37.6323 21.0055 37.6512 21.037 37.6701 21.0685C37.6701 21.0685 37.6701 21.0748 37.6764 21.0748C37.6953 21.1063 37.7142 21.1378 37.7331 21.1693C37.752 21.2008 37.7709 21.2323 37.7961 21.2638C37.815 21.2953 37.8339 21.3269 37.8591 21.3584C37.878 21.3899 37.8969 21.4214 37.9221 21.4529C37.941 21.4844 37.9599 21.5159 37.9851 21.5474C38.0103 21.5789 38.0229 21.6104 38.0481 21.6419C38.067 21.6734 38.0859 21.7049 38.1111 21.7364C38.13 21.7679 38.1489 21.7994 38.1741 21.8309C38.193 21.8624 38.2119 21.8939 38.2371 21.9254C38.256 21.9569 38.2812 21.9884 38.3001 22.0199C38.319 22.0514 38.3442 22.0829 38.3631 22.1144C38.382 22.1459 38.4072 22.1774 38.4261 22.2089C38.445 22.2404 38.4702 22.2719 38.4892 22.3034C38.5081 22.3349 38.5333 22.3664 38.5522 22.3979C38.5711 22.4294 38.5963 22.4609 38.6152 22.4924C38.6341 22.5239 38.6593 22.5554 38.6782 22.5869C38.6971 22.6184 38.7223 22.6499 38.7412 22.6814C38.7601 22.7129 38.7853 22.7444 38.8042 22.7759C38.8042 22.7759 38.8042 22.7822 38.8105 22.7822C38.8294 22.8137 38.8546 22.8452 38.8735 22.8767C38.8924 22.9083 38.9176 22.9398 38.9365 22.9713C38.9554 23.0028 38.9806 23.0343 38.9995 23.0658C39.0184 23.0973 39.0436 23.1288 39.0625 23.1603C39.0814 23.1918 39.1066 23.2233 39.1255 23.2548C39.1444 23.2863 39.1696 23.3178 39.1885 23.3493C39.2074 23.3808 39.2326 23.4123 39.2515 23.4438C39.2704 23.4753 39.2956 23.5068 39.3145 23.5383C39.3334 23.5698 39.3586 23.6013 39.3775 23.6328C39.3964 23.6643 39.4216 23.6958 39.4405 23.7273C39.4594 23.7588 39.4846 23.7903 39.5035 23.8218C39.5224 23.8533 39.5476 23.8848 39.5728 23.9163C39.598 23.9478 39.6169 23.9793 39.6421 24.0108C39.6673 24.0423 39.6862 24.0738 39.7114 24.1053C39.7366 24.1368 39.7555 24.1683 39.7807 24.1998C39.8059 24.2313 39.8248 24.2628 39.85 24.2943C39.8752 24.3258 39.8941 24.3573 39.9193 24.3888C39.9193 24.3888 39.9193 24.3951 39.9256 24.3951C39.9508 24.4267 39.9697 24.4582 39.9949 24.4897C40.0201 24.5212 40.0391 24.5527 40.0643 24.5842C40.0895 24.6157 40.1084 24.6472 40.1336 24.6787C40.1588 24.7102 40.1777 24.7417 40.2029 24.7732C40.2281 24.8047 40.247 24.8362 40.2722 24.8677C40.2974 24.8992 40.3163 24.9307 40.3415 24.9622C40.3667 24.9937 40.3856 25.0252 40.4108 25.0567C40.436 25.0882 40.4549 25.1197 40.4801 25.1512C40.5053 25.1827 40.5242 25.2142 40.5494 25.2457C40.5746 25.2772 40.5935 25.3087 40.6187 25.3402C40.6439 25.3717 40.6628 25.4032 40.688 25.4347C40.7132 25.4662 40.7321 25.4977 40.7573 25.5292C40.7825 25.5607 40.8014 25.5922 40.8266 25.6237C40.8518 25.6552 40.8707 25.6867 40.8959 25.7182C40.9211 25.7497 40.94 25.7812 40.9652 25.8127C40.9904 25.8442 41.0093 25.8757 41.0345 25.9072C41.0597 25.9387 41.0786 25.9702 41.1038 26.0018C41.1038 26.0018 41.1038 26.0081 41.1101 26.0081C41.1353 26.0396 41.1542 26.0711 41.1794 26.1026C41.2046 26.1341 41.2235 26.1656 41.2487 26.1971C41.2739 26.2286 41.2928 26.2601 41.318 26.2916C41.3432 26.3231 41.3621 26.3546 41.3873 26.3861C41.4125 26.4176 41.4314 26.4491 41.4566 26.4806C41.4818 26.5121 41.5007 26.5436 41.5259 26.5751C41.5511 26.6066 41.57 26.6381 41.5952 26.6696C41.6205 26.7011 41.6393 26.7326 41.6646 26.7641C41.6898 26.7956 41.7087 26.8271 41.7339 26.8586C41.7591 26.8901 41.778 26.9216 41.8032 26.9531C41.8284 26.9846 41.8473 27.0161 41.8725 27.0476C41.8977 27.0791 41.9166 27.1106 41.9418 27.1421C41.967 27.1736 41.9859 27.2051 42.0111 27.2366C42.0363 27.2681 42.0552 27.2996 42.0804 27.3311C42.093 27.35 42.1056 27.3626 42.1182 27.3815C42.1308 27.3941 42.1371 27.413 42.1497 27.4256C42.1749 27.4571 42.1938 27.4886 42.219 27.5201C42.2442 27.5516 42.2631 27.5832 42.2883 27.6147C42.3135 27.6462 42.3324 27.6777 42.3576 27.7092C42.3576 27.7092 42.3576 27.7155 42.3639 27.7155C42.3891 27.747 42.408 27.7785 42.4332 27.81C42.4584 27.8415 42.4773 27.873 42.5025 27.9045C42.5277 27.936 42.5466 27.9675 42.5718 27.999C42.597 28.0305 42.6159 28.062 42.6411 28.0935C42.6663 28.125 42.6852 28.1565 42.7104 28.188C42.7356 28.2195 42.7545 28.251 42.7797 28.2825C42.8049 28.314 42.8238 28.3455 42.849 28.377C42.8742 28.4085 42.8931 28.44 42.9183 28.4715C42.9435 28.503 42.9624 28.5345 42.9876 28.566C43.0128 28.5975 43.0317 28.629 43.0569 28.6605C43.0821 28.692 43.101 28.7235 43.1262 28.755C43.1514 28.7865 43.1703 28.818 43.1955 28.8495C43.2208 28.881 43.2397 28.9125 43.2649 28.944C43.2901 28.9755 43.309 29.007 43.3342 29.0385C43.3594 29.07 43.3783 29.1015 43.4035 29.133C43.4287 29.1646 43.4476 29.1961 43.4728 29.2276C43.498 29.2591 43.5169 29.2906 43.5421 29.3221C43.5673 29.3536 43.5862 29.3851 43.6114 29.4166C43.6114 29.4166 43.6114 29.4229 43.6177 29.4229C43.6429 29.4544 43.6618 29.4859 43.687 29.5174C43.7122 29.5489 43.7311 29.5804 43.7563 29.6119C43.7815 29.6434 43.8004 29.6749 43.8256 29.7064C43.8508 29.7379 43.8697 29.7694 43.8949 29.8009C43.9201 29.8324 43.939 29.8639 43.9642 29.8954C43.9894 29.9269 44.0083 29.9584 44.0335 29.9899C44.0587 30.0214 44.0776 30.0529 44.1028 30.0844C44.128 30.1159 44.1469 30.1474 44.1721 30.1789C44.1973 30.2104 44.2162 30.2419 44.2414 30.2734C44.2666 30.3049 44.2855 30.3364 44.3107 30.3679C44.3359 30.3994 44.3548 30.4309 44.38 30.4624C44.4052 30.4939 44.4241 30.5254 44.4493 30.5569C44.4745 30.5884 44.4934 30.6199 44.5186 30.6514C44.5438 30.683 44.5627 30.7145 44.5879 30.746C44.6131 30.7775 44.632 30.809 44.6509 30.8405C44.6698 30.872 44.695 30.9035 44.7139 30.935C44.7329 30.9665 44.7581 30.998 44.777 31.0295C44.777 31.0295 44.777 31.0358 44.7833 31.0358C44.8022 31.0673 44.8274 31.0988 44.8463 31.1303C44.8652 31.1618 44.8904 31.1933 44.9093 31.2248C44.9282 31.2563 44.9534 31.2878 44.9723 31.3193C44.9912 31.3508 45.0164 31.3823 45.0353 31.4138C45.0542 31.4453 45.0794 31.4768 45.0983 31.5083C45.1172 31.5398 45.1424 31.5713 45.1613 31.6028C45.1802 31.6343 45.2054 31.6658 45.2243 31.6973C45.2432 31.7288 45.2684 31.7603 45.2873 31.7918C45.3062 31.8233 45.3314 31.8548 45.3503 31.8863C45.3692 31.9178 45.3944 31.9493 45.4133 31.9808C45.4322 32.0123 45.4574 32.0438 45.4763 32.0753C45.4952 32.1068 45.5204 32.1383 45.5393 32.1698C45.5582 32.2013 45.5834 32.2328 45.6023 32.2644C45.6212 32.2959 45.6464 32.3274 45.6653 32.3589C45.6842 32.3904 45.7094 32.4219 45.7283 32.4534C45.7472 32.4849 45.7724 32.5164 45.7913 32.5479C45.8102 32.5794 45.8291 32.6109 45.8543 32.6424C45.8795 32.6739 45.8921 32.7054 45.9173 32.7369C45.9173 32.7369 45.9173 32.7432 45.9236 32.7432C45.9425 32.7747 45.9614 32.8062 45.9866 32.8377C46.0055 32.8692 46.0244 32.9007 46.0496 32.9322C46.0685 32.9637 46.0874 32.9952 46.1126 33.0267C46.1315 33.0582 46.1504 33.0897 46.1693 33.1212C46.1882 33.1527 46.2071 33.1842 46.226 33.2157C46.2449 33.2472 46.2638 33.2787 46.2827 33.3102C46.3016 33.3417 46.3206 33.3732 46.3395 33.4047C46.3584 33.4362 46.3773 33.4677 46.3962 33.4992C46.4151 33.5307 46.434 33.5622 46.4529 33.5937C46.4718 33.6252 46.4907 33.6567 46.5096 33.6882C46.5285 33.7197 46.5474 33.7512 46.5663 33.7827C46.5852 33.8143 46.6041 33.8458 46.623 33.8773C46.6419 33.9088 46.6608 33.9403 46.6797 33.9718C46.6986 34.0033 46.7175 34.0348 46.7364 34.0663C46.7553 34.0978 46.7742 34.1293 46.7931 34.1608C46.812 34.1923 46.8309 34.2238 46.8498 34.2553C46.8687 34.2868 46.8876 34.3183 46.9065 34.3498C46.9065 34.3498 46.9065 34.3561 46.9128 34.3561C46.9317 34.3876 46.9506 34.4191 46.9695 34.4506C46.9884 34.4821 47.0073 34.5136 47.0262 34.5451C47.0451 34.5766 47.064 34.6081 47.0829 34.6396C47.1018 34.6711 47.1207 34.7026 47.1396 34.7341C47.1585 34.7656 47.1774 34.7971 47.19 34.8286C48.8659 37.8402 50 40.9652 50 44.4493Z" fill="#2A93D1"/>
<path d="M40.9841 67.0489C40.9715 67.093 40.9526 67.1371 40.9337 67.1812C40.9148 67.2253 40.9022 67.2694 40.8833 67.3135C40.8644 67.3576 40.8518 67.4017 40.8329 67.4458C40.814 67.4899 40.8014 67.534 40.7825 67.5781V67.5844C40.7636 67.6285 40.751 67.6726 40.7321 67.7167C40.7132 67.7608 40.6943 67.8049 40.6754 67.849C40.6565 67.8931 40.6376 67.9373 40.6187 67.9814C40.5998 68.0255 40.5809 68.0696 40.562 68.1137C40.5431 68.1578 40.5242 68.2019 40.499 68.246C40.4738 68.2901 40.4612 68.3342 40.436 68.3783C40.4171 68.4224 40.3919 68.4665 40.373 68.5106V68.5169C40.3541 68.561 40.3289 68.6051 40.31 68.6492C40.2848 68.6933 40.2659 68.7374 40.2407 68.7815C40.2155 68.8256 40.1966 68.8697 40.1714 68.9138C40.1462 68.9579 40.121 69.002 40.1021 69.0461C40.0769 69.0902 40.0517 69.1343 40.0265 69.1784C40.0012 69.2225 39.976 69.2666 39.9508 69.3107C39.9256 69.3548 39.9004 69.3989 39.8689 69.443C39.8689 69.443 39.8689 69.4494 39.8626 69.4494C39.8374 69.4935 39.8122 69.5376 39.7807 69.5817C39.7555 69.6258 39.724 69.6699 39.6988 69.714C39.6673 69.7581 39.6421 69.8022 39.6169 69.8463C39.5854 69.8904 39.5539 69.9345 39.5287 69.9786C39.4972 70.0227 39.4657 70.0668 39.4405 70.1109C39.409 70.155 39.3775 70.1991 39.346 70.2432C39.3145 70.2873 39.283 70.3314 39.2515 70.3755C39.22 70.4196 39.1822 70.4637 39.1507 70.5078L39.1444 70.5141C39.1129 70.5582 39.0751 70.6023 39.0436 70.6464C39.0058 70.6905 38.968 70.7346 38.9365 70.7787C38.8987 70.8228 38.8609 70.8669 38.8231 70.911C38.7853 70.9551 38.7475 70.9992 38.7097 71.0433C38.6719 71.0875 38.6278 71.1316 38.59 71.1757C38.5522 71.2198 38.5081 71.2639 38.464 71.308C38.4198 71.3521 38.3757 71.3962 38.3316 71.4403L38.3253 71.4466C38.2812 71.4907 38.2371 71.5348 38.193 71.5789C38.1489 71.623 38.0985 71.6671 38.0544 71.7112C38.004 71.7553 37.9599 71.7994 37.9095 71.8435C37.8591 71.8876 37.8087 71.9317 37.7646 71.9758C37.7142 72.0199 37.6638 72.064 37.6071 72.1081C37.5567 72.1522 37.5 72.1963 37.4433 72.2404C37.3866 72.2845 37.3362 72.3286 37.2795 72.3727L37.2732 72.379C37.2165 72.4231 37.1598 72.4672 37.0968 72.5113C37.0338 72.5554 36.9771 72.5995 36.9141 72.6437C36.851 72.6878 36.788 72.7319 36.725 72.776C36.662 72.8201 36.5927 72.8642 36.5297 72.9083C36.4604 72.9524 36.3911 72.9965 36.3218 73.0406C36.2525 73.0847 36.1769 73.1288 36.1076 73.1729C36.032 73.217 35.9564 73.2611 35.8808 73.3052C35.8052 73.3493 35.7233 73.3934 35.6414 73.4375C35.6351 73.4375 35.6351 73.4438 35.6288 73.4438C35.5469 73.4879 35.465 73.532 35.3768 73.5761C35.2885 73.6202 35.2003 73.6643 35.1121 73.7084C35.0176 73.7525 34.9294 73.7966 34.8349 73.8407C34.7404 73.8848 34.6396 73.9289 34.5388 73.973C34.438 74.0171 34.3309 74.0612 34.2301 74.1053C34.123 74.1494 34.0096 74.1936 33.9025 74.2377C33.789 74.2818 33.6693 74.3259 33.5496 74.37C33.5433 74.37 33.537 74.3763 33.5307 74.3763C33.4047 74.4204 33.2787 74.4645 33.1527 74.5086C33.0204 74.5527 32.8818 74.5968 32.7495 74.6409C32.6046 74.685 32.4597 74.7291 32.3148 74.7732C32.1572 74.8173 31.9997 74.8614 31.8422 74.9055C31.6721 74.9496 31.502 74.9937 31.3319 75.0378C31.1492 75.0819 30.9602 75.126 30.7712 75.1701C30.5695 75.2142 30.3616 75.2583 30.1537 75.3024C30.1411 75.3024 30.1348 75.3087 30.1222 75.3087C29.8954 75.3528 29.6686 75.3969 29.4418 75.441C29.1898 75.4851 28.9377 75.5292 28.6857 75.5733C28.4085 75.6174 28.125 75.6615 27.8415 75.7056C27.5327 75.7497 27.2177 75.7939 26.9027 75.838C26.5625 75.8821 26.216 75.9262 25.8694 75.9703C25.4977 76.0144 25.126 76.0585 24.7543 76.1026C24.3636 76.1467 23.9793 76.1908 23.5824 76.2349C23.5635 76.2349 23.5446 76.2412 23.5257 76.2412C23.1351 76.2853 22.7444 76.3294 22.3538 76.3735C21.9821 76.4176 21.6041 76.4617 21.2323 76.5058C20.8858 76.5499 20.5393 76.594 20.1928 76.6381C19.8778 76.6822 19.5564 76.7263 19.2414 76.7704C18.9579 76.8145 18.6681 76.8586 18.3846 76.9027C18.1262 76.9468 17.8679 76.9909 17.6096 77.035C17.3765 77.0791 17.1434 77.1232 16.9103 77.1673C16.6961 77.2114 16.4818 77.2555 16.2739 77.2997C16.2613 77.2997 16.255 77.306 16.2424 77.306C16.0471 77.3501 15.8518 77.3942 15.6565 77.4383C15.4738 77.4824 15.2974 77.5265 15.121 77.5706C14.9571 77.6147 14.787 77.6588 14.6232 77.7029C14.4657 77.747 14.3145 77.7911 14.1633 77.8352C14.0184 77.8793 13.8735 77.9234 13.7286 77.9675C13.5963 78.0116 13.4576 78.0557 13.3253 78.0998C13.1993 78.1439 13.0733 78.188 12.9473 78.2321C12.941 78.2321 12.9347 78.2384 12.9284 78.2384C12.8087 78.2825 12.689 78.3266 12.5693 78.3707C12.4559 78.4148 12.3425 78.4589 12.2291 78.503C12.122 78.5471 12.0149 78.5912 11.9077 78.6353C11.8069 78.6794 11.7061 78.7235 11.6053 78.7676C11.5108 78.8117 11.41 78.8559 11.3155 78.9C11.221 78.9441 11.1328 78.9882 11.0383 79.0323C10.9501 79.0764 10.8619 79.1205 10.7737 79.1646C10.6918 79.2087 10.6036 79.2528 10.5217 79.2969C10.5154 79.2969 10.5154 79.3032 10.5091 79.3032C10.4272 79.3473 10.3452 79.3914 10.2696 79.4355C10.194 79.4796 10.1121 79.5237 10.0365 79.5678C9.96092 79.6119 9.88532 79.656 9.81601 79.7001C9.74671 79.7442 9.6711 79.7883 9.6018 79.8324C9.5325 79.8765 9.46319 79.9206 9.39389 79.9647C9.32458 80.0088 9.26158 80.0529 9.19227 80.097C9.12927 80.1411 9.06627 80.1852 9.00326 80.2293L8.99696 80.2356C8.93396 80.2797 8.87095 80.3238 8.81425 80.3679C8.75125 80.412 8.69454 80.4562 8.63784 80.5003C8.58113 80.5444 8.52443 80.5885 8.46143 80.6326C8.40472 80.6767 8.34802 80.7208 8.29132 80.7649C8.23461 80.809 8.18421 80.8531 8.12751 80.8972C8.0771 80.9413 8.0204 80.9854 7.97 81.0295C7.91959 81.0736 7.86919 81.1177 7.81879 81.1618L7.81249 81.1681C7.76208 81.2122 7.71168 81.2563 7.66758 81.3004C7.61717 81.3445 7.57307 81.3886 7.52267 81.4327C7.47856 81.4768 7.42816 81.5209 7.38406 81.565C7.33995 81.6091 7.29585 81.6532 7.24545 81.6973C7.20135 81.7414 7.15724 81.7855 7.11314 81.8296C7.08794 81.8548 7.06274 81.88 7.03754 81.9052L6.95563 81.8296L6.85482 81.7351C6.86742 81.7225 6.88003 81.7099 6.89263 81.6973C6.93673 81.6532 6.98083 81.6091 7.02493 81.565C7.06904 81.5209 7.11314 81.4768 7.15724 81.4327C7.20135 81.3886 7.24545 81.3445 7.29585 81.3004C7.33996 81.2563 7.39036 81.2122 7.43446 81.1681L7.44076 81.1618C7.49116 81.1177 7.54157 81.0736 7.58567 81.0295C7.63607 80.9854 7.68648 80.9413 7.73688 80.8972C7.78728 80.8531 7.83769 80.809 7.89439 80.7649C7.94479 80.7208 8.0015 80.6767 8.0519 80.6326C8.1086 80.5885 8.15901 80.5444 8.21571 80.5003C8.27241 80.4562 8.32912 80.412 8.38582 80.3679C8.44253 80.3238 8.50553 80.2797 8.56223 80.2356L8.56853 80.2293C8.63154 80.1852 8.68824 80.1411 8.75125 80.097C8.81425 80.0529 8.87725 80.0088 8.94026 79.9647C9.00326 79.9206 9.07257 79.8765 9.13557 79.8324C9.20487 79.7883 9.26788 79.7442 9.33718 79.7001C9.40649 79.656 9.47579 79.6119 9.5451 79.5678C9.6144 79.5237 9.69001 79.4796 9.76561 79.4355C9.84122 79.3914 9.91682 79.3473 9.99243 79.3032C9.99873 79.3032 9.99873 79.2969 10.005 79.2969C10.0806 79.2528 10.1625 79.2087 10.2381 79.1646C10.32 79.1205 10.402 79.0764 10.4839 79.0323C10.5658 78.9882 10.654 78.9441 10.7422 78.9C10.8304 78.8559 10.9186 78.8117 11.0068 78.7676C11.1013 78.7235 11.1958 78.6794 11.284 78.6353C11.3785 78.5912 11.4793 78.5471 11.5738 78.503C11.6746 78.4589 11.7817 78.4148 11.8825 78.3707C11.9897 78.3266 12.0968 78.2825 12.2102 78.2384C12.2165 78.2384 12.2228 78.2321 12.2291 78.2321C12.3425 78.188 12.4559 78.1439 12.5693 78.0998C12.689 78.0557 12.8087 78.0116 12.9347 77.9675C13.0607 77.9234 13.193 77.8793 13.319 77.8352C13.4576 77.7911 13.59 77.747 13.7286 77.7029C13.8735 77.6588 14.0184 77.6147 14.1633 77.5706C14.3208 77.5265 14.472 77.4824 14.6295 77.4383C14.7933 77.3942 14.9634 77.3501 15.1336 77.306C15.1399 77.306 15.1525 77.2997 15.1588 77.2997C15.3415 77.2555 15.5242 77.2114 15.7069 77.1673C15.9022 77.1232 16.1038 77.0791 16.2991 77.035C16.5133 76.9909 16.7276 76.9468 16.9481 76.9027C17.1875 76.8586 17.4206 76.8145 17.66 76.7704C17.9183 76.7263 18.1829 76.6822 18.4476 76.6381C18.7374 76.594 19.0272 76.5499 19.317 76.5058C19.6383 76.4617 19.9597 76.4176 20.281 76.3735C20.6338 76.3294 20.9866 76.2853 21.3395 76.2412C21.3584 76.2412 21.3773 76.2349 21.3899 76.2349C21.7679 76.1908 22.1522 76.1467 22.5302 76.1026C22.8516 76.0648 23.1666 76.0333 23.4879 75.9955C23.5635 75.9892 23.6391 75.9766 23.7147 75.9703C24.1053 75.9262 24.5023 75.8821 24.8929 75.838C25.2646 75.7939 25.6363 75.7497 26.0081 75.7056C26.3483 75.6615 26.6948 75.6174 27.0287 75.5733C27.3374 75.5292 27.6462 75.4851 27.9486 75.441C28.2258 75.3969 28.503 75.3528 28.7739 75.3087C28.7865 75.3087 28.7991 75.3024 28.8117 75.3024C29.0574 75.2583 29.3032 75.2142 29.5489 75.1701C29.7694 75.126 29.9899 75.0819 30.2104 75.0378C30.412 74.9937 30.6136 74.9496 30.809 74.9055C30.9917 74.8614 31.1744 74.8173 31.3571 74.7732C31.5272 74.7291 31.691 74.685 31.8611 74.6409C32.0123 74.5968 32.1698 74.5527 32.3211 74.5086C32.466 74.4645 32.6046 74.4204 32.7495 74.3763C32.7558 74.3763 32.7621 74.37 32.7684 74.37C32.9007 74.3259 33.033 74.2818 33.159 74.2377C33.285 74.1936 33.4047 74.1494 33.5244 74.1053C33.6378 74.0612 33.7575 74.0171 33.871 73.973C33.9781 73.9289 34.0852 73.8848 34.1923 73.8407C34.2931 73.7966 34.3939 73.7525 34.4947 73.7084C34.5892 73.6643 34.6837 73.6202 34.7845 73.5761C34.8727 73.532 34.9672 73.4879 35.0554 73.4438C35.0617 73.4438 35.0617 73.4375 35.068 73.4375C35.1562 73.3934 35.2381 73.3493 35.3264 73.3052C35.4083 73.2611 35.4902 73.217 35.5721 73.1729C35.6477 73.1288 35.7296 73.0847 35.8052 73.0406C35.8808 72.9965 35.9501 72.9524 36.0257 72.9083C36.095 72.8642 36.1643 72.8201 36.2336 72.776C36.3029 72.7319 36.3659 72.6878 36.4352 72.6437C36.4982 72.5995 36.5675 72.5554 36.6305 72.5113C36.6935 72.4672 36.7502 72.4231 36.8132 72.379L36.8195 72.3727C36.8763 72.3286 36.9393 72.2845 36.996 72.2404C37.0527 72.1963 37.1094 72.1522 37.1661 72.1081C37.2228 72.064 37.2732 72.0199 37.3299 71.9758C37.3803 71.9317 37.437 71.8876 37.4874 71.8435C37.5378 71.7994 37.5882 71.7553 37.6386 71.7112C37.689 71.6671 37.7394 71.623 37.7835 71.5789C37.8276 71.5348 37.878 71.4907 37.9221 71.4466L37.9284 71.4403C37.9725 71.3962 38.0166 71.3521 38.0607 71.308C38.1048 71.2639 38.1489 71.2198 38.193 71.1757C38.2371 71.1316 38.2749 71.0875 38.319 71.0433C38.3631 70.9992 38.4009 70.9551 38.4387 70.911C38.4766 70.8669 38.5144 70.8228 38.5522 70.7787C38.59 70.7346 38.6278 70.6905 38.6656 70.6464C38.7034 70.6023 38.7412 70.5582 38.7727 70.5141L38.779 70.5078C38.8168 70.4637 38.8483 70.4196 38.8861 70.3755C38.9176 70.3314 38.9554 70.2873 38.9869 70.2432C39.0184 70.1991 39.0499 70.155 39.0877 70.1109C39.1192 70.0668 39.1507 70.0227 39.1822 69.9786C39.2137 69.9345 39.2452 69.8904 39.2767 69.8463C39.3082 69.8022 39.3397 69.7581 39.3649 69.714C39.3964 69.6699 39.4216 69.6258 39.4531 69.5817C39.4846 69.5376 39.5098 69.4935 39.5413 69.4494C39.5413 69.4494 39.5413 69.443 39.5476 69.443C39.5728 69.3989 39.6043 69.3548 39.6295 69.3107C39.6547 69.2666 39.6799 69.2225 39.7114 69.1784C39.7366 69.1343 39.7618 69.0902 39.787 69.0461C39.8122 69.002 39.8374 68.9579 39.8626 68.9138C39.8878 68.8697 39.913 68.8256 39.9319 68.7815C39.9571 68.7374 39.9761 68.6933 40.0013 68.6492C40.0265 68.6051 40.0454 68.561 40.0706 68.5169V68.5106C40.0895 68.4665 40.1147 68.4224 40.1336 68.3783C40.1525 68.3342 40.1777 68.2901 40.1966 68.246C40.2155 68.2019 40.2344 68.1578 40.2596 68.1137C40.2785 68.0696 40.2974 68.0255 40.3226 67.9814C40.3415 67.9373 40.3604 67.8931 40.3793 67.849C40.3982 67.8049 40.4171 67.7608 40.436 67.7167C40.4549 67.6726 40.4738 67.6285 40.4927 67.5844V67.5781C40.5116 67.534 40.5242 67.4899 40.5431 67.4458C40.562 67.4017 40.5809 67.3576 40.5935 67.3135C40.6124 67.2694 40.625 67.2253 40.6439 67.1812C40.6628 67.1371 40.6754 67.093 40.6943 67.0489C40.7069 67.0048 40.7258 66.967 40.7384 66.9229L40.9841 67.0489Z" fill="url(#paint0_linear_19_638)"/>
<path d="M39.4279 57.7054C39.2641 57.7747 39.1003 57.8377 38.9302 57.9007C38.716 57.9826 38.5017 58.0645 38.2812 58.1338C35.0743 59.2301 31.691 59.6774 28.3455 60.131C28.1313 60.1625 27.9108 60.1877 27.6966 60.2192C25.1386 60.5532 22.568 60.8745 20.0416 61.41C19.6068 61.5045 19.1721 61.599 18.7374 61.7061C16.5259 62.2543 14.3397 63.004 12.3866 64.2011C12.2795 64.2704 12.1661 64.3397 12.059 64.409C11.725 64.6232 11.3974 64.8563 11.0824 65.1021C10.7422 65.3604 10.4146 65.6376 10.1058 65.9337C9.93572 66.0912 9.77191 66.255 9.6144 66.4188C9.48839 66.5511 9.36868 66.6835 9.24898 66.8158C9.17967 66.7969 9.03476 66.7528 8.96546 66.7339C9.17337 66.4944 9.38759 66.2613 9.6144 66.0345C9.77191 65.8707 9.93572 65.7195 10.1058 65.5683C10.5658 65.1525 11.0572 64.7681 11.5675 64.4153C11.8321 64.2326 12.1094 64.0562 12.3866 63.8924C14.2011 62.8087 16.2109 62.0968 18.246 61.5675C18.4098 61.5234 18.5736 61.4856 18.7374 61.4415C20.3503 61.0509 21.9821 60.7674 23.6202 60.5217C24.8677 60.3326 26.1215 60.1751 27.3689 60.0113C28.0179 59.9294 28.6731 59.8412 29.3221 59.753C31.2311 59.4947 33.1401 59.2112 35.0239 58.7954C36.3785 58.4929 37.7142 58.1212 39.0058 57.6235C39.0625 57.6361 39.2011 57.6613 39.2578 57.6739C39.2641 57.6739 39.4216 57.7054 39.4279 57.7054Z" fill="url(#paint1_linear_19_638)"/>
<path d="M21.4277 21.0748C22.7633 27.5076 27.0539 33.5685 31.1933 39.4279L31.3949 39.283C27.2618 33.4488 22.9902 27.4068 21.6671 21.0244C20.1613 13.8231 22.7507 7.18245 29.5804 0.749742L29.4103 0.56073C22.5113 7.07535 19.903 13.779 21.4277 21.0748Z" fill="url(#paint2_linear_19_638)"/>
<defs>
<linearGradient id="paint0_linear_19_638" x1="6.87117" y1="74.4141" x2="40.9816" y2="74.4141" gradientUnits="userSpaceOnUse">
<stop offset="0.1734" stop-color="#105E5E"/>
<stop offset="0.8241" stop-color="#3BAAA2"/>
</linearGradient>
<linearGradient id="paint1_linear_19_638" x1="8.9629" y1="62.2165" x2="39.4253" y2="62.2165" gradientUnits="userSpaceOnUse">
<stop offset="0.1734" stop-color="#C15992"/>
<stop offset="0.8241" stop-color="#002A2F"/>
</linearGradient>
<linearGradient id="paint2_linear_19_638" x1="27.9829" y1="0.799793" x2="25.5283" y2="38.1236" gradientUnits="userSpaceOnUse">
<stop offset="0.3506" stop-color="#F47B20"/>
<stop offset="0.8241" stop-color="#41BFB4"/>
</linearGradient>
</defs>
</svg>
