<svg width="108" height="108" viewBox="0 0 108 108" fill="none" xmlns="http://www.w3.org/2000/svg">
<circle cx="54" cy="54" r="54" fill="url(#paint0_linear_1_1016)"/>
<g clip-path="url(#clip0_1_1016)">
<path d="M66.0396 35.3298C65.9777 35.3297 65.916 35.3233 65.8554 35.3109C65.7949 35.2987 65.7358 35.2807 65.6788 35.2571C65.6216 35.2336 65.5669 35.2045 65.5154 35.1702C65.4637 35.1362 65.4156 35.0969 65.3719 35.0531C65.1955 34.8755 65.0961 34.6356 65.0951 34.3854C65.0951 34.3219 65.1014 34.2586 65.114 34.1965C65.1259 34.1359 65.1439 34.0767 65.1679 34.0199C65.239 33.8481 65.3601 33.7017 65.5154 33.5996C65.5669 33.5653 65.6216 33.5361 65.6788 33.5127C65.7358 33.4891 65.7949 33.471 65.8554 33.4588C65.977 33.4343 66.1022 33.4343 66.2238 33.4588C66.2842 33.471 66.3434 33.4891 66.4004 33.5127C66.4573 33.5362 66.5117 33.5653 66.5628 33.5996C66.6143 33.6339 66.6624 33.6731 66.7064 33.7167C66.7502 33.7607 66.7895 33.8091 66.8235 33.8612C66.8576 33.9124 66.8867 33.9668 66.9104 34.0236C66.9343 34.0805 66.9523 34.1397 66.9642 34.2002C66.9894 34.3221 66.9894 34.4477 66.9642 34.5695C66.9525 34.6301 66.9344 34.6893 66.9104 34.7461C66.8865 34.8032 66.8574 34.8579 66.8235 34.9095C66.7893 34.9611 66.75 35.0092 66.7064 35.0531C66.6627 35.0969 66.6146 35.1362 66.5628 35.1702C66.5114 35.2045 66.4566 35.2336 66.3994 35.2571C66.3424 35.2807 66.2833 35.2987 66.2228 35.3109C66.1625 35.3233 66.1011 35.3296 66.0396 35.3298Z" fill="white"/>
<path d="M73.1253 74.5592H34.8745C33.5602 74.5567 32.3005 74.0333 31.3715 73.1037C30.4424 72.1741 29.9197 70.9141 29.918 69.5998V38.4014C29.9195 37.0863 30.4426 35.8255 31.3725 34.8955C32.3024 33.9656 33.5632 33.4425 34.8783 33.441H61.3176C61.5681 33.441 61.8083 33.5406 61.9854 33.7177C62.1625 33.8948 62.262 34.135 62.262 34.3855C62.262 34.636 62.1625 34.8762 61.9854 35.0533C61.8083 35.2305 61.5681 35.33 61.3176 35.33H34.8783C34.0639 35.3307 33.2831 35.6546 32.7073 36.2304C32.1315 36.8062 31.8076 37.587 31.8069 38.4014V69.5998C31.8079 70.414 32.1318 71.1945 32.7076 71.7702C33.2835 72.3458 34.0641 72.6695 34.8783 72.6703H73.129C73.9426 72.6685 74.7222 72.3444 75.2972 71.7688C75.8722 71.1933 76.1957 70.4133 76.1967 69.5998V38.4014C76.1959 37.587 75.8721 36.8062 75.2962 36.2304C74.7204 35.6546 73.9396 35.3307 73.1253 35.33H70.7641C70.5136 35.33 70.2734 35.2305 70.0963 35.0533C69.9191 34.8762 69.8196 34.636 69.8196 34.3855C69.8196 34.135 69.9191 33.8948 70.0963 33.7177C70.2734 33.5406 70.5136 33.441 70.7641 33.441H73.1253C74.4404 33.4425 75.7012 33.9656 76.6311 34.8955C77.561 35.8255 78.0841 37.0863 78.0856 38.4014V69.5998C78.0838 70.9147 77.5606 72.1753 76.6307 73.105C75.7009 74.0347 74.4402 74.5577 73.1253 74.5592Z" fill="white"/>
<path d="M49.0454 38.1632H46.212C45.9615 38.1632 45.7213 38.0637 45.5441 37.8866C45.367 37.7095 45.2675 37.4692 45.2675 37.2187C45.2675 36.9683 45.367 36.728 45.5441 36.5509C45.7213 36.3738 45.9615 36.2743 46.212 36.2743H49.0454C49.1694 36.2743 49.2922 36.2987 49.4068 36.3462C49.5214 36.3936 49.6255 36.4632 49.7132 36.5509C49.8009 36.6386 49.8705 36.7427 49.9179 36.8573C49.9654 36.9719 49.9898 37.0947 49.9898 37.2187C49.9898 37.3428 49.9654 37.4656 49.9179 37.5802C49.8705 37.6948 49.8009 37.7989 49.7132 37.8866C49.6255 37.9743 49.5214 38.0438 49.4068 38.0913C49.2922 38.1388 49.1694 38.1632 49.0454 38.1632Z" fill="white"/>
<path d="M43.3787 38.1632H40.5454C40.4213 38.1632 40.2985 38.1388 40.1839 38.0913C40.0693 38.0438 39.9652 37.9743 39.8775 37.8866C39.7898 37.7989 39.7203 37.6948 39.6728 37.5802C39.6253 37.4656 39.6009 37.3428 39.6009 37.2187C39.6009 37.0947 39.6253 36.9719 39.6728 36.8573C39.7203 36.7427 39.7898 36.6386 39.8775 36.5509C39.9652 36.4632 40.0693 36.3936 40.1839 36.3462C40.2985 36.2987 40.4213 36.2743 40.5454 36.2743H43.3787C43.6292 36.2743 43.8695 36.3738 44.0466 36.5509C44.2237 36.728 44.3232 36.9683 44.3232 37.2187C44.3232 37.4692 44.2237 37.7095 44.0466 37.8866C43.8695 38.0637 43.6292 38.1632 43.3787 38.1632Z" fill="white"/>
<path d="M37.712 38.1632H34.8786C34.6281 38.1632 34.3879 38.0637 34.2108 37.8866C34.0337 37.7095 33.9342 37.4692 33.9342 37.2187C33.9342 36.9683 34.0337 36.728 34.2108 36.5509C34.3879 36.3738 34.6281 36.2743 34.8786 36.2743H37.712C37.9625 36.2743 38.2027 36.3738 38.3798 36.5509C38.557 36.728 38.6565 36.9683 38.6565 37.2187C38.6565 37.4692 38.557 37.7095 38.3798 37.8866C38.2027 38.0637 37.9625 38.1632 37.712 38.1632Z" fill="white"/>
<path d="M77.1411 40.9966H30.8624C30.6119 40.9966 30.3717 40.8971 30.1946 40.72C30.0175 40.5428 29.918 40.3026 29.918 40.0521C29.918 39.8016 30.0175 39.5614 30.1946 39.3843C30.3717 39.2072 30.6119 39.1077 30.8624 39.1077H77.1411C77.3916 39.1077 77.6318 39.2072 77.809 39.3843C77.9861 39.5614 78.0856 39.8016 78.0856 40.0521C78.0856 40.3026 77.9861 40.5428 77.809 40.72C77.6318 40.8971 77.3916 40.9966 77.1411 40.9966Z" fill="white"/>
<path d="M45.2117 65.5347H40.6377C40.3872 65.5347 40.1469 65.4352 39.9698 65.2581C39.7927 65.0809 39.6932 64.8407 39.6932 64.5902C39.6932 64.3397 39.7927 64.0995 39.9698 63.9224C40.1469 63.7453 40.3872 63.6458 40.6377 63.6458H45.2117C45.4622 63.6458 45.7024 63.7453 45.8795 63.9224C46.0567 64.0995 46.1562 64.3397 46.1562 64.5902C46.1562 64.8407 46.0567 65.0809 45.8795 65.2581C45.7024 65.4352 45.4622 65.5347 45.2117 65.5347Z" fill="white"/>
<path d="M67.366 68.3681H40.6377C40.3872 68.3681 40.1469 68.2686 39.9698 68.0914C39.7927 67.9143 39.6932 67.6741 39.6932 67.4236C39.6932 67.1731 39.7927 66.9329 39.9698 66.7558C40.1469 66.5787 40.3872 66.4791 40.6377 66.4791H67.366C67.6165 66.4791 67.8567 66.5787 68.0338 66.7558C68.2109 66.9329 68.3104 67.1731 68.3104 67.4236C68.3104 67.6741 68.2109 67.9143 68.0338 68.0914C67.8567 68.2686 67.6165 68.3681 67.366 68.3681Z" fill="white"/>
<path d="M59.2693 71.2024H57.6486C57.3981 71.2024 57.1579 71.1029 56.9808 70.9258C56.8037 70.7487 56.7042 70.5084 56.7042 70.2579C56.7042 70.0075 56.8037 69.7672 56.9808 69.5901C57.1579 69.413 57.3981 69.3135 57.6486 69.3135H59.2693C59.5198 69.3135 59.76 69.413 59.9372 69.5901C60.1143 69.7672 60.2138 70.0075 60.2138 70.2579C60.2138 70.5084 60.1143 70.7487 59.9372 70.9258C59.76 71.1029 59.5198 71.2024 59.2693 71.2024Z" fill="white"/>
<path d="M55.0072 71.2024H48.734C48.4835 71.2024 48.2433 71.1029 48.0662 70.9258C47.8891 70.7487 47.7896 70.5084 47.7896 70.2579C47.7896 70.0075 47.8891 69.7672 48.0662 69.5901C48.2433 69.413 48.4835 69.3135 48.734 69.3135H55.0072C55.2576 69.3135 55.4979 69.413 55.675 69.5901C55.8521 69.7672 55.9516 70.0075 55.9516 70.2579C55.9516 70.5084 55.8521 70.7487 55.675 70.9258C55.4979 71.1029 55.2576 71.2024 55.0072 71.2024Z" fill="white"/>
<path d="M64.5311 61.5254C64.4648 61.5255 64.3986 61.5185 64.3337 61.5047L52.2956 58.9461C52.0505 58.894 51.8361 58.7467 51.6997 58.5365C51.5632 58.3264 51.5158 58.0706 51.5679 57.8255C51.62 57.5804 51.7673 57.366 51.9775 57.2296C52.1876 57.0931 52.4434 57.0457 52.6885 57.0978L63.9578 59.493L70.146 44.5119L39.8448 54.3683L46.7686 55.8398C47.0137 55.8919 47.2281 56.0392 47.3646 56.2494C47.501 56.4595 47.5484 56.7153 47.4963 56.9604C47.4442 57.2055 47.2969 57.4198 47.0867 57.5563C46.8766 57.6928 46.6208 57.7402 46.3757 57.6881L36.0055 55.4837C35.8023 55.4403 35.619 55.331 35.4842 55.1729C35.3494 55.0147 35.2704 54.8165 35.2597 54.609C35.2489 54.4014 35.3069 54.1961 35.4247 54.0249C35.5425 53.8537 35.7134 53.7261 35.9111 53.6618L71.5088 42.0827C71.6805 42.0268 71.8645 42.0212 72.0392 42.0666C72.214 42.1121 72.372 42.2066 72.4946 42.3391C72.6173 42.4716 72.6994 42.6364 72.7312 42.8141C72.763 42.9918 72.7433 43.1749 72.6743 43.3417L65.4019 60.9408C65.3308 61.1134 65.2101 61.2611 65.0551 61.3651C64.9002 61.4692 64.7178 61.525 64.5311 61.5254Z" fill="white"/>
<path d="M50.3606 65.2306C50.1857 65.2306 50.0142 65.182 49.8653 65.0903C49.7164 64.9986 49.5959 64.8673 49.5172 64.7111L45.7289 57.1885C45.6721 57.0776 45.6377 56.9566 45.6278 56.8324C45.6179 56.7082 45.6327 56.5832 45.6713 56.4648C45.7099 56.3463 45.7716 56.2367 45.8528 56.1421C45.9339 56.0476 46.033 55.9701 46.1443 55.914C46.2555 55.8579 46.3768 55.8244 46.5011 55.8154C46.6253 55.8064 46.7502 55.8221 46.8683 55.8616C46.9865 55.901 47.0957 55.9635 47.1897 56.0453C47.2836 56.1272 47.3605 56.2268 47.4157 56.3385L50.1915 61.8503L51.5978 57.7164C51.6786 57.4792 51.8503 57.2838 52.0751 57.1732C52.3 57.0626 52.5596 57.0458 52.7968 57.1266C53.034 57.2074 53.2294 57.3791 53.34 57.6039C53.4506 57.8288 53.4674 58.0884 53.3866 58.3256L51.255 64.5893C51.1949 64.7654 51.0842 64.9199 50.9367 65.0333C50.7891 65.1467 50.6114 65.214 50.4257 65.2268L50.3606 65.2306Z" fill="white"/>
<path d="M52.4914 58.9669C52.2946 58.967 52.1027 58.9057 51.9424 58.7914C51.7822 58.6771 51.6617 58.5156 51.5977 58.3295C51.5337 58.1434 51.5295 57.9419 51.5856 57.7532C51.6417 57.5646 51.7553 57.3982 51.9106 57.2773L71.2211 42.2357C71.3189 42.1595 71.4308 42.1033 71.5504 42.0704C71.67 42.0374 71.7949 42.0283 71.918 42.0436C72.0411 42.0589 72.1599 42.0983 72.2678 42.1595C72.3757 42.2208 72.4704 42.3027 72.5466 42.4005C72.6228 42.4984 72.679 42.6103 72.712 42.7299C72.745 42.8495 72.7541 42.9744 72.7388 43.0974C72.7235 43.2205 72.6841 43.3394 72.6228 43.4473C72.5616 43.5551 72.4797 43.6499 72.3818 43.7261L53.0742 58.7667C52.908 58.8971 52.7027 58.9677 52.4914 58.9669Z" fill="white"/>
<path d="M50.3606 65.2306C50.1738 65.2298 49.9917 65.1736 49.8368 65.0692C49.6819 64.9648 49.5615 64.8168 49.4907 64.6439C49.42 64.4711 49.402 64.2811 49.4392 64.098C49.4764 63.915 49.5671 63.7471 49.6997 63.6155L55.272 58.0829C55.4506 57.9113 55.6895 57.8167 55.9372 57.8195C56.1848 57.8223 56.4215 57.9223 56.5961 58.098C56.7708 58.2736 56.8694 58.5108 56.8708 58.7585C56.8723 59.0062 56.7763 59.2445 56.6037 59.4221L51.0267 64.9557C50.8497 65.1317 50.6101 65.2305 50.3606 65.2306Z" fill="white"/>
<path d="M46.5737 57.7089C46.3637 57.7091 46.1596 57.6394 45.9937 57.5107C45.8277 57.3821 45.7094 57.2017 45.6574 56.9983C45.6054 56.7948 45.6227 56.5798 45.7066 56.3873C45.7904 56.1948 45.936 56.0357 46.1204 55.9352L71.3479 42.1517C71.4568 42.0922 71.5764 42.0548 71.6998 42.0415C71.8231 42.0282 71.9479 42.0394 72.0669 42.0743C72.186 42.1093 72.297 42.1673 72.3936 42.2452C72.4902 42.323 72.5706 42.4191 72.6301 42.528C72.6895 42.6369 72.727 42.7565 72.7402 42.8799C72.7535 43.0032 72.7424 43.128 72.7074 43.247C72.6725 43.3661 72.6144 43.4771 72.5365 43.5737C72.4587 43.6703 72.3626 43.7507 72.2537 43.8102L47.0261 57.5889C46.8878 57.6662 46.7322 57.7075 46.5737 57.7089Z" fill="white"/>
</g>
<circle cx="54" cy="54" r="41.5" stroke="white" stroke-dasharray="5 5"/>
<defs>
<linearGradient id="paint0_linear_1_1016" x1="69.7041" y1="140.786" x2="145.243" y2="73.502" gradientUnits="userSpaceOnUse">
<stop stop-color="#E12857"/>
<stop offset="1" stop-color="#49B9B3"/>
</linearGradient>
<clipPath id="clip0_1_1016">
<rect width="48.1676" height="47.9998" fill="white" transform="translate(29.918 30)"/>
</clipPath>
</defs>
</svg>
