<svg width="108" height="108" viewBox="0 0 108 108" fill="none" xmlns="http://www.w3.org/2000/svg">
<circle cx="54" cy="54" r="54" fill="#49B9B3"/>
<circle cx="54" cy="54" r="41.5" stroke="white" stroke-dasharray="5 5"/>
<path d="M53.9151 36.1386C54.4372 36.1386 54.8605 35.7168 54.8605 35.1965V30.9947C54.8605 30.4744 54.4372 30.0526 53.9151 30.0526C53.393 30.0526 52.9697 30.4744 52.9697 30.9947V35.1965C52.9698 35.7168 53.3931 36.1386 53.9151 36.1386Z" fill="white"/>
<path d="M77.0231 62.4176L75.353 60.7581C74.7589 60.1668 73.9671 59.841 73.1234 59.841C72.5839 59.841 72.066 59.9748 71.6071 60.2254L68.4599 57.093L68.6132 56.9404C69.89 55.6656 69.8895 53.594 68.6131 52.3235C68.157 51.8681 67.5878 51.5645 66.9674 51.4367C67.0529 51.1429 67.0978 50.8351 67.0978 50.5202C67.0978 49.6451 66.7567 48.8245 66.1392 48.2117C65.683 47.7563 65.1139 47.4527 64.4935 47.3249C64.579 47.031 64.6239 46.7234 64.6239 46.4083C64.6239 45.5331 64.2828 44.7126 63.6643 44.0989C63.1972 43.634 62.6229 43.3397 62.02 43.2144C62.3425 42.1062 62.0669 40.8594 61.192 39.986C60.4638 39.2634 59.4756 38.9528 58.5233 39.0535L52.2869 37.8771C51.3357 37.6974 50.148 37.5785 49.3982 38.2599C49.3509 38.303 49.3027 38.3524 49.2552 38.4075C48.0926 37.9853 46.7368 38.2367 45.8058 39.1634C45.1882 39.7781 44.848 40.5983 44.848 41.4729C44.848 41.788 44.8928 42.0956 44.9782 42.3896C44.3584 42.5172 43.79 42.8205 43.3354 43.2744C42.7166 43.8885 42.3754 44.7078 42.3747 45.5814C42.3744 45.8972 42.4194 46.2059 42.5052 46.5006C41.8852 46.628 41.3164 46.9307 40.8604 47.3846C40.2416 48.0005 39.9008 48.8212 39.9008 49.6954C39.9008 50.365 40.1014 51.0029 40.4731 51.5417C40.0038 51.7002 39.5738 51.9641 39.2138 52.3225C37.9362 53.594 37.9358 55.6657 39.2147 56.9424L39.3674 57.0939L36.2199 60.2248C35.0501 59.6759 33.6089 59.8815 32.6436 60.8423L30.9725 62.5029C30.3781 63.0944 30.0509 63.8836 30.0508 64.7248C30.0508 65.5662 30.3781 66.3554 30.9725 66.9471L33.0581 69.0228C33.4275 69.3905 34.0261 69.3902 34.395 69.0221C34.764 68.654 34.7636 68.0574 34.3942 67.6898L32.3087 65.6141C32.0719 65.3784 31.9416 65.0626 31.9416 64.7249C31.9416 64.3873 32.0719 64.0716 32.3081 63.8365L33.9793 62.1758C34.3969 61.7602 35.036 61.6983 35.5213 61.9874C35.5554 62.0386 35.595 62.0872 35.6402 62.1324C35.7212 62.2133 35.8137 62.2754 35.9119 62.3207L45.4956 71.8569C45.5411 71.9558 45.6036 72.0489 45.6852 72.1303C45.7646 72.2095 45.8552 72.2708 45.9513 72.3159C46.154 72.5442 46.266 72.8359 46.266 73.147C46.266 73.4847 46.1356 73.8004 45.8989 74.0361L44.2293 75.6978C43.736 76.1872 42.9336 76.1871 42.4418 75.6993L40.3563 73.6208C39.9871 73.2529 39.3885 73.2529 39.0193 73.6208C38.6501 73.9887 38.6501 74.5852 39.0193 74.9531L41.1064 77.033C41.7207 77.6427 42.5274 77.9473 43.3345 77.9473C44.1418 77.9473 44.9495 77.6422 45.5646 77.032L47.2351 75.3693C47.8295 74.7776 48.1569 73.9884 48.1569 73.147C48.1569 72.5466 47.9893 71.9731 47.6777 71.4786L51.2201 67.9529C51.2239 67.9491 51.2276 67.9453 51.2315 67.9414C51.6371 67.5236 52.7666 67.6018 53.859 67.6774C54.6352 67.7312 55.5005 67.7909 56.3459 67.6938L60.2251 71.5549C59.9738 72.0115 59.8396 72.5269 59.8396 73.0637C59.8396 73.9042 60.167 74.6928 60.7614 75.2845L62.432 76.9473C63.026 77.5386 63.8178 77.8643 64.6616 77.8643C65.5052 77.8643 66.297 77.5387 66.8911 76.9473L77.0238 66.8622C77.6182 66.2706 77.9455 65.4815 77.9455 64.6402C77.9454 63.7989 77.6181 63.0098 77.0231 62.4176ZM51.9348 39.7284L56.0358 40.5019L53.5812 42.9471C53.2015 42.7652 52.681 42.426 52.1101 41.8818C51.3286 41.1368 50.7696 40.2767 50.7187 39.7402C50.7186 39.7399 50.7186 39.7396 50.7186 39.7393C50.7186 39.7392 50.7186 39.7394 50.7186 39.7393C50.715 39.7008 50.7139 39.6697 50.7144 39.6463C50.838 39.6163 51.1664 39.5831 51.9348 39.7284ZM47.1419 40.4965C47.6208 40.0197 48.3649 39.9647 48.9061 40.3299C49.2127 41.6113 50.3096 42.7726 50.8031 43.2431C51.1688 43.5919 52.3423 44.6374 53.5268 44.9248C53.6871 45.1537 53.7743 45.4266 53.7743 45.7145C53.7743 46.0854 53.6311 46.4322 53.3702 46.6919C53.1101 46.9515 52.7616 47.0945 52.3887 47.0945C52.0158 47.0945 51.6672 46.9515 51.4059 46.6906L47.1418 42.4491C46.8819 42.1905 46.7387 41.8437 46.7387 41.4729C46.7388 41.102 46.882 40.7552 47.1419 40.4965ZM44.6716 44.6075C44.9317 44.3479 45.2799 44.2049 45.6522 44.2049C46.0249 44.2049 46.3742 44.3482 46.636 44.6088L50.0691 48.0231C50.6097 48.5627 50.6097 49.4407 50.071 49.9784C49.8095 50.2379 49.4597 50.3809 49.0862 50.3809C48.7127 50.3809 48.3629 50.2379 48.1025 49.9795L45.4979 47.3846C45.4939 47.3805 45.4895 47.3768 45.4853 47.3727L44.6705 46.5611C44.4091 46.3008 44.2652 45.9534 44.2655 45.5828C44.2659 45.2134 44.4093 44.8677 44.6716 44.6075ZM42.1965 48.7177C42.4568 48.4586 42.8058 48.316 43.1792 48.316C43.5495 48.316 43.8954 48.4566 44.1546 48.7111L46.7671 51.3132C47.0276 51.5718 47.1711 51.9182 47.1711 52.2886C47.1711 52.659 47.0276 53.0054 46.766 53.265C46.5058 53.5239 46.1573 53.6665 45.7845 53.6665C45.4112 53.6665 45.0615 53.5235 44.8009 53.265L43.8538 52.3223C43.8537 52.322 43.8534 52.3218 43.8532 52.3217L42.1966 50.6728C41.9355 50.4129 41.7917 50.0656 41.7917 49.6952C41.7917 49.3249 41.9355 48.9775 42.1965 48.7177ZM40.55 53.6555C40.8114 53.3953 41.1608 53.252 41.5338 53.252C41.9067 53.252 42.256 53.3952 42.5173 53.6552L43.4657 54.5992C43.7263 54.8577 43.8697 55.2041 43.8697 55.5746C43.8697 55.945 43.7262 56.2913 43.4637 56.5519C43.2036 56.8115 42.855 56.9545 42.4822 56.9545C42.1092 56.9545 41.7607 56.8116 41.4987 56.5501L41.3799 56.4322C41.3783 56.4306 41.3771 56.4289 41.3756 56.4274C41.3738 56.4257 41.372 56.4242 41.3702 56.4226L40.551 55.6094C40.0103 55.0695 40.0099 54.1931 40.55 53.6555ZM59.8158 64.3624C59.4468 63.9942 58.8482 63.994 58.4789 64.3616L57.6378 65.1987C56.8385 65.9952 55.3904 65.8949 53.9899 65.7981C52.4691 65.6927 50.8964 65.584 49.8788 66.6252L46.3966 70.091L37.6887 61.4263L40.7703 58.3609C41.2797 58.672 41.8674 58.8388 42.4824 58.8388C43.3609 58.8388 44.1847 58.4994 44.8001 57.8851C45.4195 57.2703 45.7608 56.4499 45.7608 55.5747C45.7608 55.5665 45.7602 55.5585 45.7602 55.5503C45.7684 55.5504 45.7765 55.5509 45.7847 55.5509C46.662 55.5509 47.4852 55.2126 48.1014 54.5993C48.7208 53.9845 49.0621 53.1639 49.0621 52.2888C49.0621 52.2807 49.0615 52.2726 49.0615 52.2645C49.0698 52.2645 49.078 52.2651 49.0864 52.2651C49.9634 52.2651 50.7871 51.9271 51.4074 51.3115C52.0513 50.6687 52.3698 49.8225 52.3637 48.9781C52.3722 48.9782 52.3806 48.9786 52.3891 48.9786C53.2676 48.9786 54.0914 48.6393 54.7076 48.024C55.3252 47.4093 55.6654 46.5891 55.6654 45.7145C55.6654 45.1028 55.4985 44.5181 55.1873 44.0115L57.8883 41.3211C58.0896 41.1214 58.3378 40.996 58.5979 40.9443C58.6261 40.9413 58.6538 40.9368 58.6813 40.9314C59.0987 40.874 59.537 41.0024 59.8562 41.3191C60.3968 41.8588 60.3968 42.7368 59.8581 43.2745L59.0355 44.0908C59.0328 44.0936 59.0299 44.096 59.0272 44.0987L58.0797 45.0413C57.7102 45.4089 57.7099 46.0054 58.0789 46.3735C58.448 46.7417 59.0465 46.742 59.4158 46.3744L60.2417 45.5525C60.2419 45.5523 60.2421 45.5521 60.2422 45.5519L60.3671 45.428C60.9092 44.8927 61.7875 44.8938 62.329 45.4327C62.5896 45.6913 62.7331 46.0377 62.7331 46.4081C62.7331 46.7785 62.5896 47.1249 62.327 47.3855L61.4997 48.2116C61.4996 48.2117 61.4998 48.2114 61.4997 48.2116L60.552 49.1522C60.1821 49.5193 60.1809 50.1159 60.5493 50.4844C60.9178 50.8531 61.5163 50.8542 61.8862 50.4871L62.8379 49.5426C63.098 49.2829 63.4466 49.14 63.8194 49.14C64.1924 49.14 64.541 49.2829 64.803 49.5445C65.0636 49.8031 65.2071 50.1495 65.2071 50.52C65.2071 50.8903 65.0636 51.2367 64.8015 51.4968L63.1522 53.141C62.7831 53.509 62.7832 54.1054 63.1524 54.4733C63.337 54.6572 63.5788 54.749 63.8208 54.749C64.0628 54.749 64.3048 54.657 64.4893 54.473L65.2976 53.6672C65.3022 53.6628 65.3072 53.659 65.3118 53.6544C65.5719 53.3947 65.9205 53.2518 66.2933 53.2518C66.6663 53.2518 67.0149 53.3947 67.2759 53.6553C67.816 54.1929 67.8155 55.0694 67.2759 55.6081L66.4541 56.4261C66.4538 56.4264 66.4534 56.4267 66.4531 56.4269C66.4528 56.4272 66.4526 56.4276 66.4523 56.4279L65.1478 57.7262C64.7784 58.0939 64.7781 58.6904 65.147 59.0585C65.3316 59.2427 65.5738 59.3349 65.8159 59.3349C66.0576 59.3349 66.2994 59.243 66.484 59.0594L67.1221 58.4243L70.1801 61.4682L61.473 70.1343L58.3533 67.0292C58.5708 66.8898 58.7789 66.7259 58.9742 66.5313L59.8148 65.6946C60.1844 65.3271 60.1848 64.7305 59.8158 64.3624ZM75.6875 65.5291L65.5549 75.6142C65.3178 75.8501 65.0005 75.98 64.6615 75.98C64.3224 75.98 64.0051 75.8501 63.768 75.6141L62.0974 73.9513C61.8606 73.7158 61.7302 73.4005 61.7302 73.0637C61.7302 72.7269 61.8606 72.4117 62.0974 72.176L72.23 62.091C72.4671 61.855 72.7843 61.725 73.1235 61.725C73.4626 61.725 73.7798 61.855 74.0175 62.0915L75.6876 63.7511C75.9244 63.9868 76.0547 64.3024 76.0547 64.6401C76.0546 64.9779 75.9243 65.2936 75.6875 65.5291Z" fill="white"/>
<path d="M41.3615 35.3444C41.5461 35.528 41.7877 35.6196 42.0294 35.6196C42.2715 35.6196 42.5138 35.5274 42.6985 35.343C43.0673 34.9747 43.0667 34.3783 42.6972 34.0108L39.2522 30.5847C38.8828 30.2172 38.2841 30.2176 37.9153 30.586C37.5465 30.9543 37.547 31.5507 37.9166 31.9183L41.3615 35.3444Z" fill="white"/>
<path d="M65.7996 35.6196C66.0413 35.6196 66.2832 35.5278 66.4677 35.3442L69.91 31.918C70.2794 31.5504 70.2798 30.9538 69.9108 30.5857C69.5418 30.2176 68.9433 30.2173 68.5738 30.585L65.1315 34.0111C64.7621 34.3788 64.7618 34.9753 65.1308 35.3434C65.3154 35.5276 65.5575 35.6196 65.7996 35.6196Z" fill="white"/>
<path d="M35.8642 70.5765C35.4982 70.9475 35.5033 71.544 35.8757 71.9088L35.8784 71.9114C36.0621 72.0914 36.3007 72.181 36.5391 72.181C36.7838 72.181 37.0285 72.0866 37.2139 71.8987C37.58 71.5277 37.5735 70.9298 37.2012 70.5651C36.829 70.2004 36.2304 70.2055 35.8642 70.5765Z" fill="white"/>
<path d="M62.1293 63.0053C62.2731 63.0053 62.419 62.9726 62.556 62.9039C63.0221 62.6696 63.2094 62.1031 62.9744 61.6385C62.7392 61.174 62.1706 60.9872 61.7045 61.2216L61.6993 61.2242C61.2331 61.4585 61.0485 62.0237 61.2835 62.4883C61.4495 62.8164 61.7833 63.0053 62.1293 63.0053Z" fill="white"/>
</svg>
