<svg width="108" height="108" viewBox="0 0 108 108" fill="none" xmlns="http://www.w3.org/2000/svg">
<circle cx="54" cy="54" r="54" fill="#49B9B3"/>
<circle cx="54" cy="54" r="41.5" stroke="white" stroke-dasharray="5 5"/>
<g clip-path="url(#clip0_1_1072)">
<path d="M47.0497 64.3661C46.982 64.3468 46.9128 64.336 46.8431 64.3322C47.8678 63.2552 48.4989 61.8003 48.4989 60.2V55.2785C48.4989 55.2335 48.4946 55.1897 48.4885 55.1464C48.4947 55.0576 48.4989 54.9681 48.4989 54.8778V51.7641C48.4989 51.2474 48.0801 50.8286 47.5634 50.8286H41.2891C38.647 50.8286 36.4975 52.9782 36.4975 55.6202V60.2C36.4975 61.8003 37.1284 63.2552 38.1532 64.3322C38.0836 64.336 38.0144 64.3468 37.9469 64.3661C33.5262 64.7664 30.0508 68.4923 30.0508 73.0154V77.012C30.0508 77.5286 30.4696 77.9474 30.9862 77.9474H54.01C54.5267 77.9474 54.9455 77.5286 54.9455 77.012V73.0154C54.9455 68.4924 51.4702 64.7664 47.0497 64.3661ZM38.3684 56.8065V55.6201C38.3684 54.0097 39.6787 52.6994 41.2891 52.6994H46.628V54.8777C46.628 55.9743 45.7358 56.8664 44.6392 56.8664H38.3684V56.8065ZM38.3684 58.7373H44.6392C45.3662 58.7373 46.0468 58.5351 46.628 58.1841V60.1999C46.628 62.477 44.7753 64.3297 42.4982 64.3297C40.221 64.3297 38.3684 62.477 38.3684 60.1999V58.7373ZM44.5342 66.2007L42.4982 68.2368L40.4622 66.2007H44.5342ZM53.0747 76.0765H31.9217V74.2056H35.8038C36.3204 74.2056 36.7392 73.7868 36.7392 73.2702C36.7392 72.7536 36.3204 72.3348 35.8038 72.3348H31.9558C32.27 69.1808 34.744 66.655 37.873 66.2573L41.8367 70.221C42.0121 70.3964 42.2501 70.495 42.4982 70.495C42.7463 70.495 42.9842 70.3964 43.1596 70.221L47.1234 66.2573C50.4745 66.6832 53.0747 69.5504 53.0747 73.0154V76.0765Z" fill="white"/>
<path d="M70.0504 43.5902C69.9828 43.5709 69.9135 43.5601 69.8437 43.5563C70.8684 42.4793 71.4994 41.0244 71.4994 39.4241V34.5025C71.4994 34.4575 71.495 34.4137 71.489 34.3704C71.4951 34.2816 71.4994 34.1921 71.4994 34.1018V30.9881C71.4994 30.4714 71.0806 30.0526 70.5639 30.0526H64.2896C61.6474 30.0526 59.498 32.2022 59.498 34.8442V39.424C59.498 41.0243 60.1289 42.4792 61.1536 43.5562C61.0839 43.56 61.0145 43.5708 60.9469 43.5901C56.5264 43.9905 53.0513 47.7165 53.0513 52.2394V56.2359C53.0513 56.7525 53.4701 57.1713 53.9867 57.1713H61.5133C62.0299 57.1713 62.4487 56.7525 62.4487 56.2359C62.4487 55.7192 62.0299 55.3004 61.5133 55.3004H54.9222V52.2395C54.9222 48.7745 57.5222 45.9073 60.8734 45.4814L64.8371 49.4451C65.0198 49.6278 65.2592 49.7191 65.4986 49.7191C65.738 49.7191 65.9774 49.6278 66.16 49.4451L70.1238 45.4814C73.4751 45.9074 76.0752 48.7745 76.0752 52.2395V55.3005H69.184C68.6674 55.3005 68.2486 55.7193 68.2486 56.236C68.2486 56.7526 68.6674 57.1714 69.184 57.1714H77.0106C77.5273 57.1714 77.9461 56.7526 77.9461 56.236V52.2395C77.9461 47.7166 74.4708 43.9906 70.0504 43.5902ZM65.4988 47.4608L63.4628 45.4248H67.5348L65.4988 47.4608ZM69.6286 39.424C69.6286 41.7011 67.7759 43.5538 65.4988 43.5538C63.2216 43.5538 61.369 41.7012 61.369 39.4241V37.9614H67.6398C68.3668 37.9614 69.0474 37.7591 69.6286 37.4082V39.424ZM69.6286 34.1018C69.6286 35.1984 68.7364 36.0905 67.6398 36.0905H61.369V36.0306V34.8442C61.369 33.2338 62.6792 31.9235 64.2897 31.9235H69.6286V34.1018Z" fill="white"/>
<path d="M66.1591 55.5744C65.9851 55.4004 65.7437 55.3003 65.4977 55.3003C65.2507 55.3003 65.0103 55.4004 64.8363 55.5744C64.6614 55.7484 64.5623 55.9897 64.5623 56.2357C64.5623 56.4827 64.6614 56.7231 64.8363 56.8971C65.0103 57.072 65.2507 57.1712 65.4977 57.1712C65.7437 57.1712 65.9851 57.072 66.1591 56.8971C66.3331 56.7231 66.4331 56.4827 66.4331 56.2357C66.4331 55.9897 66.3331 55.7484 66.1591 55.5744Z" fill="white"/>
<path d="M55.065 43.1422L51.1529 39.2301V34.7298C51.1529 32.1508 49.0547 30.0526 46.4757 30.0526H34.728C32.149 30.0526 30.0508 32.1508 30.0508 34.7298V42.9617C30.0508 45.5408 32.149 47.639 34.728 47.639H46.4756C48.4095 47.639 50.0959 46.4784 50.8035 44.7391H54.4035C54.7818 44.7391 55.1229 44.5111 55.2677 44.1616C55.4125 43.8122 55.3325 43.4097 55.065 43.1422ZM50.1211 42.8682C49.6853 42.8682 49.3072 43.1691 49.2094 43.5939C48.9149 44.874 47.7908 45.7681 46.4756 45.7681H34.728C33.1806 45.7681 31.9217 44.5092 31.9217 42.9617V34.7298C31.9217 33.1824 33.1806 31.9235 34.728 31.9235H46.4756C48.023 31.9235 49.2819 33.1824 49.2819 34.7298V39.6175C49.2819 39.8656 49.3805 40.1036 49.5559 40.279L52.1451 42.8682H50.1211Z" fill="white"/>
<path d="M73.2673 60.361H61.5198C59.5858 60.361 57.8994 61.5216 57.1918 63.2608H53.5919C53.2136 63.2608 52.8724 63.4888 52.7276 63.8383C52.5828 64.1878 52.6629 64.5902 52.9303 64.8577L56.8424 68.7699V73.2701C56.8424 75.8491 58.9406 77.9473 61.5197 77.9473H73.2673C75.8464 77.9473 77.9446 75.8491 77.9446 73.2701V65.0382C77.9446 62.4592 75.8464 60.361 73.2673 60.361ZM76.0737 73.2701C76.0737 74.8175 74.8148 76.0764 73.2673 76.0764H61.5198C59.9723 76.0764 58.7134 74.8175 58.7134 73.2701V68.3824C58.7134 68.1343 58.6148 67.8963 58.4394 67.7209L55.8502 65.1317H57.8742C58.3101 65.1317 58.6882 64.8308 58.7859 64.406C59.0804 63.1259 60.2045 62.2319 61.5198 62.2319H73.2673C74.8148 62.2319 76.0737 63.4908 76.0737 65.0382V73.2701Z" fill="white"/>
<path d="M71.5987 66.6652C71.2335 66.2999 70.6411 66.2999 70.2758 66.6652L67.7892 69.1519L66.6329 67.9956C66.2676 67.6303 65.6752 67.6303 65.3099 67.9956C64.9446 68.3609 64.9446 68.9532 65.3099 69.3186L67.1276 71.1363C67.3103 71.319 67.5497 71.4103 67.7891 71.4103C68.0284 71.4103 68.2679 71.319 68.4505 71.1363L71.5987 67.9882C71.9639 67.6229 71.9639 67.0306 71.5987 66.6652Z" fill="white"/>
<path d="M44.8555 36.2516C44.7449 34.6476 43.452 33.3546 41.848 33.2441C40.9384 33.1815 40.0715 33.4883 39.4073 34.1083C38.7524 34.7196 38.3767 35.584 38.3767 36.4796C38.3768 36.9963 38.7956 37.4151 39.3122 37.4151C39.8289 37.4151 40.2477 36.9963 40.2477 36.4797C40.2477 36.0951 40.4026 35.7387 40.684 35.476C40.9649 35.2137 41.333 35.0835 41.7194 35.1107C42.3966 35.1573 42.9424 35.7032 42.9891 36.3803C43.0363 37.065 42.5875 37.67 41.922 37.819C41.1934 37.9819 40.6846 38.6153 40.6846 39.3592V39.8582C40.6846 40.3749 41.1034 40.7937 41.6201 40.7937C42.1367 40.7937 42.5555 40.3749 42.5555 39.8582V39.586C44.0049 39.1536 44.9614 37.7872 44.8555 36.2516Z" fill="white"/>
<path d="M42.2797 42.7765C42.1057 42.6025 41.8643 42.5024 41.6183 42.5024C41.3713 42.5024 41.1309 42.6025 40.9569 42.7765C40.782 42.9505 40.6829 43.1919 40.6829 43.4379C40.6829 43.6839 40.782 43.9253 40.9569 44.0992C41.1309 44.2732 41.3713 44.3733 41.6183 44.3733C41.8643 44.3733 42.1057 44.2732 42.2797 44.0992C42.4537 43.9253 42.5538 43.6839 42.5538 43.4379C42.5538 43.1919 42.4537 42.9505 42.2797 42.7765Z" fill="white"/>
<path d="M40.2069 72.6088C40.0329 72.4348 39.7916 72.3347 39.5456 72.3347C39.2995 72.3347 39.0582 72.4348 38.8842 72.6088C38.7102 72.7828 38.6101 73.0241 38.6101 73.2702C38.6101 73.5162 38.7102 73.7575 38.8842 73.9315C39.0582 74.1055 39.2995 74.2056 39.5456 74.2056C39.7916 74.2056 40.0329 74.1055 40.2069 73.9315C40.3809 73.7575 40.481 73.5162 40.481 73.2702C40.481 73.0241 40.3809 72.7828 40.2069 72.6088Z" fill="white"/>
</g>
<defs>
<clipPath id="clip0_1_1072">
<rect width="47.8947" height="47.8947" fill="white" transform="translate(30.0508 30.0526)"/>
</clipPath>
</defs>
</svg>
