<svg width="108" height="108" viewBox="0 0 108 108" fill="none" xmlns="http://www.w3.org/2000/svg">
<circle cx="54" cy="54" r="54" fill="url(#paint0_linear_1_1026)"/>
<g clip-path="url(#clip0_1_1026)">
<path d="M66.0394 35.3298C65.9775 35.3297 65.9158 35.3233 65.8552 35.3109C65.7948 35.2987 65.7356 35.2807 65.6786 35.2571C65.6214 35.2336 65.5667 35.2045 65.5152 35.1702C65.4635 35.1362 65.4154 35.0969 65.3717 35.0531C65.328 35.0092 65.2888 34.9611 65.2546 34.9095C65.2206 34.8579 65.1915 34.8032 65.1677 34.7461C65.1441 34.6892 65.126 34.63 65.1138 34.5695C65.0887 34.4477 65.0887 34.3221 65.1138 34.2002C65.1381 34.0791 65.1859 33.9639 65.2546 33.8612C65.3232 33.7576 65.4119 33.6686 65.5152 33.5996C65.5667 33.5653 65.6214 33.5361 65.6786 33.5127C65.7356 33.4891 65.7948 33.471 65.8552 33.4588C65.9771 33.4343 66.1027 33.4343 66.2245 33.4588C66.2849 33.4713 66.3441 33.4893 66.4011 33.5127C66.4576 33.5364 66.5117 33.5655 66.5626 33.5996C66.6144 33.6339 66.6625 33.6735 66.7062 33.7176C66.7939 33.8052 66.8636 33.9092 66.9111 34.0236C66.9348 34.0806 66.9528 34.1398 66.965 34.2002C66.9889 34.3222 66.9889 34.4476 66.965 34.5695C66.9528 34.63 66.9348 34.6892 66.9111 34.7461C66.8873 34.8032 66.8582 34.8579 66.8243 34.9095C66.7894 34.9609 66.7499 35.009 66.7062 35.0531C66.6625 35.0969 66.6144 35.1362 66.5626 35.1702C66.5114 35.2043 66.457 35.2334 66.4002 35.2571C66.3431 35.2805 66.284 35.2985 66.2236 35.3109C66.163 35.3232 66.1013 35.3296 66.0394 35.3298Z" fill="white"/>
<path d="M73.1253 74.559H34.8745C33.5602 74.5565 32.3005 74.0331 31.3715 73.1035C30.4424 72.1739 29.9197 70.9139 29.918 69.5997V38.4012C29.9195 37.0861 30.4426 35.8253 31.3725 34.8954C32.3024 33.9655 33.5632 33.4424 34.8783 33.4409H61.3176C61.5681 33.4409 61.8083 33.5404 61.9854 33.7175C62.1625 33.8946 62.262 34.1349 62.262 34.3854C62.262 34.6359 62.1625 34.8761 61.9854 35.0532C61.8083 35.2303 61.5681 35.3298 61.3176 35.3298H34.8783C34.0639 35.3306 33.2831 35.6544 32.7073 36.2302C32.1315 36.8061 31.8076 37.5869 31.8069 38.4012V69.5997C31.8079 70.4139 32.1318 71.1944 32.7076 71.77C33.2835 72.3457 34.0641 72.6694 34.8783 72.6701H73.129C73.9426 72.6684 74.7222 72.3442 75.2972 71.7687C75.8722 71.1932 76.1957 70.4132 76.1967 69.5997V38.4012C76.1959 37.5869 75.8721 36.8061 75.2962 36.2302C74.7204 35.6544 73.9396 35.3306 73.1253 35.3298H70.7641C70.5136 35.3298 70.2734 35.2303 70.0963 35.0532C69.9191 34.8761 69.8196 34.6359 69.8196 34.3854C69.8196 34.1349 69.9191 33.8946 70.0963 33.7175C70.2734 33.5404 70.5136 33.4409 70.7641 33.4409H73.1253C74.4404 33.4424 75.7012 33.9655 76.6311 34.8954C77.561 35.8253 78.0841 37.0861 78.0856 38.4012V69.5997C78.0838 70.9146 77.5606 72.1752 76.6307 73.1049C75.7009 74.0346 74.4402 74.5575 73.1253 74.559Z" fill="white"/>
<path d="M49.0454 38.1632H46.212C45.9616 38.1632 45.7213 38.0637 45.5442 37.8866C45.3671 37.7095 45.2676 37.4692 45.2676 37.2188C45.2676 36.9683 45.3671 36.728 45.5442 36.5509C45.7213 36.3738 45.9616 36.2743 46.212 36.2743H49.0454C49.1695 36.2743 49.2923 36.2987 49.4069 36.3462C49.5215 36.3936 49.6256 36.4632 49.7133 36.5509C49.801 36.6386 49.8705 36.7427 49.918 36.8573C49.9655 36.9719 49.9899 37.0947 49.9899 37.2188C49.9899 37.3428 49.9655 37.4656 49.918 37.5802C49.8705 37.6948 49.801 37.7989 49.7133 37.8866C49.6256 37.9743 49.5215 38.0439 49.4069 38.0913C49.2923 38.1388 49.1695 38.1632 49.0454 38.1632Z" fill="white"/>
<path d="M43.3787 38.1632H40.5453C40.4212 38.1632 40.2984 38.1388 40.1838 38.0913C40.0692 38.0439 39.9651 37.9743 39.8774 37.8866C39.7897 37.7989 39.7202 37.6948 39.6727 37.5802C39.6252 37.4656 39.6008 37.3428 39.6008 37.2188C39.6008 37.0947 39.6252 36.9719 39.6727 36.8573C39.7202 36.7427 39.7897 36.6386 39.8774 36.5509C39.9651 36.4632 40.0692 36.3936 40.1838 36.3462C40.2984 36.2987 40.4212 36.2743 40.5453 36.2743H43.3787C43.6291 36.2743 43.8694 36.3738 44.0465 36.5509C44.2236 36.728 44.3231 36.9683 44.3231 37.2188C44.3231 37.4692 44.2236 37.7095 44.0465 37.8866C43.8694 38.0637 43.6291 38.1632 43.3787 38.1632Z" fill="white"/>
<path d="M37.712 38.1632H34.8786C34.6281 38.1632 34.3879 38.0637 34.2107 37.8866C34.0336 37.7095 33.9341 37.4692 33.9341 37.2188C33.9341 36.9683 34.0336 36.728 34.2107 36.5509C34.3879 36.3738 34.6281 36.2743 34.8786 36.2743H37.712C37.9624 36.2743 38.2027 36.3738 38.3798 36.5509C38.5569 36.728 38.6564 36.9683 38.6564 37.2188C38.6564 37.4692 38.5569 37.7095 38.3798 37.8866C38.2027 38.0637 37.9624 38.1632 37.712 38.1632Z" fill="white"/>
<path d="M77.1411 40.9966H30.8624C30.6119 40.9966 30.3717 40.8971 30.1946 40.72C30.0175 40.5429 29.918 40.3026 29.918 40.0521C29.918 39.8017 30.0175 39.5614 30.1946 39.3843C30.3717 39.2072 30.6119 39.1077 30.8624 39.1077H77.1411C77.3916 39.1077 77.6318 39.2072 77.809 39.3843C77.9861 39.5614 78.0856 39.8017 78.0856 40.0521C78.0856 40.3026 77.9861 40.5429 77.809 40.72C77.6318 40.8971 77.3916 40.9966 77.1411 40.9966Z" fill="white"/>
<path d="M51.8444 56.5878C51.7203 56.5881 51.5974 56.5639 51.4828 56.5164C51.3682 56.4689 51.2641 56.3991 51.1766 56.3111L48.8467 53.9811C48.6746 53.803 48.5794 53.5644 48.5816 53.3168C48.5837 53.0691 48.6831 52.8322 48.8582 52.6571C49.0333 52.482 49.2702 52.3827 49.5178 52.3805C49.7654 52.3784 50.004 52.4736 50.1821 52.6456L51.8444 54.3079L57.8209 48.3332C57.9991 48.1612 58.2376 48.066 58.4853 48.0681C58.7329 48.0703 58.9698 48.1696 59.1449 48.3447C59.32 48.5198 59.4193 48.7567 59.4215 49.0043C59.4236 49.252 59.3284 49.4905 59.1564 49.6687L52.5121 56.313C52.4245 56.4006 52.3204 56.4701 52.2058 56.5172C52.0911 56.5644 51.9683 56.5884 51.8444 56.5878Z" fill="white"/>
<path d="M54.0029 61.7569C52.1365 61.7571 50.312 61.2038 48.7601 60.167C47.2082 59.1302 45.9986 57.6565 45.2842 55.9322C44.5699 54.208 44.383 52.3106 44.7471 50.4801C45.1111 48.6495 46.0098 46.9681 47.3296 45.6484C48.6493 44.3287 50.3307 43.4299 52.1613 43.0659C53.9918 42.7018 55.8891 42.8888 57.6134 43.6031C59.3377 44.3174 60.8114 45.527 61.8482 47.0789C62.8849 48.6308 63.4382 50.4553 63.438 52.3217C63.4355 54.8233 62.4407 57.2217 60.6718 58.9906C58.9029 60.7595 56.5045 61.7544 54.0029 61.7569ZM54.0029 44.7745C52.5101 44.7743 51.0509 45.2168 49.8096 46.0459C48.5683 46.8751 47.6009 48.0538 47.0295 49.4328C46.4581 50.8119 46.3085 52.3294 46.5996 53.7935C46.8907 55.2576 47.6094 56.6024 48.6649 57.658C49.7204 58.7136 51.0651 59.4325 52.5292 59.7238C53.9932 60.0151 55.5108 59.8657 56.8899 59.2945C58.269 58.7233 59.4478 57.7559 60.2771 56.5148C61.1065 55.2736 61.5491 53.8144 61.5491 52.3217C61.5469 50.3209 60.7511 48.4027 59.3364 46.9878C57.9218 45.573 56.0036 44.777 54.0029 44.7745Z" fill="white"/>
<path d="M67.3666 65.5347H50.3077C50.0572 65.5347 49.817 65.4352 49.6399 65.2581C49.4627 65.081 49.3632 64.8407 49.3632 64.5902C49.3632 64.3398 49.4627 64.0995 49.6399 63.9224C49.817 63.7453 50.0572 63.6458 50.3077 63.6458H67.3666C67.6171 63.6458 67.8573 63.7453 68.0344 63.9224C68.2115 64.0995 68.311 64.3398 68.311 64.5902C68.311 64.8407 68.2115 65.081 68.0344 65.2581C67.8573 65.4352 67.6171 65.5347 67.3666 65.5347Z" fill="white"/>
<path d="M45.2117 65.5347H40.6376C40.3871 65.5347 40.1469 65.4352 39.9698 65.2581C39.7927 65.081 39.6932 64.8407 39.6932 64.5902C39.6932 64.3398 39.7927 64.0995 39.9698 63.9224C40.1469 63.7453 40.3871 63.6458 40.6376 63.6458H45.2117C45.4621 63.6458 45.7024 63.7453 45.8795 63.9224C46.0566 64.0995 46.1561 64.3398 46.1561 64.5902C46.1561 64.8407 46.0566 65.081 45.8795 65.2581C45.7024 65.4352 45.4621 65.5347 45.2117 65.5347Z" fill="white"/>
<path d="M67.3659 68.3681H40.6376C40.3871 68.3681 40.1469 68.2686 39.9698 68.0915C39.7927 67.9143 39.6932 67.6741 39.6932 67.4236C39.6932 67.1731 39.7927 66.9329 39.9698 66.7558C40.1469 66.5787 40.3871 66.4792 40.6376 66.4792H67.3659C67.6164 66.4792 67.8566 66.5787 68.0338 66.7558C68.2109 66.9329 68.3104 67.1731 68.3104 67.4236C68.3104 67.6741 68.2109 67.9143 68.0338 68.0915C67.8566 68.2686 67.6164 68.3681 67.3659 68.3681Z" fill="white"/>
<path d="M59.2693 71.2024H57.6486C57.3981 71.2024 57.1579 71.1029 56.9808 70.9258C56.8037 70.7487 56.7042 70.5084 56.7042 70.258C56.7042 70.0075 56.8037 69.7672 56.9808 69.5901C57.1579 69.413 57.3981 69.3135 57.6486 69.3135H59.2693C59.5198 69.3135 59.7601 69.413 59.9372 69.5901C60.1143 69.7672 60.2138 70.0075 60.2138 70.258C60.2138 70.5084 60.1143 70.7487 59.9372 70.9258C59.7601 71.1029 59.5198 71.2024 59.2693 71.2024Z" fill="white"/>
<path d="M55.0074 71.2024H48.7343C48.4838 71.2024 48.2436 71.1029 48.0665 70.9258C47.8893 70.7487 47.7898 70.5084 47.7898 70.258C47.7898 70.0075 47.8893 69.7672 48.0665 69.5901C48.2436 69.413 48.4838 69.3135 48.7343 69.3135H55.0074C55.2579 69.3135 55.4981 69.413 55.6753 69.5901C55.8524 69.7672 55.9519 70.0075 55.9519 70.258C55.9519 70.5084 55.8524 70.7487 55.6753 70.9258C55.4981 71.1029 55.2579 71.2024 55.0074 71.2024Z" fill="white"/>
</g>
<circle cx="54" cy="54" r="41.5" stroke="white" stroke-dasharray="5 5"/>
<defs>
<linearGradient id="paint0_linear_1_1026" x1="69.7041" y1="140.786" x2="145.243" y2="73.502" gradientUnits="userSpaceOnUse">
<stop stop-color="#E12857"/>
<stop offset="1" stop-color="#49B9B3"/>
</linearGradient>
<clipPath id="clip0_1_1026">
<rect width="48.1676" height="47.9997" fill="white" transform="translate(29.918 30)"/>
</clipPath>
</defs>
</svg>
