<svg width="25" height="26" viewBox="0 0 25 26" fill="none" xmlns="http://www.w3.org/2000/svg">
<rect x="0.789551" y="0.847351" width="24.2105" height="24.2105" rx="12.1053" fill="white"/>
<path fill-rule="evenodd" clip-rule="evenodd" d="M11.7659 14.4408L11.7655 11.217L14.8438 12.8345L11.7659 14.4408ZM18.5249 10.6584C18.5249 10.6584 18.4134 9.86772 18.072 9.51956C17.6387 9.06239 17.153 9.06023 16.9305 9.0337C15.3362 8.91752 12.9447 8.91753 12.9447 8.91753H12.9397C12.9397 8.91753 10.5482 8.91752 8.95387 9.0337C8.73099 9.06023 8.24572 9.06239 7.81206 9.51956C7.47062 9.86772 7.35954 10.6584 7.35954 10.6584C7.35954 10.6584 7.24561 11.587 7.24561 12.5153V13.3859C7.24561 14.3146 7.35954 15.2429 7.35954 15.2429C7.35954 15.2429 7.47062 16.0336 7.81206 16.3817C8.24572 16.8389 8.81502 16.8246 9.06851 16.8722C9.97997 16.9605 12.9422 16.9877 12.9422 16.9877C12.9422 16.9877 15.3362 16.9841 16.9305 16.8679C17.153 16.8411 17.6387 16.8389 18.072 16.3817C18.4134 16.0336 18.5249 15.2429 18.5249 15.2429C18.5249 15.2429 18.6388 14.3146 18.6388 13.3859V12.5153C18.6388 11.587 18.5249 10.6584 18.5249 10.6584Z" fill="#E12857"/>
</svg>
