<svg width="123" height="42" viewBox="0 0 123 42" fill="none" xmlns="http://www.w3.org/2000/svg">
<g clip-path="url(#clip0_1_960)">
<path d="M120.358 4.46491C120.889 4.46491 121.399 4.25549 121.775 3.8827C122.151 3.50991 122.362 3.00429 122.362 2.47708C122.362 2.08393 122.245 1.69961 122.024 1.37271C121.804 1.04581 121.491 0.791022 121.125 0.640568C120.759 0.490114 120.355 0.450755 119.967 0.527456C119.578 0.604157 119.221 0.793486 118.94 1.07149C118.66 1.34949 118.469 1.70369 118.392 2.08929C118.314 2.47489 118.354 2.87456 118.506 3.23779C118.657 3.60102 118.914 3.91149 119.244 4.12991C119.574 4.34834 119.961 4.46491 120.358 4.46491ZM120.358 0.889671C120.568 0.887311 120.777 0.927064 120.972 1.00658C121.167 1.08609 121.343 1.20373 121.491 1.35245C121.639 1.50116 121.755 1.6779 121.832 1.87211C121.91 2.06632 121.947 2.27402 121.941 2.48277C121.938 2.79398 121.842 3.09723 121.665 3.35428C121.488 3.61133 121.238 3.81066 120.947 3.92717C120.656 4.04368 120.337 4.07215 120.029 4.00897C119.722 3.94578 119.44 3.79378 119.22 3.57213C119 3.35049 118.851 3.06911 118.791 2.76349C118.732 2.45786 118.765 2.14167 118.887 1.85478C119.009 1.56788 119.213 1.32313 119.475 1.15137C119.737 0.979619 120.044 0.888567 120.358 0.889671Z" fill="#2B3C72"/>
<path d="M119.969 3.51408V2.69338H120.473L120.885 3.51408H121.315L120.851 2.62239C120.964 2.57229 121.06 2.48939 121.125 2.38454C121.191 2.27968 121.223 2.15772 121.217 2.03456C121.22 1.95015 121.205 1.86606 121.174 1.78766C121.142 1.70926 121.094 1.63827 121.033 1.57922C120.972 1.52016 120.9 1.47434 120.82 1.44468C120.74 1.41503 120.655 1.4022 120.57 1.40698H119.9C119.694 1.40698 119.576 1.51205 119.576 1.69096V3.50555L119.969 3.51408ZM119.969 1.74207H120.524C120.6 1.74207 120.673 1.77198 120.727 1.82523C120.78 1.87849 120.811 1.95073 120.811 2.02605C120.815 2.06817 120.81 2.11074 120.796 2.15067C120.782 2.1906 120.759 2.22688 120.728 2.25683C120.698 2.28678 120.662 2.30965 120.621 2.32377C120.581 2.33789 120.538 2.34289 120.496 2.33841H119.96L119.969 1.74207Z" fill="#2B3C72"/>
<path d="M45.173 4.42496C49.357 4.42496 49.881 8.68459 49.881 8.68459L54.864 7.52598C54.8354 7.40103 53.9705 0.0205078 45.173 0.0205078C39.7317 0.0205078 34.6542 3.31463 34.6542 11.7345C34.6542 20.0919 40.0038 23.2951 45.5367 23.2951C48.0971 23.3311 50.6255 22.7266 52.888 21.5373C54.0879 20.8359 54.7667 20.1657 54.7667 18.7317V13.5775C54.7667 12.2315 53.8732 11.4108 52.3983 11.4108H45.5739V15.2246H49.8495V18.1836C49.8495 18.1836 48.3432 19.1917 45.697 19.1917C42.8991 19.1917 39.9694 17.5106 39.9694 11.7459C39.9694 6.10326 42.5239 4.42496 45.1672 4.42496" fill="#2B3C72"/>
<path d="M67.3238 0.000732422C65.2303 0.000732422 63.9703 0.886736 63.3545 2.71554L56.5874 22.9999H61.937C62.3418 22.9711 62.7232 22.8011 63.0137 22.52L69.4516 16.21C69.5862 16.0766 69.5489 16.0141 69.3971 16.0141H68.538C68.182 16.0112 67.8318 16.1034 67.5242 16.281L63.1913 18.7516L67.2923 4.97597C67.2923 4.97597 72.1807 21.6595 72.5817 22.9999H78.0888L71.4133 2.68713C70.8605 0.983277 69.4458 0.000732422 67.3238 0.000732422Z" fill="#2B3C72"/>
<path d="M89.4389 4.36521C93.6201 4.36521 94.1756 8.94005 94.1756 8.94005L99.1615 7.90071C99.1615 7.90071 98.4226 0.0317383 89.4389 0.0317383C83.9977 0.0317383 78.9174 3.23498 78.9174 11.6549C78.9174 20.0123 83.9634 23.3376 89.4074 23.3376C98.205 23.3376 99.1615 15.6504 99.1615 15.6504L94.1756 14.5826C94.1756 14.5826 93.7747 19.0042 89.4991 19.0042C86.8558 19.0042 84.2698 17.3259 84.2698 11.6549C84.2698 5.98387 86.7928 4.36521 89.4389 4.36521Z" fill="#2B3C72"/>
<path d="M111.158 0.000732422C109.064 0.000732422 107.804 0.886736 107.188 2.71554L100.424 22.9999H105.774C106.179 22.9711 106.56 22.8011 106.85 22.52L113.291 16.21C113.426 16.0766 113.386 16.0141 113.234 16.0141H112.375C112.018 16.0118 111.667 16.1039 111.358 16.281L107.011 18.7573L111.126 4.97597C111.126 4.97597 116.017 21.6595 116.418 22.9999H121.926L115.25 2.68713C114.694 0.983277 113.28 0.000732422 111.158 0.000732422Z" fill="#2B3C72"/>
<path d="M32.9762 23.062C33.0536 23.062 33.108 22.991 33.1137 22.9001C33.117 22.8684 33.1112 22.8364 33.097 22.8078C33.0828 22.7792 33.0608 22.7551 33.0335 22.7383C30.333 21.8693 28.2367 19.6145 27.767 16.2523L26.5012 7.32123C25.9113 3.17234 22.8184 0.341111 19.2329 0.261598H0.767161C0.749385 0.260831 0.731635 0.263645 0.714985 0.269866C0.698335 0.276086 0.683132 0.285581 0.670286 0.297788C0.657441 0.309996 0.64722 0.324664 0.640244 0.340894C0.633269 0.357125 0.629683 0.37459 0.6297 0.392233C0.6297 0.460387 0.6612 0.537057 0.712748 0.548416C3.4133 1.42306 5.50674 3.7119 5.97926 7.05998L7.24506 15.9939C7.82641 20.1399 10.9079 22.9796 14.5134 23.0677L32.9762 23.062Z" fill="#0075C9"/>
<path d="M21.8108 15.3129H20.9689C20.8508 15.3109 20.7334 15.3301 20.6223 15.3697L10.5446 19.1778C10.4645 19.2119 10.4645 19.2403 10.5446 19.2403H13.8351C14.2017 19.2729 14.57 19.202 14.8976 19.0358L21.8137 15.3952C21.891 15.3498 21.891 15.3157 21.7965 15.3157" fill="white"/>
<path d="M14.9342 15.3128L16.9388 16.0938L15.8907 16.4885L13.717 15.3526C13.6397 15.3043 13.6397 15.2759 13.717 15.2731H14.5762C14.6942 15.2713 14.8115 15.2906 14.9227 15.3299" fill="white"/>
<path d="M25.1121 19.2401H21.8187C21.4531 19.2735 21.0854 19.2026 20.7591 19.0356L18.4996 17.8685L19.7997 17.1841L25.1121 19.1776C25.1923 19.2117 25.1923 19.2401 25.1121 19.2401Z" fill="white"/>
<path d="M17.83 14.8014C17.4692 14.8014 17.1198 11.9304 17.0396 8.24157C16.8535 8.28417 16.653 8.35233 16.5127 8.39777C15.3743 8.76423 14.2766 9.24473 13.2365 9.83184C13.2322 9.83622 13.2271 9.83971 13.2214 9.84209C13.2158 9.84447 13.2097 9.84569 13.2036 9.84569C13.1974 9.84569 13.1913 9.84447 13.1857 9.84209C13.18 9.83971 13.1749 9.83622 13.1706 9.83184C13.1684 9.82346 13.1684 9.81466 13.1706 9.80628C13.1327 9.6163 13.1415 9.42005 13.1963 9.23417C13.2511 9.04829 13.3504 8.87826 13.4856 8.73853C13.8137 8.44167 14.1694 8.17638 14.5481 7.94624C15.0036 7.64682 15.4824 7.38378 15.98 7.15962C16.1117 7.09715 16.2664 7.02332 16.4067 6.96936C15.5803 6.50974 14.7115 6.12938 13.8121 5.83346C13.8068 5.83252 13.8018 5.83045 13.7974 5.82741C13.793 5.82437 13.7893 5.82044 13.7866 5.81585C13.7839 5.81127 13.7822 5.80615 13.7817 5.80086C13.7811 5.79557 13.7817 5.79022 13.7835 5.78519C13.782 5.77865 13.782 5.77186 13.7835 5.76531C13.8879 5.64867 14.0177 5.55712 14.1631 5.49759C14.3084 5.43806 14.4656 5.4121 14.6226 5.42169C14.9126 5.45995 15.1996 5.51784 15.4817 5.59493C15.7996 5.67161 16.1117 5.75964 16.4239 5.85903C16.5986 5.91866 16.7761 5.97829 16.9508 6.04644L17.0367 6.08052C17.1456 5.08376 17.4549 4.35679 17.8157 4.35963C18.1765 4.36247 18.4858 5.08376 18.5946 6.08052L18.6806 6.04644C18.8552 5.97829 19.0328 5.91866 19.2104 5.85903C19.5196 5.75964 19.8318 5.67161 20.1497 5.59493C20.4317 5.51784 20.7188 5.45995 21.0088 5.42169C21.1658 5.4121 21.3229 5.43806 21.4683 5.49759C21.6137 5.55712 21.7435 5.64867 21.8479 5.76531C21.8494 5.77186 21.8494 5.77865 21.8479 5.78519C21.8496 5.79022 21.8503 5.79557 21.8497 5.80086C21.8492 5.80615 21.8475 5.81127 21.8448 5.81585C21.8421 5.82044 21.8384 5.82437 21.834 5.82741C21.8296 5.83045 21.8246 5.83252 21.8193 5.83346C20.9199 6.12938 20.0511 6.50974 19.2247 6.96936C19.3535 7.02332 19.5111 7.09715 19.6514 7.15962C20.1493 7.38316 20.6281 7.64622 21.0833 7.94624C21.4624 8.17568 21.8182 8.44101 22.1457 8.73853C22.281 8.87826 22.3802 9.04829 22.4351 9.23417C22.4899 9.42005 22.4987 9.6163 22.4608 9.80628C22.4629 9.81466 22.4629 9.82346 22.4608 9.83184C22.4565 9.83622 22.4514 9.83971 22.4457 9.84209C22.4401 9.84447 22.434 9.84569 22.4278 9.84569C22.4217 9.84569 22.4156 9.84447 22.4099 9.84209C22.4043 9.83971 22.3992 9.83622 22.3949 9.83184C21.3548 9.24473 20.2571 8.76423 19.1187 8.39777C18.9784 8.35233 18.7779 8.28417 18.5918 8.24157C18.5116 11.9333 18.1622 14.7986 17.8014 14.8014" fill="white"/>
<path d="M35.3757 38.6466C35.3757 37.3432 36.0688 36.4771 37.1227 36.4771C37.4126 36.4753 37.6966 36.5591 37.9383 36.7179C38.1801 36.8767 38.3687 37.1033 38.4801 37.3687L37.9073 37.6328C37.8431 37.4779 37.7351 37.3447 37.5965 37.249C37.4578 37.1533 37.2943 37.0993 37.1255 37.0933C36.5155 37.0933 36.106 37.6925 36.106 38.6466C36.106 39.6008 36.5155 40.2028 37.1255 40.2028C37.2584 40.204 37.3902 40.1779 37.5124 40.1261C37.6347 40.0743 37.7448 39.9979 37.8357 39.9018V39.1209H36.9336V38.5103H38.5059V40.1773C38.3402 40.3827 38.1296 40.548 37.8899 40.6607C37.6503 40.7733 37.3879 40.8304 37.1227 40.8276C36.0688 40.8276 35.3757 39.9444 35.3757 38.6466Z" fill="#575756"/>
<path d="M39.1734 39.2231C39.1734 38.34 39.6746 37.6272 40.5022 37.6272C41.3299 37.6272 41.7938 38.3258 41.7938 39.2487V39.4304H39.8235C39.8493 39.9274 40.1299 40.3051 40.6311 40.3051C40.7639 40.301 40.8944 40.2698 41.0146 40.2137C41.1348 40.1575 41.2421 40.0775 41.3299 39.9785L41.6391 40.3534C41.5037 40.5014 41.3383 40.6193 41.1537 40.6996C40.9692 40.7798 40.7696 40.8206 40.5681 40.8191C39.7089 40.8191 39.1734 40.1659 39.1734 39.2231ZM40.4965 38.1383C40.0154 38.1383 39.8378 38.6183 39.8178 38.9903H41.1695C41.1695 38.6126 40.9919 38.1383 40.4965 38.1383Z" fill="#575756"/>
<path d="M44.2126 40.7452V38.6722C44.2126 38.3144 44.0436 38.181 43.7687 38.181C43.6382 38.1924 43.5129 38.2368 43.4046 38.3099C43.2963 38.3829 43.2087 38.4823 43.1501 38.5984V40.7396H42.5086V37.7039H43.1501V38.11C43.252 37.9659 43.3863 37.8473 43.5424 37.7636C43.6984 37.6798 43.872 37.6331 44.0493 37.6272C44.6049 37.6272 44.8627 37.9282 44.8627 38.4536V40.7452H44.2126Z" fill="#575756"/>
<path d="M45.5847 39.2231C45.5847 38.34 46.083 37.6272 46.9107 37.6272C47.7383 37.6272 48.2022 38.3258 48.2022 39.2487V39.4304H46.2319C46.2577 39.9274 46.5384 40.3051 47.0395 40.3051C47.1723 40.301 47.3029 40.2698 47.4231 40.2137C47.5433 40.1575 47.6506 40.0775 47.7383 39.9785L48.0447 40.3534C47.9105 40.5021 47.7458 40.6207 47.5615 40.701C47.3773 40.7814 47.1778 40.8216 46.9765 40.8191C46.1174 40.8191 45.5847 40.1659 45.5847 39.2231ZM46.9049 38.1383C46.4238 38.1383 46.2434 38.6183 46.2262 38.9903H47.5779C47.5779 38.6126 47.4004 38.1383 46.9049 38.1383Z" fill="#575756"/>
<path d="M48.9102 40.7452V37.7038H49.5517V38.1497C49.6395 37.9989 49.7643 37.8725 49.9145 37.7821C50.0646 37.6918 50.2353 37.6405 50.4108 37.6328V38.2576C50.3562 38.2461 50.3005 38.2404 50.2447 38.2405C50.1042 38.2494 49.968 38.2923 49.8481 38.3656C49.7283 38.4389 49.6284 38.5403 49.5574 38.6608V40.7452H48.9102Z" fill="#575756"/>
<path d="M52.6187 40.7453V40.4386C52.5217 40.5603 52.3974 40.6581 52.2558 40.7241C52.1142 40.7901 51.959 40.8227 51.8025 40.8191C51.6717 40.8199 51.5421 40.7938 51.4219 40.7423C51.3018 40.6908 51.1937 40.6152 51.1046 40.5201C51.0155 40.4251 50.9473 40.3127 50.9042 40.1902C50.8612 40.0676 50.8443 39.9375 50.8546 39.8082C50.8441 39.6798 50.861 39.5508 50.9042 39.4294C50.9474 39.308 51.0161 39.197 51.1055 39.1037C51.195 39.0104 51.3034 38.9369 51.4235 38.888C51.5436 38.8391 51.6727 38.8159 51.8025 38.8199C51.9576 38.8139 52.1121 38.8436 52.2537 38.9067C52.3953 38.9697 52.5202 39.0645 52.6187 39.1834V38.7433C52.6239 38.6646 52.6116 38.5858 52.5826 38.5124C52.5536 38.4391 52.5086 38.3729 52.451 38.3187C52.3933 38.2645 52.3243 38.2235 52.2488 38.1988C52.1734 38.174 52.0934 38.166 52.0145 38.1753C51.8692 38.1765 51.7258 38.208 51.5936 38.2677C51.4614 38.3273 51.3433 38.4139 51.2469 38.5218L50.9949 38.0788C51.3029 37.7873 51.7149 37.629 52.1405 37.6386C52.7905 37.6386 53.2659 37.9226 53.2659 38.678V40.7566L52.6187 40.7453ZM52.6187 40.0524V39.5923C52.5605 39.4918 52.4774 39.4076 52.3771 39.348C52.2768 39.2883 52.1628 39.2551 52.0459 39.2516C51.894 39.2516 51.7484 39.3114 51.6409 39.4179C51.5335 39.5244 51.4732 39.6689 51.4732 39.8195C51.4732 39.9702 51.5335 40.1146 51.6409 40.2211C51.7484 40.3277 51.894 40.3875 52.0459 40.3875C52.1621 40.3837 52.2754 40.3511 52.3755 40.2925C52.4756 40.234 52.5592 40.1514 52.6187 40.0524Z" fill="#575756"/>
<path d="M54.7758 36.5422H54.1343V40.7422H54.7758V36.5422Z" fill="#575756"/>
<path d="M59.425 40.7459L59.193 39.9138H57.7869L57.5578 40.7459H56.7874L58.0647 36.5459H58.9238L60.2011 40.7459H59.425ZM58.4914 37.2899L57.9358 39.2976H59.0527L58.4914 37.2899Z" fill="#575756"/>
<path d="M62.3894 40.7452V40.342C62.2874 40.4869 62.1522 40.6057 61.9949 40.6886C61.8376 40.7715 61.6626 40.8163 61.4845 40.8191C60.9318 40.8191 60.6769 40.5351 60.6769 40.0012V37.7039H61.3155V39.7826C61.3155 40.1347 61.4845 40.2653 61.7594 40.2653C61.8912 40.2547 62.0181 40.2111 62.1283 40.1386C62.2385 40.0661 62.3283 39.967 62.3894 39.8507V37.7039H63.0309V40.7452H62.3894Z" fill="#575756"/>
<path d="M64.0322 40.0644V38.2527H63.6284V37.7046H64.0322V36.8726H64.6737V37.7046H65.1863V38.2527H64.6737V39.9338C64.6737 40.1411 64.7453 40.2661 64.9114 40.2661C64.9567 40.2675 65.0019 40.2594 65.0438 40.2423C65.0858 40.2251 65.1236 40.1994 65.1548 40.1667L65.3094 40.6409C65.1544 40.7713 64.9537 40.8356 64.751 40.8198C64.2642 40.8198 64.0322 40.5642 64.0322 40.0644Z" fill="#575756"/>
<path d="M67.5763 40.7459V38.6615C67.5763 38.3094 67.4016 38.1816 67.1267 38.1816C66.9945 38.1935 66.8676 38.2386 66.7579 38.3127C66.6482 38.3867 66.5592 38.4872 66.4995 38.6047V40.7459H65.8552V36.5459H66.4995V38.1106C66.6017 37.9662 66.7365 37.8474 66.8931 37.7636C67.0497 37.6798 67.2238 37.6333 67.4016 37.6278C67.9543 37.6278 68.2121 37.9118 68.2121 38.4457V40.7459H67.5763Z" fill="#575756"/>
<path d="M68.9412 39.2231C68.9412 38.3712 69.4051 37.6272 70.2814 37.6272C71.1577 37.6272 71.6216 38.3655 71.6216 39.2231C71.6216 40.0807 71.1606 40.8191 70.2814 40.8191C69.4022 40.8191 68.9412 40.0779 68.9412 39.2231ZM70.963 39.2231C70.963 38.6722 70.7511 38.181 70.2814 38.181C69.8117 38.181 69.6027 38.6722 69.6027 39.2231C69.6027 39.7741 69.8146 40.2653 70.2814 40.2653C70.7482 40.2653 70.963 39.7712 70.963 39.2231Z" fill="#575756"/>
<path d="M72.3584 40.7452V37.7038H72.9999V38.1497C73.0878 37.9989 73.2126 37.8725 73.3627 37.7821C73.5129 37.6918 73.6836 37.6405 73.859 37.6328V38.2576C73.8035 38.2458 73.7468 38.2401 73.6901 38.2405C73.55 38.2498 73.4144 38.293 73.2951 38.3663C73.1758 38.4395 73.0764 38.5406 73.0056 38.6608V40.7452H72.3584Z" fill="#575756"/>
<path d="M74.3621 36.9288C74.3636 36.8229 74.4071 36.7217 74.4832 36.6473C74.5593 36.5729 74.6619 36.5312 74.7688 36.5313C74.847 36.5329 74.923 36.5574 74.9873 36.6017C75.0515 36.6459 75.1012 36.708 75.1301 36.7801C75.159 36.8522 75.1658 36.9311 75.1498 37.007C75.1337 37.083 75.0954 37.1525 75.0397 37.207C74.9839 37.2614 74.9133 37.2984 74.8365 37.3133C74.7597 37.3282 74.6802 37.3203 74.6079 37.2906C74.5356 37.2609 74.4738 37.2108 74.43 37.1464C74.3863 37.0821 74.3627 37.0064 74.3621 36.9288ZM74.4452 37.7041H75.0867V40.7454H74.4452V37.7041Z" fill="#575756"/>
<path d="M76.1007 40.0644V38.2527H75.6969V37.7046H76.1007V36.8726H76.7422V37.7046H77.2548V38.2527H76.7422V39.9338C76.7422 40.1411 76.8138 40.2661 76.9799 40.2661C77.0253 40.2679 77.0705 40.2599 77.1126 40.2428C77.1546 40.2256 77.1924 40.1997 77.2233 40.1667L77.3779 40.6409C77.2229 40.7713 77.0222 40.8356 76.8195 40.8198C76.3298 40.8198 76.1007 40.5642 76.1007 40.0644Z" fill="#575756"/>
<path d="M77.9184 41.3813C77.982 41.4112 78.0514 41.4267 78.1217 41.4268C78.2018 41.4342 78.2818 41.4123 78.3467 41.3652C78.4116 41.3181 78.4569 41.2491 78.474 41.1712L78.6057 40.8077L77.5662 37.7039H78.2449L78.9322 39.9757L79.6252 37.7039H80.304L79.0811 41.3189C79.0349 41.5196 78.9168 41.697 78.7489 41.8181C78.5809 41.9392 78.3744 41.9959 78.1676 41.9777C78.0517 41.9768 77.9364 41.9625 77.8239 41.9351L77.9184 41.3813Z" fill="#575756"/>
<path d="M82.1542 39.2231C82.1542 38.3712 82.6181 37.6272 83.4973 37.6272C84.3765 37.6272 84.8347 38.3655 84.8347 39.2231C84.8347 40.0807 84.3765 40.8191 83.4973 40.8191C82.6181 40.8191 82.1542 40.0779 82.1542 39.2231ZM84.176 39.2231C84.176 38.6722 83.9641 38.181 83.4973 38.181C83.0305 38.181 82.8186 38.6722 82.8186 39.2231C82.8186 39.7741 83.0276 40.2653 83.4973 40.2653C83.967 40.2653 84.176 39.7712 84.176 39.2231Z" fill="#575756"/>
<path d="M85.6899 40.7457V38.2524H85.2861V37.7044H85.6899V37.4204C85.6899 36.8297 86.0249 36.4804 86.5633 36.4804C86.7906 36.4716 87.0127 36.5487 87.1848 36.6962L86.9671 37.1364C86.931 37.0967 86.8868 37.065 86.8375 37.0434C86.7881 37.0219 86.7347 37.011 86.6808 37.0115C86.4574 37.0115 86.3342 37.1563 86.3342 37.4204V37.7044H86.8469V38.2524H86.3314V40.7457H85.6899Z" fill="#575756"/>
<path d="M88.8115 38.6466C88.8115 37.3829 89.4845 36.4771 90.5556 36.4771C90.8495 36.4766 91.1365 36.5649 91.3785 36.7303C91.6205 36.8957 91.806 37.1303 91.9101 37.4028L91.3202 37.6584C91.2638 37.4993 91.161 37.3604 91.0248 37.2593C90.8887 37.1582 90.7254 37.0994 90.5556 37.0904C89.9255 37.0904 89.5361 37.7436 89.5361 38.6438C89.5361 39.544 89.9255 40.1943 90.5556 40.1943C90.7324 40.1829 90.9013 40.1175 91.0392 40.0072C91.1771 39.8969 91.2773 39.747 91.3259 39.5781L91.9159 39.8365C91.6982 40.3277 91.3116 40.8162 90.5556 40.8162C89.4845 40.8162 88.8115 39.9046 88.8115 38.6438" fill="#575756"/>
<path d="M92.4944 36.9288C92.4966 36.8231 92.5404 36.7224 92.6163 36.6482C92.6922 36.5739 92.7944 36.532 92.901 36.5312C93.0066 36.5313 93.1079 36.5728 93.1825 36.6469C93.2572 36.7209 93.2991 36.8213 93.2991 36.926C93.2991 37.0307 93.2572 37.1311 93.1825 37.2051C93.1079 37.2791 93.0066 37.3207 92.901 37.3207C92.7951 37.3208 92.6934 37.2798 92.6175 37.2066C92.5415 37.1335 92.4974 37.0338 92.4944 36.9288ZM92.5803 37.7041H93.2218V40.7454H92.5803V37.7041Z" fill="#575756"/>
<path d="M94.7535 40.7455L93.734 37.7041H94.4156L95.1 39.9958L95.7931 37.7041H96.4718L95.4466 40.7455H94.7535Z" fill="#575756"/>
<path d="M96.9118 36.9288C96.9118 36.8234 96.954 36.7223 97.0292 36.6477C97.1044 36.5731 97.2064 36.5312 97.3127 36.5312C97.4191 36.5312 97.5211 36.5731 97.5963 36.6477C97.6714 36.7223 97.7137 36.8234 97.7137 36.9288C97.7137 37.0343 97.6714 37.1354 97.5963 37.2099C97.5211 37.2845 97.4191 37.3264 97.3127 37.3264C97.2064 37.3264 97.1044 37.2845 97.0292 37.2099C96.954 37.1354 96.9118 37.0343 96.9118 36.9288ZM96.9949 37.7041H97.6364V40.7454H96.992L96.9949 37.7041Z" fill="#575756"/>
<path d="M99.1602 36.5422H98.5187V40.7422H99.1602V36.5422Z" fill="#575756"/>
<path d="M103.803 40.7459L103.571 39.9138H102.165L101.936 40.7459H101.169L102.443 36.5459H103.302L104.579 40.7459H103.803ZM102.873 37.2899L102.314 39.2976H103.431L102.873 37.2899Z" fill="#575756"/>
<path d="M105.658 40.7455L104.638 37.7041H105.317L106.004 39.9958L106.697 37.7041H107.379L106.351 40.7455H105.658Z" fill="#575756"/>
<path d="M107.81 36.9288C107.811 36.8234 107.854 36.7227 107.93 36.6483C108.005 36.574 108.107 36.532 108.213 36.5312C108.292 36.5324 108.368 36.5564 108.433 36.6003C108.497 36.6443 108.547 36.7061 108.577 36.7782C108.606 36.8502 108.613 36.9293 108.597 37.0054C108.582 37.0815 108.544 37.1513 108.488 37.2061C108.432 37.2608 108.362 37.2981 108.285 37.3132C108.208 37.3282 108.128 37.3205 108.056 37.2909C107.983 37.2613 107.921 37.2112 107.878 37.1467C107.834 37.0823 107.81 37.0065 107.81 36.9288ZM107.893 37.7041H108.534V40.7454H107.893V37.7041Z" fill="#575756"/>
<path d="M111.02 40.7452V40.4385C110.923 40.5602 110.798 40.658 110.657 40.724C110.515 40.79 110.36 40.8226 110.203 40.819C110.073 40.8194 109.943 40.7929 109.823 40.7413C109.703 40.6897 109.596 40.6141 109.507 40.5191C109.418 40.4242 109.349 40.312 109.306 40.1896C109.263 40.0672 109.246 39.9373 109.256 39.8081C109.245 39.6797 109.262 39.5507 109.305 39.4293C109.348 39.3079 109.417 39.1969 109.506 39.1036C109.596 39.0103 109.704 38.9368 109.824 38.8879C109.945 38.839 110.074 38.8158 110.203 38.8198C110.359 38.8138 110.513 38.8435 110.655 38.9066C110.796 38.9696 110.921 39.0644 111.02 39.1833V38.7432C111.025 38.6645 111.012 38.5857 110.983 38.5123C110.954 38.439 110.91 38.3728 110.852 38.3186C110.794 38.2644 110.725 38.2234 110.65 38.1987C110.574 38.1739 110.494 38.1659 110.415 38.1752C110.27 38.1768 110.127 38.2084 109.995 38.268C109.863 38.3277 109.744 38.4141 109.648 38.5217L109.396 38.0787C109.705 37.7883 110.116 37.6302 110.541 37.6385C111.191 37.6385 111.664 37.9225 111.664 38.6779V40.7565L111.02 40.7452ZM111.02 40.0523V39.5922C110.962 39.4913 110.879 39.4069 110.778 39.3472C110.678 39.2875 110.564 39.2545 110.447 39.2515C110.295 39.2515 110.149 39.3113 110.042 39.4178C109.934 39.5243 109.874 39.6688 109.874 39.8194C109.874 39.9701 109.934 40.1145 110.042 40.221C110.149 40.3275 110.295 40.3874 110.447 40.3874C110.563 40.3844 110.677 40.3521 110.777 40.2935C110.877 40.2348 110.961 40.1518 111.02 40.0523Z" fill="#575756"/>
<path d="M112.657 40.0644V38.2527H112.256V37.7046H112.657V36.8726H113.313V37.7046H113.829V38.2527H113.313V39.9338C113.313 40.1411 113.385 40.2661 113.551 40.2661C113.597 40.2676 113.642 40.2595 113.685 40.2424C113.727 40.2252 113.765 40.1995 113.797 40.1667L113.949 40.6409C113.795 40.7708 113.595 40.8351 113.393 40.8198C112.904 40.8198 112.672 40.5642 112.672 40.0644" fill="#575756"/>
<path d="M114.401 36.9288C114.403 36.8234 114.446 36.7227 114.521 36.6483C114.597 36.574 114.699 36.532 114.805 36.5312C114.883 36.5324 114.96 36.5564 115.024 36.6003C115.089 36.6443 115.139 36.7061 115.168 36.7782C115.198 36.8502 115.205 36.9293 115.189 37.0054C115.173 37.0815 115.135 37.1513 115.08 37.2061C115.024 37.2608 114.953 37.2981 114.877 37.3132C114.8 37.3282 114.72 37.3205 114.648 37.2909C114.575 37.2613 114.513 37.2112 114.469 37.1467C114.426 37.0823 114.402 37.0065 114.401 36.9288ZM114.484 37.7041H115.126V40.7454H114.484V37.7041Z" fill="#575756"/>
<path d="M115.861 39.2231C115.861 38.3712 116.322 37.6272 117.204 37.6272C118.086 37.6272 118.544 38.3655 118.544 39.2231C118.544 40.0807 118.08 40.8191 117.204 40.8191C116.327 40.8191 115.861 40.0779 115.861 39.2231ZM117.882 39.2231C117.882 38.6722 117.671 38.181 117.204 38.181C116.737 38.181 116.522 38.6722 116.522 39.2231C116.522 39.7741 116.734 40.2653 117.204 40.2653C117.673 40.2653 117.882 39.7712 117.882 39.2231Z" fill="#575756"/>
<path d="M120.987 40.7452V38.6722C120.987 38.3144 120.815 38.181 120.543 38.181C120.41 38.1911 120.282 38.2354 120.171 38.3096C120.061 38.3838 119.972 38.4853 119.913 38.6041V40.7452H119.271V37.7039H119.913V38.11C120.014 37.9663 120.148 37.8479 120.304 37.7642C120.459 37.6804 120.632 37.6335 120.809 37.6272C121.382 37.6272 121.625 37.9282 121.625 38.4536V40.7452H120.987Z" fill="#575756"/>
<path d="M80.9216 29.0859C80.9969 29.0859 81.0705 29.0638 81.1332 29.0223C81.1958 28.9808 81.2446 28.9218 81.2735 28.8528C81.3023 28.7838 81.3098 28.7078 81.2951 28.6346C81.2804 28.5613 81.2442 28.494 81.1909 28.4412C81.1376 28.3884 81.0698 28.3524 80.9959 28.3378C80.922 28.3233 80.8454 28.3307 80.7758 28.3593C80.7062 28.3879 80.6467 28.4363 80.6049 28.4984C80.563 28.5605 80.5407 28.6336 80.5407 28.7083C80.5403 28.758 80.5499 28.8072 80.5689 28.8532C80.5879 28.8992 80.6159 28.941 80.6514 28.9762C80.6868 29.0113 80.729 29.0391 80.7753 29.058C80.8217 29.0768 80.8714 29.0863 80.9216 29.0859Z" fill="#575756"/>
<path d="M82.1452 29.0859C82.2207 29.0865 82.2946 29.0648 82.3576 29.0237C82.4206 28.9825 82.4699 28.9237 82.4992 28.8547C82.5284 28.7858 82.5364 28.7098 82.522 28.6363C82.5076 28.5629 82.4716 28.4953 82.4184 28.4422C82.3653 28.3891 82.2974 28.3528 82.2235 28.338C82.1495 28.3232 82.0728 28.3305 82.003 28.359C81.9332 28.3875 81.8736 28.4359 81.8316 28.4981C81.7896 28.5603 81.7672 28.6334 81.7672 28.7082C81.7672 28.8079 81.8069 28.9036 81.8778 28.9743C81.9486 29.0451 82.0447 29.0852 82.1452 29.0859Z" fill="#575756"/>
<path d="M102.727 29.0859C102.803 29.0865 102.877 29.0648 102.94 29.0237C103.003 28.9825 103.052 28.9237 103.081 28.8547C103.11 28.7858 103.118 28.7098 103.104 28.6363C103.09 28.5629 103.054 28.4953 103 28.4422C102.947 28.3891 102.879 28.3528 102.805 28.338C102.731 28.3232 102.655 28.3305 102.585 28.359C102.515 28.3875 102.456 28.4359 102.414 28.4981C102.372 28.5603 102.349 28.6334 102.349 28.7082C102.349 28.8079 102.389 28.9036 102.46 28.9743C102.531 29.0451 102.627 29.0852 102.727 29.0859Z" fill="#575756"/>
<path d="M103.953 29.0859C104.029 29.0859 104.102 29.0638 104.165 29.0223C104.228 28.9808 104.276 28.9218 104.305 28.8528C104.334 28.7838 104.342 28.7078 104.327 28.6346C104.312 28.5613 104.276 28.494 104.223 28.4412C104.169 28.3884 104.102 28.3524 104.028 28.3378C103.954 28.3233 103.877 28.3307 103.808 28.3593C103.738 28.3879 103.679 28.4363 103.637 28.4984C103.595 28.5605 103.572 28.6336 103.572 28.7083C103.572 28.758 103.582 28.8072 103.601 28.8532C103.62 28.8992 103.648 28.941 103.683 28.9762C103.719 29.0113 103.761 29.0391 103.807 29.058C103.854 29.0768 103.903 29.0863 103.953 29.0859Z" fill="#575756"/>
<path d="M111.449 29.9828L111.383 29.5001C111.114 29.5455 110.501 29.7301 110.441 29.3127C110.427 29.208 110.453 29.1019 110.516 29.0163C110.578 28.9306 110.671 28.8721 110.776 28.8526C110.95 28.8323 111.126 28.8619 111.283 28.9378L111.44 28.4778C111.273 28.409 111.092 28.3794 110.911 28.3912C110.73 28.403 110.555 28.456 110.398 28.5459C110.233 28.6619 110.117 28.8343 110.073 29.0298C110.028 29.2254 110.059 29.4303 110.157 29.6052L109.613 29.6222V29.9914C109.971 29.9914 110.329 30.0141 110.69 30.0226C110.747 30.0226 111.197 30.0226 111.449 29.9828Z" fill="#575756"/>
<path d="M65.7048 33.8936C65.6293 33.8936 65.5556 33.9158 65.4929 33.9574C65.4302 33.999 65.3814 34.0582 65.3526 34.1274C65.3239 34.1966 65.3165 34.2727 65.3314 34.346C65.3464 34.4193 65.3829 34.4866 65.4365 34.5393C65.4901 34.592 65.5582 34.6278 65.6323 34.642C65.7063 34.6563 65.783 34.6484 65.8526 34.6194C65.9221 34.5903 65.9814 34.5415 66.0229 34.479C66.0644 34.4165 66.0862 34.3432 66.0857 34.2684C66.0857 34.2189 66.0758 34.17 66.0566 34.1243C66.0375 34.0786 66.0094 34.0372 65.974 34.0023C65.9385 33.9675 65.8965 33.94 65.8503 33.9213C65.8041 33.9026 65.7547 33.8932 65.7048 33.8936Z" fill="#575756"/>
<path d="M66.9182 33.8936C66.8427 33.8936 66.769 33.9158 66.7063 33.9574C66.6436 33.999 66.5948 34.0582 66.566 34.1274C66.5373 34.1966 66.5299 34.2727 66.5448 34.346C66.5598 34.4193 66.5963 34.4866 66.6499 34.5393C66.7034 34.592 66.7716 34.6278 66.8456 34.642C66.9197 34.6563 66.9964 34.6484 67.0659 34.6194C67.1355 34.5903 67.1947 34.5415 67.2362 34.479C67.2777 34.4165 67.2996 34.3432 67.299 34.2684C67.299 34.2189 67.2892 34.17 67.27 34.1243C67.2508 34.0786 67.2227 34.0372 67.1873 34.0023C67.1519 33.9675 67.1099 33.94 67.0637 33.9213C67.0175 33.9026 66.968 33.8932 66.9182 33.8936Z" fill="#575756"/>
<path d="M112.079 33.8936C112.004 33.893 111.93 33.9147 111.867 33.956C111.804 33.9973 111.754 34.0563 111.725 34.1254C111.696 34.1945 111.688 34.2707 111.703 34.3442C111.717 34.4178 111.754 34.4853 111.807 34.5383C111.861 34.5913 111.929 34.6273 112.003 34.6418C112.077 34.6563 112.154 34.6486 112.224 34.6196C112.293 34.5907 112.353 34.5419 112.394 34.4793C112.436 34.4168 112.458 34.3434 112.457 34.2684C112.457 34.1692 112.417 34.0743 112.346 34.0042C112.275 33.934 112.179 33.8943 112.079 33.8936Z" fill="#575756"/>
<path d="M113.313 33.8936C113.237 33.8936 113.164 33.9158 113.101 33.9574C113.038 33.999 112.99 34.0582 112.961 34.1274C112.932 34.1966 112.925 34.2727 112.94 34.346C112.955 34.4193 112.991 34.4866 113.045 34.5393C113.098 34.592 113.166 34.6278 113.24 34.642C113.314 34.6563 113.391 34.6484 113.461 34.6194C113.53 34.5903 113.59 34.5415 113.631 34.479C113.673 34.4165 113.694 34.3432 113.694 34.2684C113.694 34.2189 113.684 34.17 113.665 34.1243C113.646 34.0786 113.617 34.0372 113.582 34.0023C113.547 33.9675 113.505 33.94 113.458 33.9213C113.412 33.9026 113.363 33.8932 113.313 33.8936Z" fill="#575756"/>
<path d="M36.9893 34.791C36.9137 34.7905 36.8397 34.8122 36.7766 34.8535C36.7135 34.8948 36.6643 34.9537 36.6351 35.0228C36.6059 35.092 36.5981 35.1682 36.6127 35.2417C36.6273 35.3152 36.6636 35.3828 36.7171 35.4358C36.7705 35.4888 36.8387 35.5248 36.9128 35.5393C36.987 35.5538 37.0638 35.546 37.1335 35.5171C37.2032 35.4881 37.2627 35.4393 37.3043 35.3768C37.3459 35.3142 37.3679 35.2408 37.3673 35.1659C37.3665 35.0667 37.3265 34.9718 37.2557 34.9016C37.185 34.8315 37.0893 34.7918 36.9893 34.791Z" fill="#575756"/>
<path d="M38.213 34.791C38.1375 34.791 38.0638 34.8133 38.0011 34.8549C37.9384 34.8965 37.8896 34.9557 37.8608 35.0248C37.8321 35.094 37.8247 35.1701 37.8396 35.2434C37.8546 35.3168 37.8911 35.3841 37.9447 35.4368C37.9982 35.4895 38.0664 35.5252 38.1404 35.5395C38.2145 35.5537 38.2912 35.5458 38.3607 35.5168C38.4303 35.4878 38.4896 35.439 38.5311 35.3765C38.5726 35.314 38.5944 35.2407 38.5939 35.1659C38.5939 35.1164 38.584 35.0674 38.5648 35.0218C38.5456 34.9761 38.5175 34.9347 38.4821 34.8998C38.4467 34.865 38.4047 34.8374 38.3585 34.8187C38.3123 34.8001 38.2629 34.7907 38.213 34.791Z" fill="#575756"/>
<path d="M58.4506 30.5679C58.526 30.5679 58.5998 30.5456 58.6625 30.504C58.7252 30.4624 58.774 30.4032 58.8028 30.3341C58.8315 30.2649 58.8389 30.1888 58.8239 30.1155C58.809 30.0421 58.7724 29.9748 58.7189 29.9221C58.6653 29.8694 58.5972 29.8337 58.5231 29.8194C58.4491 29.8052 58.3724 29.813 58.3028 29.8421C58.2333 29.8711 58.174 29.9199 58.1325 29.9824C58.091 30.0449 58.0691 30.1182 58.0697 30.193C58.0697 30.2425 58.0796 30.2915 58.0988 30.3371C58.1179 30.3828 58.146 30.4242 58.1814 30.4591C58.2168 30.4939 58.2589 30.5215 58.3051 30.5402C58.3512 30.5588 58.4007 30.5682 58.4506 30.5679Z" fill="#575756"/>
<path d="M41.1448 29.8379C41.2201 29.8379 41.2938 29.8157 41.3564 29.7742C41.4191 29.7327 41.4679 29.6738 41.4967 29.6047C41.5255 29.5357 41.5331 29.4598 41.5184 29.3865C41.5037 29.3133 41.4674 29.246 41.4141 29.1931C41.3609 29.1403 41.293 29.1044 41.2191 29.0898C41.1452 29.0752 41.0686 29.0827 40.999 29.1113C40.9295 29.1399 40.87 29.1883 40.8281 29.2504C40.7863 29.3125 40.7639 29.3855 40.7639 29.4602C40.7635 29.5099 40.7731 29.5592 40.7921 29.6052C40.8111 29.6512 40.8392 29.693 40.8746 29.7281C40.9101 29.7633 40.9522 29.7911 40.9986 29.8099C41.045 29.8288 41.0947 29.8383 41.1448 29.8379Z" fill="#575756"/>
<path d="M121.573 28.4954H120.918V33.1156H121.573V28.4954Z" fill="#575756"/>
<path d="M99.4993 28.4954H98.8434V33.1156H99.4993V28.4954Z" fill="#575756"/>
<path d="M61.864 28.4954H61.2082V33.1156H61.864V28.4954Z" fill="#575756"/>
<path d="M119.202 32.1672C119.203 32.2252 119.191 32.2828 119.169 32.3365C119.147 32.3902 119.114 32.4391 119.073 32.4803C119.032 32.5214 118.983 32.5541 118.929 32.5764C118.875 32.5987 118.817 32.6102 118.758 32.6102H116.934L116.968 32.5704C117.072 32.4317 117.14 32.2699 117.167 32.0992C117.193 31.9285 117.177 31.7539 117.12 31.5907C117.037 31.3067 116.788 30.4207 116.147 30.4037H116.129C115.379 30.4037 114.918 31.6503 114.832 31.9002C114.754 32.132 114.694 32.3694 114.652 32.6102C114.365 32.6102 113.031 32.6102 113.031 32.6102C113.093 32.4706 113.125 32.3197 113.125 32.1672V30.5854H112.472V32.1672C112.472 32.2847 112.425 32.3973 112.341 32.4804C112.258 32.5635 112.144 32.6102 112.026 32.6102H111.625C111.507 32.6094 111.394 32.5624 111.311 32.4794C111.227 32.3964 111.181 32.2842 111.181 32.1672V30.5854H110.525V32.1672C110.525 32.2847 110.478 32.3973 110.394 32.4804C110.31 32.5635 110.197 32.6102 110.078 32.6102H104.505C104.387 32.6102 104.273 32.5635 104.189 32.4804C104.106 32.3973 104.058 32.2847 104.058 32.1672V29.7733H103.403V30.08C103.099 30.1704 102.801 30.2814 102.512 30.4122C101.742 30.7643 101.301 31.1789 101.206 31.6447C101.18 31.7548 101.182 31.8695 101.212 31.9786C101.242 32.0876 101.299 32.1876 101.378 32.2694C101.475 32.3716 101.822 32.6443 102.747 32.6443C102.996 32.642 103.245 32.6249 103.491 32.5931C103.577 32.79 103.718 32.9578 103.898 33.0759C104.078 33.194 104.289 33.2572 104.505 33.2576H110.078C110.284 33.0558 110.562 32.9426 110.851 32.9426C111.141 32.9426 111.419 33.0558 111.625 33.2576H112.026C112.307 33.2579 112.578 33.15 112.782 32.9566V33.2576C112.782 33.2576 114.348 33.2576 114.594 33.2576C114.594 33.8568 114.803 34.4702 115.494 34.7485C115.676 34.8204 115.87 34.8579 116.066 34.8593C116.309 34.8713 116.551 34.8176 116.766 34.7041C116.981 34.5906 117.161 34.4214 117.286 34.2146C117.361 34.0589 117.388 33.8849 117.363 33.7142C117.339 33.5435 117.264 33.3837 117.149 33.2548H118.753C119.045 33.254 119.324 33.1385 119.53 32.9336C119.737 32.7286 119.852 32.451 119.852 32.1615V28.4954H119.196L119.202 32.1672ZM101.856 31.8264C101.856 31.8264 101.856 31.8264 101.856 31.7753C101.936 31.3834 102.733 30.983 103.411 30.7615V31.9542C102.778 32.0252 102.022 31.994 101.862 31.8264H101.856ZM115.462 32.1104C115.685 31.4516 116.035 31.0568 116.138 31.0568C116.138 31.0568 116.313 31.1136 116.499 31.7696C116.528 31.8357 116.539 31.908 116.532 31.9797C116.524 32.0513 116.498 32.1198 116.456 32.1785C116.278 32.4057 115.823 32.5193 115.33 32.5704C115.366 32.4148 115.41 32.2613 115.462 32.1104ZM116.716 33.942C116.619 34.1408 116.144 34.3169 115.748 34.155C115.422 34.0215 115.25 33.7006 115.247 33.2349C115.595 33.2104 115.938 33.1436 116.27 33.0361L116.141 33.2605C116.573 33.5047 116.799 33.7716 116.714 33.942" fill="#575756"/>
<path d="M54.1343 28.4954H53.4785V33.1156H54.1343V28.4954Z" fill="#575756"/>
<path d="M51.765 32.1672C51.765 32.2847 51.7179 32.3973 51.6342 32.4804C51.5504 32.5635 51.4368 32.6102 51.3183 32.6102H50.0238C50.0331 32.5869 50.0437 32.5642 50.0553 32.542C50.2151 32.0642 50.1802 31.5435 49.958 31.0909C49.8709 30.8741 49.7234 30.6864 49.5327 30.5496C49.3421 30.4128 49.1161 30.3327 48.8812 30.3185C48.6423 30.3325 48.4122 30.4133 48.2176 30.5515C48.023 30.6897 47.8718 30.8797 47.7815 31.0994C47.6775 31.3176 47.5885 31.5424 47.5151 31.7725C47.3118 32.3631 47.2288 32.6073 46.573 32.6073H45.9429C45.794 31.0398 44.3249 30.2617 44.259 30.2276L43.9583 30.7956C43.9583 30.7956 45.1296 31.4146 45.2814 32.5988H43.2366V33.2491H46.5873C46.9493 33.2725 47.3076 33.1645 47.5953 32.9453C47.9718 33.1573 48.3996 33.2634 48.8325 33.252C49.0397 33.2578 49.2462 33.2271 49.4425 33.1611L49.5484 33.1157V33.252H51.3326C51.6245 33.2512 51.9042 33.1357 52.1104 32.9307C52.3165 32.7258 52.4323 32.4481 52.4323 32.1587V28.4954H51.7793L51.765 32.1672ZM49.4511 32.3006C49.4297 32.3604 49.3956 32.4149 49.3511 32.4604C49.3067 32.506 49.2529 32.5416 49.1933 32.5647C48.7796 32.6504 48.3492 32.6026 47.9648 32.4284C48.0306 32.2808 48.085 32.1274 48.1337 31.9797C48.198 31.7767 48.2765 31.5784 48.3686 31.3862C48.4073 31.2768 48.4755 31.18 48.5659 31.1063C48.6563 31.0327 48.7654 30.9852 48.8812 30.9688C49.0673 30.9688 49.2477 31.1165 49.3709 31.372C49.5125 31.6612 49.5401 31.9924 49.4482 32.3006" fill="#575756"/>
<path d="M87.8196 30.321C87.5806 30.3351 87.3506 30.4159 87.156 30.554C86.9614 30.6922 86.8102 30.8822 86.7199 31.102C86.6154 31.3199 86.5264 31.5448 86.4535 31.775C86.2502 32.3656 86.1671 32.6099 85.5113 32.6099H82.8423C82.7243 32.6091 82.6114 32.5621 82.5282 32.4791C82.4451 32.3961 82.3984 32.2839 82.3984 32.1669V29.7729H81.7483V30.0796C81.4441 30.1701 81.1466 30.2811 80.8577 30.4119C80.0873 30.764 79.6463 31.1786 79.5518 31.6444C79.5259 31.7545 79.5281 31.8692 79.5581 31.9783C79.5881 32.0873 79.645 32.1873 79.7236 32.2691C79.8181 32.3713 80.1675 32.644 81.0925 32.644C81.3415 32.6417 81.5901 32.6246 81.8371 32.5928C81.9219 32.7892 82.0628 32.9568 82.2424 33.0748C82.422 33.1929 82.6325 33.2563 82.848 33.2573H85.5285C85.8913 33.2788 86.2498 33.1711 86.5394 32.9535C87.1046 33.2539 87.7635 33.3311 88.3837 33.1693C88.5282 33.1147 88.6594 33.0303 88.7685 32.9216C88.8776 32.8129 88.9622 32.6824 89.0166 32.5389C89.1766 32.0621 89.1416 31.5421 88.9193 31.0906C88.8322 30.8738 88.6847 30.686 88.494 30.5493C88.3034 30.4125 88.0774 30.3324 87.8425 30.3182L87.8196 30.321ZM80.2105 31.8233C80.2105 31.8233 80.1961 31.8233 80.2105 31.7722C80.2906 31.3803 81.0868 30.9799 81.7655 30.7584V31.9511C81.1297 32.0221 80.3766 31.9908 80.2162 31.8233H80.2105ZM88.3923 32.3032C88.3709 32.3629 88.3368 32.4174 88.2924 32.463C88.2479 32.5086 88.1941 32.5441 88.1346 32.5673C87.7209 32.6529 87.2904 32.6052 86.906 32.431C86.9719 32.2833 87.0263 32.13 87.075 31.9823C87.1392 31.7793 87.2177 31.581 87.3098 31.3888C87.3488 31.2795 87.4171 31.1828 87.5075 31.1093C87.5978 31.0357 87.7067 30.988 87.8224 30.9713C88.0086 30.9713 88.189 31.119 88.3121 31.3746C88.454 31.6637 88.4816 31.9949 88.3894 32.3032" fill="#575756"/>
<path d="M76.9466 32.1672C76.9466 32.2847 76.8995 32.3973 76.8157 32.4804C76.7319 32.5635 76.6183 32.6102 76.4998 32.6102H76.0989C75.9809 32.6094 75.868 32.5624 75.7848 32.4794C75.7017 32.3964 75.655 32.2842 75.655 32.1672V28.4954H74.9992V32.1672C74.9992 32.2847 74.9521 32.3973 74.8683 32.4804C74.7845 32.5635 74.6709 32.6102 74.5524 32.6102H73.616C73.616 31.957 73.4785 31.1534 72.9401 30.7104C72.313 30.1992 71.4681 30.5229 70.8639 30.8921C70.5128 31.1149 70.1865 31.3738 69.8902 31.6645V28.4954H69.2344V32.6102H66.5481C66.6107 32.4707 66.6429 32.3198 66.6426 32.1672V30.5854H65.9868V32.1672C65.9872 32.2252 65.976 32.2828 65.9539 32.3365C65.9317 32.3902 65.8991 32.4391 65.8578 32.4803C65.8166 32.5214 65.7675 32.5541 65.7135 32.5764C65.6594 32.5987 65.6015 32.6102 65.5429 32.6102H64.1597C64.1011 32.6102 64.043 32.5987 63.9888 32.5765C63.9346 32.5542 63.8853 32.5216 63.8438 32.4804C63.8024 32.4393 63.7694 32.3904 63.747 32.3367C63.7245 32.2829 63.713 32.2253 63.713 32.1672V30.5854H63.06V33.11C63.0593 33.349 62.963 33.5779 62.7923 33.7467C62.6216 33.9154 62.3904 34.0102 62.1494 34.0102V34.6605C62.5541 34.66 62.943 34.5043 63.2345 34.2258C63.526 33.9474 63.6975 33.5678 63.713 33.1668C63.8538 33.2283 64.0059 33.2602 64.1597 33.2605H65.5429C65.7559 33.2608 65.9642 33.1986 66.1415 33.0816V33.2605H74.5524C74.842 33.2608 75.12 33.1474 75.3257 32.9453C75.532 33.1464 75.8095 33.2595 76.0989 33.2605H76.4998C76.7917 33.2597 77.0714 33.1442 77.2776 32.9393C77.4837 32.7343 77.5995 32.4566 77.5995 32.1672V28.4954H76.9466V32.1672ZM69.8902 32.3745C70.1617 32.1116 70.457 31.874 70.7722 31.6645C71.1183 31.398 71.5191 31.21 71.9464 31.1136C72.1252 31.0714 72.3136 31.101 72.4705 31.196C72.6 31.2949 72.6992 31.4276 72.7568 31.5793C72.8808 31.9095 72.9477 32.258 72.9544 32.6102H69.8959L69.8902 32.3745Z" fill="#575756"/>
<path d="M41.801 32.167C41.801 32.284 41.7543 32.3963 41.6712 32.4793C41.588 32.5623 41.4751 32.6093 41.3571 32.61H41.0707C40.9496 32.6116 40.8327 32.5662 40.745 32.4834C40.6572 32.4006 40.6056 32.2871 40.6011 32.167V31.3151C40.6047 31.1872 40.578 31.0603 40.5233 30.9444C40.4687 30.8286 40.3874 30.727 40.2861 30.6478C40.1631 30.561 40.0225 30.502 39.874 30.475C39.7256 30.448 39.5729 30.4537 39.4269 30.4916C39.1408 30.5472 38.8818 30.6963 38.6913 30.9151C38.5007 31.1339 38.3897 31.4097 38.3759 31.6985V33.1837C38.3759 33.3626 38.2127 33.4677 38.0752 33.5273C37.8018 33.6241 37.5072 33.6464 37.2221 33.592C36.9371 33.5376 36.6719 33.4083 36.4543 33.2178C36.0276 32.8088 35.9703 32.1585 36.2882 31.335L35.6753 31.1021C35.1198 32.5476 35.6381 33.3399 35.999 33.6835C36.4181 34.069 36.9709 34.2795 37.5426 34.2713C37.8132 34.2739 38.0818 34.2237 38.333 34.1236C38.532 34.0563 38.7054 33.9301 38.8298 33.7621C38.9542 33.594 39.0237 33.3921 39.0289 33.1837V31.6985C39.0436 31.5575 39.105 31.4254 39.2034 31.3226C39.3018 31.2199 39.4318 31.1524 39.573 31.1305C39.6246 31.1129 39.6796 31.1065 39.734 31.1119C39.7883 31.1173 39.8409 31.1343 39.888 31.1618C39.888 31.1618 39.9424 31.2044 39.9424 31.3066V32.1585C39.9491 32.4503 40.0706 32.728 40.2808 32.9322C40.4911 33.1365 40.7735 33.2512 41.0679 33.2518H41.3543C41.646 33.2503 41.9252 33.1346 42.1312 32.9298C42.3372 32.725 42.4532 32.4478 42.454 32.1585V30.5768H41.7982L41.801 32.167Z" fill="#575756"/>
<path d="M59.5647 33.1857C59.5556 33.2643 59.5237 33.3386 59.4729 33.3996C59.4221 33.4606 59.3545 33.5056 59.2783 33.5293C59.0045 33.6263 58.7094 33.6488 58.4238 33.5944C58.1383 33.5399 57.8726 33.4106 57.6546 33.2198C57.2279 32.8108 57.1706 32.1605 57.4885 31.337L56.8785 31.1041C56.3201 32.5496 56.8413 33.3419 57.1992 33.6855C57.6188 34.0702 58.1714 34.2807 58.7428 34.2733C59.0135 34.2762 59.2821 34.226 59.5332 34.1256C59.7325 34.0585 59.9063 33.9324 60.0313 33.7643C60.1562 33.5963 60.2262 33.3944 60.232 33.1857V30.5845H59.5762L59.5647 33.1857Z" fill="#575756"/>
<path d="M97.1317 32.1672C97.1317 32.2842 97.0851 32.3964 97.0019 32.4794C96.9187 32.5624 96.8058 32.6094 96.6879 32.6102H96.4502C95.902 32.6278 95.3537 32.5782 94.8178 32.4625L94.8665 32.4227C95.0068 32.3035 95.7056 31.6816 95.591 31.054C95.5581 30.8996 95.4825 30.7573 95.3728 30.6429C95.2631 30.5286 95.1235 30.4468 94.9696 30.4065H94.9352H94.898C94.3107 30.3327 93.7168 30.327 93.1281 30.3895H93.0909H93.0566C92.9256 30.4233 92.8065 30.492 92.7121 30.5881C92.6177 30.6842 92.5517 30.804 92.521 30.9347C92.395 31.5027 92.9821 32.1302 93.2398 32.3801C93.2799 32.4171 93.3229 32.4568 93.3658 32.4909C92.9651 32.5825 92.5541 32.6226 92.143 32.6102H91.1836C91.0651 32.6102 90.9515 32.5635 90.8677 32.4804C90.7839 32.3973 90.7369 32.2847 90.7369 32.1672V28.4954H90.0839V32.1672C90.0839 32.4566 90.1997 32.7343 90.4058 32.9393C90.612 33.1442 90.8917 33.2597 91.1836 33.2605H92.1459C92.8166 33.2948 93.4865 33.1773 94.1047 32.9169C94.8577 33.1807 95.6554 33.2965 96.453 33.2576H96.685C96.9772 33.2569 97.2572 33.1415 97.4638 32.9366C97.6704 32.7317 97.7868 32.4541 97.7876 32.1643V28.4954H97.1317V32.1672ZM94.4426 31.9286C94.3282 32.0255 94.2066 32.1138 94.0789 32.1927C93.9401 32.1148 93.8121 32.0193 93.698 31.9088C93.3286 31.5509 93.1253 31.1931 93.1596 31.0568C93.1596 31.0369 93.1997 31.0142 93.2398 30.9972C93.7514 30.9451 94.2672 30.9499 94.7777 31.0114C94.855 31.0426 94.9352 31.0909 94.9467 31.1505C94.9753 31.3124 94.7491 31.6532 94.4426 31.9116" fill="#575756"/>
</g>
<defs>
<clipPath id="clip0_1_960">
<rect width="121.733" height="41.9804" fill="white" transform="translate(0.6297 0.000732422)"/>
</clipPath>
</defs>
</svg>
