<svg width="152" height="42" viewBox="0 0 152 42" fill="none" xmlns="http://www.w3.org/2000/svg">
<path d="M4.07449 2.74927C4.07449 2.29769 4.46961 1.92139 4.94 1.92139C5.39157 1.92139 5.74906 2.29769 5.74906 2.74927C5.74906 3.20084 5.39157 3.61478 4.94 3.61478C4.46961 3.59596 4.07449 3.18202 4.07449 2.74927ZM7.89403 5.28935H9.28637V12.7967C9.28637 15.2051 6.97207 16.2023 4.82711 16.2023C2.81385 16.2023 0.386658 15.2239 0.386658 12.7967V9.18416L1.779 8.28102V12.665C1.779 14.2831 3.3595 14.8288 4.82711 14.8288C6.38879 14.8288 7.89403 14.2079 7.89403 12.6838V5.28935Z" fill="#006B68"/>
<path d="M15.0245 6.66284H13.651C12.9172 6.66284 12.6726 6.9827 12.6726 7.71651V9.99317C12.6726 10.9339 13.1053 11.0468 13.952 11.0468H15.0245V6.66284ZM11.9388 14.9416H12.1457C13.7827 14.9416 15.0245 14.4524 15.0245 12.8531V12.4204H13.8391C12.3151 12.4204 11.2614 11.6866 11.2614 9.99317V7.71651C11.2614 6.23008 12.1457 5.28931 13.6886 5.28931H16.4168V12.5897C16.4168 14.8664 15.4196 15.9953 12.8607 16.1835L11.9388 14.9416Z" fill="#006B68"/>
<path d="M22.1574 6.66291H20.7838C20.05 6.66291 19.8054 6.98278 19.8054 7.71658V9.99325C19.8054 10.934 20.2382 11.0469 21.0849 11.0469H22.1574V6.66291ZM19.6549 3.59599V3.03153H20.2758C20.1629 2.84337 20.1065 2.63641 20.1065 2.44825C20.1065 1.86497 20.464 1.33813 21.2166 1.33813H21.8187V1.9026H21.4236C20.9532 1.9026 20.7086 2.09075 20.7086 2.46706C20.7086 2.881 21.0096 3.05034 21.4236 3.05034H22.2326V3.61481H19.6549V3.59599ZM23.5497 12.4204V12.5898C23.5497 14.8665 22.5525 15.9954 19.9936 16.1835L19.0716 14.9417H19.2786C20.9156 14.9417 22.1574 14.4525 22.1574 12.8532V12.4204H20.972C19.448 12.4204 18.3943 11.6866 18.3943 9.99325V7.71658C18.3943 6.23016 19.2786 5.28938 20.8215 5.28938H23.5497V11.0469H24.3964V12.4204H23.5497Z" fill="#006B68"/>
<path d="M28.067 11.0469H24.3039V12.4204H28.067V11.0469Z" fill="#006B68"/>
<path d="M30.265 11.0469H27.9507V12.4204H30.265V11.0469Z" fill="#006B68"/>
<path d="M32.4655 11.0469H30.1512V12.4204H32.4655V11.0469Z" fill="#006B68"/>
<path d="M34.6857 11.0469H32.3714V12.4204H34.6857V11.0469Z" fill="#006B68"/>
<path d="M36.8895 11.0469H34.5752V12.4204H36.8895V11.0469Z" fill="#006B68"/>
<path d="M39.1064 11.0469H36.7921V12.4204H39.1064V11.0469Z" fill="#006B68"/>
<path d="M41.3103 11.0469H38.996V12.4204H41.3103V11.0469Z" fill="#006B68"/>
<path d="M49.6455 1.7144C49.1751 1.7144 48.8176 1.31927 48.8176 0.867704C48.8176 0.397317 49.1751 0.00219727 49.6455 0.00219727C50.1158 0.00219727 50.4733 0.397317 50.4733 0.867704C50.4733 1.31927 50.097 1.7144 49.6455 1.7144ZM50.7556 3.59595C50.2852 3.59595 49.9089 3.20082 49.9089 2.76807C49.9089 2.29768 50.2664 1.90255 50.7556 1.90255C51.2259 1.90255 51.5834 2.27886 51.5834 2.76807C51.6023 3.21964 51.2071 3.59595 50.7556 3.59595ZM48.6294 3.59595C48.159 3.59595 47.7639 3.20082 47.7639 2.76807C47.7639 2.29768 48.159 1.90255 48.6294 1.90255C49.081 1.90255 49.4573 2.27886 49.4573 2.76807C49.4761 3.21964 49.081 3.59595 48.6294 3.59595ZM41.2161 12.4204V11.0469H45.2426V5.28934H46.5973V11.0469H49.0057V5.28934H50.3793V11.0469H52.7688V5.28934H54.1423V11.0469H54.7256V12.4204H41.2161Z" fill="#006B68"/>
<path d="M54.6292 12.4205V11.047H55.1749C55.9275 11.047 56.2662 10.8024 56.2662 9.99329V2.39185H57.6397V10.1062C57.6397 11.4609 56.9059 12.4205 55.2125 12.4205H54.6292Z" fill="#006B68"/>
<path d="M59.6403 13.1919V2.39185H61.0326V12.4205L59.6403 13.1919Z" fill="#006B68"/>
<path d="M68.5198 2.74927C68.5198 2.29769 68.9149 1.92139 69.3476 1.92139C69.7992 1.92139 70.1755 2.31651 70.1755 2.74927C70.1755 3.20084 69.7804 3.61478 69.3476 3.61478C68.8961 3.59596 68.5198 3.20084 68.5198 2.74927ZM69.4605 6.66288H68.087C67.5037 6.66288 67.0898 6.86986 67.0898 7.71655V10.0308C67.0898 10.8399 67.6354 11.0657 68.2752 11.0657C68.9337 11.0657 69.4605 10.8587 69.4605 10.0308V6.66288ZM66.3936 2.74927C66.3936 2.29769 66.7887 1.92139 67.2591 1.92139C67.7107 1.92139 68.1058 2.31651 68.1058 2.74927C68.1058 3.20084 67.7107 3.61478 67.2591 3.61478C66.7699 3.59596 66.3936 3.20084 66.3936 2.74927ZM70.8529 9.99322C70.8529 11.8371 69.5734 12.4204 68.2752 12.4204C66.8452 12.4204 65.6974 11.6866 65.6974 9.95559V7.71655C65.6974 6.17368 66.6382 5.28935 68.087 5.28935H70.8529V9.99322Z" fill="#006B68"/>
<path d="M72.2072 14.9604C73.6184 14.5089 73.9194 13.9444 73.9194 12.6273V5.30811H75.293V13.0413C75.293 14.5089 74.5403 15.6002 73.1668 16.1834L72.2072 14.9604Z" fill="#006B68"/>
<path d="M77.2838 13.1919V2.39185H78.695V12.4205L77.2838 13.1919Z" fill="#006B68"/>
<path d="M81.6126 2.74904C81.6126 2.29747 81.9701 1.90234 82.4404 1.90234C82.892 1.90234 83.2495 2.29747 83.2495 2.74904C83.2495 3.20061 82.892 3.61455 82.4404 3.61455C81.9701 3.59574 81.6126 3.18179 81.6126 2.74904ZM80.032 14.9603C81.4432 14.5087 81.7443 13.9442 81.7443 12.6272V5.30794H83.1178V13.0411C83.1178 14.5087 82.3652 15.6 80.9916 16.1833L80.032 14.9603Z" fill="#006B68"/>
<path d="M88.8939 6.66284H87.5203C86.7865 6.66284 86.5419 6.9827 86.5419 7.71651V9.99317C86.5419 10.9339 86.9747 11.0468 87.8214 11.0468H88.8939V6.66284ZM85.7893 14.9416H85.9963C87.6332 14.9416 88.8751 14.4524 88.8751 12.8531V12.4204H87.6897C86.1656 12.4204 85.1119 11.6866 85.1119 9.99317V7.71651C85.1119 6.23008 85.9963 5.28931 87.5391 5.28931H90.2674V12.5897C90.2674 14.8664 89.289 15.9953 86.7113 16.1835L85.7893 14.9416Z" fill="#006B68"/>
<path d="M3.13443 19.269C3.13443 18.8175 3.52956 18.4412 3.98113 18.4412C4.4327 18.4412 4.82783 18.8175 4.82783 19.269C4.82783 19.7206 4.4327 20.1346 3.98113 20.1346C3.52956 20.1346 3.13443 19.7206 3.13443 19.269ZM4.07521 23.2015H2.70168C2.1184 23.2015 1.72328 23.4084 1.72328 24.2175V26.5506C1.72328 27.1715 1.89262 27.5855 2.79576 27.5855H4.07521V23.2015ZM1.00829 19.269C1.00829 18.8175 1.40341 18.4412 1.8738 18.4412C2.32537 18.4412 2.70168 18.8175 2.70168 19.269C2.70168 19.7206 2.30655 20.1346 1.8738 20.1346C1.3846 20.1157 1.00829 19.7206 1.00829 19.269ZM4.07521 28.9402V28.037L3.41667 28.9402H2.90865C1.19644 28.9402 0.330933 28.037 0.330933 26.513V24.2363C0.330933 22.5994 1.40341 21.8091 2.75813 21.8091H5.48637V27.5667H6.33306V28.9402H4.07521Z" fill="#006B68"/>
<path d="M8.53189 27.5669H6.21759V28.9404H8.53189V27.5669Z" fill="#006B68"/>
<path d="M10.9591 31.8756C10.9591 31.424 11.3166 31.0477 11.8058 31.0477C12.2573 31.0477 12.6148 31.424 12.6148 31.8756C12.6148 32.346 12.2573 32.7035 11.8058 32.7035C11.3354 32.7035 10.9591 32.346 10.9591 31.8756ZM9.67963 32.7035C9.20924 32.7035 8.83293 32.346 8.83293 31.8756C8.83293 31.424 9.19042 31.0477 9.67963 31.0477C10.1312 31.0477 10.5263 31.424 10.5263 31.8756C10.5075 32.346 10.1312 32.7035 9.67963 32.7035ZM8.43781 28.9404V27.5669H10.1124C10.8086 27.5669 11.1284 27.247 11.1284 26.6261V21.8093H12.5019V26.5508C12.5019 28.2442 11.3542 28.9404 10.0183 28.9404H8.43781Z" fill="#006B68"/>
<path d="M18.222 23.2017H16.8485C16.1147 23.2017 15.8701 23.5215 15.8701 24.2553V26.532C15.8701 27.4728 16.3028 27.5857 17.1495 27.5857H18.222V23.2017ZM15.1363 31.4617H15.3433C16.9802 31.4617 18.222 30.9725 18.222 29.3731V28.9404H17.0366C15.5126 28.9404 14.4589 28.2066 14.4589 26.5132V24.2365C14.4589 22.7501 15.3433 21.8093 16.8861 21.8093H19.6144V29.1097C19.6144 31.3864 18.6171 32.5153 16.0582 32.7035L15.1363 31.4617Z" fill="#006B68"/>
<path d="M20.9719 31.4805C22.3831 31.0289 22.6841 30.4644 22.6841 29.1473V21.8281H24.0577V27.5857H24.9232V28.9592H24.0577V29.5801C24.0577 31.0477 23.305 32.139 21.9315 32.7223L20.9719 31.4805Z" fill="#006B68"/>
<path d="M27.1233 27.5669H24.809V28.9404H27.1233V27.5669Z" fill="#006B68"/>
<path d="M31.3976 19.269C31.3976 18.8175 31.8115 18.4412 32.2631 18.4412C32.7147 18.4412 33.1098 18.8175 33.1098 19.269C33.1098 19.7206 32.7147 20.1346 32.2631 20.1346C31.8115 20.1157 31.3976 19.7206 31.3976 19.269ZM32.376 23.2015H31.0025C30.4192 23.2015 30.0053 23.4084 30.0053 24.2551V27.5855H32.376V23.2015ZM29.2903 19.269C29.2903 18.8175 29.6854 18.4412 30.1558 18.4412C30.6073 18.4412 30.9648 18.8175 30.9648 19.269C30.9648 19.7206 30.6073 20.1346 30.1558 20.1346C29.6854 20.1157 29.2903 19.7206 29.2903 19.269ZM27.0324 28.9402V27.5667H28.6129V24.2363C28.6129 22.6935 29.5537 21.8091 31.0025 21.8091H33.7683V27.5667H34.615V28.9402H27.0324Z" fill="#006B68"/>
<path d="M34.5195 28.9405V27.567H35.0463C35.7989 27.567 36.1376 27.3224 36.1376 26.5133V18.9119H37.5111V26.6262C37.5111 27.9809 36.7773 28.9405 35.0839 28.9405H34.5195Z" fill="#006B68"/>
<path d="M39.5206 29.7305V18.9304H40.913V28.9402L39.5206 29.7305Z" fill="#006B68"/>
<path d="M46.6354 23.2017H45.2619C44.5281 23.2017 44.2647 23.5215 44.2647 24.2553V26.532C44.2647 27.4728 44.6974 27.5857 45.5441 27.5857H46.6166V23.2017H46.6354ZM43.5497 31.4617H43.7566C45.3936 31.4617 46.6354 30.9725 46.6354 29.3731V28.9404H45.45C43.926 28.9404 42.8723 28.2066 42.8723 26.5132V24.2365C42.8723 22.7501 43.7566 21.8093 45.2995 21.8093H48.0278V29.1097C48.0278 31.3864 47.0494 32.5153 44.4716 32.7035L43.5497 31.4617Z" fill="#006B68"/>
<path d="M55.5339 19.269C55.5339 18.8175 55.929 18.4412 56.3806 18.4412C56.8322 18.4412 57.2273 18.8175 57.2273 19.269C57.2273 19.7206 56.8322 20.1346 56.3806 20.1346C55.9102 20.1157 55.5339 19.7206 55.5339 19.269ZM56.4747 23.2015H55.1012C54.5179 23.2015 54.1228 23.4084 54.1228 24.2175V26.5506C54.1228 27.1715 54.2921 27.5855 55.1952 27.5855H56.4747V23.2015ZM53.4078 19.269C53.4078 18.8175 53.8029 18.4412 54.2733 18.4412C54.7248 18.4412 55.12 18.8175 55.12 19.269C55.12 19.7206 54.7248 20.1346 54.2733 20.1346C53.7841 20.1157 53.4078 19.7206 53.4078 19.269ZM56.4747 28.9402V28.037L55.8161 28.9402H55.3081C53.5959 28.9402 52.7304 28.037 52.7304 26.513V24.2363C52.7304 22.5994 53.8029 21.8091 55.1576 21.8091H57.8858V27.5667H58.7137V28.9402H56.4747Z" fill="#006B68"/>
<path d="M60.8029 27.5669H58.6203V28.9404H60.8029V27.5669Z" fill="#006B68"/>
<path d="M63.2339 31.8756C63.2339 31.424 63.5914 31.0477 64.0806 31.0477C64.5322 31.0477 64.8897 31.424 64.8897 31.8756C64.8897 32.346 64.5322 32.7035 64.0806 32.7035C63.6102 32.7035 63.2339 32.346 63.2339 31.8756ZM61.9545 32.7035C61.4841 32.7035 61.1078 32.346 61.1078 31.8756C61.1078 31.424 61.4653 31.0477 61.9545 31.0477C62.406 31.0477 62.7823 31.424 62.7823 31.8756C62.7823 32.346 62.406 32.7035 61.9545 32.7035ZM60.7126 28.9404V27.5669H62.3872C63.0834 27.5669 63.4033 27.247 63.4033 26.6261V21.8093H64.7768V26.5508C64.7768 28.2442 63.6479 28.9404 62.2931 28.9404H60.7126Z" fill="#006B68"/>
<path d="M66.7338 28.9404V27.5669H70.8732V25.2526C70.8732 23.7285 69.9888 23.1829 68.8599 23.1829H67.938V21.8093H68.954C70.6286 21.8093 72.2467 22.9382 72.2467 25.102V27.5669H73.1122V28.9404H66.7338Z" fill="#006B68"/>
<path d="M75.2921 27.5669H72.9778V28.9404H75.2921V27.5669Z" fill="#006B68"/>
<path d="M75.2014 28.9405V27.567H76.8195V18.9119H78.1742V27.567H79.0397V28.9405H75.2014Z" fill="#006B68"/>
<path d="M81.48 31.8756C81.48 31.424 81.8375 31.0477 82.3267 31.0477C82.7783 31.0477 83.1358 31.424 83.1358 31.8756C83.1358 32.346 82.7783 32.7035 82.3267 32.7035C81.8375 32.7035 81.48 32.346 81.48 31.8756ZM78.9399 28.9404V27.5669H81.6306V21.8093H83.0041V27.5669H83.8696V28.9404H78.9399Z" fill="#006B68"/>
<path d="M83.7608 28.9405V27.567H84.3065C85.0591 27.567 85.3978 27.3224 85.3978 26.5133V18.9119H86.7713V26.6262C86.7713 27.9809 86.0375 28.9405 84.3441 28.9405H83.7608Z" fill="#006B68"/>
<path d="M88.762 29.7305V18.9304H90.1543V28.9402L88.762 29.7305Z" fill="#006B68"/>
<path d="M3.84804 40.7753V37.3886L2.77556 40.7753H2.06057L0.988093 37.3886V40.7753H0.442444V36.6924H1.32677L2.41807 40.2673L3.52818 36.6924H4.39369V40.7753H3.84804Z" fill="#80BC00"/>
<path d="M6.18005 40.7376C6.06716 40.794 5.91663 40.8317 5.69085 40.8317C5.59677 40.8317 5.22046 40.8128 5.22046 40.3989V37.8776H5.80374V40.2672C5.80374 40.3613 5.84137 40.4177 5.93545 40.4177C5.97308 40.4177 6.02953 40.4177 6.08597 40.3989L6.18005 40.7376ZM5.52151 37.2944C5.33336 37.2944 5.1452 37.125 5.1452 36.9369C5.1452 36.7299 5.33336 36.5605 5.52151 36.5605C5.72848 36.5605 5.89782 36.7299 5.89782 36.9369C5.89782 37.1438 5.72848 37.2944 5.52151 37.2944Z" fill="#80BC00"/>
<path d="M9.47762 40.7377C9.36473 40.7941 9.21421 40.8318 9.00724 40.8318C8.91316 40.8318 8.51804 40.8129 8.51804 40.399V38.8185C8.51804 38.4422 8.42396 38.3481 8.14173 38.3481C7.7466 38.3481 7.33266 38.6492 7.20096 38.7621V40.7753H6.61768V37.8777H7.20096V38.2728C7.42674 38.0659 7.8595 37.8401 8.23581 37.8401C8.78145 37.8401 9.10132 37.9718 9.10132 38.7809V40.2673C9.10132 40.3614 9.13895 40.4178 9.23303 40.4178C9.27066 40.4178 9.3271 40.4178 9.38355 40.399L9.47762 40.7377Z" fill="#80BC00"/>
<path d="M10.8664 40.7376C10.7535 40.794 10.603 40.8317 10.3772 40.8317C10.2831 40.8317 9.9068 40.8128 9.9068 40.3989V37.8776H10.4901V40.2672C10.4901 40.3613 10.5277 40.4177 10.6218 40.4177C10.6594 40.4177 10.7159 40.4177 10.7723 40.3989L10.8664 40.7376ZM10.2079 37.2944C10.0197 37.2944 9.83154 37.125 9.83154 36.9369C9.83154 36.7299 10.0197 36.5605 10.2079 36.5605C10.4148 36.5605 10.5842 36.7299 10.5842 36.9369C10.5842 37.1438 10.4336 37.2944 10.2079 37.2944Z" fill="#80BC00"/>
<path d="M11.3382 40.192C11.4888 40.2673 11.8463 40.3614 12.1097 40.3614C12.5236 40.3614 12.8058 40.2673 12.8058 39.9474C12.8058 39.4206 11.3006 39.5523 11.3006 38.6304C11.3006 37.9906 11.9027 37.8213 12.4483 37.8213C12.8058 37.8213 13.0693 37.8777 13.2762 37.9718L13.1822 38.4422C12.9564 38.3293 12.693 38.2917 12.4672 38.2917C12.072 38.2917 11.8839 38.3857 11.8839 38.5927C11.8839 39.0631 13.3891 38.9314 13.3891 39.9474C13.3891 40.4931 12.8623 40.8318 12.2226 40.8318C11.771 40.8318 11.4699 40.7753 11.2253 40.7001L11.3382 40.192Z" fill="#80BC00"/>
<path d="M15.4193 40.7189C15.2123 40.7942 15.0994 40.8318 14.7607 40.8318C14.3656 40.8318 14.1586 40.6625 14.1586 40.0792V38.3294H13.6882L13.7823 37.859H14.1586V37.0876L14.7419 36.8994V37.8778H15.344V38.3482H14.7419V40.0228C14.7419 40.3238 14.8172 40.3615 15.0429 40.3615C15.1182 40.3615 15.2687 40.3238 15.3252 40.2862L15.4193 40.7189Z" fill="#80BC00"/>
<path d="M15.9314 40.7753V37.8777H16.5147V38.254C16.6276 37.9906 16.8534 37.8213 17.0603 37.8213C17.2861 37.8213 17.4555 37.8965 17.606 37.9718L17.4931 38.461C17.3426 38.4046 17.192 38.3669 17.0039 38.3669C16.7405 38.3669 16.5711 38.6304 16.4959 38.7621V40.7941H15.9314V40.7753Z" fill="#80BC00"/>
<path d="M17.7898 37.8777H18.4107L19.1633 39.9662L19.8031 37.8777H20.4428L19.408 40.8882C19.1069 41.7537 18.8247 41.9795 18.2978 41.9795C18.0344 41.9795 17.771 41.9042 17.6957 41.8666L17.8086 41.3774C17.9403 41.4338 18.1285 41.4714 18.2978 41.4714C18.4484 41.4714 18.6741 41.4714 18.9187 40.7L17.7898 37.8777Z" fill="#80BC00"/>
<path d="M24.1137 39.3453C24.1137 38.4422 23.775 38.2729 23.3235 38.2729C22.8531 38.2729 22.5332 38.4422 22.5332 39.3453C22.5332 40.2485 22.8531 40.3802 23.3235 40.3802C23.775 40.3802 24.1137 40.2297 24.1137 39.3453ZM21.8935 39.3453C21.8935 38.1411 22.552 37.8213 23.3047 37.8213C24.0573 37.8213 24.7158 38.1411 24.7158 39.3453C24.7158 40.5495 24.0573 40.8318 23.3047 40.8318C22.5709 40.8318 21.8935 40.5495 21.8935 39.3453Z" fill="#80BC00"/>
<path d="M25.5613 40.7753V38.3293H25.0909L25.185 37.8589H25.5613V37.4449C25.5613 36.9369 25.6554 36.5042 26.3704 36.5042C26.5962 36.5042 26.7843 36.523 26.9725 36.5982L26.8596 37.0874C26.7279 37.0498 26.5962 37.0122 26.4645 37.0122C26.2011 37.0122 26.1258 37.0686 26.1258 37.3697V37.8589H26.7655V38.3293H26.1258V40.7753H25.5613Z" fill="#80BC00"/>
<path d="M31.8834 40.7753V37.3886L30.8109 40.7753H30.0959L29.0234 37.3886V40.7753H28.459V36.6924H29.3621L30.4534 40.2673L31.5635 36.6924H32.429V40.7753H31.8834Z" fill="#80BC00"/>
<path d="M36.0399 40.7376C35.927 40.7941 35.7576 40.8317 35.5695 40.8317C35.0991 40.8317 35.0803 40.4554 35.0803 40.399C34.8921 40.5683 34.497 40.8317 34.1019 40.8317C33.5562 40.8317 33.2175 40.7 33.2175 39.8909V37.8777H33.8008V39.8157C33.8008 40.2108 33.9137 40.2861 34.1771 40.2861C34.5534 40.2861 34.9674 40.0226 35.0803 39.8721V37.8777H35.6635V40.2672C35.6635 40.3613 35.72 40.4178 35.8141 40.4178C35.8517 40.4178 35.9081 40.4178 35.9646 40.399L36.0399 40.7376Z" fill="#80BC00"/>
<path d="M39.334 40.7377C39.2211 40.7941 39.0705 40.8318 38.8636 40.8318C38.7695 40.8318 38.3744 40.8129 38.3744 40.399V38.8185C38.3744 38.4422 38.2803 38.3481 37.9981 38.3481C37.6029 38.3481 37.189 38.6492 37.0573 38.7621V40.7753H36.474V37.8777H37.0573V38.2728C37.2831 38.0659 37.7158 37.8401 38.0921 37.8401C38.6378 37.8401 38.9576 37.9718 38.9576 38.7809V40.2673C38.9576 40.3614 38.9953 40.4178 39.0893 40.4178C39.127 40.4178 39.1834 40.4178 39.2399 40.399L39.334 40.7377Z" fill="#80BC00"/>
<path d="M40.7293 40.7376C40.6164 40.794 40.4659 40.8317 40.2401 40.8317C40.146 40.8317 39.7697 40.8128 39.7697 40.3989V37.8776H40.353V40.2672C40.353 40.3613 40.3906 40.4177 40.4847 40.4177C40.5223 40.4177 40.5788 40.4177 40.6352 40.3989L40.7293 40.7376ZM40.0708 37.2944C39.8826 37.2944 39.6945 37.125 39.6945 36.9369C39.6945 36.7299 39.8826 36.5605 40.0708 36.5605C40.2777 36.5605 40.4471 36.7299 40.4471 36.9369C40.4283 37.1438 40.2777 37.2944 40.0708 37.2944Z" fill="#80BC00"/>
<path d="M43.2324 40.7001C43.0254 40.7753 42.7056 40.8318 42.3669 40.8318C41.8212 40.8318 41.0686 40.4554 41.0686 39.3077C41.0686 38.668 41.4637 37.8213 42.461 37.8213C42.8561 37.8213 43.1571 37.8777 43.3641 37.9718L43.27 38.461C43.0819 38.3857 42.762 38.3293 42.5362 38.3293C41.7648 38.3293 41.6895 38.9502 41.6895 39.3453C41.6895 40.1168 42.0847 40.3426 42.6303 40.3426C42.8185 40.3426 43.176 40.2861 43.3453 40.2109L43.2324 40.7001Z" fill="#80BC00"/>
<path d="M44.8844 40.7376C44.7715 40.794 44.621 40.8317 44.3952 40.8317C44.3011 40.8317 43.9248 40.8128 43.9248 40.3989V37.8776H44.5081V40.2672C44.5081 40.3613 44.5457 40.4177 44.6398 40.4177C44.6774 40.4177 44.7339 40.4177 44.7903 40.3989L44.8844 40.7376ZM44.2259 37.2944C44.0377 37.2944 43.8495 37.125 43.8495 36.9369C43.8495 36.7299 44.0377 36.5605 44.2259 36.5605C44.4328 36.5605 44.6022 36.7299 44.6022 36.9369C44.5833 37.1438 44.4328 37.2944 44.2259 37.2944Z" fill="#80BC00"/>
<path d="M45.8988 40.0791C46.0305 40.2109 46.3504 40.3426 46.5761 40.3426C47.103 40.3426 47.3852 40.1356 47.3852 39.3453C47.3852 38.6492 47.2159 38.3293 46.6702 38.3293C46.1622 38.3293 45.8988 38.7056 45.8988 39.0819V40.0791ZM45.3155 41.9419V37.8777H45.8988V38.254C46.0493 38.0659 46.3315 37.8213 46.8584 37.8213C47.404 37.8213 48.0061 38.16 48.0061 39.3265C48.0061 40.1732 47.6298 40.8318 46.7078 40.8318C46.3127 40.8318 46.0117 40.7001 45.8988 40.5872V41.9419H45.3155Z" fill="#80BC00"/>
<path d="M50.3267 39.4206C50.2326 39.4206 50.0257 39.4018 49.9128 39.4018C49.4424 39.4018 49.179 39.5335 49.179 39.9286C49.179 40.3426 49.5553 40.3614 49.7058 40.3614C50.0633 40.3614 50.3455 40.0979 50.3455 39.7216V39.4206H50.3267ZM51.2675 40.7377C51.117 40.8129 51.0041 40.8318 50.7971 40.8318C50.3643 40.8318 50.3079 40.5307 50.3079 40.4178C50.2138 40.5871 50.0257 40.8318 49.4612 40.8318C48.8215 40.8318 48.5392 40.5119 48.5392 39.9851C48.5392 39.2136 49.1602 38.9878 49.8375 38.9878C49.988 38.9878 50.2326 39.0066 50.3079 39.0255V38.7621C50.3079 38.3481 49.9504 38.3293 49.6117 38.3293C49.2542 38.3293 48.9532 38.4046 48.7462 38.4798L48.8403 37.9906C49.0473 37.9153 49.4048 37.8401 49.7622 37.8401C50.5149 37.8401 50.8724 38.0659 50.8724 38.9126V40.2673C50.8724 40.3802 50.91 40.4178 51.0229 40.4178C51.0793 40.4178 51.117 40.4178 51.1734 40.399L51.2675 40.7377Z" fill="#80BC00"/>
<path d="M52.6569 40.7377C52.544 40.7942 52.3935 40.8318 52.1865 40.8318C52.0925 40.8318 51.6973 40.813 51.6973 40.399V36.6924H52.2806V40.2673C52.2806 40.3614 52.3182 40.4178 52.4123 40.4178C52.4499 40.4178 52.5064 40.4178 52.5628 40.399L52.6569 40.7377Z" fill="#80BC00"/>
<path d="M55.1778 38.875C55.0273 38.9315 54.7262 39.082 54.7262 39.6465C54.7262 40.1921 55.1214 40.3238 55.4789 40.3238C55.7799 40.3238 56.0998 40.1545 56.2127 40.0228C55.874 39.7217 55.4788 39.2325 55.1778 38.875ZM57.6614 40.7942C57.5485 40.8318 57.3792 40.8319 57.2663 40.8319C57.0029 40.8319 56.7583 40.6437 56.5513 40.3991C56.3255 40.6437 55.9304 40.8319 55.4412 40.8319C54.7074 40.8319 54.1241 40.512 54.1241 39.7217C54.1241 38.9127 54.5757 38.6116 54.9144 38.4799C54.7639 38.273 54.5569 37.9343 54.5569 37.5391C54.5569 37.0688 54.8768 36.6172 55.5541 36.6172C55.9869 36.6172 56.3067 36.7113 56.5137 36.8053L56.4196 37.3322C56.175 37.2193 55.9116 37.1628 55.6482 37.1628C55.3471 37.1628 55.159 37.2569 55.159 37.558C55.159 38.0283 55.4789 38.4235 56.5325 39.5712C56.7019 39.2514 56.7207 38.9127 56.7207 38.3858H57.7931L57.6991 38.8939H57.2099C57.2099 39.1573 57.1346 39.6653 56.9088 40.004C57.1346 40.2674 57.2287 40.3615 57.4545 40.3615C57.5485 40.3615 57.6614 40.3426 57.7367 40.3238L57.6614 40.7942Z" fill="#80BC00"/>
<path d="M61.0103 38.7433C61.3114 38.7433 61.65 38.5928 61.65 37.9907C61.65 37.5203 61.3866 37.2192 61.0103 37.2192H60.2012V38.7433H61.0103ZM61.7253 40.7754L60.935 39.2701H60.1824V40.7754H59.5615V36.6736H60.8598C61.857 36.6736 62.2709 37.2004 62.2709 37.9719C62.2709 38.5551 62.0075 38.9691 61.5371 39.1572L62.4027 40.7754H61.7253Z" fill="#80BC00"/>
<path d="M65.824 40.7376C65.7111 40.7941 65.5418 40.8317 65.3536 40.8317C64.8832 40.8317 64.8644 40.4554 64.8644 40.399C64.6763 40.5683 64.2812 40.8317 63.886 40.8317C63.3404 40.8317 63.0017 40.7 63.0017 39.8909V37.8777H63.585V39.8157C63.585 40.2108 63.6979 40.2861 63.9613 40.2861C64.3376 40.2861 64.7515 40.0226 64.8644 39.8721V37.8777H65.4477V40.2672C65.4477 40.3613 65.5042 40.4178 65.5982 40.4178C65.6359 40.4178 65.6923 40.4178 65.7488 40.399L65.824 40.7376Z" fill="#80BC00"/>
<path d="M66.2418 40.7753V37.8777H66.8251V38.254C66.938 37.9906 67.1638 37.8213 67.3707 37.8213C67.5965 37.8213 67.7659 37.8965 67.9164 37.9718L67.8035 38.461C67.653 38.4046 67.5025 38.3669 67.3143 38.3669C67.0697 38.3669 66.8815 38.6304 66.8063 38.7621V40.7941H66.2418V40.7753Z" fill="#80BC00"/>
<path d="M70.0429 39.4206C69.9488 39.4206 69.7419 39.4018 69.629 39.4018C69.1586 39.4018 68.8952 39.5335 68.8952 39.9286C68.8952 40.3426 69.2715 40.3614 69.422 40.3614C69.7795 40.3614 70.0617 40.0979 70.0617 39.7216V39.4206H70.0429ZM70.9837 40.7377C70.8331 40.8129 70.7203 40.8318 70.5133 40.8318C70.0805 40.8318 70.0241 40.5307 70.0241 40.4178C69.93 40.5871 69.7419 40.8318 69.1774 40.8318C68.5377 40.8318 68.2554 40.5119 68.2554 39.9851C68.2554 39.2136 68.8763 38.9878 69.5537 38.9878C69.7042 38.9878 69.9488 39.0066 70.0241 39.0255V38.7621C70.0241 38.3481 69.6666 38.3293 69.3279 38.3293C68.9704 38.3293 68.6694 38.4046 68.4624 38.4798L68.5565 37.9906C68.7634 37.9153 69.1209 37.8401 69.4784 37.8401C70.2311 37.8401 70.5885 38.0659 70.5885 38.9126V40.2673C70.5885 40.3802 70.6262 40.4178 70.7391 40.4178C70.7955 40.4178 70.8331 40.4178 70.8896 40.399L70.9837 40.7377Z" fill="#80BC00"/>
<path d="M72.3732 40.7377C72.2603 40.7942 72.1097 40.8318 71.9028 40.8318C71.8087 40.8318 71.4136 40.813 71.4136 40.399V36.6924H71.9969V40.2673C71.9969 40.3614 72.0345 40.4178 72.1286 40.4178C72.1662 40.4178 72.2226 40.4178 72.2791 40.399L72.3732 40.7377Z" fill="#80BC00"/>
<path d="M75.3689 37.4827L74.7668 39.3266H75.9334L75.3689 37.4827ZM76.4226 40.7754L76.1216 39.8346H74.6163L74.3153 40.7754H73.6567L75.0491 36.6736H75.7264L77.1188 40.7754H76.4226Z" fill="#80BC00"/>
<path d="M79.7674 40.7753V38.3293H79.297L79.3911 37.8589H79.7674V37.4449C79.7674 36.9369 79.8615 36.5042 80.5765 36.5042C80.8023 36.5042 80.9904 36.523 81.1786 36.5982L81.0657 37.0874C80.934 37.0498 80.7834 37.0122 80.6706 37.0122C80.4071 37.0122 80.3319 37.0686 80.3319 37.3697V37.8589H80.9716V38.3293H80.3319V40.7753H79.7674ZM77.7542 40.7753V38.3293H77.2838L77.3779 37.8589H77.7542V37.4449C77.7542 36.9369 77.8483 36.5042 78.5632 36.5042C78.789 36.5042 78.9772 36.523 79.1653 36.5982L79.0524 37.0874C78.9207 37.0498 78.7702 37.0122 78.6573 37.0122C78.3939 37.0122 78.3187 37.0686 78.3187 37.3697V37.8589H78.9584V38.3293H78.3187V40.7753H77.7542Z" fill="#80BC00"/>
<path d="M83.1608 39.4206C83.0667 39.4206 82.8597 39.4018 82.7468 39.4018C82.2764 39.4018 82.013 39.5335 82.013 39.9286C82.013 40.3426 82.3893 40.3614 82.5398 40.3614C82.8973 40.3614 83.1796 40.0979 83.1796 39.7216V39.4206H83.1608ZM84.1015 40.7377C83.951 40.8129 83.8381 40.8318 83.6311 40.8318C83.1984 40.8318 83.1419 40.5307 83.1419 40.4178C83.0479 40.5871 82.8597 40.8318 82.2952 40.8318C81.6555 40.8318 81.3733 40.5119 81.3733 39.9851C81.3733 39.2136 81.9942 38.9878 82.6716 38.9878C82.8221 38.9878 83.0667 39.0066 83.1419 39.0255V38.7621C83.1419 38.3481 82.7844 38.3293 82.4458 38.3293C82.0883 38.3293 81.7872 38.4046 81.5803 38.4798L81.6743 37.9906C81.8813 37.9153 82.2388 37.8401 82.5963 37.8401C83.3489 37.8401 83.7064 38.0659 83.7064 38.9126V40.2673C83.7064 40.3802 83.744 40.4178 83.8569 40.4178C83.9134 40.4178 83.951 40.4178 84.0074 40.399L84.1015 40.7377Z" fill="#80BC00"/>
<path d="M85.4876 40.7376C85.3747 40.794 85.2242 40.8317 84.9984 40.8317C84.9043 40.8317 84.528 40.8128 84.528 40.3989V37.8776H85.1113V40.2672C85.1113 40.3613 85.1489 40.4177 85.243 40.4177C85.2806 40.4177 85.3371 40.4177 85.3935 40.3989L85.4876 40.7376ZM84.8291 37.2944C84.6409 37.2944 84.4528 37.125 84.4528 36.9369C84.4528 36.7299 84.6409 36.5605 84.8291 36.5605C85.036 36.5605 85.2053 36.7299 85.2053 36.9369C85.2053 37.1438 85.0548 37.2944 84.8291 37.2944Z" fill="#80BC00"/>
<path d="M85.9417 40.7753V37.8777H86.5249V38.254C86.6378 37.9906 86.8636 37.8213 87.0706 37.8213C87.2964 37.8213 87.4657 37.8965 87.6163 37.9718L87.5034 38.461C87.3528 38.4046 87.2023 38.3669 87.0142 38.3669C86.7507 38.3669 86.5814 38.6304 86.5061 38.7621V40.7941H85.9417V40.7753Z" fill="#80BC00"/>
<path d="M88.1272 40.192C88.2777 40.2673 88.6352 40.3614 88.8986 40.3614C89.3125 40.3614 89.5948 40.2673 89.5948 39.9474C89.5948 39.4206 88.0895 39.5523 88.0895 38.6304C88.0895 37.9906 88.6916 37.8213 89.2373 37.8213C89.5948 37.8213 89.8582 37.8777 90.0651 37.9718L89.9711 38.4422C89.7453 38.3293 89.4819 38.2917 89.2561 38.2917C88.861 38.2917 88.6728 38.3857 88.6728 38.5927C88.6728 39.0631 90.178 38.9314 90.178 39.9474C90.178 40.4931 89.67 40.8318 89.0115 40.8318C88.5599 40.8318 88.2589 40.7753 88.0143 40.7001L88.1272 40.192Z" fill="#80BC00"/>
<path d="M128.222 41.9793C115.634 41.9793 105.399 31.7437 105.399 19.1561L105.568 15.9951H109.143V11.216H109.538V10.4446H111.25L111.74 11.2725H112.624V17.3687H113.339V18.2154H113.602V13.3233H116.481V14.584H117.441V16.9359H119.04V14.6592H121.185L121.956 15.6376V18.2342H126.359V18.8927H121.298V15.8634L120.865 15.3178H119.698V18.3847H118.814V17.5945H116.782V15.2425H115.823V13.9819H114.261V18.8927H112.68V18.0272H111.965V11.931H111.363L110.874 11.1031H110.197V11.8746H109.802V16.6537H106.208L106.076 19.1561C106.076 31.3486 116.011 41.2831 128.222 41.2831C140.414 41.2831 150.33 31.3862 150.368 19.2314H148.11V15.3366H146.774V13.3422H145.212V12.4955H143.312V13.0976L142.936 13.5303V17.1429H140.998V14.4523L140.508 13.9066H139.436V13.0035H138.213V18.8927H136.237V16.7101H134.487V18.8927H129.84V18.2342H133.829V16.0516H136.877V18.2342H137.536V12.3449H140.076V13.2481H140.791L141.637 14.2077V16.4843H142.258V13.2857L142.635 12.853V11.8369H145.871V12.7024H147.432V14.6969H148.768V18.5917H151.026V19.175C151.026 31.7625 140.791 41.9793 128.222 41.9793Z" fill="#80BC00"/>
<path d="M119.586 32.8163C119.398 32.8163 119.21 32.8727 119.04 32.9668C118.57 33.3055 118.401 33.9452 118.702 34.4532C118.814 34.6978 119.059 34.8483 119.417 34.9424C119.511 34.9424 119.624 34.9612 119.755 34.9612C121.166 34.9612 122.371 34.0957 123.405 33.2867L123.594 33.1361L123.725 33.3431C124.196 34.1334 125.005 34.6978 125.87 34.8672C125.927 34.8672 125.983 34.8672 126.058 34.8672C126.679 34.8672 127.357 34.5661 127.488 33.9264C127.564 33.456 127.281 32.948 126.83 32.7222C126.548 32.6093 126.209 32.6281 125.739 32.8163C125.626 32.8539 125.588 33.0044 125.532 33.2114C125.475 33.4372 125.4 33.757 125.061 33.757C124.817 33.757 124.421 33.5501 124.271 33.2678C124.196 33.1173 124.196 32.948 124.29 32.8163C125.005 31.7438 125.927 30.9912 126.83 30.2574C127.244 29.9187 127.677 29.58 128.072 29.2037L128.222 29.072L128.373 29.2037C128.768 29.5612 129.182 29.8999 129.596 30.2386C130.555 30.9912 131.534 31.7626 132.155 32.9292C132.192 32.9856 132.23 33.0797 132.173 33.2114C132.079 33.4372 131.703 33.757 131.402 33.7759C131.233 33.8135 131.12 33.757 131.063 33.7006C130.95 33.5877 130.969 33.456 130.969 33.3243C130.969 33.2302 130.969 33.1361 130.95 33.0985C130.819 32.8163 130.536 32.7598 130.235 32.6846C129.69 32.5529 129.106 32.9668 128.975 33.5501C128.918 33.8135 128.956 34.0769 129.106 34.3027C129.408 34.6978 129.821 34.9048 130.292 34.9048C131.233 34.9048 132.249 34.1145 132.738 33.3619L132.87 33.155L133.058 33.3055C133.999 34.0581 135.222 34.9236 136.463 34.9236C136.802 34.9236 137.122 34.8672 137.423 34.7354C137.649 34.6414 137.818 34.4344 137.893 34.171C137.969 33.8888 137.931 33.5877 137.762 33.3619C137.555 33.0609 137.216 32.8727 136.84 32.8727C136.463 32.8727 136.106 33.0609 135.918 33.3431L135.824 33.4936L135.654 33.4372C135.015 33.1926 134.224 32.8351 133.829 32.1389C133.679 31.9131 133.754 31.5556 133.867 31.311C133.999 31.0852 134.13 31.0288 134.243 31.0288C134.281 31.0288 134.337 31.0476 134.375 31.0664C134.676 31.2546 134.996 31.3675 135.297 31.3675C135.842 31.3675 136.238 31.0476 136.369 30.5396C136.426 30.2762 136.369 29.994 136.2 29.7682C136.031 29.5236 135.786 29.3542 135.504 29.279C135.466 29.279 135.391 29.2602 135.334 29.2602C134.845 29.2602 134.356 29.5048 134.036 29.8811C133.829 30.1257 133.735 30.4267 133.641 30.7466C133.547 31.0288 133.453 31.311 133.284 31.5745L133.133 31.7814L129.163 28.0748L129.332 27.9054C133.603 23.8037 139.304 22.3549 143.99 21.9221C143.387 21.8657 142.785 21.8469 142.183 21.8469C137.009 21.8469 132.117 23.6343 128.429 26.8518L128.297 26.9647L128.147 26.8518C126.209 25.4218 123.612 23.672 120.64 22.7876C117.855 21.9786 115.07 21.6587 112.398 21.8845C117.083 22.2984 122.803 23.7472 127.074 27.8678L127.244 28.0371L123.311 31.6873L123.161 31.4804C122.991 31.217 122.897 30.9347 122.803 30.6525C122.709 30.3326 122.615 30.0316 122.408 29.787C122.126 29.5048 121.825 29.3354 121.411 29.1661C120.771 29.0344 120.207 29.3919 120.075 30.0316C120 30.502 120.282 31.01 120.734 31.2358C120.79 31.2546 120.884 31.2734 120.997 31.2734C121.298 31.2734 121.58 31.1605 121.863 31.0288L121.994 30.9724C122.051 30.9535 122.088 30.9535 122.126 30.9535C122.295 30.9535 122.465 31.0664 122.578 31.2734C122.69 31.4992 122.747 31.8379 122.596 32.0637C122.22 32.741 121.43 33.0985 120.79 33.3431L120.64 33.3996L120.545 33.2678C120.301 33.0044 119.943 32.8163 119.586 32.8163ZM119.736 35.394C119.605 35.394 119.473 35.394 119.322 35.3752C118.814 35.2435 118.476 35.0177 118.288 34.6602C117.892 33.964 118.099 33.0797 118.777 32.5905C119.454 32.1954 120.282 32.3835 120.771 32.9292C121.317 32.7222 121.919 32.4023 122.22 31.8943C122.239 31.8567 122.258 31.7814 122.22 31.6497C122.182 31.5368 122.145 31.4804 122.107 31.4427L122.013 31.4804C121.712 31.6121 121.355 31.7438 120.978 31.7438C120.828 31.7438 120.696 31.725 120.545 31.6685C119.906 31.3487 119.529 30.6525 119.623 29.9751C119.793 29.2225 120.395 28.7333 121.129 28.7333C121.26 28.7333 121.373 28.7521 121.505 28.7709L121.543 28.7898C122.013 28.9779 122.371 29.1661 122.728 29.5236C123.01 29.8434 123.123 30.2009 123.217 30.5584C123.274 30.7278 123.33 30.8783 123.387 31.0288L126.585 28.056C121.712 23.4838 114.957 22.3737 110.122 22.2232L108.127 22.1667L110.084 21.7904C113.49 21.1319 117.121 21.3388 120.752 22.3925C123.744 23.258 126.322 24.989 128.26 26.419C132.004 23.1828 136.934 21.4141 142.164 21.4141C143.557 21.4141 144.93 21.5458 146.285 21.7904L148.298 22.1667L146.266 22.2232C141.431 22.3549 134.676 23.4838 129.803 28.056L133.001 31.0288C133.058 30.8783 133.114 30.7089 133.171 30.5584C133.284 30.2197 133.396 29.8622 133.66 29.5424C134.111 28.9967 134.883 28.6769 135.56 28.7898C135.974 28.8838 136.313 29.1284 136.539 29.4671C136.783 29.8246 136.858 30.2197 136.764 30.596C136.576 31.311 136.012 31.7626 135.278 31.7626C134.939 31.7626 134.582 31.6685 134.243 31.4804C134.187 31.5933 134.13 31.8002 134.187 31.8755C134.488 32.4023 135.09 32.7222 135.635 32.9292C135.918 32.5905 136.35 32.4023 136.821 32.4023C137.348 32.4023 137.837 32.6469 138.119 33.0797C138.364 33.4184 138.439 33.8511 138.307 34.2651C138.194 34.6602 137.931 34.9612 137.592 35.1118C137.235 35.2623 136.858 35.3375 136.463 35.3375C135.165 35.3375 133.923 34.5285 132.964 33.7759C132.362 34.5661 131.308 35.3187 130.292 35.3187C129.69 35.3187 129.144 35.0365 128.749 34.5285C128.523 34.1898 128.448 33.7759 128.542 33.3996C128.711 32.7034 129.351 32.1766 130.028 32.1766C130.141 32.1766 130.235 32.1954 130.348 32.2142C130.706 32.3083 131.12 32.4023 131.346 32.8351C131.44 32.9668 131.44 33.155 131.44 33.3055C131.534 33.2867 131.703 33.1361 131.778 33.0609C131.214 32.026 130.311 31.311 129.37 30.5772C128.994 30.295 128.617 29.994 128.26 29.6741C127.902 30.0128 127.507 30.3138 127.15 30.6149C126.228 31.3675 125.381 32.0637 124.704 33.0797C124.722 33.155 124.967 33.3243 125.099 33.3243C125.118 33.2867 125.155 33.1738 125.174 33.0985C125.231 32.8539 125.325 32.534 125.644 32.4023C126.228 32.1766 126.66 32.1577 127.093 32.3271C127.714 32.6469 128.09 33.3431 127.996 34.0017C127.789 35.0177 126.736 35.394 125.87 35.2999C124.948 35.1306 124.083 34.5661 123.537 33.7759C122.427 34.5849 121.185 35.394 119.736 35.394Z" fill="#80BC00"/>
<path d="M136.518 5.9855L137.064 6.39944L136.669 5.83498C134.11 2.18478 131.25 2.07188 130.347 2.14715C130.535 1.95899 130.855 1.65794 131.306 1.48861L131.626 1.37571L131.306 1.28163C130.629 1.09348 129.67 0.942954 128.842 1.62031C128.71 0.924138 128.409 0.190338 128.202 0.0586293C128.145 0.0209984 128.089 0.0209961 128.07 0.0209961C127.844 0.0774425 127.468 0.660722 127.28 1.62031C126.697 1.14992 125.699 0.942955 124.872 1.35689L124.627 1.46979L124.89 1.56387C124.89 1.56387 125.436 1.75202 125.756 2.22241C122.03 2.31648 120.676 4.14158 119.584 5.60919C119.509 5.72208 119.434 5.81616 119.34 5.92905L119.509 6.07958C121.033 4.66842 123.385 4.17921 124.514 4.48026C123.159 5.02591 120.544 6.62523 119.66 11.1033L119.547 11.6866L119.867 11.1786C121.353 8.82663 122.821 7.39666 124.533 6.60641C123.423 8.2998 121.88 11.235 122.482 13.8692L122.595 14.3584L122.708 13.8692C123.272 11.2726 124.796 9.10886 125.812 8.13046C125.003 11.0092 125.323 13.7939 125.737 14.9228L125.925 15.412L125.963 14.8852C126.113 12.4956 126.772 9.93674 127.261 8.69492L127.6 11.0657L127.393 11.1221L127.543 14.3772H127.28L127.525 17.7263L127.224 17.8016L127.242 17.8957C127.242 17.9145 127.449 20.003 127.525 21.1696C127.129 21.3765 126.734 21.7717 126.621 21.9034V22.1292H129.538V21.9222L129.557 21.9034C129.256 21.5459 128.842 21.3013 128.672 21.2072L128.992 17.7075L128.672 17.7263L128.898 14.3019L128.672 14.3396L128.823 11.0845H128.578C128.635 10.8023 128.748 10.012 128.86 8.67611C129.5 9.74859 130.046 11.9876 130.328 14.7911L130.422 15.619L130.554 14.7911C131.1 11.4043 130.573 8.80782 130.347 7.90468C131.212 8.75137 132.943 11.7242 133.527 13.8504L133.696 14.4901L133.752 13.8315C133.959 10.9904 133.32 8.84545 131.513 6.51233C132.247 6.7193 133.15 7.34021 134.091 8.28099C134.975 9.16531 135.841 10.2754 136.293 11.1409L136.556 11.649L136.5 11.0845C136.142 7.62245 133.546 5.17644 131.702 4.42382C133.32 4.10396 135.766 5.42104 136.518 5.9855Z" fill="#80BC00"/>
</svg>
