<svg width="57" height="42" viewBox="0 0 57 42" fill="none" xmlns="http://www.w3.org/2000/svg">
<g clip-path="url(#clip0_1_956)">
<path d="M40.3349 17.4767C39.7574 15.7689 39.0491 14.1082 38.2165 12.5092C37.9366 11.9685 37.6403 11.4431 37.3377 10.9252C37.0351 10.4073 36.7312 9.88304 36.4045 9.37148C35.4359 7.85295 34.3527 6.41071 33.1642 5.05738C31.529 3.19325 29.7099 1.49888 27.7345 0V0V11.0404C28.7517 12.2477 29.6693 13.5355 30.4785 14.891V14.891C31.2504 16.2706 31.9093 17.7104 32.4487 19.1963L41.9988 24.6994C41.688 22.2421 41.1306 19.8223 40.3349 17.4767V17.4767Z" fill="url(#paint0_linear_1_956)"/>
<path d="M22.0052 19.1986C22.5452 17.7152 23.2045 16.2779 23.9768 14.901V14.901C24.7872 13.5457 25.7057 12.258 26.7233 11.0503V0.00488281C24.747 1.50652 22.9271 3.20341 21.2911 5.06986C20.1034 6.42355 19.0206 7.86575 18.052 9.38396C17.7253 9.89046 17.4189 10.4159 17.1213 10.9376C16.8238 11.4593 16.5224 11.981 16.235 12.5217C15.4015 14.1186 14.6933 15.7777 14.1165 17.4841C13.3188 19.8302 12.7601 22.2509 12.4489 24.7093V24.7093L22.0052 19.1986Z" fill="url(#paint1_linear_1_956)"/>
<path d="M31.9692 20.0432C30.4144 20.3215 28.8395 20.4731 27.2601 20.4965V20.4965C25.6774 20.4758 24.0988 20.3289 22.5395 20.0571L12.9933 25.5944C15.2823 26.552 17.6623 27.2758 20.0969 27.7547C21.8636 28.1019 23.6542 28.3135 25.4531 28.3878C26.0626 28.4106 26.6666 28.4186 27.2651 28.4118C27.8666 28.4118 28.4693 28.4118 29.0771 28.3789C30.8796 28.2993 32.6733 28.0809 34.4422 27.7255C36.8731 27.2362 39.2486 26.504 41.5332 25.54L31.9692 20.0432Z" fill="url(#paint2_linear_1_956)"/>
<path d="M21.1634 26.2162C20.3404 26.0794 19.9656 25.6058 19.9326 25.5539L20.386 25.0563C20.616 25.2908 20.9103 25.4521 21.2318 25.5197C21.6117 25.583 21.8827 25.4374 21.9308 25.1551C21.9485 25.0526 21.9258 24.9473 21.8675 24.8613C21.6636 24.5777 20.99 24.3713 20.6519 23.8977C20.5694 23.7869 20.5105 23.6605 20.4787 23.5261C20.4469 23.3918 20.443 23.2524 20.467 23.1164C20.5822 22.4187 21.2267 22.0616 21.9992 22.1921C22.4459 22.2512 22.8547 22.4741 23.1464 22.8176L22.6855 23.2836C22.4829 23.0735 22.2239 22.9266 21.9396 22.8606C21.599 22.8037 21.328 22.9252 21.2863 23.1696C21.276 23.2135 21.2759 23.2591 21.286 23.303C21.2961 23.3469 21.3161 23.3879 21.3445 23.4228C21.5003 23.6381 22.2651 23.9445 22.5994 24.4105C22.684 24.5256 22.7433 24.6573 22.7734 24.797C22.8035 24.9367 22.8038 25.0811 22.7741 25.2209C22.6475 25.9515 22.0144 26.3605 21.1634 26.22" fill="white"/>
<path d="M26.0457 26.6227L25.8076 25.792L24.4021 25.7034L24.0602 26.5011L23.222 26.4505L24.8807 22.6277L25.7127 22.6783L26.8979 26.6759L26.0457 26.6227ZM25.2378 23.5368L24.6465 25.0779L25.6329 25.1386L25.2378 23.5368Z" fill="white"/>
<path d="M28.7516 26.6911C27.9184 26.7228 27.4549 26.3341 27.4131 26.2885L27.755 25.7111C28.0282 25.8942 28.3492 25.9929 28.6781 25.9947C29.058 25.9808 29.2973 25.782 29.2884 25.4945C29.2817 25.3912 29.2365 25.2941 29.1618 25.2223C28.9086 24.9868 28.2045 24.9184 27.7778 24.5233C27.6739 24.4324 27.5902 24.3208 27.5319 24.1956C27.4737 24.0705 27.4423 23.9345 27.4397 23.7965C27.4119 23.0912 27.9652 22.6126 28.7503 22.5822C29.1997 22.5486 29.6454 22.6841 30.0001 22.962L29.643 23.5103C29.4026 23.3451 29.1192 23.2536 28.8275 23.2469C28.4818 23.2609 28.2413 23.4344 28.2527 23.6813C28.2509 23.7255 28.2598 23.7695 28.2785 23.8096C28.2972 23.8497 28.3253 23.8847 28.3603 23.9117C28.5553 24.0928 29.3733 24.2397 29.7861 24.6284C29.894 24.7228 29.9797 24.8399 30.0373 24.9712C30.0949 25.1025 30.1228 25.2448 30.1191 25.3882C30.1482 26.1277 29.605 26.6544 28.7478 26.6911" fill="white"/>
<path d="M32.9197 26.3304C31.7902 26.5001 30.8937 25.7796 30.7127 24.5577C30.5328 23.3661 31.1774 22.4405 32.2993 22.2784C33.4452 22.1062 34.3151 22.8293 34.4899 23.9929C34.6798 25.2478 34.0226 26.1721 32.9197 26.3405V26.3304ZM32.3714 22.9559C31.7522 23.0508 31.4281 23.684 31.5522 24.4906C31.6763 25.2972 32.2157 25.7403 32.8184 25.6466C33.6225 25.52 33.7441 24.7337 33.6516 24.112C33.5351 23.3459 33.0185 22.8584 32.3651 22.9559" fill="white"/>
<path d="M21.1634 26.2162C20.3404 26.0794 19.9656 25.6058 19.9326 25.5539L20.386 25.0563C20.616 25.2908 20.9103 25.4521 21.2318 25.5197C21.6117 25.583 21.8827 25.4374 21.9308 25.1551C21.9485 25.0526 21.9258 24.9473 21.8675 24.8613C21.6636 24.5777 20.99 24.3713 20.6519 23.8977C20.5694 23.7869 20.5105 23.6605 20.4787 23.5261C20.4469 23.3918 20.443 23.2524 20.467 23.1164C20.5822 22.4187 21.2267 22.0616 21.9992 22.1921C22.4459 22.2512 22.8547 22.4741 23.1464 22.8176L22.6855 23.2836C22.4829 23.0735 22.2239 22.9266 21.9396 22.8606C21.599 22.8037 21.328 22.9252 21.2863 23.1696C21.276 23.2135 21.2759 23.2591 21.286 23.303C21.2961 23.3469 21.3161 23.3879 21.3445 23.4228C21.5003 23.6381 22.2651 23.9445 22.5994 24.4105C22.684 24.5256 22.7433 24.6573 22.7734 24.797C22.8035 24.9367 22.8038 25.0811 22.7741 25.2209C22.6475 25.9515 22.0144 26.3605 21.1634 26.22" fill="white"/>
<path d="M26.0457 26.6227L25.8076 25.792L24.4021 25.7034L24.0602 26.5011L23.222 26.4505L24.8807 22.6277L25.7127 22.6783L26.8979 26.6759L26.0457 26.6227ZM25.2378 23.5368L24.6465 25.0779L25.6329 25.1386L25.2378 23.5368Z" fill="white"/>
<path d="M28.7516 26.6911C27.9184 26.7228 27.4549 26.3341 27.4131 26.2885L27.755 25.7111C28.0282 25.8942 28.3492 25.9929 28.6781 25.9947C29.058 25.9808 29.2973 25.782 29.2884 25.4945C29.2817 25.3912 29.2365 25.2941 29.1618 25.2223C28.9086 24.9868 28.2045 24.9184 27.7778 24.5233C27.6739 24.4324 27.5902 24.3208 27.5319 24.1956C27.4737 24.0705 27.4423 23.9345 27.4397 23.7965C27.4119 23.0912 27.9652 22.6126 28.7503 22.5822C29.1997 22.5486 29.6454 22.6841 30.0001 22.962L29.643 23.5103C29.4026 23.3451 29.1192 23.2536 28.8275 23.2469C28.4818 23.2609 28.2413 23.4344 28.2527 23.6813C28.2509 23.7255 28.2598 23.7695 28.2785 23.8096C28.2972 23.8497 28.3253 23.8847 28.3603 23.9117C28.5553 24.0928 29.3733 24.2397 29.7861 24.6284C29.894 24.7228 29.9797 24.8399 30.0373 24.9712C30.0949 25.1025 30.1228 25.2448 30.1191 25.3882C30.1482 26.1277 29.605 26.6544 28.7478 26.6911" fill="white"/>
<path d="M32.9197 26.3304C31.7902 26.5001 30.8937 25.7796 30.7127 24.5577C30.5328 23.3661 31.1774 22.4405 32.2993 22.2784C33.4452 22.1062 34.3151 22.8293 34.4899 23.9929C34.6798 25.2478 34.0226 26.1721 32.9197 26.3405V26.3304ZM32.3714 22.9559C31.7522 23.0508 31.4281 23.684 31.5522 24.4906C31.6763 25.2972 32.2157 25.7403 32.8184 25.6466C33.6225 25.52 33.7441 24.7337 33.6516 24.112C33.5351 23.3459 33.0185 22.8584 32.3651 22.9559" fill="white"/>
<path d="M0.615322 35.9993H0.344345V36.3184H0.615322V35.9993Z" fill="#5E5F61"/>
<path d="M0.654362 37.8885C0.74631 37.891 0.837658 37.873 0.921766 37.8357C1.00587 37.7985 1.08063 37.743 1.1406 37.6733C1.24998 37.5256 1.30903 37.3467 1.30903 37.163C1.30903 36.9792 1.24998 36.8003 1.1406 36.6527C1.08151 36.5834 1.00754 36.5285 0.924221 36.4918C0.8409 36.4552 0.750381 36.4379 0.659428 36.4412C0.568285 36.4374 0.47749 36.4546 0.394058 36.4915C0.310627 36.5284 0.236791 36.584 0.178255 36.6539C0.0562636 36.7937 -0.00721998 36.9751 0.000980453 37.1604C-0.00864505 37.3474 0.052883 37.5311 0.17319 37.6745C0.231976 37.744 0.305924 37.7991 0.389341 37.8356C0.472759 37.872 0.563425 37.8888 0.654362 37.8847V37.8885ZM0.379588 36.8312C0.410472 36.7835 0.453486 36.7449 0.50422 36.7193C0.554953 36.6937 0.611579 36.6821 0.668291 36.6856C0.721381 36.6824 0.774382 36.6932 0.821954 36.717C0.869527 36.7408 0.90999 36.7767 0.939267 36.8211C0.991998 36.9212 1.01733 37.0334 1.01271 37.1465C1.01271 37.4833 0.894949 37.6454 0.654362 37.6454C0.600324 37.6486 0.546395 37.6375 0.498109 37.613C0.449823 37.5885 0.408917 37.5516 0.379588 37.5061C0.320775 37.4085 0.292138 37.2958 0.297281 37.182C0.291166 37.0596 0.319695 36.938 0.379588 36.8312" fill="#5E5F61"/>
<path d="M0.999019 35.9993H0.728043V36.3184H0.999019V35.9993Z" fill="#5E5F61"/>
<path d="M1.87041 36.4653H1.83749V36.7274H1.94892C2.05171 36.7276 2.15265 36.7548 2.24156 36.8064C2.33048 36.858 2.40424 36.9321 2.45542 37.0212C2.55177 37.203 2.59892 37.4069 2.59217 37.6125H1.51839V37.8886H2.88087V37.8531C2.89463 37.5568 2.84766 37.2608 2.74285 36.9832C2.58837 36.6401 2.29713 36.4653 1.87041 36.4653" fill="#5E5F61"/>
<path d="M5.81455 38.0203H5.54231V38.3381H5.81455V38.0203Z" fill="#5E5F61"/>
<path d="M7.28931 37.2389C7.29679 37.3312 7.28292 37.4239 7.24879 37.5099C7.22715 37.5469 7.19502 37.5766 7.15648 37.5953C7.11793 37.614 7.07471 37.6209 7.03227 37.615H6.94363H6.61947V37.5555C6.61947 36.9224 6.23073 36.5083 5.62673 36.5083C5.48444 36.5003 5.34226 36.5258 5.21162 36.5828C5.08098 36.6397 4.96554 36.7265 4.87459 36.8363L4.85812 36.8591L4.88851 36.8933C4.97335 36.9768 5.0278 37.0338 5.05692 37.0655L5.08605 37.0984L5.10884 37.0617C5.16005 36.9712 5.23561 36.8969 5.32693 36.8472C5.41826 36.7975 5.52168 36.7744 5.62547 36.7806C6.06865 36.7806 6.31177 37.0515 6.31177 37.5403C6.31177 37.5631 6.31177 37.5872 6.31177 37.6137H4.53903H4.29971V37.0908C4.29971 36.6932 4.09711 36.464 3.74003 36.464C3.65464 36.4628 3.5701 36.4811 3.49285 36.5175C3.41561 36.554 3.3477 36.6075 3.29431 36.6742C3.17439 36.8152 3.11081 36.9956 3.11577 37.1807C3.11152 37.3637 3.17055 37.5426 3.28292 37.6872C3.3335 37.7521 3.39852 37.8043 3.47281 37.8397C3.54711 37.8751 3.62863 37.8927 3.71091 37.8911H3.98695C3.96771 37.9578 3.92618 38.016 3.86927 38.0558C3.81236 38.0957 3.74351 38.1149 3.67419 38.1101H3.61594V38.3786H3.65266C3.99328 38.357 4.19968 38.1912 4.26932 37.8898H7.09305C7.39948 37.8898 7.55523 37.6999 7.55523 37.3314V35.8904H7.28931V37.2389ZM4.02494 37.6125H3.7185C3.66785 37.6116 3.61841 37.5968 3.57555 37.5698C3.53269 37.5428 3.49805 37.5046 3.47538 37.4593C3.42381 37.3673 3.3976 37.2633 3.39941 37.1579C3.39974 37.0548 3.42914 36.9538 3.48425 36.8667C3.50915 36.8233 3.54486 36.787 3.58791 36.7615C3.63095 36.736 3.67987 36.7221 3.7299 36.721C3.7718 36.7187 3.8137 36.7257 3.85249 36.7417C3.89129 36.7577 3.92599 36.7822 3.95403 36.8135C4.00145 36.8692 4.0267 36.9404 4.02494 37.0135V37.6099V37.6125Z" fill="#5E5F61"/>
<path d="M8.15155 35.8904H7.88058V37.8872H8.15155V35.8904Z" fill="#5E5F61"/>
<path d="M9.01429 37.8417C9.12522 37.8485 9.23463 37.8132 9.32072 37.743C9.29033 37.9886 9.16751 38.1102 8.94085 38.1102H8.9092V38.3786H8.94592C9.38657 38.352 9.5917 38.1064 9.5917 37.6011V37.158C9.5917 36.754 9.34605 36.459 9.00923 36.459C8.67241 36.459 8.42169 36.7414 8.42169 37.1491C8.42169 37.5568 8.66861 37.843 9.00923 37.843L9.01429 37.8417ZM8.99783 36.7097C9.18904 36.7097 9.32706 36.8971 9.32706 37.158C9.32706 37.4188 9.20043 37.5923 9.01303 37.5923C8.82562 37.5923 8.68634 37.4011 8.68634 37.1453C8.68634 36.8895 8.81296 36.7097 8.99783 36.7097" fill="#5E5F61"/>
<path d="M14.5904 38.0229H14.3182V38.3433H14.5904V38.0229Z" fill="#5E5F61"/>
<path d="M14.21 38.0229H13.9378V38.3433H14.21V38.0229Z" fill="#5E5F61"/>
<path d="M15.5657 38.0229H15.2922V38.3433H15.5657V38.0229Z" fill="#5E5F61"/>
<path d="M15.184 38.0229H14.9118V38.3433H15.184V38.0229Z" fill="#5E5F61"/>
<path d="M15.1051 37.8885C15.4103 37.8885 15.566 37.6986 15.566 37.3289V36.4678H15.2976V37.2377C15.3047 37.3301 15.2899 37.423 15.2545 37.5087C15.2331 37.5462 15.2008 37.5764 15.162 37.5954C15.1232 37.6144 15.0795 37.6212 15.0367 37.615H14.9101H14.5492C14.5785 37.5234 14.5917 37.4275 14.5885 37.3314V36.4704H14.32V37.2415C14.3268 37.3343 14.3121 37.4275 14.277 37.5137C14.2556 37.5506 14.2237 37.5802 14.1853 37.5987C14.1469 37.6172 14.1039 37.6238 14.0617 37.6176H13.9579H13.5071C13.5373 37.524 13.5514 37.4259 13.5489 37.3276V36.4666H13.283V37.2377C13.283 37.5581 13.2007 37.6176 13.0234 37.6176H12.7233C12.7507 37.5251 12.7639 37.4291 12.7625 37.3327V36.4729H12.4916V37.2428C12.4916 37.5644 12.4282 37.6226 12.2763 37.6226H11.9521C11.9721 37.5273 11.9818 37.4301 11.9813 37.3327V36.4779H11.7027V37.4074C11.6672 37.8632 11.4494 38.1241 11.124 38.1241C10.7682 38.1241 10.5377 37.7974 10.5377 37.2921V36.4779H10.268V37.3276C10.268 37.9329 10.6352 38.3874 11.124 38.3874C11.2817 38.3857 11.4355 38.338 11.5665 38.25C11.6974 38.162 11.7998 38.0377 11.861 37.8923H15.1051V37.8885Z" fill="#5E5F61"/>
<path d="M17.8588 35.7612H17.5878V36.0841H17.8588V35.7612Z" fill="#5E5F61"/>
<path d="M17.4731 35.7612H17.2009V36.0841H17.4731V35.7612Z" fill="#5E5F61"/>
<path d="M20.6636 37.2389C20.671 37.3312 20.6572 37.4239 20.623 37.5099C20.6021 37.5473 20.5703 37.5773 20.5318 37.5961C20.4934 37.6149 20.4501 37.6215 20.4078 37.615H20.3128H19.9671C19.9791 37.5571 19.9846 37.4981 19.9836 37.439C19.9927 37.2563 19.9356 37.0765 19.8228 36.9325C19.7645 36.8644 19.6914 36.8106 19.6091 36.7753C19.5268 36.74 19.4374 36.724 19.3479 36.7286C19.2582 36.7245 19.1687 36.7404 19.0859 36.7752C19.0031 36.8101 18.9291 36.8629 18.8693 36.93C18.7537 37.073 18.6931 37.2527 18.6983 37.4365C18.6983 37.4948 18.7046 37.553 18.7173 37.6099H18.0298C17.9531 37.6105 17.877 37.5963 17.8056 37.5682C17.9135 37.5075 18.0041 37.4203 18.069 37.3149C18.1399 37.1953 18.1775 37.0589 18.1779 36.9198C18.173 36.7881 18.1297 36.6606 18.0533 36.5531C17.9769 36.4456 17.8707 36.3629 17.7479 36.3149C17.625 36.267 17.4908 36.2561 17.3618 36.2835C17.2328 36.3109 17.1146 36.3754 17.0218 36.4691C16.9088 36.5916 16.8475 36.7531 16.8509 36.9198C16.8518 37.059 16.8898 37.1954 16.9611 37.3149C17.0258 37.42 17.1159 37.5071 17.2232 37.5682C17.153 37.5957 17.0783 37.6099 17.0028 37.6099H16.6369C16.4976 37.6099 16.4736 37.6099 16.4558 37.6099C16.4279 37.608 16.4006 37.6 16.376 37.5867C16.3513 37.5734 16.3297 37.555 16.3127 37.5327C16.27 37.4464 16.2512 37.3502 16.2583 37.2541V35.8904H15.9823V37.3808C15.9771 37.4501 15.9866 37.5198 16.0101 37.5853C16.0337 37.6507 16.0708 37.7105 16.119 37.7606C16.1551 37.801 16.1994 37.8332 16.249 37.855C16.2986 37.8769 16.3523 37.8879 16.4064 37.8873H16.8382C16.953 37.8903 17.0678 37.8835 17.1814 37.867C17.3028 37.8408 17.4188 37.7941 17.5245 37.729C17.6289 37.794 17.7437 37.8407 17.8639 37.867C17.9779 37.8836 18.0931 37.8904 18.2083 37.8873H18.8326C18.8898 37.9711 18.9679 38.0385 19.0592 38.0829C19.1505 38.1273 19.2517 38.1472 19.353 38.1405C19.4521 38.1456 19.5508 38.1249 19.6396 38.0806C19.7284 38.0362 19.8041 37.9696 19.8595 37.8873H20.4812C20.7877 37.8873 20.9409 37.6973 20.9409 37.3276V35.8904H20.6712V37.2389H20.6636ZM17.5182 37.4124C17.4034 37.3645 17.305 37.2845 17.2346 37.182C17.1744 37.0957 17.1418 36.9933 17.1409 36.8882C17.1378 36.8378 17.1456 36.7874 17.1637 36.7404C17.1818 36.6933 17.2098 36.6507 17.2458 36.6154C17.2819 36.5801 17.3251 36.5529 17.3725 36.5357C17.4199 36.5186 17.4705 36.5118 17.5207 36.5159C17.5726 36.5138 17.6243 36.5226 17.6725 36.5418C17.7207 36.561 17.7644 36.5902 17.8006 36.6273C17.8642 36.7 17.8977 36.7942 17.8943 36.8907C17.8936 36.9967 17.861 37.1 17.8006 37.187C17.7311 37.2861 17.6356 37.3641 17.5245 37.4124H17.5182ZM19.353 37.8923C19.3022 37.8958 19.2515 37.886 19.2057 37.8638C19.1599 37.8416 19.1208 37.8077 19.0922 37.7657C19.0359 37.6723 19.0086 37.5644 19.0136 37.4555C19.0066 37.3404 19.0339 37.2258 19.0922 37.1262C19.1205 37.0809 19.1605 37.0438 19.2079 37.0189C19.2552 36.994 19.3084 36.9821 19.3619 36.9844C19.4117 36.98 19.4617 36.9895 19.5064 37.0118C19.5512 37.0342 19.5888 37.0685 19.6151 37.111C19.668 37.2033 19.6935 37.3087 19.6886 37.4149C19.6886 37.7378 19.5784 37.8911 19.3555 37.8911" fill="#5E5F61"/>
<path d="M21.5305 35.8916H21.2608V37.8885H21.5305V35.8916Z" fill="#5E5F61"/>
<path d="M22.6992 37.7429C22.6701 37.9961 22.5473 38.1101 22.3282 38.1101H22.294V38.3785H22.3307C22.7701 38.3545 22.9765 38.1088 22.9765 37.6036V37.1604C22.9765 36.7565 22.7309 36.4614 22.394 36.4614C22.0572 36.4614 21.8052 36.7438 21.8052 37.1515C21.8052 37.5593 22.0585 37.8454 22.394 37.8454C22.5046 37.8524 22.6137 37.8171 22.6992 37.7467V37.7429ZM22.0661 37.1477C22.0661 36.8945 22.1927 36.7109 22.3776 36.7109C22.5625 36.7109 22.7068 36.9021 22.7068 37.1591C22.7068 37.4162 22.5802 37.5947 22.3915 37.5947C22.2028 37.5947 22.0661 37.4073 22.0661 37.1477" fill="#5E5F61"/>
<path d="M25.866 37.3276V36.4666H25.5976V37.2377C25.5976 37.5581 25.5191 37.6176 25.3443 37.6176H24.4985C24.1072 37.6176 23.916 37.4137 23.916 36.9933V36.4666H23.645V36.9882C23.645 37.5846 23.9401 37.8885 24.5187 37.8885H25.4127C25.6216 37.8885 25.8686 37.7898 25.8686 37.3289" fill="#5E5F61"/>
<path d="M25.0979 36.2107H24.8256V36.5311H25.0979V36.2107Z" fill="#5E5F61"/>
<path d="M24.7167 36.2107H24.4419V36.5311H24.7167V36.2107Z" fill="#5E5F61"/>
<path d="M28.0911 37.8682C28.2042 37.8848 28.3186 37.8915 28.4329 37.8885H31.0237V37.8555C31.0363 37.715 31.0389 37.6023 31.0389 37.5073C31.0389 36.816 30.7932 36.4665 30.307 36.4665C29.9917 36.4665 29.6625 36.6855 29.4447 37.0401V36.6108H29.1737V37.1794C29.1737 37.4719 29.0838 37.6124 28.8964 37.6124H28.2531C28.1768 37.6139 28.1009 37.5997 28.0303 37.5706C28.1391 37.5107 28.2303 37.4234 28.2949 37.3174C28.3658 37.1982 28.4034 37.0622 28.4038 36.9236C28.3992 36.7915 28.3559 36.6638 28.2794 36.556C28.203 36.4483 28.0966 36.3653 27.9735 36.3174C27.8504 36.2694 27.7159 36.2586 27.5867 36.2862C27.4575 36.3138 27.3392 36.3787 27.2465 36.4728C27.1338 36.5955 27.073 36.757 27.0768 36.9236C27.0781 37.0625 27.1166 37.1984 27.1882 37.3174C27.2524 37.4234 27.3432 37.5107 27.4516 37.5706C27.3802 37.6 27.3034 37.6142 27.2262 37.6124H26.6817C26.6539 37.6106 26.6268 37.6027 26.6023 37.5894C26.5778 37.5761 26.5566 37.5576 26.5399 37.5352C26.4986 37.4484 26.4798 37.3526 26.4855 37.2566V35.8916H26.2107V37.3807C26.2061 37.4499 26.2157 37.5194 26.239 37.5847C26.2623 37.6501 26.2988 37.7099 26.3462 37.7606C26.3823 37.801 26.4266 37.8331 26.4762 37.855C26.5258 37.8768 26.5795 37.8878 26.6336 37.8872H27.0578C27.1726 37.8903 27.2874 37.8835 27.401 37.8669C27.5227 37.8407 27.6392 37.794 27.7454 37.7289C27.8495 37.7936 27.9638 37.8403 28.0835 37.8669L28.0911 37.8682ZM29.3966 37.601C29.5498 37.1237 29.9575 36.7147 30.2918 36.7147C30.583 36.7147 30.7641 36.997 30.7641 37.4529C30.7641 37.5035 30.7641 37.5542 30.7641 37.6086H29.4042V37.596L29.3966 37.601ZM27.463 37.1806C27.402 37.0948 27.3693 36.9921 27.3693 36.8869C27.3664 36.8375 27.3739 36.788 27.3914 36.7418C27.409 36.6955 27.4361 36.6535 27.471 36.6185C27.5059 36.5834 27.5479 36.5562 27.594 36.5385C27.6402 36.5208 27.6897 36.5131 27.739 36.5159C27.7911 36.5131 27.8431 36.5215 27.8915 36.5405C27.94 36.5595 27.9839 36.5887 28.0202 36.626C28.0846 36.6983 28.1191 36.7925 28.1164 36.8894C28.1148 36.9952 28.0813 37.0981 28.0202 37.1844C27.9516 37.2842 27.8564 37.3627 27.7454 37.4111C27.6307 37.3636 27.5325 37.2835 27.463 37.1806" fill="#5E5F61"/>
<path d="M27.8867 35.76H27.6132V36.0804H27.8867V35.76Z" fill="#5E5F61"/>
<path d="M31.6313 35.8904H31.3616V37.8872H31.6313V35.8904Z" fill="#5E5F61"/>
<path d="M36.8417 37.3276V35.8904H36.5719V37.2389C36.5785 37.3313 36.5642 37.4239 36.5302 37.5099C36.509 37.547 36.4771 37.5769 36.4387 37.5956C36.4003 37.6144 36.3572 37.6211 36.3149 37.615H36.2161H35.854C35.8814 37.523 35.8946 37.4274 35.8932 37.3314V35.8904H35.621V37.2389C35.6276 37.3316 35.6138 37.4245 35.5805 37.5112C35.5587 37.5483 35.5263 37.578 35.4875 37.5965C35.4487 37.615 35.4052 37.6214 35.3627 37.615H35.2715H34.9233C34.9356 37.5572 34.9416 37.4981 34.941 37.439C34.9498 37.2562 34.8922 37.0763 34.7789 36.9325C34.7209 36.8641 34.6479 36.8101 34.5655 36.7748C34.4831 36.7394 34.3936 36.7236 34.3041 36.7286C34.2147 36.7242 34.1255 36.7401 34.0431 36.7749C33.9606 36.8098 33.8871 36.8628 33.828 36.93C33.7128 37.0731 33.6526 37.2528 33.6583 37.4365C33.6588 37.4946 33.6639 37.5526 33.6735 37.6099H33.3291H33.0759V37.087C33.0759 36.6881 32.8745 36.4602 32.5187 36.4602C32.434 36.4598 32.3503 36.4781 32.2734 36.5138C32.1966 36.5495 32.1286 36.6016 32.0743 36.6666C31.9623 36.8113 31.9009 36.9888 31.8995 37.1718C31.8981 37.3548 31.9568 37.5332 32.0667 37.6796C32.1172 37.7447 32.1822 37.7971 32.2564 37.8327C32.3307 37.8683 32.4123 37.8861 32.4946 37.8847H32.7682C32.7494 37.9518 32.708 38.0104 32.651 38.0506C32.594 38.0907 32.5249 38.11 32.4554 38.1051H32.3959V38.3735H32.4301C32.7732 38.352 32.9809 38.1848 33.0505 37.8835H33.7723C33.8309 37.965 33.9081 38.0315 33.9975 38.0773C34.0869 38.1231 34.1859 38.1471 34.2864 38.1471C34.3868 38.1471 34.4859 38.1231 34.5752 38.0773C34.6646 38.0315 34.7418 37.965 34.8005 37.8835H36.3807C36.6872 37.8835 36.8417 37.6948 36.8417 37.325V37.3276ZM32.501 37.6112C32.4504 37.6107 32.4009 37.5963 32.358 37.5695C32.3151 37.5426 32.2805 37.5045 32.2579 37.4593C32.2051 37.3673 32.1788 37.2626 32.1819 37.1566C32.1812 37.0528 32.2112 36.951 32.268 36.8641C32.2925 36.8207 32.3279 36.7845 32.3708 36.7592C32.4137 36.7338 32.4626 36.7203 32.5124 36.7198C32.5539 36.7175 32.5954 36.7246 32.6338 36.7406C32.6721 36.7566 32.7064 36.7811 32.734 36.8122C32.7825 36.8673 32.8079 36.9389 32.8049 37.0123V37.6087L32.501 37.6112ZM34.2952 37.8885C34.2447 37.8914 34.1944 37.8813 34.1489 37.8591C34.1034 37.837 34.0644 37.8035 34.0357 37.7619C33.9815 37.6678 33.9551 37.5602 33.9597 37.4517C33.9538 37.337 33.9801 37.2229 34.0357 37.1224C34.0649 37.0774 34.1054 37.0409 34.1532 37.0164C34.2009 36.992 34.2543 36.9805 34.3079 36.9832C34.3578 36.9776 34.4083 36.9867 34.4532 37.0091C34.4981 37.0316 34.5356 37.0665 34.5612 37.1098C34.6157 37.2013 34.6414 37.3073 34.6346 37.4137C34.6346 37.7366 34.527 37.8898 34.3003 37.8898" fill="#5E5F61"/>
<path d="M38.6171 35.7131H38.3436V36.0335H38.6171V35.7131Z" fill="#5E5F61"/>
<path d="M38.2322 35.7131H37.9599V36.0335H38.2322V35.7131Z" fill="#5E5F61"/>
<path d="M39.4948 38.0229H39.2225V38.3433H39.4948V38.0229Z" fill="#5E5F61"/>
<path d="M39.881 38.0229H39.6062V38.3433H39.881V38.0229Z" fill="#5E5F61"/>
<path d="M39.4189 37.8873C39.7253 37.8873 39.8798 37.6986 39.8798 37.3289V36.4678H39.6101V37.2377C39.6168 37.33 39.6025 37.4227 39.5683 37.5087C39.5476 37.5463 39.5158 37.5766 39.4773 37.5956C39.4388 37.6146 39.3955 37.6214 39.353 37.6151H39.0896C38.8731 37.6151 38.7478 37.4555 38.7478 37.1744V36.188H38.0969C37.7512 36.188 37.5106 36.4995 37.5106 36.9477C37.5106 37.3694 37.7487 37.6885 38.0627 37.6885C38.1449 37.695 38.2274 37.6813 38.3031 37.6486C38.3788 37.616 38.4454 37.5653 38.497 37.5011C38.5346 37.6206 38.6108 37.7242 38.7138 37.7955C38.8167 37.8668 38.9405 37.9018 39.0656 37.8949H39.4189V37.8873ZM38.473 36.8984C38.473 37.2706 38.3552 37.4517 38.1298 37.4517C37.9298 37.4517 37.7791 37.225 37.7791 36.9275C37.7791 36.6299 37.9298 36.4045 38.1336 36.4045H38.473V36.8984Z" fill="#5E5F61"/>
<path d="M40.5178 36.4653H40.4836V36.7274H40.5912C40.6957 36.7269 40.7985 36.7537 40.8893 36.8052C40.9802 36.8568 41.056 36.9313 41.1091 37.0212C41.2031 37.2039 41.2501 37.4071 41.2459 37.6125H40.167V37.8886H41.5308V37.8531C41.5451 37.557 41.499 37.261 41.3953 36.9832C41.2408 36.6401 40.9483 36.4653 40.5228 36.4653" fill="#5E5F61"/>
<path d="M48.692 37.3276V35.8904H48.4223V37.2377C48.4305 37.3296 48.4161 37.4222 48.3805 37.5074C48.3598 37.5451 48.3282 37.5756 48.2897 37.5948C48.2512 37.614 48.2078 37.6211 48.1653 37.615H48.0665H47.6106C47.6386 37.5231 47.6519 37.4274 47.6499 37.3314V36.4703H47.3827V37.2402C47.3827 37.5644 47.3067 37.6201 47.1219 37.6201H46.823C46.8498 37.5279 46.863 37.4324 46.8623 37.3364V36.4754H46.5976V37.2453C46.5976 37.5694 46.5343 37.6251 46.3811 37.6251H46.0418C46.0717 37.5336 46.0863 37.4378 46.0848 37.3415V36.4805H45.8088V37.2782C45.8088 37.501 45.7138 37.6251 45.5365 37.6251H44.9426C44.866 37.6293 44.7892 37.625 44.7135 37.6125C44.6479 37.5907 44.5903 37.5502 44.5476 37.496C44.6863 37.3831 44.8086 37.2514 44.911 37.1047C44.9815 36.9986 45.0445 36.8878 45.0997 36.773L45.1111 36.7502L45.0908 36.7324C44.8719 36.5433 44.5925 36.4387 44.3032 36.4374C44.0377 36.4403 43.7789 36.5209 43.5586 36.6691L43.5434 36.6793V36.954L43.5637 36.9654C43.8062 37.0635 44.0123 37.2342 44.1538 37.4542C44.0852 37.5057 44.0103 37.5482 43.9309 37.5808C43.8491 37.6067 43.7635 37.6191 43.6777 37.6175H43.1914H42.9483V37.0946C42.9483 36.697 42.747 36.4678 42.3899 36.4678C42.3051 36.4675 42.2214 36.486 42.1447 36.5222C42.068 36.5583 42.0004 36.6111 41.9467 36.6767C41.8298 36.8191 41.7686 36.9991 41.7745 37.1832C41.7677 37.3658 41.8251 37.545 41.9366 37.6897C41.9874 37.7541 42.0522 37.8059 42.1262 37.8413C42.2002 37.8766 42.2813 37.8945 42.3633 37.8936H42.6393C42.6213 37.961 42.5803 38.0199 42.5234 38.0604C42.4666 38.1008 42.3974 38.1202 42.3278 38.1152H42.2683V38.3836H42.3051C42.6469 38.3621 42.8533 38.1975 42.9192 37.8948H43.6789C43.9151 37.9005 44.1456 37.8224 44.3298 37.6745C44.38 37.7438 44.4461 37.8 44.5226 37.8383C44.599 37.8767 44.6836 37.8961 44.7692 37.8948H48.2311C48.5388 37.8948 48.692 37.7049 48.692 37.3352V37.3276ZM42.6723 37.6125H42.3684C42.3175 37.6126 42.2676 37.5983 42.2246 37.5711C42.1815 37.544 42.1471 37.5052 42.1252 37.4593C42.0722 37.3678 42.0455 37.2635 42.048 37.1579C42.047 37.0544 42.0769 36.9529 42.1341 36.8667C42.1584 36.8233 42.1936 36.787 42.2363 36.7615C42.2789 36.7359 42.3275 36.722 42.3772 36.721C42.4189 36.7186 42.4607 36.7256 42.4993 36.7416C42.5379 36.7576 42.5724 36.7822 42.6001 36.8135C42.6482 36.8694 42.6739 36.9411 42.6723 37.0148V37.6099V37.6125ZM44.369 37.2782C44.2949 37.1742 44.21 37.0783 44.1158 36.992C44.0303 36.9189 43.9348 36.8583 43.8321 36.8122C43.9462 36.743 44.0742 36.6999 44.2069 36.6861C44.3396 36.6723 44.4737 36.6881 44.5995 36.7324C44.6172 36.7438 44.6805 36.773 44.7869 36.8236C44.68 37.0028 44.5368 37.1576 44.3665 37.2782" fill="#5E5F61"/>
<path d="M49.2893 35.8916H49.0183V37.8885H49.2893V35.8916Z" fill="#5E5F61"/>
<path d="M50.7106 35.7131H50.4383V36.0335H50.7106V35.7131Z" fill="#5E5F61"/>
<path d="M51.0943 35.7131H50.822V36.0335H51.0943V35.7131Z" fill="#5E5F61"/>
<path d="M52.3408 36.3144H51.942C51.9279 36.2843 51.921 36.2514 51.9217 36.2182C51.9217 36.0662 51.985 36.0472 52.0344 36.0472C52.0838 36.0472 52.123 36.0586 52.1382 36.1511V36.184L52.3484 36.1561L52.3408 36.1232C52.3307 36.0491 52.2927 35.9817 52.2346 35.9346C52.1765 35.8875 52.1026 35.8644 52.0281 35.8699C51.9804 35.8672 51.9328 35.8755 51.8889 35.8941C51.8449 35.9128 51.8059 35.9414 51.7748 35.9776C51.7235 36.0486 51.6964 36.1343 51.6976 36.222C51.6969 36.2543 51.702 36.2865 51.7128 36.3169H51.5862V36.5297H52.3358V36.3144H52.3408Z" fill="#5E5F61"/>
<path d="M53.3006 38.0229H53.0258V38.3433H53.3006V38.0229Z" fill="#5E5F61"/>
<path d="M52.9177 38.0229H52.6454V38.3433H52.9177V38.0229Z" fill="#5E5F61"/>
<path d="M56.1192 37.239C56.1275 37.3312 56.1141 37.424 56.0799 37.51C56.0581 37.5474 56.0256 37.5774 55.9865 37.5962C55.9475 37.6149 55.9037 37.6215 55.8609 37.6151H55.8241H55.4962C55.4962 37.5607 55.4962 37.5062 55.4962 37.448C55.5052 37.1758 55.4325 36.9072 55.2872 36.6768C55.122 36.4325 54.8736 36.2565 54.5883 36.1817L54.549 36.1741V36.4552H54.5743C54.8002 36.5407 54.9881 36.704 55.1042 36.9157C55.2203 37.1274 55.2569 37.3737 55.2075 37.61H54.882C54.9525 37.4961 54.9882 37.3641 54.9846 37.2302C54.9846 36.8668 54.7643 36.6198 54.4376 36.6198C54.1109 36.6198 53.8754 36.8731 53.8754 37.2365C53.8714 37.3701 53.9062 37.502 53.9754 37.6164H53.6247H53.2613C53.2895 37.525 53.3027 37.4296 53.3005 37.334V36.4717H53.0308V37.2428C53.0369 37.3353 53.0236 37.4281 52.9915 37.5151C52.9688 37.5516 52.9361 37.5808 52.8973 37.5992C52.8584 37.6176 52.8151 37.6244 52.7725 37.6189H52.6699H52.3065C52.3346 37.5275 52.3474 37.4321 52.3445 37.3365V36.6274H52.0748V37.2454C52.0807 37.3377 52.0678 37.4304 52.0368 37.5176C52.0141 37.5541 51.9814 37.5833 51.9425 37.6017C51.9037 37.6201 51.8604 37.627 51.8177 37.6214H51.5708C51.3556 37.6214 51.2327 37.4619 51.2327 37.1808V36.1881H50.5819C50.2362 36.1881 49.9956 36.4983 49.9956 36.9478C49.9956 37.3707 50.2311 37.6911 50.5452 37.6911C50.6279 37.6967 50.7108 37.6826 50.787 37.6498C50.8632 37.6169 50.9305 37.5664 50.9833 37.5024C51.02 37.6218 51.0957 37.7254 51.1984 37.7966C51.301 37.8678 51.4246 37.9024 51.5493 37.8949H55.9292C56.1394 37.8949 56.3889 37.7987 56.3889 37.3378V35.8943H56.1192V37.239V37.239ZM50.9554 36.8984C50.9554 37.2707 50.8377 37.4518 50.6148 37.4518C50.416 37.4518 50.2615 37.2251 50.2615 36.9275C50.2615 36.63 50.4122 36.4046 50.6186 36.4046H50.9554V36.8984ZM54.4351 37.6126C54.2641 37.6126 54.1565 37.4708 54.1565 37.2504C54.1565 37.1061 54.1945 36.8604 54.4452 36.8604C54.6668 36.8604 54.7111 37.0592 54.7111 37.2213C54.7111 37.5708 54.5528 37.6126 54.4351 37.6126Z" fill="#5E5F61"/>
<path d="M56.9792 35.8904H56.712V37.8872H56.9792V35.8904Z" fill="#5E5F61"/>
<path d="M0.754394 40.0741C0.638197 40.0372 0.529961 39.9788 0.4353 39.9019C0.412537 39.8805 0.394478 39.8546 0.382271 39.8258C0.370063 39.797 0.363974 39.766 0.364391 39.7348C0.364391 39.5626 0.512541 39.4435 0.72527 39.4435C0.865792 39.4421 1.0016 39.4941 1.10514 39.5892L1.15833 39.6309L1.29635 39.4803L1.3242 39.441L1.29002 39.4068C1.21418 39.3308 1.12333 39.2713 1.02327 39.2323C0.923206 39.1933 0.816113 39.1755 0.708809 39.1802C0.328936 39.1802 0.0756867 39.4106 0.0756867 39.7424C0.0722272 39.8088 0.0824701 39.8752 0.105779 39.9375C0.129087 39.9998 0.164963 40.0567 0.211175 40.1045C0.328734 40.2101 0.466009 40.2915 0.615107 40.3438C0.736673 40.3862 0.84983 40.4496 0.949396 40.5312C0.975784 40.5565 0.996878 40.5867 1.01144 40.6202C1.02601 40.6537 1.03376 40.6897 1.03423 40.7262C1.03423 40.9478 0.889882 41.0707 0.640432 41.0707C0.480493 41.063 0.327298 41.0039 0.203577 40.9022L0.161791 40.8731L0.0351669 41.0529L0.00984192 41.0947L0.0503617 41.1276C0.219319 41.2722 0.434549 41.3512 0.656893 41.3505C1.07096 41.3505 1.34067 41.0972 1.34067 40.711C1.34059 40.6365 1.32541 40.5627 1.29603 40.4941C1.26665 40.4256 1.22368 40.3637 1.16972 40.3122C1.05039 40.2089 0.911829 40.1301 0.761991 40.0805" fill="#5E5F61"/>
<path d="M2.22532 39.7336C2.03759 39.7292 1.85327 39.7841 1.69856 39.8906L1.66817 39.9222L1.76441 40.0818L1.79733 40.1261L1.84165 40.0982C1.95184 40.032 2.07778 39.9966 2.20633 39.9957C2.28892 39.9876 2.37144 40.0116 2.43678 40.0628C2.4849 40.1134 2.4925 40.1894 2.4925 40.3249H2.47097C2.25445 40.3249 1.59727 40.3249 1.59727 40.8479C1.59556 40.914 1.60764 40.9798 1.63272 41.0411C1.65781 41.1023 1.69536 41.1577 1.74299 41.2037C1.79062 41.2496 1.84729 41.2852 1.9094 41.3081C1.97151 41.331 2.0377 41.3407 2.10376 41.3366C2.24407 41.3349 2.38202 41.3002 2.50643 41.2353V41.3075H2.78627V40.3325C2.78627 40.1122 2.76601 39.9931 2.65964 39.883C2.60145 39.8295 2.53283 39.7886 2.45809 39.7629C2.38335 39.7372 2.3041 39.7272 2.22532 39.7336V39.7336ZM2.4925 40.9745C2.3854 41.0319 2.2669 41.0647 2.14555 41.0707C1.91129 41.0707 1.8923 40.9162 1.8923 40.8491C1.8923 40.6706 2.0873 40.5794 2.47097 40.5794H2.49756L2.4925 40.9745Z" fill="#5E5F61"/>
<path d="M4.04056 40.9503C3.92563 41.0204 3.7951 41.0609 3.66068 41.068C3.62707 41.0694 3.59352 41.0641 3.562 41.0523C3.53048 41.0406 3.50161 41.0227 3.47708 40.9997C3.4087 40.9313 3.4087 40.8173 3.4087 40.673V39.7664H3.12126V40.6806C3.10933 40.7704 3.11598 40.8617 3.14081 40.9488C3.16565 41.036 3.20813 41.1171 3.26561 41.1871C3.31628 41.2349 3.37596 41.2722 3.44118 41.2968C3.50639 41.3213 3.57584 41.3327 3.64549 41.3302C3.78765 41.3279 3.9273 41.2923 4.05322 41.2263V41.3023H4.32293V39.7664H4.04056V40.9503Z" fill="#5E5F61"/>
<path d="M5.6568 39.7792C5.57063 39.7465 5.47924 39.7297 5.38709 39.7298C4.9401 39.7298 4.62734 40.0717 4.62734 40.5579C4.62734 41.0213 4.90212 41.3341 5.30858 41.3341C5.4351 41.3326 5.55936 41.3005 5.67073 41.2404V41.305H5.95183V39.0498H5.6568V39.7792ZM5.6568 40.9568C5.56229 41.0293 5.44667 41.0688 5.32758 41.0695C5.08825 41.0695 4.92364 40.8669 4.92364 40.563C4.92364 40.216 5.10472 39.9919 5.38709 39.9919C5.48194 39.9918 5.57508 40.0172 5.6568 40.0653V40.9568Z" fill="#5E5F61"/>
<path d="M6.61757 39.7664H6.33266V41.3036H6.61757V39.7664Z" fill="#5E5F61"/>
<path d="M8.45288 40.0741C8.33781 40.0364 8.23054 39.978 8.13632 39.9019C8.09176 39.8576 8.06631 39.7976 8.06541 39.7348C8.06541 39.5626 8.21483 39.4435 8.42756 39.4435C8.56801 39.4425 8.70369 39.4945 8.80743 39.5892L8.86188 39.631L8.98851 39.4739L9.01636 39.4347L8.98471 39.4005C8.90837 39.3251 8.81744 39.2661 8.7175 39.2272C8.61756 39.1882 8.5107 39.17 8.4035 39.1738C8.02362 39.1738 7.77037 39.4043 7.77037 39.7361C7.76346 39.8687 7.80893 39.9988 7.897 40.0982C8.01574 40.2042 8.15433 40.2855 8.30473 40.3375C8.42411 40.3813 8.53537 40.4446 8.63396 40.5249C8.66109 40.5497 8.68285 40.5798 8.69788 40.6134C8.71291 40.6469 8.72089 40.6832 8.72133 40.7199C8.72133 40.9415 8.57571 41.0644 8.32879 41.0644C8.16875 41.0571 8.01542 40.998 7.89193 40.896L7.84761 40.8668L7.72099 41.0466L7.69693 41.0884L7.72985 41.1213C7.90492 41.2682 8.1269 41.3473 8.35538 41.3442C8.77324 41.3442 9.04042 41.091 9.04042 40.7047C9.04082 40.6303 9.0261 40.5566 8.99715 40.488C8.9682 40.4195 8.92563 40.3575 8.87201 40.3059C8.75135 40.2017 8.61097 40.1229 8.45921 40.0741" fill="#5E5F61"/>
<path d="M10.1109 41.0237C10.1026 41.0285 10.0936 41.032 10.0843 41.0338C10.0283 41.0549 9.96927 41.0665 9.90952 41.068C9.86457 41.0723 9.81961 41.0601 9.7829 41.0338C9.74364 40.9958 9.74364 40.9072 9.74364 40.811V40.0196H10.2008V39.7663H9.74364V39.3599H9.45874V39.7663H9.20549V40.0196H9.45874V40.8122C9.45874 40.9895 9.45874 41.1212 9.55751 41.2187C9.60168 41.2598 9.65377 41.2914 9.7106 41.3117C9.76743 41.3319 9.82779 41.3404 9.888 41.3365C9.99512 41.3384 10.101 41.3131 10.1957 41.263L10.2387 41.2402L10.1615 41.0161L10.1109 41.0237Z" fill="#5E5F61"/>
<path d="M11.0191 39.7335C10.8307 39.7303 10.6459 39.7851 10.4898 39.8906L10.4607 39.9222L10.5556 40.0818L10.5873 40.1261L10.6341 40.0982C10.7441 40.0325 10.8695 39.9971 10.9976 39.9957C11.0813 39.9881 11.1648 40.0121 11.2318 40.0628C11.2761 40.1134 11.285 40.1894 11.285 40.3249H11.2723C11.0558 40.3249 10.3961 40.3249 10.3961 40.8479C10.3944 40.914 10.4065 40.9798 10.4316 41.0411C10.4566 41.1023 10.4942 41.1577 10.5418 41.2037C10.5895 41.2496 10.6461 41.2852 10.7082 41.3081C10.7703 41.331 10.8365 41.3407 10.9026 41.3366C11.0422 41.3354 11.1794 41.3006 11.3027 41.2353V41.3075H11.5724V40.3325C11.5724 40.1122 11.5547 39.9931 11.4458 39.883C11.3886 39.8304 11.3212 39.79 11.2478 39.7643C11.1745 39.7386 11.0966 39.7282 11.0191 39.7335V39.7335ZM11.285 40.9745C11.1794 41.0321 11.062 41.065 10.9418 41.0707C10.7051 41.0707 10.6886 40.9162 10.6886 40.8491C10.6886 40.6706 10.8811 40.5794 11.266 40.5794H11.2913V40.9745H11.285Z" fill="#5E5F61"/>
<path d="M12.6234 39.7335C12.4787 39.7364 12.3366 39.7724 12.208 39.8386V39.7703H11.9307V41.3087H12.2169V40.1134C12.3325 40.0449 12.4627 40.0045 12.5968 39.9956C12.6647 39.9944 12.7309 40.0178 12.7829 40.0615C12.85 40.1286 12.85 40.2362 12.85 40.3983V41.3049H13.1362V40.3894C13.1362 40.1235 13.1159 39.9918 12.988 39.8678C12.8886 39.7751 12.7566 39.7255 12.6208 39.7297" fill="#5E5F61"/>
<path d="M14.446 39.7792C14.3617 39.7481 14.2725 39.7327 14.1826 39.7336C13.7395 39.7336 13.4229 40.0755 13.4229 40.5617C13.4229 41.0251 13.6964 41.3379 14.1029 41.3379C14.2299 41.3369 14.3547 41.3047 14.4663 41.2442V41.3088H14.7373V39.0498H14.4486V39.7792H14.446ZM14.446 40.9568C14.353 41.0293 14.2386 41.0689 14.1206 41.0695C13.8762 41.0695 13.7129 40.8669 13.7129 40.563C13.7129 40.216 13.8952 39.9919 14.1763 39.9919C14.2712 39.9914 14.3645 40.0168 14.446 40.0653V40.9517V40.9568Z" fill="#5E5F61"/>
<path d="M15.6568 39.7335C15.4687 39.7295 15.2841 39.7844 15.1288 39.8905L15.0971 39.9222L15.1959 40.0817L15.2275 40.126L15.2744 40.0982C15.384 40.0318 15.5096 39.9964 15.6378 39.9956C15.7204 39.9875 15.8029 40.0116 15.8682 40.0627C15.9176 40.1134 15.924 40.1893 15.924 40.3248H15.9037C15.6872 40.3248 15.03 40.3248 15.03 40.8478C15.0283 40.914 15.0404 40.9798 15.0654 41.041C15.0905 41.1023 15.1281 41.1576 15.1757 41.2036C15.2233 41.2496 15.28 41.2851 15.3421 41.308C15.4042 41.3309 15.4704 41.3406 15.5365 41.3366C15.6755 41.3346 15.8122 41.2999 15.9354 41.2353V41.3074H16.2089V40.3324C16.2089 40.1121 16.1911 39.9931 16.0822 39.8829C16.0254 39.8305 15.9585 39.7902 15.8855 39.7645C15.8126 39.7388 15.7352 39.7282 15.658 39.7335H15.6568ZM15.9252 40.9744C15.8186 41.0318 15.7005 41.0647 15.5795 41.0707C15.344 41.0707 15.32 40.9162 15.32 40.8491C15.32 40.6705 15.5162 40.5793 15.8986 40.5793H15.9252V40.9744Z" fill="#5E5F61"/>
<path d="M17.2474 39.7335C17.1016 39.7305 16.9601 39.7825 16.851 39.8791V39.7703H16.5712V41.3087H16.8586V40.216C16.8971 40.1496 16.9526 40.0946 17.0193 40.0568C17.0861 40.0189 17.1618 39.9996 17.2385 40.0007C17.2751 40.0011 17.3115 40.0049 17.3474 40.0121H17.3968L17.45 39.8209L17.4576 39.7728L17.4158 39.7538C17.3624 39.7338 17.3055 39.7252 17.2486 39.7285" fill="#5E5F61"/>
<path d="M18.532 39.7792C18.4459 39.7465 18.3545 39.7297 18.2623 39.7298C17.8179 39.7298 17.5026 40.0717 17.5026 40.5579C17.5026 41.0213 17.7748 41.3341 18.1825 41.3341C18.3091 41.333 18.4334 41.3008 18.5447 41.2404V41.305H18.8144V39.0498H18.5282V39.7792H18.532ZM18.532 40.9568C18.439 41.0293 18.3246 41.0689 18.2066 41.0695C17.9622 41.0695 17.7989 40.8669 17.7989 40.563C17.7989 40.216 17.9799 39.9919 18.2623 39.9919C18.3571 39.992 18.4502 40.0174 18.532 40.0653V40.9517V40.9568Z" fill="#5E5F61"/>
<path d="M19.7438 40.3895L19.6577 40.3553C19.5133 40.2983 19.4348 40.2603 19.4348 40.1527C19.4348 40.0451 19.5614 39.9932 19.6881 39.9932C19.7998 39.9963 19.9088 40.0282 20.0046 40.0856L20.0502 40.1147L20.168 39.902L20.1389 39.8754C20.0041 39.7763 19.8401 39.7251 19.6729 39.7298C19.3601 39.7298 19.1436 39.9058 19.1436 40.1603C19.1436 40.4503 19.355 40.5402 19.5716 40.6199L19.6159 40.6377C19.778 40.6972 19.8932 40.7478 19.8932 40.8783C19.8932 41.0555 19.6931 41.0733 19.6045 41.0733C19.4779 41.0671 19.3548 41.0297 19.2462 40.9644L19.1968 40.934L19.0701 41.1568L19.1018 41.1872C19.2555 41.2861 19.4344 41.3384 19.6172 41.3379C19.9666 41.3379 20.1844 41.1568 20.1844 40.8605C20.1844 40.5642 19.9312 40.4629 19.74 40.3895" fill="#5E5F61"/>
<path d="M20.5819 41.054C20.5822 41.2196 20.5289 41.3809 20.43 41.5137L20.3983 41.5555L20.5541 41.6821L20.5959 41.7036L20.6288 41.6745C20.7156 41.5936 20.7846 41.4955 20.8314 41.3865C20.8783 41.2776 20.902 41.16 20.901 41.0414V40.9705H20.5819V41.054Z" fill="#5E5F61"/>
<path d="M23.8007 39.2092L23.2259 40.8186L22.6332 39.2092H22.3331L22.0938 41.3049H22.3762L22.5395 39.7765L23.0929 41.3049H23.3259L23.8767 39.7765L24.0438 41.3049H24.3503L24.1034 39.2092H23.8007Z" fill="#5E5F61"/>
<path d="M25.3571 39.7334C24.9304 39.7334 24.6518 40.0538 24.6518 40.5476C24.6518 41.0414 24.9329 41.339 25.3647 41.339C25.5631 41.343 25.7576 41.283 25.9193 41.1681L25.9358 41.1415L25.8408 40.9743L25.8041 40.9325L25.7572 40.9604C25.6418 41.0274 25.5108 41.0627 25.3774 41.063C25.1241 41.063 24.962 40.9022 24.943 40.6299H25.9624V40.5755C25.9624 40.5577 25.9624 40.5362 25.9624 40.5159C25.9624 40.4957 25.9624 40.4868 25.9624 40.4818C25.9624 40.0272 25.718 39.7334 25.3444 39.7334H25.3571ZM24.9443 40.3665C24.9507 40.2637 24.9961 40.1672 25.0711 40.0967C25.1462 40.0261 25.2452 39.9868 25.3482 39.9866C25.5749 39.9866 25.6572 40.2006 25.6686 40.3665H24.9443Z" fill="#5E5F61"/>
<path d="M27.0113 41.0237C27.0026 41.0276 26.9937 41.031 26.9847 41.0338C26.9291 41.0545 26.8705 41.0661 26.8112 41.068C26.7663 41.0716 26.7216 41.0595 26.6846 41.0338C26.6493 40.9652 26.6365 40.8873 26.6478 40.811V40.0196H27.0986V39.7663H26.6428V39.3599H26.3579V39.7663H26.1046V40.0196H26.3579V40.8123C26.3579 40.9895 26.3579 41.1212 26.4541 41.2187C26.4986 41.2597 26.551 41.2912 26.608 41.3114C26.665 41.3317 26.7255 41.3402 26.7859 41.3365C26.893 41.3381 26.9988 41.3129 27.0936 41.263L27.1354 41.2402L27.0568 41.0161L27.0113 41.0237Z" fill="#5E5F61"/>
<path d="M28.0941 39.7334C27.9485 39.7312 27.8073 39.7831 27.6977 39.8791V39.7702H27.423V41.3086H27.7066V40.2159C27.7453 40.1496 27.8008 40.0948 27.8675 40.057C27.9343 40.0192 28.0098 39.9998 28.0865 40.0006C28.1235 40.001 28.1604 40.0048 28.1966 40.012H28.2435L28.2967 39.8208L28.3043 39.7727L28.2638 39.7537C28.2099 39.734 28.1526 39.7253 28.0953 39.7284" fill="#5E5F61"/>
<path d="M29.0705 39.7334C28.6387 39.7334 28.3576 40.05 28.3576 40.5387C28.3576 41.0275 28.6299 41.3415 29.0541 41.3415C29.4782 41.3415 29.7619 41.0313 29.7619 40.5501C29.7619 40.069 29.4896 39.7334 29.0705 39.7334ZM29.0604 41.0756C28.816 41.0756 28.6476 40.8528 28.6476 40.5324C28.6476 40.212 28.8046 39.9955 29.0579 39.9955C29.3111 39.9955 29.4694 40.2222 29.4694 40.5438C29.4694 40.8654 29.3174 41.0756 29.0604 41.0756" fill="#5E5F61"/>
<path d="M30.3446 39.0486H30.0597V41.3038H30.3446V39.0486Z" fill="#5E5F61"/>
<path d="M31.3669 39.7334C30.9351 39.7334 30.6565 40.05 30.6565 40.5387C30.6565 41.0275 30.9275 41.3415 31.353 41.3415C31.7784 41.3415 32.0595 41.0313 32.0595 40.5501C32.0595 40.069 31.786 39.7334 31.3669 39.7334ZM31.358 41.0756C31.1175 41.0756 30.9452 40.8528 30.9452 40.5324C30.9452 40.212 31.1023 39.9955 31.358 39.9955C31.6138 39.9955 31.7696 40.2222 31.7696 40.5438C31.7696 40.8654 31.6151 41.0756 31.358 41.0756" fill="#5E5F61"/>
<path d="M33.556 39.8525C33.3985 39.7735 33.2256 39.7303 33.0495 39.7258C32.6075 39.7258 32.2897 40.069 32.2897 40.5426C32.2897 40.9832 32.5708 41.3023 32.9532 41.3023C33.0789 41.3012 33.2027 41.2718 33.3154 41.2162V41.2352C33.3154 41.4631 33.3154 41.5429 33.2394 41.6151C33.1997 41.652 33.1523 41.6796 33.1006 41.6961C33.049 41.7125 32.9943 41.7172 32.9406 41.71C32.7986 41.707 32.6605 41.663 32.543 41.5834L32.4873 41.5492L32.3606 41.7518L32.391 41.7847C32.5518 41.9113 32.7512 41.9788 32.9558 41.9759C33.0477 41.9836 33.1402 41.9719 33.2274 41.9419C33.3146 41.9118 33.3946 41.8639 33.4623 41.8012C33.5889 41.6746 33.6091 41.515 33.6091 41.2656V39.9056L33.599 39.8664L33.556 39.8525ZM33.3154 40.9313C33.2139 40.999 33.0955 41.0372 32.9735 41.0415C32.7405 41.0415 32.5822 40.8427 32.5822 40.5438C32.5822 40.2108 32.7646 39.9968 33.0469 39.9968C33.1401 39.9959 33.2326 40.0131 33.3192 40.0475V40.9338L33.3154 40.9313Z" fill="#5E5F61"/>
<path d="M34.6512 40.9035L34.1991 39.7639H33.8877L34.4967 41.2834C34.4573 41.4151 34.3909 41.5372 34.3017 41.6417C34.2491 41.6871 34.1812 41.7107 34.1118 41.7076C34.0525 41.7077 33.9936 41.6987 33.937 41.681L33.8737 41.6607L33.8091 41.8557L33.8015 41.9077L33.8484 41.9241C33.9323 41.9619 34.0235 41.9809 34.1156 41.9798C34.2594 41.9825 34.3987 41.9294 34.5043 41.8317C34.6253 41.6993 34.7149 41.5413 34.7664 41.3695L35.3578 39.7639H35.0577L34.6512 40.9035Z" fill="#5E5F61"/>
<path d="M36.9103 39.7335C36.7225 39.7287 36.538 39.7836 36.3835 39.8905L36.3544 39.9221L36.4481 40.0817L36.481 40.126L36.5266 40.0981C36.636 40.0322 36.7611 39.9968 36.8888 39.9956C36.9722 39.9872 37.0556 40.0113 37.1218 40.0627C37.1711 40.1133 37.1775 40.1893 37.1775 40.3248H37.1585C36.9394 40.3248 36.281 40.3248 36.281 40.8478C36.2795 40.9139 36.2917 40.9796 36.3168 41.0408C36.342 41.1019 36.3795 41.1572 36.4271 41.2031C36.4747 41.2491 36.5313 41.2846 36.5933 41.3076C36.6553 41.3305 36.7214 41.3404 36.7875 41.3365C36.927 41.3351 37.0642 41.3004 37.1876 41.2352V41.3074H37.4586V40.3324C37.4586 40.1121 37.4396 39.993 37.332 39.8829C37.2753 39.831 37.2087 39.791 37.1363 39.7654C37.0639 39.7397 36.987 39.7288 36.9103 39.7335V39.7335ZM37.1775 40.9744C37.0718 41.0318 36.9545 41.0647 36.8343 41.0706C36.5988 41.0706 36.5722 40.9161 36.5722 40.849C36.5722 40.6705 36.7685 40.5793 37.1509 40.5793H37.1775V40.9744Z" fill="#5E5F61"/>
<path d="M38.5194 39.7335C38.3745 39.7376 38.2323 39.7735 38.1028 39.8386V39.7703H37.8255V41.3088H38.1129V40.1134C38.2285 40.0449 38.3587 40.0045 38.4928 39.9957C38.5601 39.9939 38.6255 40.0174 38.6764 40.0615C38.7422 40.1286 38.7422 40.2362 38.7422 40.3983V41.305H39.0284V40.3895C39.0284 40.1235 39.0081 39.9906 38.8828 39.8665C38.7835 39.7747 38.652 39.7255 38.5168 39.7297" fill="#5E5F61"/>
<path d="M40.3418 39.7792C40.2552 39.7465 40.1634 39.7297 40.0708 39.7298C39.6276 39.7298 39.3111 40.0717 39.3111 40.5579C39.3111 41.0213 39.5846 41.3341 39.9923 41.3341C40.1188 41.3326 40.2431 41.3005 40.3545 41.2404V41.305H40.6254V39.0498H40.3418V39.7792ZM40.3418 40.9568C40.248 41.0288 40.1333 41.0684 40.0151 41.0695C39.772 41.0695 39.6074 40.8669 39.6074 40.563C39.6074 40.216 39.7897 39.9919 40.0708 39.9919C40.166 39.9923 40.2594 40.0176 40.3418 40.0653V40.9568Z" fill="#5E5F61"/>
<path d="M43.5447 41.4481H43.5194C43.4706 41.4531 43.4216 41.4556 43.3725 41.4557C43.1912 41.472 43.0105 41.4196 42.866 41.3088C43.3865 41.2189 43.6194 40.7251 43.6194 40.2477C43.6194 39.6234 43.2307 39.1714 42.7014 39.1714C42.1455 39.1714 41.7543 39.6234 41.7543 40.2718C41.7543 40.8808 42.1253 41.2506 42.4988 41.3126C42.584 41.445 42.7029 41.5524 42.8434 41.6236C42.9838 41.6948 43.1407 41.7273 43.2978 41.7178C43.3909 41.7179 43.4838 41.709 43.5751 41.6912L43.622 41.6786L43.5878 41.4456L43.5447 41.4481ZM42.067 40.2502C42.067 39.7627 42.3102 39.4436 42.6837 39.4436C43.0572 39.4436 43.3168 39.7716 43.3168 40.2363C43.3168 40.7428 43.0788 41.0682 42.6951 41.0682C42.3329 41.0682 42.0696 40.7238 42.0696 40.2502" fill="#5E5F61"/>
<path d="M44.8609 40.9503C44.6228 41.0769 44.405 41.1124 44.2923 40.9997C44.224 40.9313 44.224 40.8173 44.224 40.673V39.7664H43.9378V40.6806C43.9257 40.7703 43.9321 40.8616 43.9567 40.9487C43.9814 41.0358 44.0236 41.117 44.0809 41.1871C44.1835 41.2832 44.3202 41.3347 44.4608 41.3302C44.6035 41.3281 44.7437 41.292 44.8698 41.2251V41.301H45.1395V39.7664H44.8558V40.9503H44.8609Z" fill="#5E5F61"/>
<path d="M46.0678 39.7335C45.8796 39.7284 45.6947 39.7834 45.5398 39.8905L45.5107 39.9196L45.6044 40.0817L45.6386 40.126L45.6816 40.0982C45.7919 40.0321 45.9178 39.9967 46.0463 39.9956C46.129 39.9869 46.2117 40.011 46.2768 40.0627C46.3249 40.1134 46.335 40.1894 46.335 40.3248H46.3122C46.097 40.3248 45.4373 40.3248 45.4373 40.8478C45.4358 40.914 45.448 40.9797 45.4731 41.041C45.4982 41.1022 45.5358 41.1576 45.5833 41.2036C45.6309 41.2496 45.6875 41.2853 45.7495 41.3084C45.8115 41.3315 45.8777 41.3415 45.9437 41.3378C46.0825 41.3359 46.219 41.3021 46.3426 41.2391V41.3074H46.6161V40.3324C46.6161 40.1121 46.5959 39.9931 46.4895 39.8829C46.4324 39.8309 46.3654 39.7909 46.2925 39.7652C46.2197 39.7396 46.1424 39.7288 46.0653 39.7335H46.0678ZM46.3325 40.9744C46.2257 41.0315 46.1077 41.0643 45.9868 41.0707C45.7513 41.0707 45.726 40.9162 45.726 40.8491C45.726 40.6705 45.9197 40.5794 46.3021 40.5794H46.3325V40.9744Z" fill="#5E5F61"/>
<path d="M47.2712 39.0486H46.985V41.3038H47.2712V39.0486Z" fill="#5E5F61"/>
<path d="M47.9423 39.7664H47.6573V41.3036H47.9423V39.7664Z" fill="#5E5F61"/>
<path d="M49.0874 41.0237C49.079 41.0281 49.07 41.0315 49.0608 41.0339C49.0049 41.0548 48.9458 41.0663 48.8861 41.068C48.8413 41.071 48.7967 41.059 48.7595 41.0339C48.7202 40.9959 48.724 40.9072 48.724 40.811V40.0196H49.1824V39.7663H48.724V39.3599H48.4353V39.7663H48.1821V40.0196H48.4353V40.8123C48.4353 40.9895 48.4353 41.1212 48.5366 41.2187C48.5808 41.2598 48.6329 41.2914 48.6897 41.3116C48.7466 41.3318 48.8069 41.3403 48.8671 41.3365C48.9742 41.3381 49.08 41.3129 49.1748 41.263L49.2153 41.2403L49.1368 41.0161L49.0874 41.0237Z" fill="#5E5F61"/>
<path d="M50.1172 40.9035L49.6652 39.7639H49.3562L49.964 41.2834C49.9249 41.415 49.8589 41.537 49.7702 41.6418C49.7163 41.6874 49.6471 41.7109 49.5765 41.7076C49.5173 41.7076 49.4584 41.6986 49.4018 41.681L49.341 41.6608L49.2777 41.8558L49.2675 41.9077L49.3144 41.9241C49.3984 41.9619 49.4895 41.9809 49.5816 41.9798C49.7251 41.9828 49.8641 41.9297 49.9691 41.8317C50.0919 41.7006 50.1817 41.5422 50.2312 41.3695L50.8238 39.7639H50.5237L50.1172 40.9035Z" fill="#5E5F61"/>
<path d="M52.7386 39.1738C52.184 39.1738 51.7928 39.6259 51.7928 40.2742C51.7928 40.8909 52.1802 41.3391 52.7159 41.3391C53.2515 41.3391 53.6567 40.8909 53.6567 40.2501C53.6567 39.6094 53.2705 39.1738 52.7386 39.1738ZM52.7285 41.0732C52.3651 41.0732 52.103 40.7288 52.103 40.2552C52.103 39.7816 52.3461 39.4486 52.7184 39.4486C53.0907 39.4486 53.3515 39.7753 53.3515 40.2413C53.3515 40.7478 53.116 41.0732 52.7336 41.0732" fill="#5E5F61"/>
<path d="M54.6715 39.7335C54.5247 39.7309 54.3821 39.7828 54.2713 39.8791V39.7702H53.9966V41.3087H54.2802V40.2159C54.3194 40.1502 54.375 40.0957 54.4416 40.058C54.5082 40.0202 54.5835 40.0005 54.6601 40.0007C54.6966 40.0011 54.7331 40.005 54.769 40.0121H54.8146L54.869 39.8209L54.8766 39.7728L54.8373 39.7538C54.7838 39.7346 54.727 39.726 54.6702 39.7284" fill="#5E5F61"/>
<path d="M55.691 39.7335C55.2503 39.7335 54.9312 40.0766 54.9312 40.5502C54.9312 40.9909 55.2085 41.3099 55.5947 41.3099C55.72 41.3089 55.8434 41.2795 55.9556 41.2238V41.2428C55.9556 41.4708 55.9556 41.5505 55.8784 41.6227C55.8383 41.6581 55.7911 41.6846 55.7401 41.7006C55.689 41.7165 55.6352 41.7215 55.5821 41.7151C55.4397 41.7124 55.3011 41.6684 55.1832 41.5885L55.1287 41.5543L55.0021 41.7569L55.0312 41.7898C55.1923 41.9167 55.3923 41.9838 55.5973 41.9798C55.689 41.9869 55.7813 41.9751 55.8684 41.9453C55.9555 41.9155 56.0356 41.8682 56.1038 41.8063C56.2304 41.6797 56.2519 41.5189 56.2519 41.2707V39.8702L56.2038 39.85C56.0452 39.7753 55.8726 39.7347 55.6973 39.731L55.691 39.7335ZM55.9581 40.9313C55.8563 40.9993 55.7374 41.0375 55.615 41.0415C55.3833 41.0415 55.2275 40.8427 55.2275 40.5439C55.2275 40.2109 55.4073 39.9969 55.6884 39.9969C55.7808 39.996 55.8724 40.0132 55.9581 40.0475V40.9339V40.9313Z" fill="#5E5F61"/>
<path d="M6.61757 39.1726H6.33266V39.5044H6.61757V39.1726Z" fill="#5E5F61"/>
<path d="M47.9423 39.1726H47.6573V39.5044H47.9423V39.1726Z" fill="#5E5F61"/>
<path d="M56.9831 40.9529H56.6628V41.3264H56.9831V40.9529Z" fill="#5E5F61"/>
</g>
<defs>
<linearGradient id="paint0_linear_1_956" x1="30.5397" y1="14.8152" x2="38.199" y2="10.6165" gradientUnits="userSpaceOnUse">
<stop stop-color="#00ADEE"/>
<stop offset="1" stop-color="#00457C"/>
</linearGradient>
<linearGradient id="paint1_linear_1_956" x1="23.4377" y1="14.6285" x2="17.6456" y2="11.2058" gradientUnits="userSpaceOnUse">
<stop stop-color="#7BC043"/>
<stop offset="1" stop-color="#006225"/>
</linearGradient>
<linearGradient id="paint2_linear_1_956" x1="27.3523" y1="20.0025" x2="27.2993" y2="26.7304" gradientUnits="userSpaceOnUse">
<stop stop-color="#A29061"/>
<stop offset="1" stop-color="#794400"/>
</linearGradient>
<clipPath id="clip0_1_956">
<rect width="56.9831" height="41.9818" fill="white"/>
</clipPath>
</defs>
</svg>
