<svg width="207" height="42" viewBox="0 0 207 42" fill="none" xmlns="http://www.w3.org/2000/svg">
<path d="M141.83 23.4729C142.572 23.4729 143.173 22.8718 143.173 22.1302C143.173 21.3887 142.572 20.7876 141.83 20.7876C141.089 20.7876 140.487 21.3887 140.487 22.1302C140.487 22.8718 141.089 23.4729 141.83 23.4729Z" fill="#06324C"/>
<path d="M16.0845 23.5244C16.8261 23.5244 17.4272 22.9233 17.4272 22.1818C17.4272 21.4402 16.8261 20.8391 16.0845 20.8391C15.343 20.8391 14.7419 21.4402 14.7419 22.1818C14.7419 22.9233 15.343 23.5244 16.0845 23.5244Z" fill="#06324C"/>
<path d="M12.7513 23.5244C13.4928 23.5244 14.094 22.9233 14.094 22.1818C14.094 21.4402 13.4928 20.8391 12.7513 20.8391C12.0098 20.8391 11.4087 21.4402 11.4087 22.1818C11.4087 22.9233 12.0098 23.5244 12.7513 23.5244Z" fill="#06324C"/>
<path d="M15.6951 16.7598H13.8619C12.7258 16.7598 11.6413 16.3725 10.7634 15.6753V15.1331V9.45265H5.85757C3.14644 9.45265 0.951721 11.6474 0.951721 14.3585V14.5134C0.951721 17.2245 3.14644 19.4193 5.85757 19.4193C7.1744 19.4193 8.38795 18.9029 9.26584 18.025C10.5827 19.0062 12.1577 19.5226 13.8619 19.5226H18.4579V9.24609H15.6951V16.7598ZM8.00065 14.4876C8.00065 15.6753 7.0453 16.6307 5.85757 16.6307C4.66984 16.6307 3.71449 15.6753 3.71449 14.4876V14.3327C3.71449 13.145 4.66984 12.1896 5.85757 12.1896H8.00065V14.4876Z" fill="#06324C"/>
<path d="M23.9043 9.03931H22.226V11.8021H23.9043C25.4535 11.8021 26.7187 13.0673 26.7187 14.6165V16.7596H20.8575V19.5223H29.4815V14.6165C29.4556 11.5439 26.9769 9.03931 23.9043 9.03931Z" fill="#06324C"/>
<path d="M75.1597 16.7338H71.7514C71.235 16.6563 70.8477 16.1916 70.8477 15.6493V11.5956V9.81396H68.085V11.5956V15.6493C68.085 16.2432 67.5944 16.7338 67.0005 16.7338H66.1485C65.5546 16.7338 65.064 16.2432 65.064 15.6493V10.5886H62.3012V15.6493C62.3012 16.2432 61.8107 16.7338 61.2168 16.7338H60.6746C60.0807 16.7338 59.5901 16.2432 59.5901 15.6493V11.5956H59.5643H56.8015H56.7757V15.6493C56.7757 16.1141 56.4659 16.5272 56.0527 16.6822L49.6493 16.6563C48.4874 15.6752 47.3255 14.3067 47.3255 13.6095C47.3255 12.4476 48.5132 11.8021 49.3395 11.8021C50.3206 11.8021 51.6633 12.4218 52.0764 12.6542L53.4191 10.2529C53.1867 10.1238 51.2243 9.03936 49.3395 9.03936C48.2034 9.03936 47.0415 9.4783 46.1636 10.2271C45.1308 11.105 44.5885 12.2927 44.5885 13.6095C44.5885 14.6682 45.1566 15.7268 45.8279 16.6563L41.077 16.6305V9.42666H36.1711C33.46 9.42666 31.2653 11.6214 31.2653 14.3325V14.4874C31.2653 17.1986 33.46 19.3933 36.1711 19.3933H38.2626C38.1077 20.1937 37.6945 21.0716 36.5843 21.2265L36.9457 23.9635C38.8823 23.7053 40.2507 22.4917 40.8188 20.5294C40.9221 20.1421 40.9995 19.7548 41.0512 19.4191L55.149 19.4707V19.5482H55.6913C56.6466 19.5482 57.4987 19.2125 58.17 18.6445C58.8413 19.2125 59.7192 19.5482 60.6487 19.5482H61.191C62.1205 19.5482 62.9984 19.2125 63.6697 18.6445C64.341 19.2125 65.1931 19.5482 66.1485 19.5482H67.0005C67.93 19.5482 68.8079 19.2125 69.4793 18.6445C70.0215 19.1093 70.7186 19.4191 71.4674 19.5224V19.5482H71.6223C71.7256 19.5482 71.8289 19.574 71.958 19.574H72.5002V19.5482L77.9225 19.574V5.19214H75.1597V16.7338ZM38.3142 16.6305H36.1711C34.9834 16.6305 34.0281 15.6752 34.0281 14.4874V14.3325C34.0281 13.1448 34.9834 12.1894 36.1711 12.1894H38.3142V16.6305Z" fill="#06324C"/>
<path d="M83.8096 5.19214H81.0468V19.4966H83.8096V5.19214Z" fill="#06324C"/>
<path d="M158.817 5.19214H156.055V19.4966H158.817V5.19214Z" fill="#06324C"/>
<path d="M103.818 16.7596H94.3163C93.6966 16.7596 93.206 16.269 93.206 15.6493V13.5579H90.4432V15.6493C90.4432 17.7924 92.1732 19.5224 94.3163 19.5224H106.581V5.19214H103.818V16.7596Z" fill="#06324C"/>
<path d="M100.724 11.9314H98.0904V11.2601C98.0904 10.6146 98.6068 10.0724 99.2782 10.0724H100.311V8.29077H99.2782C97.6515 8.29077 96.3347 9.6076 96.3347 11.2343V13.6872H100.75V11.9314H100.724Z" fill="#06324C"/>
<path d="M110.066 19.6256C110.066 20.0904 109.911 20.5035 109.627 20.8134C109.395 21.0716 109.111 21.2265 108.775 21.2523L109.033 23.9892C110.066 23.886 110.97 23.4212 111.693 22.6466C112.416 21.8462 112.829 20.7617 112.829 19.5998V9.58154H110.066V19.6256Z" fill="#06324C"/>
<path d="M150.451 16.7596H146.604C146.526 14.5133 145.906 12.7317 144.77 11.4406C143.247 9.73651 141.414 9.60741 141.207 9.60741H136.095V12.3702H141.078C141.207 12.396 142.033 12.5251 142.705 13.2997C143.376 14.0743 143.763 15.262 143.841 16.7854H134.7C134.494 16.7338 133.771 16.5014 133.254 15.4428H133.229C133.254 15.2362 133.28 15.0038 133.28 14.7715C133.28 11.8796 131.06 9.52994 128.297 9.52994C125.56 9.52994 123.314 11.8796 123.314 14.7715C123.314 15.0813 123.34 15.3653 123.391 15.6752C122.901 16.5272 122.255 16.7338 122.074 16.7854H118.873V5.19214H116.11V19.4966H122.255H122.307C122.875 19.4449 123.83 19.1351 124.682 18.3605C125.586 19.3675 126.877 19.9871 128.297 19.9871C129.769 19.9871 131.086 19.3158 131.989 18.2572C132.893 19.0834 133.874 19.4191 134.468 19.4707H146.061H153.239V5.19214H150.477V16.7596H150.451ZM128.349 17.1727C127.135 17.1727 126.128 16.0883 126.128 14.7456C126.128 13.403 127.109 12.3185 128.349 12.3185C129.562 12.3185 130.569 13.403 130.569 14.7456C130.569 16.0883 129.562 17.1727 128.349 17.1727Z" fill="#06324C"/>
<path d="M9.67819 7.69679C10.4197 7.69679 11.0208 7.09566 11.0208 6.35413C11.0208 5.6126 10.4197 5.01147 9.67819 5.01147C8.93667 5.01147 8.33554 5.6126 8.33554 6.35413C8.33554 7.09566 8.93667 7.69679 9.67819 7.69679Z" fill="#06324C"/>
<path d="M6.34924 7.69679C7.09077 7.69679 7.6919 7.09566 7.6919 6.35413C7.6919 5.6126 7.09077 5.01147 6.34924 5.01147C5.60772 5.01147 5.00659 5.6126 5.00659 6.35413C5.00659 7.09566 5.60772 7.69679 6.34924 7.69679Z" fill="#06324C"/>
<path d="M190.241 0.00219727C190.241 0.00219727 179.189 0.00219874 175.884 3.12645C175.316 3.66867 175.007 4.41746 175.007 5.21789V6.53473C175.007 6.53473 180.48 2.09364 189.259 5.19207C189.285 5.19207 189.879 0.931726 190.241 0.00219727Z" fill="#77DCD2"/>
<path d="M185.335 7.10287C185.335 7.10287 179.654 5.24381 175.007 8.13568V13.3256C175.007 13.2997 178.828 8.5488 185.335 7.10287Z" fill="#77DCD2"/>
<path d="M184.922 10.5627C184.922 10.5627 179.448 10.9759 175.033 15.3911V21.6655C175.033 21.6655 175.214 25.5385 175.756 26.4164C175.756 26.4164 182.237 25.0479 189.311 29.9538C189.311 29.9538 189.647 29.2308 189.647 27.5009C189.647 25.7709 189.75 14.7714 189.75 14.7714C189.75 14.7714 186.678 17.276 185.748 21.0974C185.748 21.0974 185.619 22.1302 185.103 22.1302C184.586 22.1302 184.612 20.581 184.974 19.0576C185.335 17.5084 186.187 15.0813 187.53 13.2481C187.53 13.2481 183.424 13.6612 180.558 19.5998C180.558 19.5998 180.3 20.6326 179.732 20.4519C179.164 20.2712 179.758 14.694 184.922 10.5627Z" fill="#2BB9AE"/>
<path d="M176.013 27.6558C176.013 27.6558 178.105 33.8526 182.365 37.1318C182.365 37.1318 184.999 36.2023 188.769 32.6649C188.794 32.6649 183.837 28.1722 176.013 27.6558Z" fill="#189391"/>
<path d="M191.401 0.00219727C191.401 0.00219727 202.452 0.00219874 205.757 3.12645C206.325 3.66867 206.635 4.41746 206.635 5.21789V6.53473C206.635 6.53473 201.161 2.09364 192.382 5.19207C192.382 5.19207 191.762 0.931726 191.401 0.00219727Z" fill="#77DCD2"/>
<path d="M196.333 7.10287C196.333 7.10287 202.013 5.24381 206.661 8.13568V13.3256C206.635 13.2997 202.84 8.5488 196.333 7.10287Z" fill="#77DCD2"/>
<path d="M196.747 10.5627C196.747 10.5627 202.221 10.9759 206.636 15.3911V21.6655C206.636 21.6655 206.456 25.5385 205.913 26.4164C205.913 26.4164 199.433 25.0479 192.358 29.9538C192.358 29.9538 192.022 29.2308 192.022 27.5009C192.022 25.7709 191.919 14.7714 191.919 14.7714C191.919 14.7714 194.991 17.276 195.921 21.0974C195.921 21.0974 196.05 22.1302 196.566 22.1302C197.083 22.1302 197.057 20.581 196.696 19.0576C196.334 17.5342 195.482 15.0813 194.139 13.2481C194.139 13.2481 198.245 13.6612 201.111 19.5998C201.111 19.5998 201.369 20.6326 201.937 20.4519C202.505 20.2712 201.911 14.694 196.747 10.5627Z" fill="#29BBAB"/>
<path d="M205.628 27.6558C205.628 27.6558 203.537 33.8526 199.277 37.1318C199.277 37.1318 196.643 36.2023 192.873 32.6649C192.873 32.6649 197.831 28.1722 205.628 27.6558Z" fill="#189391"/>
<path d="M190.836 34.1367C187.195 37.6225 184.665 38.8877 184.665 38.8877C186.472 40.2819 189.261 41.4438 190.371 41.8828C190.655 42.0119 190.991 42.0119 191.3 41.8828C192.385 41.4438 195.199 40.2561 197.007 38.8877C196.981 38.8877 194.476 37.6225 190.836 34.1367Z" fill="#0B746F"/>
<path d="M158.996 32.9746C158.738 32.6389 158.428 32.3807 158.067 32.2516C157.705 32.0967 157.292 31.9676 156.853 31.8643C156.414 31.761 156.001 31.6577 155.64 31.5803C155.278 31.5028 154.942 31.3995 154.71 31.2446C154.452 31.0897 154.349 30.8573 154.349 30.5991C154.349 29.9536 154.813 29.6437 155.743 29.6437C156.801 29.6437 157.344 30.031 157.395 30.8315H159.074C159.048 30.0052 158.738 29.3597 158.196 28.9208C157.628 28.456 156.879 28.2236 155.898 28.2236C154.839 28.2236 154.039 28.4302 153.471 28.8691C152.903 29.2823 152.644 29.9019 152.644 30.7024C152.644 31.1671 152.748 31.5544 152.928 31.8643C153.109 32.1741 153.342 32.4065 153.651 32.5872C153.935 32.7422 154.271 32.8713 154.633 32.9746C154.994 33.0778 155.355 33.1553 155.691 33.2328C156.053 33.3102 156.362 33.3619 156.672 33.4393C156.956 33.5168 157.215 33.6459 157.395 33.8008C157.576 33.9557 157.679 34.1623 157.679 34.4205C157.679 35.1176 157.189 35.4791 156.208 35.4791C155.071 35.4791 154.426 35.0402 154.297 34.1365H152.541C152.593 35.0144 152.903 35.6857 153.522 36.1763C154.116 36.6669 154.968 36.8992 156.027 36.8992C157.111 36.8992 157.938 36.6669 158.531 36.1763C159.125 35.7115 159.435 35.066 159.435 34.2397C159.358 33.7233 159.229 33.3102 158.996 32.9746Z" fill="black"/>
<path d="M61.1374 28.4304H59.7173H59.6398L56.1283 36.6671H57.7033L58.4521 34.808H60.4403H62.4284L63.1772 36.6671H64.7522L61.2149 28.4304H61.1374ZM60.4144 33.5428H58.9943L60.3886 30.212V30.1862V30.212L61.7829 33.5428H60.4144Z" fill="black"/>
<path d="M72.0348 33.3363C72.0348 34.6015 71.0019 35.6343 69.7368 35.6343C68.4716 35.6343 67.4388 34.6015 67.4388 33.3363V28.4304H66.0703V33.3363C66.0703 35.3761 67.7228 37.0028 69.7368 37.0028C71.7766 37.0028 73.4032 35.3503 73.4032 33.3363V28.4304H72.0348V33.3363Z" fill="black"/>
<path d="M111.073 33.3363C111.073 34.6015 110.04 35.6343 108.775 35.6343C107.51 35.6343 106.477 34.6015 106.477 33.3363V28.4304H105.108V33.3363C105.108 35.3761 106.761 37.0028 108.775 37.0028C110.789 37.0028 112.441 35.3503 112.441 33.3363V28.4304H111.073V33.3363Z" fill="black"/>
<path d="M79.3131 28.4561H75.8274V36.7185H79.3131C81.4045 36.7185 83.0828 35.0144 83.0828 32.9488V32.2516C83.1087 30.1344 81.4045 28.4561 79.3131 28.4561ZM81.7144 32.923C81.7144 34.2398 80.6299 35.3243 79.3131 35.3243H77.2217V29.8245H79.3131C80.6299 29.8245 81.7144 30.909 81.7144 32.2258V32.923Z" fill="black"/>
<path d="M87.0073 28.4304H85.6388V36.6929H87.0073V28.4304Z" fill="black"/>
<path d="M98.989 29.6181C100.254 29.6181 101.339 30.4444 101.752 31.5804H103.146C102.707 29.6956 101.003 28.3013 98.989 28.3013C96.6393 28.3013 94.7286 30.212 94.7286 32.5616C94.7286 34.9113 96.6393 36.822 98.989 36.822C101.003 36.822 102.681 35.4277 103.146 33.5428H101.752C101.339 34.6789 100.254 35.5051 98.989 35.5051C97.3623 35.5051 96.0455 34.1883 96.0455 32.5616C96.0455 30.9349 97.3623 29.6181 98.989 29.6181Z" fill="black"/>
<path d="M122.72 29.773H125.689V36.667H127.083V29.773H129.975V28.4045H122.72V29.773Z" fill="black"/>
<path d="M135.419 28.2236C133.018 28.2236 131.082 30.1601 131.082 32.5614C131.082 34.9627 133.018 36.8992 135.419 36.8992C137.821 36.8992 139.757 34.9627 139.757 32.5614C139.757 30.1601 137.795 28.2236 135.419 28.2236ZM135.419 35.5049C133.793 35.5049 132.476 34.1881 132.476 32.5614C132.476 30.9348 133.793 29.6179 135.419 29.6179C137.046 29.6179 138.363 30.9348 138.363 32.5614C138.363 34.1881 137.046 35.5049 135.419 35.5049Z" fill="black"/>
<path d="M146.035 33.5168L142.782 28.4561H141.827V36.6669H143.195V31.8127L145.571 35.3243H146.526L148.876 31.7611V36.6669H150.27V28.4561H149.16L146.035 33.5168Z" fill="black"/>
<path d="M53.6243 32.3549C53.2628 32.2 52.8496 32.0709 52.4107 31.9676C51.9718 31.8643 51.5844 31.761 51.1971 31.6835C50.8098 31.6061 50.4742 31.477 50.216 31.3221C49.932 31.1413 49.8029 30.8831 49.8029 30.5991C49.8029 29.8761 50.3193 29.5405 51.3262 29.5405C52.3849 29.5405 52.9787 29.9536 53.082 30.7282H54.5538C54.5021 30.0052 54.2181 29.4114 53.7275 28.9982C53.1853 28.5593 52.4365 28.3269 51.4812 28.3269C50.4484 28.3269 49.6737 28.5335 49.1315 28.9466C48.5893 29.3597 48.3311 29.9278 48.3311 30.7024C48.3311 31.1413 48.4086 31.5028 48.5893 31.8126C48.77 32.0967 48.9766 32.3291 49.2606 32.484C49.5446 32.6389 49.8545 32.768 50.216 32.8713C50.5775 32.9746 50.9389 33.052 51.2746 33.1295C51.6361 33.2069 51.9459 33.2586 52.2558 33.336C52.5656 33.4135 52.8238 33.5426 53.0046 33.7233C53.2111 33.9041 53.3144 34.1365 53.3144 34.4205C53.3144 35.1951 52.7722 35.5824 51.7136 35.5824C50.5516 35.5824 49.8803 35.1176 49.6996 34.2398H48.1762C48.2278 35.0144 48.5377 35.634 49.1057 36.073C49.6996 36.5377 50.5 36.7701 51.5586 36.7701C52.6173 36.7701 53.4177 36.5377 53.9857 36.073C54.5538 35.6082 54.8378 35.0144 54.8378 34.2139C54.8378 33.7492 54.7087 33.336 54.4763 33.0262C54.2698 32.7164 53.9857 32.484 53.6243 32.3549Z" fill="black"/>
<path d="M120.241 32.3549C119.88 32.2 119.466 32.0709 119.027 31.9676C118.589 31.8643 118.201 31.761 117.814 31.6835C117.427 31.6061 117.091 31.477 116.833 31.3221C116.549 31.1413 116.42 30.8831 116.42 30.5991C116.42 29.8761 116.936 29.5405 117.943 29.5405C119.002 29.5405 119.596 29.9536 119.699 30.7282H121.171C121.119 30.0052 120.835 29.4114 120.344 28.9982C119.802 28.5593 119.053 28.3269 118.098 28.3269C117.065 28.3269 116.291 28.5335 115.748 28.9466C115.206 29.3597 114.948 29.9278 114.948 30.7024C114.948 31.1413 115.025 31.5028 115.206 31.8126C115.387 32.0967 115.593 32.3291 115.877 32.484C116.161 32.6389 116.471 32.768 116.833 32.8713C117.194 32.9746 117.556 33.052 117.891 33.1295C118.253 33.2069 118.563 33.2586 118.873 33.336C119.182 33.4135 119.441 33.5426 119.621 33.7233C119.828 33.9041 119.931 34.1365 119.931 34.4205C119.931 35.1951 119.389 35.5824 118.33 35.5824C117.168 35.5824 116.497 35.1176 116.316 34.2398H114.793C114.845 35.0144 115.154 35.634 115.722 36.073C116.316 36.5377 117.117 36.7701 118.175 36.7701C119.234 36.7701 120.034 36.5377 120.602 36.073C121.171 35.6082 121.455 35.0144 121.455 34.2139C121.455 33.7492 121.325 33.336 121.093 33.0262C120.887 32.7164 120.603 32.484 120.241 32.3549Z" fill="black"/>
</svg>
