<svg width="70" height="70" viewBox="0 0 70 70" fill="none" xmlns="http://www.w3.org/2000/svg">
<path d="M69.9996 1.42994C69.9994 1.39891 69.9972 1.36774 69.9948 1.3367C69.9937 1.32002 69.9931 1.30307 69.9914 1.28653C69.9883 1.25686 69.9829 1.22733 69.9779 1.1978C69.9749 1.18016 69.9727 1.16225 69.9691 1.14489C69.9637 1.11918 69.9563 1.09375 69.9494 1.06819C69.944 1.04768 69.9392 1.02676 69.9329 1.00653C69.9262 0.985881 69.9179 0.96551 69.9103 0.945002C69.9015 0.920803 69.893 0.896194 69.8827 0.872541C69.8755 0.855862 69.8667 0.839455 69.8588 0.822912C69.8461 0.796389 69.8335 0.769592 69.8194 0.744025C69.8111 0.72885 69.8012 0.714357 69.7924 0.699455C69.7766 0.673342 69.7609 0.647365 69.7435 0.622345C69.7409 0.618654 69.7389 0.614552 69.7362 0.610861C69.7273 0.598146 69.7172 0.587072 69.7079 0.574767C69.6915 0.553029 69.675 0.53129 69.6575 0.510509C69.6421 0.492189 69.6258 0.474962 69.6094 0.457736C69.594 0.441329 69.5788 0.424786 69.5627 0.409064C69.5438 0.390606 69.524 0.373243 69.5043 0.356017C69.4891 0.342755 69.4739 0.32963 69.4584 0.316915C69.4376 0.300235 69.4162 0.284649 69.3945 0.2692C69.3778 0.257169 69.361 0.245411 69.3436 0.2342C69.3229 0.220665 69.3017 0.208086 69.2802 0.195645C69.2604 0.184161 69.2407 0.172813 69.2203 0.162286C69.2005 0.152032 69.1807 0.142598 69.1604 0.133438C69.1373 0.122774 69.1141 0.11252 69.0904 0.102949C69.0718 0.0955666 69.0531 0.0890042 69.0342 0.0824416C69.0087 0.0735549 68.9831 0.0648049 68.9569 0.0572853C68.938 0.0518166 68.9189 0.0473048 68.8998 0.0425197C68.8739 0.0362306 68.848 0.0300782 68.8215 0.0251563C68.7998 0.0210547 68.7778 0.0181836 68.7559 0.0151758C68.7321 0.0118946 68.7084 0.00833989 68.6841 0.00642582C68.6572 0.00396488 68.63 0.00328129 68.6029 0.00232425C68.5874 0.00191409 68.5724 0 68.5568 0H1.44348C1.42885 0 1.41463 0.00177735 1.40014 0.00218751C1.3717 0.00287111 1.34354 0.00382816 1.31537 0.00642582C1.29227 0.00847661 1.26957 0.0117579 1.24701 0.0149024C1.22377 0.0177735 1.2008 0.0210547 1.17783 0.0251563C1.15241 0.0299415 1.12766 0.0358204 1.10264 0.041836C1.0824 0.0467579 1.06244 0.0515431 1.04248 0.0572853C1.01733 0.0645314 0.992717 0.073008 0.967971 0.0814846C0.948283 0.0884573 0.928459 0.0952932 0.908908 0.103086C0.88594 0.112383 0.863791 0.122227 0.841369 0.132481C0.820451 0.142051 0.79967 0.151758 0.779162 0.162422C0.759748 0.17254 0.740744 0.18334 0.721603 0.194415C0.699318 0.207266 0.677443 0.220391 0.655978 0.234337C0.639435 0.245274 0.623302 0.256622 0.607169 0.268106C0.585021 0.283966 0.563009 0.299962 0.541681 0.317188C0.526505 0.32922 0.511739 0.342208 0.497111 0.354923C0.476876 0.37256 0.456778 0.390333 0.437501 0.409064C0.421642 0.424513 0.406739 0.440646 0.391563 0.456915C0.375157 0.474552 0.358614 0.492052 0.342891 0.510509C0.325528 0.531017 0.309122 0.552755 0.292852 0.574357C0.283419 0.586662 0.273301 0.597873 0.264415 0.610587C0.26168 0.614279 0.25963 0.61838 0.257032 0.622072C0.239669 0.647092 0.223946 0.673068 0.208223 0.699181C0.199336 0.714084 0.189493 0.728713 0.181153 0.743889C0.166797 0.769455 0.154493 0.795979 0.141914 0.822502C0.133985 0.839182 0.124961 0.855588 0.117715 0.872541C0.107598 0.896057 0.0992581 0.920256 0.090508 0.944456C0.0828518 0.9651 0.0743752 0.985745 0.0676759 1.00666C0.0613869 1.02662 0.0567384 1.04727 0.0512697 1.0675C0.044297 1.09321 0.0367774 1.11891 0.0313087 1.14489C0.027754 1.16225 0.0255665 1.17975 0.0225586 1.19725C0.0175 1.22692 0.012168 1.25659 0.00902346 1.28639C0.00724611 1.3028 0.00669924 1.31975 0.00560548 1.33643C0.00328126 1.3676 0.00109375 1.39864 0.000820314 1.42981C0.000683595 1.43446 0 1.43856 0 1.44307V38.1497C0 38.1973 0.00246094 38.245 0.00724611 38.2924C0.0092969 38.3135 0.0132618 38.3341 0.0161329 38.3549C0.0196875 38.3806 0.0228321 38.4064 0.0280274 38.432C0.0328126 38.4561 0.0393751 38.4793 0.0453907 38.503C0.0508595 38.5251 0.0557814 38.5471 0.0622072 38.5689C0.0693166 38.5921 0.0779299 38.6144 0.0859963 38.637C0.0937893 38.6587 0.101035 38.6807 0.109785 38.7022C0.118399 38.7232 0.128653 38.7435 0.138496 38.764C0.148887 38.7863 0.158868 38.8085 0.170352 38.8303C0.180743 38.8498 0.192774 38.8683 0.203985 38.8871C0.216836 38.9086 0.229004 38.9305 0.24295 38.9514C0.256622 38.9718 0.271798 38.9909 0.286563 39.0106C0.300098 39.0287 0.312677 39.0472 0.327169 39.0649C0.354513 39.0981 0.383497 39.1298 0.413575 39.1604C0.41672 39.1636 0.419317 39.1673 0.422462 39.1704C0.425606 39.1736 0.429298 39.1763 0.432579 39.1796C0.463204 39.2097 0.494786 39.2387 0.528009 39.2657C0.545919 39.2805 0.56465 39.2932 0.58297 39.3069C0.602248 39.3214 0.621252 39.3363 0.641212 39.3498C0.662404 39.3639 0.684416 39.3762 0.706017 39.3892C0.724748 39.4003 0.743068 39.4122 0.762482 39.4225C0.784221 39.4343 0.806779 39.4441 0.829064 39.4545C0.849572 39.4642 0.86967 39.4744 0.890588 39.4831C0.91219 39.492 0.934201 39.4992 0.956077 39.507C0.978635 39.5151 1.00078 39.5237 1.02389 39.5307C1.04563 39.5374 1.06791 39.542 1.08992 39.5478C1.11344 39.5537 1.13682 39.5604 1.16074 39.5651C1.18604 39.5702 1.2116 39.5731 1.2369 39.5769C1.25809 39.5799 1.27887 39.584 1.3002 39.5859C1.3475 39.5906 1.39508 39.5932 1.44266 39.5932H68.5563C68.6037 39.5932 68.6514 39.5907 68.6987 39.5859C68.7203 39.5837 68.7413 39.5798 68.7627 39.5766C68.788 39.5731 68.8132 39.5699 68.8382 39.5651C68.8627 39.5602 68.8866 39.5537 68.9107 39.5474C68.9321 39.5419 68.9539 39.5372 68.9751 39.5308C68.9988 39.5236 69.0219 39.5147 69.0452 39.5062C69.0662 39.4987 69.0874 39.4917 69.1082 39.4831C69.1304 39.4741 69.1514 39.4633 69.1727 39.453C69.1939 39.4431 69.2153 39.4335 69.236 39.4225C69.2568 39.4115 69.2765 39.3989 69.2965 39.3867C69.3168 39.3745 69.3373 39.3631 69.357 39.3499C69.3791 39.3352 69.4 39.3188 69.4213 39.3028C69.4377 39.2903 69.4547 39.279 69.4707 39.2659C69.5442 39.2054 69.6117 39.138 69.6723 39.0642C69.6856 39.0481 69.6972 39.031 69.7095 39.0143C69.7252 38.9932 69.7415 38.9726 69.7563 38.9506C69.7697 38.9306 69.7813 38.9098 69.7934 38.8893C69.8055 38.8694 69.8178 38.85 69.8289 38.8295C69.8401 38.8085 69.8495 38.7871 69.8596 38.7656C69.8697 38.7443 69.8803 38.7234 69.8893 38.7015C69.8979 38.6806 69.9049 38.6592 69.9125 38.638C69.9209 38.6149 69.9298 38.592 69.9369 38.5683C69.9433 38.547 69.9481 38.5251 69.9534 38.5035C69.9594 38.4796 69.9663 38.4558 69.971 38.4313C69.976 38.4063 69.9788 38.3813 69.9825 38.3561C69.9855 38.3347 69.9898 38.3136 69.9918 38.2917C69.9965 38.2444 69.9991 38.1969 69.9991 38.1494V1.44307H69.9998C70.0003 1.43856 69.9998 1.43446 69.9996 1.42994ZM64.01 2.88628L35.0008 23.3662L23.9617 15.5742C23.8579 15.4761 23.7435 15.3957 23.6216 15.3341L5.99021 2.88628H64.01ZM2.88669 4.22872L20.7276 16.8244L2.88669 34.6653V4.22872ZM4.9279 36.7065L23.1207 18.5137L34.1687 26.3121C34.4182 26.4882 34.7097 26.5763 35.001 26.5763C35.2924 26.5763 35.584 26.4882 35.8335 26.312L46.8806 18.513L65.0728 36.7065H4.9279ZM67.1138 34.6653L49.2733 16.8236L67.1138 4.22872V34.6653Z" fill="#012A2F"/>
<path d="M43.6491 44.304C42.852 44.304 42.2059 44.9501 42.2059 45.7472V56.7897C42.2059 57.5868 42.852 58.2329 43.6491 58.2329C44.4461 58.2329 45.0924 57.5868 45.0924 56.7897V45.7472C45.0923 44.9501 44.4461 44.304 43.6491 44.304Z" fill="#012A2F"/>
<path d="M35.0009 44.304C34.2038 44.304 33.5577 44.9501 33.5577 45.7472V67.8336C33.5577 68.6307 34.2038 69.2768 35.0009 69.2768C35.798 69.2768 36.4442 68.6307 36.4442 67.8336V45.7472C36.4442 44.9501 35.7981 44.304 35.0009 44.304Z" fill="#012A2F"/>
<path d="M26.3514 44.304C25.5543 44.304 24.908 44.9501 24.908 45.7472V56.7897C24.908 57.5868 25.5542 58.2329 26.3514 58.2329C27.1484 58.2329 27.7946 57.5868 27.7946 56.7897V45.7472C27.7947 44.9501 27.1486 44.304 26.3514 44.304Z" fill="#012A2F"/>
<path d="M46.5862 30.9334H36.0509C35.2538 30.9334 34.6077 31.5795 34.6077 32.3767C34.6077 33.1738 35.2538 33.8199 36.0509 33.8199H46.5862C47.3833 33.8199 48.0294 33.1738 48.0294 32.3767C48.0295 31.5796 47.3834 30.9334 46.5862 30.9334Z" fill="#012A2F"/>
<path d="M52.0558 30.9334C50.1985 30.9334 50.1955 33.8199 52.0558 33.8199C53.9131 33.8199 53.9164 30.9334 52.0558 30.9334Z" fill="#012A2F"/>
</svg>
